<svg id="Layer_1" data-name="Layer 1" xmlns="http://www.w3.org/2000/svg" viewBox="0 0 555.22 313.69"><defs><style>.cls-1,.cls-10,.cls-11,.cls-12,.cls-13,.cls-15,.cls-18,.cls-2,.cls-24,.cls-3,.cls-30,.cls-7,.cls-8,.cls-9{fill:none;}.cls-1,.cls-18,.cls-2,.cls-3,.cls-30{stroke:#231f20;}.cls-1,.cls-10,.cls-11,.cls-13,.cls-15,.cls-18,.cls-2,.cls-24,.cls-3,.cls-30,.cls-31,.cls-8{stroke-miterlimit:10;}.cls-1,.cls-15,.cls-18,.cls-2,.cls-3{stroke-width:0.5px;}.cls-2{stroke-dasharray:1.99 1.99;}.cls-3{stroke-dasharray:1.99 1.99;}.cls-4{font-size:10px;}.cls-16,.cls-17,.cls-19,.cls-20,.cls-25,.cls-27,.cls-31,.cls-4{fill:#231f20;}.cls-20,.cls-25,.cls-26,.cls-4,.cls-6{font-family:ArialMT, Arial;}.cls-5{font-family:Arial-ItalicMT, Arial;font-style:italic;}.cls-6{font-style:normal;}.cls-12,.cls-7{stroke:#662d91;}.cls-11,.cls-12,.cls-13,.cls-7,.cls-9{stroke-linecap:round;}.cls-12,.cls-7,.cls-9{stroke-linejoin:round;}.cls-8{stroke:#000;}.cls-24,.cls-30,.cls-8{stroke-width:0.25px;}.cls-9{stroke:#89bb85;}.cls-10,.cls-11{stroke:#00addc;}.cls-11,.cls-13{stroke-width:2px;}.cls-12{stroke-width:0.75px;}.cls-13{stroke:#29aae2;}.cls-14{fill:#662f90;}.cls-15,.cls-31{stroke:#fff;}.cls-17{font-size:12px;font-family:Arial-BoldMT, Arial;font-weight:700;}.cls-18{stroke-dasharray:2.02 2.02;}.cls-19,.cls-20,.cls-22,.cls-26{font-size:8px;}.cls-19,.cls-22,.cls-23{font-family:FantasqueSansMonoNerdFontComplete-Regular, FantasqueSansMono Nerd Font;}.cls-21{fill:gray;}.cls-22,.cls-23{fill:#fff;}.cls-23,.cls-25,.cls-27{font-size:6px;}.cls-24{stroke:#191919;}.cls-26{fill:#666766;}.cls-27{font-family:Courier;}.cls-28{letter-spacing:-0.11em;}.cls-29{letter-spacing:-0.06em;}.cls-31{font-size:17px;stroke-width:0.1px;font-family:Symbol;}</style></defs><title>figure1</title><polyline class="cls-1" points="360.07 115.6 360.07 116.6 359.07 116.6"/><line class="cls-2" x1="357.08" y1="116.6" x2="3.65" y2="116.6"/><polyline class="cls-1" points="2.66 116.6 1.66 116.6 1.66 115.6"/><line class="cls-3" x1="1.66" y1="113.62" x2="1.66" y2="3.38"/><polyline class="cls-1" points="1.66 2.38 1.66 1.39 2.66 1.39"/><line class="cls-2" x1="4.65" y1="1.38" x2="358.08" y2="1.38"/><polyline class="cls-1" points="359.07 1.39 360.07 1.39 360.07 2.38"/><line class="cls-3" x1="360.07" y1="4.37" x2="360.07" y2="114.61"/><text class="cls-4" transform="translate(4 58.01)">RNA-seq <tspan x="0" y="12">reads</tspan></text><text class="cls-4" transform="translate(52.54 58.01)">Translated <tspan x="0" y="12">protein </tspan><tspan x="0" y="24">sequence</tspan></text><text class="cls-4" transform="translate(175.21 58.01)">Random <tspan x="0" y="12">amino acid </tspan><tspan class="cls-5"><tspan x="0" y="24">k</tspan><tspan class="cls-6" x="5" y="24">-mers</tspan></tspan></text><line class="cls-7" x1="67.05" y1="44.43" x2="86.39" y2="44.43"/><line class="cls-7" x1="67.05" y1="35.65" x2="86.39" y2="35.65"/><line class="cls-7" x1="67.05" y1="29.8" x2="86.39" y2="29.8"/><line class="cls-7" x1="67.05" y1="26.87" x2="86.39" y2="26.87"/><line class="cls-7" x1="67.05" y1="23.94" x2="86.39" y2="23.94"/><line class="cls-7" x1="67.05" y1="21.02" x2="86.39" y2="21.02"/><line class="cls-7" x1="67.05" y1="18.09" x2="86.39" y2="18.09"/><line class="cls-7" x1="67.05" y1="38.57" x2="86.39" y2="38.57"/><line class="cls-7" x1="67.05" y1="41.5" x2="86.39" y2="41.5"/><line class="cls-7" x1="67.05" y1="32.72" x2="86.39" y2="32.72"/><line class="cls-8" x1="191.12" y1="44.43" x2="210.45" y2="44.43"/><line class="cls-8" x1="191.12" y1="35.65" x2="210.45" y2="35.65"/><line class="cls-8" x1="191.12" y1="29.8" x2="210.45" y2="29.8"/><line class="cls-8" x1="191.12" y1="26.87" x2="210.45" y2="26.87"/><line class="cls-8" x1="191.12" y1="23.94" x2="210.45" y2="23.94"/><line class="cls-8" x1="191.12" y1="21.02" x2="210.45" y2="21.02"/><line class="cls-8" x1="191.12" y1="18.09" x2="210.45" y2="18.09"/><line class="cls-8" x1="191.12" y1="38.57" x2="210.45" y2="38.57"/><line class="cls-8" x1="191.12" y1="41.5" x2="210.45" y2="41.5"/><line class="cls-8" x1="191.12" y1="32.72" x2="210.45" y2="32.72"/><line class="cls-9" x1="194.12" y1="44.43" x2="200.12" y2="44.43"/><line class="cls-9" x1="191.12" y1="35.65" x2="197.12" y2="35.65"/><line class="cls-9" x1="201.12" y1="29.8" x2="207.12" y2="29.8"/><line class="cls-9" x1="194.12" y1="26.87" x2="200.12" y2="26.87"/><line class="cls-9" x1="197.12" y1="23.94" x2="203.12" y2="23.94"/><line class="cls-9" x1="193.12" y1="21.02" x2="199.12" y2="21.02"/><line class="cls-9" x1="203.12" y1="18.09" x2="209.12" y2="18.09"/><line class="cls-9" x1="197.12" y1="38.57" x2="203.12" y2="38.57"/><line class="cls-9" x1="202.12" y1="41.5" x2="208.12" y2="41.5"/><line class="cls-9" x1="204.12" y1="32.72" x2="210.12" y2="32.72"/><line class="cls-9" x1="200.75" y1="35.65" x2="206.75" y2="35.65"/><line class="cls-9" x1="194.63" y1="32.72" x2="200.63" y2="32.72"/><text class="cls-4" transform="translate(311.38 58.01)">Cluster on <tspan class="cls-5"><tspan x="0" y="12">k</tspan><tspan class="cls-6" x="5" y="12">-mer </tspan></tspan><tspan x="0" y="24">similarity</tspan></text><path d="M328.17,23.12a.88.88,0,1,1-.88-.88.87.87,0,0,1,.88.88"/><path d="M332,24a.88.88,0,1,1-.87-.88A.87.87,0,0,1,332,24"/><path d="M332,21.36a.88.88,0,1,1-.87-.88.88.88,0,0,1,.87.88"/><path d="M330.08,25.75a.88.88,0,1,1-.88-.88.88.88,0,0,1,.88.88"/><path d="M327.44,24.88a.88.88,0,1,1-.88-.88.87.87,0,0,1,.88.88"/><path d="M330.08,23.12a.88.88,0,1,1-.88-.88.88.88,0,0,1,.88.88"/><path d="M329.05,20.48a.88.88,0,1,1-1.76,0,.88.88,0,0,1,1.76,0"/><path d="M326.56,22.24a.88.88,0,1,1-.87-.88.88.88,0,0,1,.87.88"/><path d="M342.78,23.63a.88.88,0,0,1,0-1.24.89.89,0,0,1,1.25,0,.88.88,0,0,1-1.25,1.24"/><path d="M339.47,25.71a.88.88,0,0,1,1.24-1.24.88.88,0,1,1-1.24,1.24"/><path d="M341.33,27.57a.88.88,0,0,1,1.24-1.24.88.88,0,0,1-1.24,1.24"/><path d="M339.57,23.12a.88.88,0,0,1,0-1.24.88.88,0,0,1,1.24,1.24.88.88,0,0,1-1.24,0"/><path d="M342.05,21.87a.88.88,0,0,1,0-1.24.89.89,0,0,1,1.25,0,.88.88,0,0,1,0,1.24.89.89,0,0,1-1.25,0"/><path d="M341.44,25a.86.86,0,0,1,0-1.24A.88.88,0,0,1,342.68,25a.86.86,0,0,1-1.24,0"/><path d="M343,26.12a.88.88,0,0,1,1.24-1.24A.88.88,0,0,1,343,26.12"/><path d="M344.54,23.12a.88.88,0,0,1,0-1.24.88.88,0,0,1,1.24,1.24.88.88,0,0,1-1.24,0"/><path d="M334.25,31A.88.88,0,0,1,336,31a.88.88,0,0,1-1.76,0"/><path d="M330.43,30.12a.88.88,0,1,1,.88.88.88.88,0,0,1-.88-.88"/><path d="M330.43,32.75a.88.88,0,1,1,.88.88.88.88,0,0,1-.88-.88"/><path d="M332.34,28.36a.88.88,0,1,1,1.76,0,.88.88,0,1,1-1.76,0"/><path d="M335,29.23a.88.88,0,1,1,.88.88.87.87,0,0,1-.88-.88"/><path d="M332.34,31a.88.88,0,1,1,.88.88.88.88,0,0,1-.88-.88"/><path d="M333.37,33.63a.88.88,0,1,1,.88.88.88.88,0,0,1-.88-.88"/><path d="M335.86,31.88a.88.88,0,1,1,.87.87.87.87,0,0,1-.87-.87"/><path d="M337,30.12a.88.88,0,0,1,1.76,0,.88.88,0,1,1-1.76,0"/><path d="M326.72,37.83A.88.88,0,0,1,328,36.59a.88.88,0,1,1-1.24,1.24"/><path d="M323.4,39.91a.88.88,0,1,1,1.25,0,.89.89,0,0,1-1.25,0"/><path d="M325.27,41.77a.86.86,0,0,1,0-1.24.88.88,0,1,1,0,1.24"/><path d="M323.51,37.32a.89.89,0,0,1,0-1.25.88.88,0,1,1,0,1.25"/><path d="M325.37,39.18a.88.88,0,1,1,1.25,0,.89.89,0,0,1-1.25,0"/><path d="M328,40.32a.88.88,0,1,1,1.25,0,.89.89,0,0,1-1.25,0"/><path d="M328.48,37.32a.89.89,0,0,1,0-1.25.88.88,0,1,1,0,1.25"/><path d="M335.38,42.18a.88.88,0,0,1,0-1.24.89.89,0,0,1,1.25,0,.88.88,0,1,1-1.25,1.24"/><path d="M337.25,44.05a.88.88,0,0,1,1.24-1.25.89.89,0,0,1,0,1.25.88.88,0,0,1-1.24,0"/><path d="M335.49,39.59a.88.88,0,1,1,1.24,0,.86.86,0,0,1-1.24,0"/><path d="M338,38.35a.89.89,0,0,1,0-1.25.88.88,0,1,1,0,1.25"/><path d="M337.35,41.46a.88.88,0,1,1,1.25,0,.89.89,0,0,1-1.25,0"/><path d="M339.94,42.59a.88.88,0,0,1,0-1.24.89.89,0,0,1,1.25,0,.88.88,0,0,1-1.25,1.24"/><path d="M340.46,39.59a.88.88,0,1,1,1.24,0,.86.86,0,0,1-1.24,0"/><circle class="cls-10" cx="342.1" cy="24.08" r="5.87" transform="translate(240.06 351.49) rotate(-76.72)"/><text class="cls-4" transform="translate(378.1 58.01)">k-mers </text><text class="cls-4" transform="translate(378.1 70.01)">enriched </text><text class="cls-4" transform="translate(378.1 82.01)">in clusters</text><line class="cls-11" x1="393.66" y1="44.44" x2="399.66" y2="44.44"/><line class="cls-11" x1="390.66" y1="35.66" x2="396.66" y2="35.66"/><line class="cls-11" x1="402.66" y1="18.11" x2="408.66" y2="18.11"/><line class="cls-11" x1="403.66" y1="32.74" x2="409.66" y2="32.74"/><line class="cls-12" x1="453.24" y1="44.43" x2="472.58" y2="44.43"/><line class="cls-12" x1="453.24" y1="35.65" x2="472.58" y2="35.65"/><line class="cls-12" x1="453.24" y1="29.8" x2="472.58" y2="29.8"/><line class="cls-12" x1="453.24" y1="26.87" x2="472.58" y2="26.87"/><line class="cls-12" x1="453.24" y1="23.94" x2="472.58" y2="23.94"/><line class="cls-12" x1="453.24" y1="21.02" x2="472.58" y2="21.02"/><line class="cls-12" x1="453.24" y1="18.09" x2="472.58" y2="18.09"/><line class="cls-12" x1="453.24" y1="38.57" x2="472.58" y2="38.57"/><line class="cls-12" x1="453.24" y1="41.5" x2="472.58" y2="41.5"/><line class="cls-12" x1="453.24" y1="32.72" x2="472.58" y2="32.72"/><line class="cls-13" x1="456.24" y1="44.43" x2="462.24" y2="44.43"/><line class="cls-13" x1="453.24" y1="35.65" x2="459.24" y2="35.65"/><line class="cls-13" x1="465.24" y1="18.09" x2="471.24" y2="18.09"/><line class="cls-13" x1="466.24" y1="32.72" x2="472.24" y2="32.72"/><text class="cls-4" transform="translate(429.18 58.01)">Get amino </text><text class="cls-4" transform="translate(429.18 70.01)">acid</text><text class="cls-4" transform="translate(447.52 70.01)"> </text><text class="cls-4" transform="translate(450.5 70.01)">sequence </text><text class="cls-4" transform="translate(429.18 82.01)">from reads </text><text class="cls-4" transform="translate(429.18 94.01)">with enriched </text><text class="cls-4" transform="translate(429.18 106.01)">k-mers</text><text class="cls-4" transform="translate(496.51 58.01)">Query NCBI </text><text class="cls-4" transform="translate(496.51 70.01)">RefSeq NR </text><text class="cls-4" transform="translate(496.51 82.01)">for putative </text><text class="cls-4" transform="translate(496.51 94.01)">orthologous </text><text class="cls-4" transform="translate(496.51 106.01)">genes</text><rect class="cls-14" x="515.28" y="20.77" width="19.16" height="20.98"/><path class="cls-14" d="M534.43,20.77c0,.94-4.29,1.71-9.58,1.71s-9.57-.77-9.57-1.71,4.28-1.7,9.57-1.7,9.58.76,9.58,1.7"/><path class="cls-14" d="M534.43,41.75c0,.94-4.29,1.7-9.58,1.7s-9.57-.76-9.57-1.7S519.56,40,524.85,40s9.58.77,9.58,1.71"/><path class="cls-15" d="M534.43,20.77c0,.94-4.29,1.71-9.58,1.71s-9.57-.77-9.57-1.71,4.28-1.7,9.57-1.7S534.43,19.83,534.43,20.77Z"/><polygon class="cls-16" points="40.7 30.57 46.25 30.57 45.64 29.12 50.7 31.26 45.64 33.4 46.25 31.95 40.7 31.95 40.7 30.57"/><polygon class="cls-16" points="164.77 30.57 170.31 30.57 169.7 29.12 174.77 31.26 169.7 33.4 170.31 31.95 164.77 31.95 164.77 30.57"/><polygon class="cls-16" points="296.8 30.57 302.34 30.57 301.73 29.12 306.8 31.26 301.73 33.4 302.34 31.95 296.8 31.95 296.8 30.57"/><polygon class="cls-16" points="364.31 30.57 369.86 30.57 369.24 29.12 374.31 31.26 369.24 33.4 369.86 31.95 364.31 31.95 364.31 30.57"/><polygon class="cls-16" points="426.9 30.57 432.44 30.57 431.83 29.12 436.9 31.26 431.83 33.4 432.44 31.95 426.9 31.95 426.9 30.57"/><polygon class="cls-16" points="488.93 30.57 494.47 30.57 493.86 29.12 498.93 31.26 493.86 33.4 494.47 31.95 488.93 31.95 488.93 30.57"/><text class="cls-17" transform="translate(7.82 12)">A</text><text class="cls-4" transform="translate(113.17 56.8)">Reduced <tspan x="0" y="12">amino acid </tspan><tspan x="0" y="24">alphabet</tspan></text><polygon class="cls-16" points="102.73 30.3 108.28 30.3 107.67 28.86 112.73 31 107.67 33.13 108.28 31.69 102.73 31.69 102.73 30.3"/><line class="cls-9" x1="129.13" y1="43.95" x2="148.46" y2="43.95"/><line class="cls-9" x1="129.13" y1="35.17" x2="148.46" y2="35.17"/><line class="cls-9" x1="129.13" y1="29.32" x2="148.46" y2="29.32"/><line class="cls-9" x1="129.13" y1="26.39" x2="148.46" y2="26.39"/><line class="cls-9" x1="129.13" y1="23.47" x2="148.46" y2="23.47"/><line class="cls-9" x1="129.13" y1="20.54" x2="148.46" y2="20.54"/><line class="cls-9" x1="129.13" y1="17.61" x2="148.46" y2="17.61"/><line class="cls-9" x1="129.13" y1="38.09" x2="148.46" y2="38.09"/><line class="cls-9" x1="129.13" y1="41.02" x2="148.46" y2="41.02"/><line class="cls-9" x1="129.13" y1="32.24" x2="148.46" y2="32.24"/><polyline class="cls-1" points="553.19 115.65 553.19 116.65 552.19 116.65"/><line class="cls-18" x1="550.17" y1="116.65" x2="425.89" y2="116.65"/><polyline class="cls-1" points="424.88 116.65 423.88 116.65 423.88 115.65"/><line class="cls-3" x1="423.88" y1="113.66" x2="423.88" y2="3.42"/><polyline class="cls-1" points="423.88 2.43 423.88 1.43 424.88 1.43"/><line class="cls-18" x1="426.9" y1="1.43" x2="551.18" y2="1.43"/><polyline class="cls-1" points="552.19 1.43 553.19 1.43 553.19 2.43"/><line class="cls-3" x1="553.19" y1="4.42" x2="553.19" y2="114.66"/><text class="cls-19" transform="translate(291.87 9.18)">nf-core/kmermaid</text><text class="cls-19" transform="translate(425.61 9.18)">czbiohub/nf-predictorthologs</text><text class="cls-20" transform="translate(374.94 111.62)">Manual</text><rect class="cls-21" x="11.33" y="16.04" width="21.3" height="9" rx="4.02"/><text class="cls-22" transform="translate(12.38 22.73)">.bam</text><text class="cls-22" transform="translate(12.38 22.73)">.bam</text><rect class="cls-21" x="11.33" y="31.15" width="21.3" height="9" rx="4.02"/><text class="cls-23" transform="translate(12.66 37.48)">.fq.gz</text><polygon class="cls-16" points="219.64 30.3 225.19 30.3 224.57 28.86 229.64 31 224.57 33.13 225.19 31.69 219.64 31.69 219.64 30.3"/><text class="cls-4" transform="translate(244.09 58.01)">Build k-mer <tspan x="0" y="12">tree, nearest </tspan><tspan x="0" y="24">neighbor </tspan><tspan x="0" y="36">graph, for </tspan><tspan x="0" y="48">UMAP</tspan></text><polyline class="cls-24" points="263.09 13.27 256.2 6.38 249.06 13.53"/><polyline class="cls-24" points="271.52 21.45 264.63 14.57 257.49 21.71"/><polyline class="cls-24" points="255.47 21.77 248.59 14.88 241.44 22.02"/><text class="cls-25" transform="translate(234.66 28.3)">Cell1</text><text class="cls-25" transform="translate(249.06 28.3)">Cell2</text><text class="cls-25" transform="translate(263.09 28.86)">Cell3</text><text class="cls-25" transform="translate(278.29 28.3)">Cell4</text><text class="cls-25" transform="translate(31.8 107.32)">Lorem ipsum</text><text class="cls-26" transform="translate(11.33 158.39) rotate(-90)">Species1</text><text class="cls-26" transform="translate(11.33 205.74) rotate(-90)">Species2</text><text class="cls-26" transform="translate(11.33 253.1) rotate(-90)">Species3</text><text class="cls-26" transform="translate(11.33 300.46) rotate(-90)">Species4</text><text class="cls-20" transform="translate(52.54 309.33)">... many samples from each species ...</text><text class="cls-27" transform="translate(41.4 178.43)">CTGACA...AGGCTG<tspan x="0" y="7.2">GTAACA...AAGCTG</tspan><tspan x="0" y="14.4">TGGATT...TTTGTC</tspan></text><text class="cls-27" transform="translate(108.08 178.43)">QPGAVTGSATVTAFWHSLLGCCQ<tspan x="0" y="7.2">SFAVHTHRENPAQPGAVTGSATV</tspan></text><text class="cls-25" transform="translate(199.54 178.43)">not in genome, BLAS<tspan class="cls-28" x="56.7" y="0">T</tspan><tspan x="59.7" y="0">s to L-aspartate dehydrogenase</tspan><tspan x="0" y="7.2">in genome,</tspan><tspan class="cls-29" x="29.69" y="7.2"> </tspan><tspan x="31.02" y="7.2">ASPDH</tspan><tspan x="0" y="14.4">Negative strand: Human Corf66</tspan><tspan x="0" y="21.6">Positive strand: Human MACROH2A1</tspan></text><text class="cls-20" transform="translate(20.66 205.74) rotate(-90)">Macaque</text><text class="cls-27" transform="translate(108.08 193.16)">DFSFLSSARAKQFFTVFSRSSSHL<tspan x="0" y="7.2">DKCEELLEKTVKNCLALADDRKLKS</tspan></text><line class="cls-30" x1="95.09" y1="171.78" x2="104.72" y2="171.78"/><line class="cls-30" x1="96.99" y1="184.08" x2="106.62" y2="184.08"/><line class="cls-30" x1="97.55" y1="190.77" x2="107.18" y2="190.77"/><line class="cls-30" x1="97.55" y1="193.41" x2="107.18" y2="198.97"/><text class="cls-20" transform="translate(21.98 154.83) rotate(-90)">Human</text><text class="cls-20" transform="translate(20.8 300.46) rotate(-90)">Chicken</text><text class="cls-20" transform="translate(20.8 254.9) rotate(-90)">Opossum</text><text class="cls-20" transform="translate(32.25 196.33) rotate(-90)">Sample1</text><text class="cls-31" transform="translate(33.16 188.53)">{</text><text class="cls-20" transform="translate(34.54 204.7)">... more samples ...</text><text class="cls-20" transform="translate(32.63 154.83)">... more samples ...</text><text class="cls-20" transform="translate(29.69 152.95) rotate(-90)">Sample1</text><text class="cls-31" transform="translate(30.6 145.15)">{</text><text class="cls-27" transform="translate(116.36 221.87)">RRCRKFPPEGRPTDPGSEGXXXAEV</text></svg>