<?xml version="1.0" encoding="utf-8"?>
<!-- Generator: Adobe Illustrator 22.1.0, SVG Export Plug-In . SVG Version: 6.00 Build 0)  -->
<svg version="1.1" id="Layer_1" xmlns="http://www.w3.org/2000/svg" xmlns:xlink="http://www.w3.org/1999/xlink" x="0px" y="0px"
	 viewBox="0 0 554.4 152.4" style="enable-background:new 0 0 554.4 152.4;" xml:space="preserve">
<style type="text/css">
	.st0{fill:#E6E7E8;stroke:#000000;stroke-miterlimit:10;}
	.st1{font-family:'Helvetica-Light';}
	.st2{font-size:12px;}
	.st3{font-family:'Helvetica-Bold';}
</style>
<g>
	<rect x="0.5" y="14.6" class="st0" width="172.6" height="137.2"/>
	<text transform="matrix(1 0 0 1 44.7715 71.8383)"><tspan x="0" y="0" class="st1 st2">K-merization of  </tspan><tspan x="8.7" y="14.4" class="st1 st2">orthologues  </tspan><tspan x="18.3" y="28.8" class="st1 st2">overview</tspan></text>
</g>
<g>
	<rect x="194.3" y="14.7" class="st0" width="172.6" height="137.2"/>
	<text transform="matrix(1 0 0 1 231.5841 79.1418)"><tspan x="0" y="0" class="st1 st2">Example Dayhoff,  </tspan><tspan x="11" y="14.4" class="st1 st2">HP encodings</tspan></text>
</g>
<g>
	<rect x="381.4" y="14.7" class="st0" width="172.6" height="137.2"/>
	<text transform="matrix(1 0 0 1 417.9675 71.9415)"><tspan x="0" y="0" class="st1 st2">K-mer similarity of  </tspan><tspan x="-6.7" y="14.4" class="st1 st2">orthologous genes in </tspan><tspan x="-6.7" y="28.8" class="st1 st2">Brawan2011 species</tspan></text>
</g>
<text transform="matrix(1 0 0 1 4.2902 10.3185)" class="st3 st2">A</text>
<text transform="matrix(1 0 0 1 198.166 10.3187)" class="st3 st2">B</text>
<text transform="matrix(1 0 0 1 384.2529 10.3183)" class="st3 st2">C</text>
</svg>
