<?xml version="1.0" encoding="utf-8"?>
<!-- Generator: Adobe Illustrator 22.1.0, SVG Export Plug-In . SVG Version: 6.00 Build 0)  -->
<svg version="1.1" id="Layer_1" xmlns="http://www.w3.org/2000/svg" xmlns:xlink="http://www.w3.org/1999/xlink" x="0px" y="0px"
	 viewBox="0 0 612 792" style="enable-background:new 0 0 612 792;" xml:space="preserve">
<style type="text/css">
	.st0{font-family:'Helvetica-Bold';}
	.st1{font-size:18px;}
	.st2{fill:#E6E7E8;stroke:#000000;stroke-miterlimit:10;}
	.st3{font-family:'Helvetica-Light';}
	.st4{font-size:12px;}
</style>
<text transform="matrix(1 0 0 1 32.062 30.0972)" class="st0 st1">Figure 1</text>
<g>
	<rect x="40.9" y="52.5" class="st2" width="172.6" height="137.2"/>
	<text transform="matrix(1 0 0 1 85.1831 109.7177)"><tspan x="0" y="0" class="st3 st4">K-merization of  </tspan><tspan x="8.7" y="14.4" class="st3 st4">orthologues  </tspan><tspan x="18.3" y="28.8" class="st3 st4">overview</tspan></text>
</g>
<g>
	<rect x="234.7" y="52.6" class="st2" width="172.6" height="137.2"/>
	<text transform="matrix(1 0 0 1 271.9957 117.0212)"><tspan x="0" y="0" class="st3 st4">Example Dayhoff,  </tspan><tspan x="11" y="14.4" class="st3 st4">HP encodings</tspan></text>
</g>
<g>
	<rect x="421.8" y="52.6" class="st2" width="172.6" height="137.2"/>
	<text transform="matrix(1 0 0 1 458.379 109.8209)"><tspan x="0" y="0" class="st3 st4">K-mer similarity of  </tspan><tspan x="-6.7" y="14.4" class="st3 st4">orthologous genes in </tspan><tspan x="-6.7" y="28.8" class="st3 st4">Brawan2011 species</tspan></text>
</g>
<text transform="matrix(1 0 0 1 44.7018 48.1979)" class="st0 st4">A</text>
<text transform="matrix(1 0 0 1 238.5775 48.198)" class="st0 st4">B</text>
<text transform="matrix(1 0 0 1 424.6645 48.1977)" class="st0 st4">C</text>
</svg>
