<?xml version="1.0" encoding="utf-8"?>
<!-- Generator: Adobe Illustrator 22.1.0, SVG Export Plug-In . SVG Version: 6.00 Build 0)  -->
<svg version="1.1" id="Layer_1" xmlns="http://www.w3.org/2000/svg" xmlns:xlink="http://www.w3.org/1999/xlink" x="0px" y="0px"
	 viewBox="0 0 367.6 429" style="enable-background:new 0 0 367.6 429;" xml:space="preserve">
<style type="text/css">
	.st0{fill:#E6E7E8;stroke:#000000;stroke-miterlimit:10;}
	.st1{font-family:'Helvetica-Bold';}
	.st2{font-size:12px;}
	.st3{fill:none;}
	.st4{font-family:'Helvetica-Light';}
</style>
<g>
	<rect x="391.2" y="-58.3" class="st0" width="363.2" height="137.2"/>
	<text transform="matrix(1 0 0 1 442.3979 -4.3303)" class="st4 st2">Extract coding sequence using human proteins,  </text>
	<text transform="matrix(1 0 0 1 449.6979 10.0697)" class="st4 st2">k-merize coding sequence and minhash, com </text>
	<text transform="matrix(1 0 0 1 471.7979 24.4697)" class="st4 st2">pare samples/cells across minhashes</text>
</g>
<text transform="matrix(1 0 0 1 5.7568 10.3185)" class="st1 st2">A</text>
<text transform="matrix(1 0 0 1 0.5001 161.2095)" class="st1 st2">B</text>
<text transform="matrix(1 0 0 1 5.304 303.3095)" class="st1 st2">C</text>
<g id="ZY0Snd.tif">
	
		<image style="overflow:visible;enable-background:new    ;" width="1880" height="693" id="Layer_0_1_" xlink:href="D0AC1F3D50732ED1.png"  transform="matrix(0.1913 0 0 0.1913 3.9601 18.708)">
	</image>
</g>
<g id="HbhbUE.tif">
	
		<image style="overflow:visible;enable-background:new    ;" width="488" height="323" id="Layer_0_2_" xlink:href="D0AC1F3D50732ED6.png"  transform="matrix(0.3543 0 0 0.3543 3.4508 314.6012)">
	</image>
</g>
<g>
	<rect x="50.9" y="329.8" class="st0" width="98" height="54"/>
	<rect x="59.1" y="336" class="st3" width="81.7" height="41.5"/>
	<text transform="matrix(1 0 0 1 81.5571 346.3542)" class="st4 st2">Use all </text>
	<text transform="matrix(1 0 0 1 62.5571 360.7542)" class="st4 st2">Brawand2011 </text>
	<text transform="matrix(1 0 0 1 78.8571 375.1542)" class="st4 st2">species</text>
</g>
<g id="bCHLjY.tif">
	
		<image style="overflow:visible;" width="716" height="247" id="Layer_0_3_" xlink:href="D0AC1F3D50732ED5.png"  transform="matrix(0.5028 0 0 0.5028 3.7821 162.1145)">
	</image>
</g>
</svg>
