<?xml version="1.0" encoding="utf-8"?>
<!-- Generator: Adobe Illustrator 22.1.0, SVG Export Plug-In . SVG Version: 6.00 Build 0)  -->
<svg version="1.1" id="Layer_1" xmlns="http://www.w3.org/2000/svg" xmlns:xlink="http://www.w3.org/1999/xlink" x="0px" y="0px"
	 viewBox="0 0 367.1 483.6" style="enable-background:new 0 0 367.1 483.6;" xml:space="preserve">
<style type="text/css">
	.st0{fill:#E6E7E7;stroke:#010101;stroke-miterlimit:10;}
	.st1{fill:#010101;}
	.st2{font-family:'Helvetica-Bold';}
	.st3{font-size:12px;}
	.st4{enable-background:new    ;}
	.st5{clip-path:url(#SVGID_2_);fill:#FFFFFF;}
	.st6{clip-path:url(#SVGID_2_);}
	.st7{clip-path:url(#SVGID_2_);fill:none;stroke:#000000;stroke-width:0.8;stroke-linecap:square;stroke-miterlimit:10;}
	.st8{clip-path:url(#SVGID_2_);fill:#2278B5;}
	.st9{clip-path:url(#SVGID_2_);fill:none;stroke:#2278B5;stroke-linejoin:round;stroke-miterlimit:10;}
	.st10{clip-path:url(#SVGID_2_);fill:#F57F20;}
	.st11{clip-path:url(#SVGID_2_);fill:none;stroke:#F57F20;stroke-linejoin:round;stroke-miterlimit:10;}
	.st12{clip-path:url(#SVGID_2_);fill:#279E69;}
	.st13{clip-path:url(#SVGID_2_);fill:none;stroke:#279E69;stroke-linejoin:round;stroke-miterlimit:10;}
	.st14{clip-path:url(#SVGID_2_);fill:#D62A28;}
	.st15{clip-path:url(#SVGID_2_);fill:none;stroke:#D62A28;stroke-linejoin:round;stroke-miterlimit:10;}
	.st16{clip-path:url(#SVGID_2_);fill:#855AA5;}
	.st17{clip-path:url(#SVGID_2_);fill:none;stroke:#855AA5;stroke-linejoin:round;stroke-miterlimit:10;}
	.st18{clip-path:url(#SVGID_2_);fill:#8D574C;}
	.st19{clip-path:url(#SVGID_2_);fill:none;stroke:#8D574C;stroke-linejoin:round;stroke-miterlimit:10;}
	.st20{clip-path:url(#SVGID_2_);fill:#D87AB2;}
	.st21{clip-path:url(#SVGID_2_);fill:none;stroke:#D87AB2;stroke-linejoin:round;stroke-miterlimit:10;}
	.st22{clip-path:url(#SVGID_6_);fill:#FFFFFF;}
	.st23{clip-path:url(#SVGID_6_);}
	.st24{clip-path:url(#SVGID_6_);fill:none;stroke:#000000;stroke-width:0.8;stroke-linecap:square;stroke-miterlimit:10;}
	.st25{clip-path:url(#SVGID_6_);fill:#2278B5;}
	.st26{clip-path:url(#SVGID_6_);fill:none;stroke:#2278B5;stroke-linejoin:round;stroke-miterlimit:10;}
	.st27{clip-path:url(#SVGID_6_);fill:#F57F20;}
	.st28{clip-path:url(#SVGID_6_);fill:none;stroke:#F57F20;stroke-linejoin:round;stroke-miterlimit:10;}
	.st29{clip-path:url(#SVGID_6_);fill:#279E69;}
	.st30{clip-path:url(#SVGID_6_);fill:none;stroke:#279E69;stroke-linejoin:round;stroke-miterlimit:10;}
	.st31{clip-path:url(#SVGID_6_);fill:#D62A28;}
	.st32{clip-path:url(#SVGID_6_);fill:none;stroke:#D62A28;stroke-linejoin:round;stroke-miterlimit:10;}
	.st33{clip-path:url(#SVGID_6_);fill:#855AA5;}
	.st34{clip-path:url(#SVGID_6_);fill:none;stroke:#855AA5;stroke-linejoin:round;stroke-miterlimit:10;}
	.st35{clip-path:url(#SVGID_6_);fill:#8D574C;}
	.st36{clip-path:url(#SVGID_6_);fill:none;stroke:#8D574C;stroke-linejoin:round;stroke-miterlimit:10;}
	.st37{clip-path:url(#SVGID_6_);fill:#D87AB2;}
	.st38{clip-path:url(#SVGID_6_);fill:none;stroke:#D87AB2;stroke-linejoin:round;stroke-miterlimit:10;}
	.st39{clip-path:url(#SVGID_10_);fill:#FFFFFF;}
	.st40{clip-path:url(#SVGID_10_);}
	.st41{clip-path:url(#SVGID_10_);fill:none;stroke:#000000;stroke-width:0.8;stroke-linecap:square;stroke-miterlimit:10;}
	.st42{clip-path:url(#SVGID_10_);fill:#2278B5;}
	.st43{clip-path:url(#SVGID_10_);fill:none;stroke:#2278B5;stroke-linejoin:round;stroke-miterlimit:10;}
	.st44{clip-path:url(#SVGID_10_);fill:#F57F20;}
	.st45{clip-path:url(#SVGID_10_);fill:none;stroke:#F57F20;stroke-linejoin:round;stroke-miterlimit:10;}
	.st46{clip-path:url(#SVGID_10_);fill:#279E69;}
	.st47{clip-path:url(#SVGID_10_);fill:none;stroke:#279E69;stroke-linejoin:round;stroke-miterlimit:10;}
	.st48{clip-path:url(#SVGID_10_);fill:#D62A28;}
	.st49{clip-path:url(#SVGID_10_);fill:none;stroke:#D62A28;stroke-linejoin:round;stroke-miterlimit:10;}
	.st50{clip-path:url(#SVGID_10_);fill:#855AA5;}
	.st51{clip-path:url(#SVGID_10_);fill:none;stroke:#855AA5;stroke-linejoin:round;stroke-miterlimit:10;}
	.st52{font-family:'Helvetica-Light';}
	.st53{font-size:10px;}
</style>
<g>
	<rect x="-195.7" y="196.4" class="st0" width="172.6" height="137.2"/>
	<text transform="matrix(1 0 0 1 -148.1121 246.4423)" class="st4"><tspan x="0" y="0" class="st1 st52 st3">kNN/UMAP of  </tspan><tspan x="-9" y="14.4" class="st1 st52 st3">primate organoid  </tspan><tspan x="6.7" y="28.8" class="st1 st52 st3">short reads  </tspan><tspan x="8.7" y="43.2" class="st1 st52 st3">MinHashes</tspan></text>
</g>
<text transform="matrix(1 0 0 1 1.2535 10.3181)" class="st1 st2 st3">A</text>
<text transform="matrix(1 0 0 1 -1.716614e-05 185.2283)" class="st1 st2 st3">B</text>
<text transform="matrix(1 0 0 1 596.7172 155.9474)" class="st1 st2 st3">E</text>
<g>
	<rect x="403.7" y="160" class="st0" width="172.6" height="137.2"/>
	<text transform="matrix(1 0 0 1 451.344 210.0543)" class="st4"><tspan x="0" y="0" class="st1 st52 st3">kNN/UMAP of  </tspan><tspan x="-9" y="14.4" class="st1 st52 st3">primate organoid  </tspan><tspan x="8.3" y="28.8" class="st1 st52 st3">long reads  </tspan><tspan x="8.7" y="43.2" class="st1 st52 st3">MinHashes</tspan></text>
</g>
<g>
	<rect x="468.9" y="367.4" class="st0" width="172.6" height="137.2"/>
	<text transform="matrix(1 0 0 1 516.5267 417.3889)" class="st4"><tspan x="0" y="0" class="st1 st52 st3">kNN/UMAP of  </tspan><tspan x="-9" y="14.4" class="st1 st52 st3">primate organoid  </tspan><tspan x="6.7" y="28.8" class="st1 st52 st3">short reads  </tspan><tspan x="5.3" y="43.2" class="st1 st52 st3">gene counts</tspan></text>
</g>
<g>
	<rect x="596.7" y="160" class="st0" width="172.6" height="137.2"/>
	<text transform="matrix(1 0 0 1 630.3378 217.2796)" class="st4"><tspan x="0" y="0" class="st1 st52 st3">Ambiguous coding  </tspan><tspan x="-3.3" y="14.4" class="st1 st52 st3">sequences resolved  </tspan><tspan x="15.7" y="28.8" class="st1 st52 st3">by long reads</tspan></text>
</g>
<g id="gKi02V.tif">
	
		<image style="overflow:visible;" width="1890" height="848" id="Layer_0_1_" xlink:href="7D970BBC7900E444.png"  transform="matrix(0.1928 0 0 0.1928 1.8583 11.3189)">
	</image>
</g>
<g id="wGa2Si.tif">
	<g id="wfToCW.tif">
		
			<image style="overflow:visible;" width="386" height="278" id="Layer_0_2_" xlink:href="7D970BBC7900E442.png"  transform="matrix(0.2798 0 0 0.2798 0 270.702)">
		</image>
	</g>
</g>
<g id="liyUq1.tif">
	
		<image style="overflow:visible;" width="386" height="270" id="Layer_0_3_" xlink:href="7D970BBC7900E443.png"  transform="matrix(0.2798 0 0 0.2798 129.5499 271.8212)">
	</image>
</g>
<g id="Z0Dqhc.tif">
	
		<image style="overflow:visible;" width="391" height="265" id="Layer_0_4_" xlink:href="7D970BBC7900E440.png"  transform="matrix(0.2762 0 0 0.2762 259.0999 272.9948)">
	</image>
</g>
<g>
	<defs>
		<rect id="SVGID_1_" x="9" y="179.1" width="90" height="82.1"/>
	</defs>
	<clipPath id="SVGID_2_">
		<use xlink:href="#SVGID_1_"  style="overflow:visible;"/>
	</clipPath>
	<rect x="9" y="179.1" class="st5" width="90" height="82.1"/>
	<rect x="16.6" y="186.4" class="st5" width="69" height="67.2"/>
	<g class="st6">
		<defs>
			<rect id="SVGID_3_" x="18.4" y="188.1" width="65.3" height="63.8"/>
		</defs>
		<clipPath id="SVGID_4_">
			<use xlink:href="#SVGID_3_"  style="overflow:visible;"/>
		</clipPath>
		<g style="clip-path:url(#SVGID_4_);">
			
				<image style="overflow:visible;" width="443" height="433" xlink:href="7D970BBC7900E441.png"  transform="matrix(0.1474 0 0 0.1474 18.4326 188.1111)">
			</image>
		</g>
	</g>
	<path class="st6" d="M43.9,255h0.4v1.9c0,0.3,0.1,0.6,0.2,0.7s0.3,0.2,0.6,0.2c0.3,0,0.5-0.1,0.6-0.2c0.1-0.1,0.2-0.4,0.2-0.7V255
		h0.4v2c0,0.4-0.1,0.7-0.3,0.9s-0.5,0.3-0.9,0.3s-0.7-0.1-0.9-0.3c-0.2-0.2-0.3-0.5-0.3-0.9V255"/>
	<polyline class="st6" points="47.1,255 47.7,255 48.5,257.1 49.3,255 50,255 50,258.1 49.5,258.1 49.5,255.4 48.7,257.5 
		48.3,257.5 47.5,255.4 47.5,258.1 47.1,258.1 47.1,255 	"/>
	<path class="st6" d="M51.6,255h0.5l1.2,3.1h-0.4l-0.3-0.8h-1.4l-0.3,0.8h-0.4L51.6,255 M51.9,255.4l-0.6,1.6h1.2L51.9,255.4"/>
	<path class="st6" d="M53.7,255h1c0.3,0,0.6,0.1,0.8,0.2c0.2,0.2,0.3,0.4,0.3,0.7c0,0.3-0.1,0.5-0.3,0.7c-0.2,0.2-0.4,0.2-0.8,0.2
		h-0.5v1.3h-0.4V255 M54.2,255.4v1.2h0.5c0.2,0,0.3,0,0.5-0.2c0.1-0.1,0.2-0.2,0.2-0.4s-0.1-0.3-0.2-0.4c-0.1-0.1-0.3-0.2-0.5-0.2
		H54.2"/>
	<polyline class="st6" points="56.4,257.8 57.1,257.8 57.1,255.4 56.4,255.5 56.4,255.2 57.1,255 57.6,255 57.6,257.8 58.3,257.8 
		58.3,258.1 56.4,258.1 56.4,257.8 	"/>
	<path class="st6" d="M11.3,227.2v-0.4h1.9c0.3,0,0.6-0.1,0.7-0.2s0.2-0.3,0.2-0.6c0-0.3-0.1-0.5-0.2-0.6c-0.1-0.1-0.4-0.2-0.7-0.2
		h-1.9v-0.4h2c0.4,0,0.7,0.1,0.9,0.3c0.2,0.2,0.3,0.5,0.3,0.9c0,0.4-0.1,0.7-0.3,0.9s-0.5,0.3-0.9,0.3H11.3"/>
	<polyline class="st6" points="11.3,224 11.3,223.4 13.5,222.6 11.3,221.8 11.3,221.2 14.5,221.2 14.5,221.6 11.7,221.6 13.9,222.4 
		13.9,222.8 11.7,223.6 14.5,223.6 14.5,224 11.3,224 	"/>
	<path class="st6" d="M11.3,219.5V219l3.1-1.2v0.4l-0.8,0.3v1.4l0.8,0.3v0.4L11.3,219.5 M11.8,219.3l1.6,0.6v-1.2L11.8,219.3"/>
	<path class="st6" d="M11.3,217.4v-1c0-0.3,0.1-0.6,0.2-0.8c0.2-0.2,0.4-0.3,0.7-0.3c0.3,0,0.5,0.1,0.7,0.3c0.2,0.2,0.2,0.4,0.2,0.8
		v0.5h1.3v0.4H11.3 M11.7,217h1.2v-0.5c0-0.2,0-0.3-0.2-0.5c-0.1-0.1-0.2-0.2-0.4-0.2c-0.2,0-0.3,0.1-0.4,0.2s-0.2,0.3-0.2,0.5V217"
		/>
	<path class="st6" d="M14.1,214.4v-1.5h0.4v2h-0.4c-0.2-0.2-0.4-0.4-0.7-0.7c-0.3-0.3-0.5-0.5-0.5-0.5c-0.2-0.1-0.3-0.2-0.4-0.3
		c-0.1-0.1-0.2-0.1-0.3-0.1c-0.2,0-0.3,0.1-0.4,0.2c-0.1,0.1-0.2,0.3-0.2,0.5c0,0.1,0,0.3,0.1,0.4c0,0.1,0.1,0.3,0.2,0.5h-0.4
		c-0.1-0.2-0.1-0.3-0.2-0.5c0-0.1-0.1-0.3-0.1-0.4c0-0.3,0.1-0.6,0.2-0.8c0.2-0.2,0.4-0.3,0.6-0.3c0.1,0,0.3,0,0.4,0.1
		c0.1,0,0.3,0.1,0.4,0.3c0,0,0.2,0.1,0.4,0.3C13.5,213.8,13.8,214.1,14.1,214.4"/>
	<line class="st7" x1="16.6" y1="253.6" x2="16.6" y2="186.4"/>
	<line class="st7" x1="85.6" y1="253.6" x2="85.6" y2="186.4"/>
	<line class="st7" x1="16.6" y1="253.6" x2="85.6" y2="253.6"/>
	<line class="st7" x1="16.6" y1="186.4" x2="85.6" y2="186.4"/>
	<polyline class="st6" points="44.9,181.3 45.3,181.3 45.3,184.6 44.9,184.6 44.9,181.3 	"/>
	<path class="st6" d="M47.7,183.2c0-0.2-0.1-0.4-0.2-0.5c-0.1-0.1-0.3-0.2-0.5-0.2c-0.2,0-0.4,0.1-0.5,0.2c-0.1,0.1-0.2,0.3-0.2,0.5
		H47.7 M48.1,183.3v0.2h-1.8c0,0.3,0.1,0.5,0.2,0.6c0.1,0.1,0.3,0.2,0.6,0.2c0.1,0,0.3,0,0.4-0.1s0.3-0.1,0.4-0.2v0.4
		c-0.1,0.1-0.3,0.1-0.4,0.1c-0.1,0-0.3,0-0.4,0c-0.4,0-0.7-0.1-0.9-0.3s-0.3-0.5-0.3-0.9c0-0.4,0.1-0.7,0.3-0.9
		c0.2-0.2,0.5-0.3,0.8-0.3c0.3,0,0.6,0.1,0.8,0.3C48,182.7,48.1,183,48.1,183.3"/>
	<path class="st6" d="M48.8,181.3h0.4v0.5h-0.4V181.3 M48.8,182.2h0.4v2.4h-0.4V182.2"/>
	<path class="st6" d="M50.2,183.4c0,0.3,0.1,0.5,0.2,0.7c0.1,0.2,0.3,0.2,0.5,0.2c0.2,0,0.4-0.1,0.5-0.2c0.1-0.2,0.2-0.4,0.2-0.7
		c0-0.3-0.1-0.5-0.2-0.7c-0.1-0.2-0.3-0.2-0.5-0.2c-0.2,0-0.4,0.1-0.5,0.2C50.2,182.9,50.2,183.1,50.2,183.4 M51.5,182.6v-1.3h0.4
		v3.3h-0.4v-0.4c-0.1,0.1-0.2,0.2-0.3,0.3s-0.3,0.1-0.4,0.1c-0.3,0-0.5-0.1-0.7-0.3c-0.2-0.2-0.3-0.5-0.3-0.9c0-0.4,0.1-0.7,0.3-0.9
		c0.2-0.2,0.4-0.3,0.7-0.3c0.2,0,0.3,0,0.4,0.1C51.3,182.4,51.4,182.5,51.5,182.6"/>
	<path class="st6" d="M54.3,183.2c0-0.2-0.1-0.4-0.2-0.5c-0.1-0.1-0.3-0.2-0.5-0.2c-0.2,0-0.4,0.1-0.5,0.2c-0.1,0.1-0.2,0.3-0.2,0.5
		H54.3 M54.7,183.3v0.2h-1.8c0,0.3,0.1,0.5,0.2,0.6c0.1,0.1,0.3,0.2,0.6,0.2c0.1,0,0.3,0,0.4-0.1c0.1,0,0.3-0.1,0.4-0.2v0.4
		c-0.1,0.1-0.3,0.1-0.4,0.1c-0.1,0-0.3,0-0.4,0c-0.4,0-0.7-0.1-0.9-0.3s-0.3-0.5-0.3-0.9c0-0.4,0.1-0.7,0.3-0.9
		c0.2-0.2,0.5-0.3,0.8-0.3c0.3,0,0.6,0.1,0.8,0.3C54.6,182.7,54.7,183,54.7,183.3"/>
	<path class="st6" d="M57.3,183.2v1.4h-0.4v-1.4c0-0.2,0-0.4-0.1-0.5c-0.1-0.1-0.2-0.2-0.4-0.2c-0.2,0-0.4,0.1-0.5,0.2
		c-0.1,0.1-0.2,0.3-0.2,0.5v1.3h-0.4v-2.4h0.4v0.4c0.1-0.1,0.2-0.2,0.3-0.3c0.1-0.1,0.3-0.1,0.4-0.1c0.3,0,0.5,0.1,0.6,0.3
		C57.2,182.6,57.3,182.9,57.3,183.2"/>
	<path class="st8" d="M90.1,203.6c0.2,0,0.5-0.1,0.7-0.3c0.2-0.2,0.3-0.4,0.3-0.7s-0.1-0.5-0.3-0.7c-0.2-0.2-0.4-0.3-0.7-0.3
		c-0.2,0-0.5,0.1-0.7,0.3c-0.2,0.2-0.3,0.4-0.3,0.7s0.1,0.5,0.3,0.7C89.6,203.5,89.9,203.6,90.1,203.6z"/>
	<path class="st9" d="M90.1,203.6c0.2,0,0.5-0.1,0.7-0.3c0.2-0.2,0.3-0.4,0.3-0.7s-0.1-0.5-0.3-0.7c-0.2-0.2-0.4-0.3-0.7-0.3
		c-0.2,0-0.5,0.1-0.7,0.3c-0.2,0.2-0.3,0.4-0.3,0.7s0.1,0.5,0.3,0.7C89.6,203.5,89.9,203.6,90.1,203.6z"/>
	<path class="st6" d="M94,200.8c0.3,0,0.6,0.1,0.7,0.4c0.2,0.3,0.3,0.6,0.3,1.1c0,0.5-0.1,0.9-0.3,1.1c-0.2,0.3-0.4,0.4-0.7,0.4
		c-0.3,0-0.6-0.1-0.7-0.4c-0.2-0.3-0.3-0.6-0.3-1.1c0-0.5,0.1-0.9,0.3-1.1C93.4,200.9,93.6,200.8,94,200.8 M94,201.1
		c-0.2,0-0.4,0.1-0.5,0.3s-0.2,0.5-0.2,0.9c0,0.4,0,0.7,0.2,0.9c0.1,0.2,0.3,0.3,0.5,0.3c0.2,0,0.4-0.1,0.5-0.3
		c0.1-0.2,0.2-0.5,0.2-0.9c0-0.4-0.1-0.7-0.2-0.9C94.3,201.2,94.2,201.1,94,201.1"/>
	<path class="st10" d="M90.1,209.4c0.2,0,0.5-0.1,0.7-0.3c0.2-0.2,0.3-0.4,0.3-0.7c0-0.2-0.1-0.5-0.3-0.7c-0.2-0.2-0.4-0.3-0.7-0.3
		c-0.2,0-0.5,0.1-0.7,0.3c-0.2,0.2-0.3,0.4-0.3,0.7c0,0.2,0.1,0.5,0.3,0.7C89.6,209.3,89.9,209.4,90.1,209.4z"/>
	<path class="st11" d="M90.1,209.4c0.2,0,0.5-0.1,0.7-0.3c0.2-0.2,0.3-0.4,0.3-0.7c0-0.2-0.1-0.5-0.3-0.7c-0.2-0.2-0.4-0.3-0.7-0.3
		c-0.2,0-0.5,0.1-0.7,0.3c-0.2,0.2-0.3,0.4-0.3,0.7c0,0.2,0.1,0.5,0.3,0.7C89.6,209.3,89.9,209.4,90.1,209.4z"/>
	<polyline class="st6" points="93.2,209.2 93.8,209.2 93.8,207 93.1,207.1 93.1,206.8 93.8,206.7 94.2,206.7 94.2,209.2 94.8,209.2 
		94.8,209.5 93.2,209.5 93.2,209.2 	"/>
	<path class="st12" d="M90.1,215.2c0.2,0,0.5-0.1,0.7-0.3c0.2-0.2,0.3-0.4,0.3-0.7s-0.1-0.5-0.3-0.7c-0.2-0.2-0.4-0.3-0.7-0.3
		c-0.2,0-0.5,0.1-0.7,0.3c-0.2,0.2-0.3,0.4-0.3,0.7s0.1,0.5,0.3,0.7C89.6,215.1,89.9,215.2,90.1,215.2z"/>
	<path class="st13" d="M90.1,215.2c0.2,0,0.5-0.1,0.7-0.3c0.2-0.2,0.3-0.4,0.3-0.7s-0.1-0.5-0.3-0.7c-0.2-0.2-0.4-0.3-0.7-0.3
		c-0.2,0-0.5,0.1-0.7,0.3c-0.2,0.2-0.3,0.4-0.3,0.7s0.1,0.5,0.3,0.7C89.6,215.1,89.9,215.2,90.1,215.2z"/>
	<path class="st6" d="M93.5,215h1.4v0.3H93V215c0.1-0.2,0.3-0.4,0.6-0.6c0.3-0.3,0.4-0.4,0.5-0.5c0.1-0.1,0.2-0.3,0.3-0.4
		c0-0.1,0.1-0.2,0.1-0.3c0-0.2-0.1-0.3-0.2-0.4c-0.1-0.1-0.2-0.1-0.4-0.1c-0.1,0-0.3,0-0.4,0.1c-0.1,0-0.3,0.1-0.4,0.2v-0.4
		c0.2-0.1,0.3-0.1,0.4-0.1c0.1,0,0.3,0,0.4,0c0.3,0,0.5,0.1,0.7,0.2c0.2,0.2,0.3,0.3,0.3,0.6c0,0.1,0,0.2-0.1,0.3
		c0,0.1-0.1,0.2-0.2,0.4c0,0-0.1,0.1-0.3,0.3C94,214.4,93.8,214.7,93.5,215"/>
	<path class="st14" d="M90.1,221c0.2,0,0.5-0.1,0.7-0.3c0.2-0.2,0.3-0.4,0.3-0.7c0-0.2-0.1-0.5-0.3-0.7c-0.2-0.2-0.4-0.3-0.7-0.3
		c-0.2,0-0.5,0.1-0.7,0.3c-0.2,0.2-0.3,0.4-0.3,0.7c0,0.2,0.1,0.5,0.3,0.7C89.6,220.9,89.9,221,90.1,221z"/>
	<path class="st15" d="M90.1,221c0.2,0,0.5-0.1,0.7-0.3c0.2-0.2,0.3-0.4,0.3-0.7c0-0.2-0.1-0.5-0.3-0.7c-0.2-0.2-0.4-0.3-0.7-0.3
		c-0.2,0-0.5,0.1-0.7,0.3c-0.2,0.2-0.3,0.4-0.3,0.7c0,0.2,0.1,0.5,0.3,0.7C89.6,220.9,89.9,221,90.1,221z"/>
	<path class="st6" d="M94.3,219.6c0.2,0,0.3,0.1,0.4,0.2c0.1,0.1,0.2,0.3,0.2,0.5c0,0.3-0.1,0.5-0.3,0.7c-0.2,0.2-0.5,0.2-0.8,0.2
		c-0.1,0-0.2,0-0.4,0c-0.1,0-0.3-0.1-0.4-0.1v-0.4c0.1,0.1,0.2,0.1,0.4,0.1c0.1,0,0.3,0,0.4,0c0.2,0,0.4,0,0.6-0.1s0.2-0.2,0.2-0.4
		c0-0.2-0.1-0.3-0.2-0.4c-0.1-0.1-0.3-0.1-0.5-0.1h-0.3v-0.3h0.4c0.2,0,0.3,0,0.4-0.1c0.1-0.1,0.2-0.2,0.2-0.3
		c0-0.1-0.1-0.3-0.2-0.3c-0.1-0.1-0.3-0.1-0.5-0.1c-0.1,0-0.2,0-0.3,0c-0.1,0-0.3,0.1-0.4,0.1v-0.3c0.1,0,0.3-0.1,0.4-0.1
		c0.1,0,0.2,0,0.4,0c0.3,0,0.5,0.1,0.7,0.2c0.2,0.1,0.3,0.3,0.3,0.5c0,0.2,0,0.3-0.1,0.4C94.6,219.5,94.5,219.5,94.3,219.6"/>
	<path class="st16" d="M90.1,226.8c0.2,0,0.5-0.1,0.7-0.3c0.2-0.2,0.3-0.4,0.3-0.7s-0.1-0.5-0.3-0.7c-0.2-0.2-0.4-0.3-0.7-0.3
		c-0.2,0-0.5,0.1-0.7,0.3c-0.2,0.2-0.3,0.4-0.3,0.7s0.1,0.5,0.3,0.7C89.6,226.7,89.9,226.8,90.1,226.8z"/>
	<path class="st17" d="M90.1,226.8c0.2,0,0.5-0.1,0.7-0.3c0.2-0.2,0.3-0.4,0.3-0.7s-0.1-0.5-0.3-0.7c-0.2-0.2-0.4-0.3-0.7-0.3
		c-0.2,0-0.5,0.1-0.7,0.3c-0.2,0.2-0.3,0.4-0.3,0.7s0.1,0.5,0.3,0.7C89.6,226.7,89.9,226.8,90.1,226.8z"/>
	<path class="st6" d="M94.1,224.1h0.5v1.9H95v0.3h-0.4v0.7h-0.4v-0.7h-1.3v-0.4L94.1,224.1 M94.2,224.4l-1,1.5h1V224.4"/>
	<path class="st18" d="M90.1,232.6c0.2,0,0.5-0.1,0.7-0.3c0.2-0.2,0.3-0.4,0.3-0.7s-0.1-0.5-0.3-0.7c-0.2-0.2-0.4-0.3-0.7-0.3
		c-0.2,0-0.5,0.1-0.7,0.3c-0.2,0.2-0.3,0.4-0.3,0.7s0.1,0.5,0.3,0.7C89.6,232.5,89.9,232.6,90.1,232.6z"/>
	<path class="st19" d="M90.1,232.6c0.2,0,0.5-0.1,0.7-0.3c0.2-0.2,0.3-0.4,0.3-0.7s-0.1-0.5-0.3-0.7c-0.2-0.2-0.4-0.3-0.7-0.3
		c-0.2,0-0.5,0.1-0.7,0.3c-0.2,0.2-0.3,0.4-0.3,0.7s0.1,0.5,0.3,0.7C89.6,232.5,89.9,232.6,90.1,232.6z"/>
	<path class="st6" d="M93.1,229.9h1.5v0.3h-1.2v0.7c0.1,0,0.1,0,0.2,0c0.1,0,0.1,0,0.2,0c0.3,0,0.6,0.1,0.8,0.3
		c0.2,0.2,0.3,0.4,0.3,0.7c0,0.3-0.1,0.6-0.3,0.7s-0.5,0.3-0.8,0.3c-0.1,0-0.2,0-0.4,0c-0.1,0-0.3,0-0.4-0.1v-0.4
		c0.1,0.1,0.2,0.1,0.4,0.1c0.1,0,0.3,0,0.4,0c0.2,0,0.4-0.1,0.5-0.2c0.1-0.1,0.2-0.3,0.2-0.5c0-0.2-0.1-0.4-0.2-0.5
		c-0.1-0.1-0.3-0.2-0.5-0.2c-0.1,0-0.2,0-0.3,0c-0.1,0-0.2,0.1-0.3,0.1V229.9"/>
	<path class="st20" d="M90.1,238.4c0.2,0,0.5-0.1,0.7-0.3c0.2-0.2,0.3-0.4,0.3-0.7s-0.1-0.5-0.3-0.7c-0.2-0.2-0.4-0.3-0.7-0.3
		c-0.2,0-0.5,0.1-0.7,0.3c-0.2,0.2-0.3,0.4-0.3,0.7s0.1,0.5,0.3,0.7C89.6,238.3,89.9,238.4,90.1,238.4z"/>
	<path class="st21" d="M90.1,238.4c0.2,0,0.5-0.1,0.7-0.3c0.2-0.2,0.3-0.4,0.3-0.7s-0.1-0.5-0.3-0.7c-0.2-0.2-0.4-0.3-0.7-0.3
		c-0.2,0-0.5,0.1-0.7,0.3c-0.2,0.2-0.3,0.4-0.3,0.7s0.1,0.5,0.3,0.7C89.6,238.3,89.9,238.4,90.1,238.4z"/>
	<path class="st6" d="M94.8,235.7v0.4c-0.1,0-0.2-0.1-0.3-0.1c-0.1,0-0.2,0-0.3,0c-0.3,0-0.5,0.1-0.6,0.3c-0.1,0.2-0.2,0.4-0.2,0.8
		c0.1-0.1,0.2-0.2,0.3-0.3c0.1-0.1,0.2-0.1,0.4-0.1c0.3,0,0.5,0.1,0.7,0.3c0.2,0.2,0.3,0.4,0.3,0.7c0,0.3-0.1,0.5-0.3,0.7
		c-0.2,0.2-0.4,0.3-0.7,0.3c-0.3,0-0.6-0.1-0.8-0.4c-0.2-0.3-0.3-0.6-0.3-1.1c0-0.5,0.1-0.8,0.3-1.1c0.2-0.3,0.5-0.4,0.9-0.4
		c0.1,0,0.2,0,0.3,0C94.6,235.7,94.7,235.7,94.8,235.7 M94,236.9c-0.2,0-0.3,0.1-0.4,0.2c-0.1,0.1-0.2,0.3-0.2,0.5
		c0,0.2,0.1,0.4,0.2,0.5c0.1,0.1,0.2,0.2,0.4,0.2c0.2,0,0.3-0.1,0.4-0.2c0.1-0.1,0.2-0.3,0.2-0.5c0-0.2-0.1-0.4-0.2-0.5
		C94.3,237,94.2,236.9,94,236.9"/>
</g>
<g>
	<defs>
		<rect id="SVGID_5_" x="138.5" y="179.1" width="90" height="82.1"/>
	</defs>
	<clipPath id="SVGID_6_">
		<use xlink:href="#SVGID_5_"  style="overflow:visible;"/>
	</clipPath>
	<rect x="138.5" y="179.1" class="st22" width="90" height="82.1"/>
	<rect x="146.1" y="186.4" class="st22" width="69" height="67.2"/>
	<g class="st23">
		<defs>
			<rect id="SVGID_7_" x="148.1" y="188.3" width="65" height="63.5"/>
		</defs>
		<clipPath id="SVGID_8_">
			<use xlink:href="#SVGID_7_"  style="overflow:visible;"/>
		</clipPath>
		<g style="clip-path:url(#SVGID_8_);">
			
				<image style="overflow:visible;" width="441" height="431" xlink:href="7D970BBC7900E472.png"  transform="matrix(0.1474 0 0 0.1474 148.1299 188.2585)">
			</image>
		</g>
	</g>
	<path class="st23" d="M173.4,255h0.4v1.9c0,0.3,0.1,0.6,0.2,0.7s0.3,0.2,0.6,0.2c0.3,0,0.5-0.1,0.6-0.2c0.1-0.1,0.2-0.4,0.2-0.7
		V255h0.4v2c0,0.4-0.1,0.7-0.3,0.9s-0.5,0.3-0.9,0.3c-0.4,0-0.7-0.1-0.9-0.3s-0.3-0.5-0.3-0.9V255"/>
	<polyline class="st23" points="176.6,255 177.3,255 178.1,257.1 178.9,255 179.5,255 179.5,258.1 179.1,258.1 179.1,255.4 
		178.3,257.5 177.9,257.5 177.1,255.4 177.1,258.1 176.6,258.1 176.6,255 	"/>
	<path class="st23" d="M181.2,255h0.5l1.2,3.1h-0.4l-0.3-0.8h-1.4l-0.3,0.8H180L181.2,255 M181.4,255.4l-0.6,1.6h1.2L181.4,255.4"/>
	<path class="st23" d="M183.3,255h1c0.3,0,0.6,0.1,0.8,0.2s0.3,0.4,0.3,0.7c0,0.3-0.1,0.5-0.3,0.7c-0.2,0.2-0.4,0.2-0.8,0.2h-0.5
		v1.3h-0.4V255 M183.7,255.4v1.2h0.5c0.2,0,0.3,0,0.5-0.2c0.1-0.1,0.2-0.2,0.2-0.4s-0.1-0.3-0.2-0.4s-0.3-0.2-0.5-0.2H183.7"/>
	<polyline class="st23" points="186,257.8 186.7,257.8 186.7,255.4 185.9,255.5 185.9,255.2 186.7,255 187.1,255 187.1,257.8 
		187.8,257.8 187.8,258.1 186,258.1 186,257.8 	"/>
	<path class="st23" d="M140.9,227.2v-0.4h1.9c0.3,0,0.6-0.1,0.7-0.2c0.1-0.1,0.2-0.3,0.2-0.6c0-0.3-0.1-0.5-0.2-0.6
		c-0.1-0.1-0.4-0.2-0.7-0.2h-1.9v-0.4h2c0.4,0,0.7,0.1,0.9,0.3c0.2,0.2,0.3,0.5,0.3,0.9c0,0.4-0.1,0.7-0.3,0.9
		c-0.2,0.2-0.5,0.3-0.9,0.3H140.9"/>
	<polyline class="st23" points="140.9,224 140.9,223.4 143,222.6 140.9,221.8 140.9,221.2 144,221.2 144,221.6 141.3,221.6 
		143.4,222.4 143.4,222.8 141.3,223.6 144,223.6 144,224 140.9,224 	"/>
	<path class="st23" d="M140.9,219.5V219l3.1-1.2v0.4l-0.8,0.3v1.4l0.8,0.3v0.4L140.9,219.5 M141.3,219.3l1.6,0.6v-1.2L141.3,219.3"
		/>
	<path class="st23" d="M140.9,217.4v-1c0-0.3,0.1-0.6,0.2-0.8c0.2-0.2,0.4-0.3,0.7-0.3c0.3,0,0.5,0.1,0.7,0.3
		c0.2,0.2,0.2,0.4,0.2,0.8v0.5h1.3v0.4H140.9 M141.2,217h1.2v-0.5c0-0.2,0-0.3-0.2-0.5c-0.1-0.1-0.2-0.2-0.4-0.2s-0.3,0.1-0.4,0.2
		s-0.2,0.3-0.2,0.5V217"/>
	<path class="st23" d="M143.7,214.4v-1.5h0.4v2h-0.4c-0.2-0.2-0.4-0.4-0.7-0.7c-0.3-0.3-0.5-0.5-0.5-0.5c-0.2-0.1-0.3-0.2-0.4-0.3
		c-0.1-0.1-0.2-0.1-0.3-0.1c-0.2,0-0.3,0.1-0.4,0.2c-0.1,0.1-0.2,0.3-0.2,0.5c0,0.1,0,0.3,0.1,0.4c0,0.1,0.1,0.3,0.2,0.5H141
		c-0.1-0.2-0.1-0.3-0.2-0.5s-0.1-0.3-0.1-0.4c0-0.3,0.1-0.6,0.2-0.8c0.2-0.2,0.4-0.3,0.6-0.3c0.1,0,0.3,0,0.4,0.1
		c0.1,0,0.3,0.1,0.4,0.3c0,0,0.2,0.1,0.4,0.3C143.1,213.8,143.3,214.1,143.7,214.4"/>
	<line class="st24" x1="146.1" y1="253.6" x2="146.1" y2="186.4"/>
	<line class="st24" x1="215.1" y1="253.6" x2="215.1" y2="186.4"/>
	<line class="st24" x1="146.1" y1="253.6" x2="215.1" y2="253.6"/>
	<line class="st24" x1="146.1" y1="186.4" x2="215.1" y2="186.4"/>
	<polyline class="st23" points="174.5,181.3 174.9,181.3 174.9,184.6 174.5,184.6 174.5,181.3 	"/>
	<path class="st23" d="M177.3,183.2c0-0.2-0.1-0.4-0.2-0.5c-0.1-0.1-0.3-0.2-0.5-0.2c-0.2,0-0.4,0.1-0.5,0.2s-0.2,0.3-0.2,0.5H177.3
		 M177.7,183.3v0.2h-1.8c0,0.3,0.1,0.5,0.2,0.6c0.1,0.1,0.3,0.2,0.6,0.2c0.1,0,0.3,0,0.4-0.1s0.3-0.1,0.4-0.2v0.4
		c-0.1,0.1-0.3,0.1-0.4,0.1c-0.1,0-0.3,0-0.4,0c-0.4,0-0.7-0.1-0.9-0.3c-0.2-0.2-0.3-0.5-0.3-0.9c0-0.4,0.1-0.7,0.3-0.9
		c0.2-0.2,0.5-0.3,0.8-0.3c0.3,0,0.6,0.1,0.8,0.3C177.6,182.7,177.7,183,177.7,183.3"/>
	<path class="st23" d="M178.3,181.3h0.4v0.5h-0.4V181.3 M178.3,182.2h0.4v2.4h-0.4V182.2"/>
	<path class="st23" d="M179.7,183.4c0,0.3,0.1,0.5,0.2,0.7c0.1,0.2,0.3,0.2,0.5,0.2c0.2,0,0.4-0.1,0.5-0.2c0.1-0.2,0.2-0.4,0.2-0.7
		c0-0.3-0.1-0.5-0.2-0.7c-0.1-0.2-0.3-0.2-0.5-0.2c-0.2,0-0.4,0.1-0.5,0.2C179.8,182.9,179.7,183.1,179.7,183.4 M181.1,182.6v-1.3
		h0.4v3.3h-0.4v-0.4c-0.1,0.1-0.2,0.2-0.3,0.3s-0.3,0.1-0.4,0.1c-0.3,0-0.5-0.1-0.7-0.3c-0.2-0.2-0.3-0.5-0.3-0.9
		c0-0.4,0.1-0.7,0.3-0.9c0.2-0.2,0.4-0.3,0.7-0.3c0.2,0,0.3,0,0.4,0.1C180.9,182.4,181,182.5,181.1,182.6"/>
	<path class="st23" d="M183.9,183.2c0-0.2-0.1-0.4-0.2-0.5c-0.1-0.1-0.3-0.2-0.5-0.2c-0.2,0-0.4,0.1-0.5,0.2
		c-0.1,0.1-0.2,0.3-0.2,0.5H183.9 M184.3,183.3v0.2h-1.8c0,0.3,0.1,0.5,0.2,0.6c0.1,0.1,0.3,0.2,0.6,0.2c0.1,0,0.3,0,0.4-0.1
		s0.3-0.1,0.4-0.2v0.4c-0.1,0.1-0.3,0.1-0.4,0.1c-0.1,0-0.3,0-0.4,0c-0.4,0-0.7-0.1-0.9-0.3s-0.3-0.5-0.3-0.9c0-0.4,0.1-0.7,0.3-0.9
		c0.2-0.2,0.5-0.3,0.8-0.3c0.3,0,0.6,0.1,0.8,0.3C184.2,182.7,184.3,183,184.3,183.3"/>
	<path class="st23" d="M186.8,183.2v1.4h-0.4v-1.4c0-0.2,0-0.4-0.1-0.5c-0.1-0.1-0.2-0.2-0.4-0.2c-0.2,0-0.4,0.1-0.5,0.2
		c-0.1,0.1-0.2,0.3-0.2,0.5v1.3h-0.4v-2.4h0.4v0.4c0.1-0.1,0.2-0.2,0.3-0.3c0.1-0.1,0.3-0.1,0.4-0.1c0.3,0,0.5,0.1,0.6,0.3
		S186.8,182.9,186.8,183.2"/>
	<path class="st25" d="M219.7,203.6c0.2,0,0.5-0.1,0.7-0.3c0.2-0.2,0.3-0.4,0.3-0.7s-0.1-0.5-0.3-0.7s-0.4-0.3-0.7-0.3
		s-0.5,0.1-0.7,0.3c-0.2,0.2-0.3,0.4-0.3,0.7s0.1,0.5,0.3,0.7C219.2,203.5,219.4,203.6,219.7,203.6z"/>
	<path class="st26" d="M219.7,203.6c0.2,0,0.5-0.1,0.7-0.3c0.2-0.2,0.3-0.4,0.3-0.7s-0.1-0.5-0.3-0.7s-0.4-0.3-0.7-0.3
		s-0.5,0.1-0.7,0.3c-0.2,0.2-0.3,0.4-0.3,0.7s0.1,0.5,0.3,0.7C219.2,203.5,219.4,203.6,219.7,203.6z"/>
	<path class="st23" d="M223.5,200.8c0.3,0,0.6,0.1,0.7,0.4c0.2,0.3,0.3,0.6,0.3,1.1c0,0.5-0.1,0.9-0.3,1.1c-0.2,0.3-0.4,0.4-0.7,0.4
		c-0.3,0-0.6-0.1-0.7-0.4c-0.2-0.3-0.3-0.6-0.3-1.1c0-0.5,0.1-0.9,0.3-1.1C222.9,200.9,223.2,200.8,223.5,200.8 M223.5,201.1
		c-0.2,0-0.4,0.1-0.5,0.3c-0.1,0.2-0.2,0.5-0.2,0.9c0,0.4,0,0.7,0.2,0.9c0.1,0.2,0.3,0.3,0.5,0.3s0.4-0.1,0.5-0.3
		c0.1-0.2,0.2-0.5,0.2-0.9c0-0.4-0.1-0.7-0.2-0.9C223.9,201.2,223.7,201.1,223.5,201.1"/>
	<path class="st27" d="M219.7,209.4c0.2,0,0.5-0.1,0.7-0.3c0.2-0.2,0.3-0.4,0.3-0.7c0-0.2-0.1-0.5-0.3-0.7c-0.2-0.2-0.4-0.3-0.7-0.3
		s-0.5,0.1-0.7,0.3c-0.2,0.2-0.3,0.4-0.3,0.7c0,0.2,0.1,0.5,0.3,0.7C219.2,209.3,219.4,209.4,219.7,209.4z"/>
	<path class="st28" d="M219.7,209.4c0.2,0,0.5-0.1,0.7-0.3c0.2-0.2,0.3-0.4,0.3-0.7c0-0.2-0.1-0.5-0.3-0.7c-0.2-0.2-0.4-0.3-0.7-0.3
		s-0.5,0.1-0.7,0.3c-0.2,0.2-0.3,0.4-0.3,0.7c0,0.2,0.1,0.5,0.3,0.7C219.2,209.3,219.4,209.4,219.7,209.4z"/>
	<polyline class="st23" points="222.7,209.2 223.4,209.2 223.4,207 222.7,207.1 222.7,206.8 223.4,206.7 223.8,206.7 223.8,209.2 
		224.4,209.2 224.4,209.5 222.7,209.5 222.7,209.2 	"/>
	<path class="st29" d="M219.7,215.2c0.2,0,0.5-0.1,0.7-0.3s0.3-0.4,0.3-0.7s-0.1-0.5-0.3-0.7c-0.2-0.2-0.4-0.3-0.7-0.3
		s-0.5,0.1-0.7,0.3c-0.2,0.2-0.3,0.4-0.3,0.7s0.1,0.5,0.3,0.7C219.2,215.1,219.4,215.2,219.7,215.2z"/>
	<path class="st30" d="M219.7,215.2c0.2,0,0.5-0.1,0.7-0.3s0.3-0.4,0.3-0.7s-0.1-0.5-0.3-0.7c-0.2-0.2-0.4-0.3-0.7-0.3
		s-0.5,0.1-0.7,0.3c-0.2,0.2-0.3,0.4-0.3,0.7s0.1,0.5,0.3,0.7C219.2,215.1,219.4,215.2,219.7,215.2z"/>
	<path class="st23" d="M223,215h1.4v0.3h-1.8V215c0.1-0.2,0.3-0.4,0.6-0.6c0.3-0.3,0.4-0.4,0.5-0.5c0.1-0.1,0.2-0.3,0.3-0.4
		c0-0.1,0.1-0.2,0.1-0.3c0-0.2-0.1-0.3-0.2-0.4c-0.1-0.1-0.2-0.1-0.4-0.1c-0.1,0-0.3,0-0.4,0.1c-0.1,0-0.3,0.1-0.4,0.2v-0.4
		c0.2-0.1,0.3-0.1,0.4-0.1c0.1,0,0.3,0,0.4,0c0.3,0,0.5,0.1,0.7,0.2c0.2,0.2,0.3,0.3,0.3,0.6c0,0.1,0,0.2-0.1,0.3
		c0,0.1-0.1,0.2-0.2,0.4c0,0-0.1,0.1-0.3,0.3C223.6,214.4,223.3,214.7,223,215"/>
	<path class="st31" d="M219.7,221c0.2,0,0.5-0.1,0.7-0.3c0.2-0.2,0.3-0.4,0.3-0.7c0-0.2-0.1-0.5-0.3-0.7s-0.4-0.3-0.7-0.3
		s-0.5,0.1-0.7,0.3c-0.2,0.2-0.3,0.4-0.3,0.7c0,0.2,0.1,0.5,0.3,0.7C219.2,220.9,219.4,221,219.7,221z"/>
	<path class="st32" d="M219.7,221c0.2,0,0.5-0.1,0.7-0.3c0.2-0.2,0.3-0.4,0.3-0.7c0-0.2-0.1-0.5-0.3-0.7s-0.4-0.3-0.7-0.3
		s-0.5,0.1-0.7,0.3c-0.2,0.2-0.3,0.4-0.3,0.7c0,0.2,0.1,0.5,0.3,0.7C219.2,220.9,219.4,221,219.7,221z"/>
	<path class="st23" d="M223.8,219.6c0.2,0,0.3,0.1,0.4,0.2c0.1,0.1,0.2,0.3,0.2,0.5c0,0.3-0.1,0.5-0.3,0.7c-0.2,0.2-0.5,0.2-0.8,0.2
		c-0.1,0-0.2,0-0.4,0c-0.1,0-0.3-0.1-0.4-0.1v-0.4c0.1,0.1,0.2,0.1,0.4,0.1c0.1,0,0.3,0,0.4,0c0.2,0,0.4,0,0.6-0.1s0.2-0.2,0.2-0.4
		c0-0.2-0.1-0.3-0.2-0.4c-0.1-0.1-0.3-0.1-0.5-0.1H223v-0.3h0.4c0.2,0,0.3,0,0.4-0.1c0.1-0.1,0.2-0.2,0.2-0.3c0-0.1-0.1-0.3-0.2-0.3
		c-0.1-0.1-0.3-0.1-0.5-0.1c-0.1,0-0.2,0-0.3,0c-0.1,0-0.3,0.1-0.4,0.1v-0.3c0.1,0,0.3-0.1,0.4-0.1c0.1,0,0.2,0,0.4,0
		c0.3,0,0.5,0.1,0.7,0.2c0.2,0.1,0.3,0.3,0.3,0.5c0,0.2,0,0.3-0.1,0.4C224.1,219.5,224,219.5,223.8,219.6"/>
	<path class="st33" d="M219.7,226.8c0.2,0,0.5-0.1,0.7-0.3c0.2-0.2,0.3-0.4,0.3-0.7s-0.1-0.5-0.3-0.7s-0.4-0.3-0.7-0.3
		s-0.5,0.1-0.7,0.3c-0.2,0.2-0.3,0.4-0.3,0.7s0.1,0.5,0.3,0.7C219.2,226.7,219.4,226.8,219.7,226.8z"/>
	<path class="st34" d="M219.7,226.8c0.2,0,0.5-0.1,0.7-0.3c0.2-0.2,0.3-0.4,0.3-0.7s-0.1-0.5-0.3-0.7s-0.4-0.3-0.7-0.3
		s-0.5,0.1-0.7,0.3c-0.2,0.2-0.3,0.4-0.3,0.7s0.1,0.5,0.3,0.7C219.2,226.7,219.4,226.8,219.7,226.8z"/>
	<path class="st23" d="M223.6,224.1h0.5v1.9h0.4v0.3h-0.4v0.7h-0.4v-0.7h-1.3v-0.4L223.6,224.1 M223.7,224.4l-1,1.5h1V224.4"/>
	<path class="st35" d="M219.7,232.6c0.2,0,0.5-0.1,0.7-0.3s0.3-0.4,0.3-0.7s-0.1-0.5-0.3-0.7c-0.2-0.2-0.4-0.3-0.7-0.3
		s-0.5,0.1-0.7,0.3c-0.2,0.2-0.3,0.4-0.3,0.7s0.1,0.5,0.3,0.7C219.2,232.5,219.4,232.6,219.7,232.6z"/>
	<path class="st36" d="M219.7,232.6c0.2,0,0.5-0.1,0.7-0.3s0.3-0.4,0.3-0.7s-0.1-0.5-0.3-0.7c-0.2-0.2-0.4-0.3-0.7-0.3
		s-0.5,0.1-0.7,0.3c-0.2,0.2-0.3,0.4-0.3,0.7s0.1,0.5,0.3,0.7C219.2,232.5,219.4,232.6,219.7,232.6z"/>
	<path class="st23" d="M222.7,229.9h1.5v0.3H223v0.7c0.1,0,0.1,0,0.2,0c0.1,0,0.1,0,0.2,0c0.3,0,0.6,0.1,0.8,0.3
		c0.2,0.2,0.3,0.4,0.3,0.7c0,0.3-0.1,0.6-0.3,0.7c-0.2,0.2-0.5,0.3-0.8,0.3c-0.1,0-0.2,0-0.4,0c-0.1,0-0.3,0-0.4-0.1v-0.4
		c0.1,0.1,0.2,0.1,0.4,0.1c0.1,0,0.3,0,0.4,0c0.2,0,0.4-0.1,0.5-0.2c0.1-0.1,0.2-0.3,0.2-0.5c0-0.2-0.1-0.4-0.2-0.5
		c-0.1-0.1-0.3-0.2-0.5-0.2c-0.1,0-0.2,0-0.3,0s-0.2,0.1-0.3,0.1V229.9"/>
	<path class="st37" d="M219.7,238.4c0.2,0,0.5-0.1,0.7-0.3s0.3-0.4,0.3-0.7s-0.1-0.5-0.3-0.7s-0.4-0.3-0.7-0.3s-0.5,0.1-0.7,0.3
		c-0.2,0.2-0.3,0.4-0.3,0.7s0.1,0.5,0.3,0.7C219.2,238.3,219.4,238.4,219.7,238.4z"/>
	<path class="st38" d="M219.7,238.4c0.2,0,0.5-0.1,0.7-0.3s0.3-0.4,0.3-0.7s-0.1-0.5-0.3-0.7s-0.4-0.3-0.7-0.3s-0.5,0.1-0.7,0.3
		c-0.2,0.2-0.3,0.4-0.3,0.7s0.1,0.5,0.3,0.7C219.2,238.3,219.4,238.4,219.7,238.4z"/>
	<path class="st23" d="M224.3,235.7v0.4c-0.1,0-0.2-0.1-0.3-0.1c-0.1,0-0.2,0-0.3,0c-0.3,0-0.5,0.1-0.6,0.3
		c-0.1,0.2-0.2,0.4-0.2,0.8c0.1-0.1,0.2-0.2,0.3-0.3c0.1-0.1,0.2-0.1,0.4-0.1c0.3,0,0.5,0.1,0.7,0.3c0.2,0.2,0.3,0.4,0.3,0.7
		c0,0.3-0.1,0.5-0.3,0.7c-0.2,0.2-0.4,0.3-0.7,0.3c-0.3,0-0.6-0.1-0.8-0.4c-0.2-0.3-0.3-0.6-0.3-1.1c0-0.5,0.1-0.8,0.3-1.1
		c0.2-0.3,0.5-0.4,0.9-0.4c0.1,0,0.2,0,0.3,0C224.1,235.7,224.2,235.7,224.3,235.7 M223.5,236.9c-0.2,0-0.3,0.1-0.4,0.2
		c-0.1,0.1-0.2,0.3-0.2,0.5c0,0.2,0.1,0.4,0.2,0.5c0.1,0.1,0.2,0.2,0.4,0.2s0.3-0.1,0.4-0.2c0.1-0.1,0.2-0.3,0.2-0.5
		c0-0.2-0.1-0.4-0.2-0.5C223.9,237,223.7,236.9,223.5,236.9"/>
</g>
<g>
	<defs>
		<rect id="SVGID_9_" x="268.1" y="179.1" width="90" height="82.1"/>
	</defs>
	<clipPath id="SVGID_10_">
		<use xlink:href="#SVGID_9_"  style="overflow:visible;"/>
	</clipPath>
	<rect x="268.1" y="179.1" class="st39" width="90" height="82.1"/>
	<rect x="275.7" y="186.4" class="st39" width="69" height="67.2"/>
	<g class="st40">
		<defs>
			<rect id="SVGID_11_" x="277.1" y="187.7" width="66.2" height="64.7"/>
		</defs>
		<clipPath id="SVGID_12_">
			<use xlink:href="#SVGID_11_"  style="overflow:visible;"/>
		</clipPath>
		<g style="clip-path:url(#SVGID_12_);">
			
				<image style="overflow:visible;" width="449" height="439" xlink:href="7D970BBC7900E473.png"  transform="matrix(0.1474 0 0 0.1474 277.0903 187.669)">
			</image>
		</g>
	</g>
	<path class="st40" d="M303,255h0.4v1.9c0,0.3,0.1,0.6,0.2,0.7s0.3,0.2,0.6,0.2c0.3,0,0.5-0.1,0.6-0.2c0.1-0.1,0.2-0.4,0.2-0.7V255
		h0.4v2c0,0.4-0.1,0.7-0.3,0.9c-0.2,0.2-0.5,0.3-0.9,0.3c-0.4,0-0.7-0.1-0.9-0.3c-0.2-0.2-0.3-0.5-0.3-0.9V255"/>
	<polyline class="st40" points="306.2,255 306.8,255 307.6,257.1 308.4,255 309.1,255 309.1,258.1 308.6,258.1 308.6,255.4 
		307.8,257.5 307.4,257.5 306.6,255.4 306.6,258.1 306.2,258.1 306.2,255 	"/>
	<path class="st40" d="M310.7,255h0.5l1.2,3.1h-0.4l-0.3-0.8h-1.4l-0.3,0.8h-0.4L310.7,255 M311,255.4l-0.6,1.6h1.2L311,255.4"/>
	<path class="st40" d="M312.8,255h1c0.3,0,0.6,0.1,0.8,0.2s0.3,0.4,0.3,0.7c0,0.3-0.1,0.5-0.3,0.7c-0.2,0.2-0.4,0.2-0.8,0.2h-0.5
		v1.3h-0.4V255 M313.3,255.4v1.2h0.5c0.2,0,0.3,0,0.5-0.2c0.1-0.1,0.2-0.2,0.2-0.4s-0.1-0.3-0.2-0.4c-0.1-0.1-0.3-0.2-0.5-0.2H313.3
		"/>
	<polyline class="st40" points="315.5,257.8 316.2,257.8 316.2,255.4 315.5,255.5 315.5,255.2 316.2,255 316.7,255 316.7,257.8 
		317.4,257.8 317.4,258.1 315.5,258.1 315.5,257.8 	"/>
	<path class="st40" d="M270.4,227.2v-0.4h1.9c0.3,0,0.6-0.1,0.7-0.2c0.1-0.1,0.2-0.3,0.2-0.6c0-0.3-0.1-0.5-0.2-0.6
		c-0.1-0.1-0.4-0.2-0.7-0.2h-1.9v-0.4h2c0.4,0,0.7,0.1,0.9,0.3c0.2,0.2,0.3,0.5,0.3,0.9c0,0.4-0.1,0.7-0.3,0.9
		c-0.2,0.2-0.5,0.3-0.9,0.3H270.4"/>
	<polyline class="st40" points="270.4,224 270.4,223.4 272.6,222.6 270.4,221.8 270.4,221.2 273.6,221.2 273.6,221.6 270.8,221.6 
		273,222.4 273,222.8 270.8,223.6 273.6,223.6 273.6,224 270.4,224 	"/>
	<path class="st40" d="M270.4,219.5V219l3.1-1.2v0.4l-0.8,0.3v1.4l0.8,0.3v0.4L270.4,219.5 M270.9,219.3l1.6,0.6v-1.2L270.9,219.3"
		/>
	<path class="st40" d="M270.4,217.4v-1c0-0.3,0.1-0.6,0.2-0.8c0.2-0.2,0.4-0.3,0.7-0.3c0.3,0,0.5,0.1,0.7,0.3
		c0.2,0.2,0.2,0.4,0.2,0.8v0.5h1.3v0.4H270.4 M270.8,217h1.2v-0.5c0-0.2,0-0.3-0.2-0.5c-0.1-0.1-0.2-0.2-0.4-0.2s-0.3,0.1-0.4,0.2
		c-0.1,0.1-0.2,0.3-0.2,0.5V217"/>
	<path class="st40" d="M273.2,214.4v-1.5h0.4v2h-0.4c-0.2-0.2-0.4-0.4-0.7-0.7c-0.3-0.3-0.5-0.5-0.5-0.5c-0.2-0.1-0.3-0.2-0.4-0.3
		c-0.1-0.1-0.2-0.1-0.3-0.1c-0.2,0-0.3,0.1-0.4,0.2c-0.1,0.1-0.2,0.3-0.2,0.5c0,0.1,0,0.3,0.1,0.4c0,0.1,0.1,0.3,0.2,0.5h-0.4
		c-0.1-0.2-0.1-0.3-0.2-0.5s-0.1-0.3-0.1-0.4c0-0.3,0.1-0.6,0.2-0.8c0.2-0.2,0.4-0.3,0.6-0.3c0.1,0,0.3,0,0.4,0.1
		c0.1,0,0.3,0.1,0.4,0.3c0,0,0.2,0.1,0.4,0.3C272.6,213.8,272.9,214.1,273.2,214.4"/>
	<line class="st41" x1="275.7" y1="253.6" x2="275.7" y2="186.4"/>
	<line class="st41" x1="344.7" y1="253.6" x2="344.7" y2="186.4"/>
	<line class="st41" x1="275.7" y1="253.6" x2="344.7" y2="253.6"/>
	<line class="st41" x1="275.7" y1="186.4" x2="344.7" y2="186.4"/>
	<polyline class="st40" points="304,181.3 304.4,181.3 304.4,184.6 304,184.6 304,181.3 	"/>
	<path class="st40" d="M306.8,183.2c0-0.2-0.1-0.4-0.2-0.5c-0.1-0.1-0.3-0.2-0.5-0.2c-0.2,0-0.4,0.1-0.5,0.2s-0.2,0.3-0.2,0.5H306.8
		 M307.2,183.3v0.2h-1.8c0,0.3,0.1,0.5,0.2,0.6c0.1,0.1,0.3,0.2,0.6,0.2c0.1,0,0.3,0,0.4-0.1c0.1,0,0.3-0.1,0.4-0.2v0.4
		c-0.1,0.1-0.3,0.1-0.4,0.1c-0.1,0-0.3,0-0.4,0c-0.4,0-0.7-0.1-0.9-0.3s-0.3-0.5-0.3-0.9c0-0.4,0.1-0.7,0.3-0.9
		c0.2-0.2,0.5-0.3,0.8-0.3c0.3,0,0.6,0.1,0.8,0.3C307.1,182.7,307.2,183,307.2,183.3"/>
	<path class="st40" d="M307.9,181.3h0.4v0.5h-0.4V181.3 M307.9,182.2h0.4v2.4h-0.4V182.2"/>
	<path class="st40" d="M309.3,183.4c0,0.3,0.1,0.5,0.2,0.7c0.1,0.2,0.3,0.2,0.5,0.2c0.2,0,0.4-0.1,0.5-0.2c0.1-0.2,0.2-0.4,0.2-0.7
		c0-0.3-0.1-0.5-0.2-0.7c-0.1-0.2-0.3-0.2-0.5-0.2c-0.2,0-0.4,0.1-0.5,0.2C309.3,182.9,309.3,183.1,309.3,183.4 M310.6,182.6v-1.3
		h0.4v3.3h-0.4v-0.4c-0.1,0.1-0.2,0.2-0.3,0.3s-0.3,0.1-0.4,0.1c-0.3,0-0.5-0.1-0.7-0.3c-0.2-0.2-0.3-0.5-0.3-0.9
		c0-0.4,0.1-0.7,0.3-0.9c0.2-0.2,0.4-0.3,0.7-0.3c0.2,0,0.3,0,0.4,0.1C310.4,182.4,310.5,182.5,310.6,182.6"/>
	<path class="st40" d="M313.4,183.2c0-0.2-0.1-0.4-0.2-0.5c-0.1-0.1-0.3-0.2-0.5-0.2c-0.2,0-0.4,0.1-0.5,0.2
		c-0.1,0.1-0.2,0.3-0.2,0.5H313.4 M313.8,183.3v0.2H312c0,0.3,0.1,0.5,0.2,0.6c0.1,0.1,0.3,0.2,0.6,0.2c0.1,0,0.3,0,0.4-0.1
		c0.1,0,0.3-0.1,0.4-0.2v0.4c-0.1,0.1-0.3,0.1-0.4,0.1c-0.1,0-0.3,0-0.4,0c-0.4,0-0.7-0.1-0.9-0.3s-0.3-0.5-0.3-0.9
		c0-0.4,0.1-0.7,0.3-0.9c0.2-0.2,0.5-0.3,0.8-0.3c0.3,0,0.6,0.1,0.8,0.3C313.7,182.7,313.8,183,313.8,183.3"/>
	<path class="st40" d="M316.4,183.2v1.4H316v-1.4c0-0.2,0-0.4-0.1-0.5c-0.1-0.1-0.2-0.2-0.4-0.2c-0.2,0-0.4,0.1-0.5,0.2
		c-0.1,0.1-0.2,0.3-0.2,0.5v1.3h-0.4v-2.4h0.4v0.4c0.1-0.1,0.2-0.2,0.3-0.3c0.1-0.1,0.3-0.1,0.4-0.1c0.3,0,0.5,0.1,0.6,0.3
		C316.3,182.6,316.4,182.9,316.4,183.2"/>
	<path class="st42" d="M349.2,209.4c0.2,0,0.5-0.1,0.7-0.3c0.2-0.2,0.3-0.4,0.3-0.7c0-0.2-0.1-0.5-0.3-0.7c-0.2-0.2-0.4-0.3-0.7-0.3
		s-0.5,0.1-0.7,0.3c-0.2,0.2-0.3,0.4-0.3,0.7c0,0.2,0.1,0.5,0.3,0.7C348.7,209.3,349,209.4,349.2,209.4z"/>
	<path class="st43" d="M349.2,209.4c0.2,0,0.5-0.1,0.7-0.3c0.2-0.2,0.3-0.4,0.3-0.7c0-0.2-0.1-0.5-0.3-0.7c-0.2-0.2-0.4-0.3-0.7-0.3
		s-0.5,0.1-0.7,0.3c-0.2,0.2-0.3,0.4-0.3,0.7c0,0.2,0.1,0.5,0.3,0.7C348.7,209.3,349,209.4,349.2,209.4z"/>
	<path class="st40" d="M353.1,206.6c0.3,0,0.6,0.1,0.7,0.4c0.2,0.3,0.3,0.6,0.3,1.1c0,0.5-0.1,0.9-0.3,1.1c-0.2,0.3-0.4,0.4-0.7,0.4
		c-0.3,0-0.6-0.1-0.7-0.4c-0.2-0.3-0.3-0.6-0.3-1.1c0-0.5,0.1-0.9,0.3-1.1C352.5,206.7,352.7,206.6,353.1,206.6 M353.1,206.9
		c-0.2,0-0.4,0.1-0.5,0.3c-0.1,0.2-0.2,0.5-0.2,0.9c0,0.4,0,0.7,0.2,0.9c0.1,0.2,0.3,0.3,0.5,0.3c0.2,0,0.4-0.1,0.5-0.3
		c0.1-0.2,0.2-0.5,0.2-0.9c0-0.4-0.1-0.7-0.2-0.9C353.4,207,353.3,206.9,353.1,206.9"/>
	<path class="st44" d="M349.2,215.2c0.2,0,0.5-0.1,0.7-0.3c0.2-0.2,0.3-0.4,0.3-0.7s-0.1-0.5-0.3-0.7c-0.2-0.2-0.4-0.3-0.7-0.3
		s-0.5,0.1-0.7,0.3c-0.2,0.2-0.3,0.4-0.3,0.7s0.1,0.5,0.3,0.7S349,215.2,349.2,215.2z"/>
	<path class="st45" d="M349.2,215.2c0.2,0,0.5-0.1,0.7-0.3c0.2-0.2,0.3-0.4,0.3-0.7s-0.1-0.5-0.3-0.7c-0.2-0.2-0.4-0.3-0.7-0.3
		s-0.5,0.1-0.7,0.3c-0.2,0.2-0.3,0.4-0.3,0.7s0.1,0.5,0.3,0.7S349,215.2,349.2,215.2z"/>
	<polyline class="st40" points="352.3,215 352.9,215 352.9,212.8 352.2,212.9 352.2,212.6 352.9,212.5 353.3,212.5 353.3,215 
		353.9,215 353.9,215.3 352.3,215.3 352.3,215 	"/>
	<path class="st46" d="M349.2,221c0.2,0,0.5-0.1,0.7-0.3c0.2-0.2,0.3-0.4,0.3-0.7c0-0.2-0.1-0.5-0.3-0.7c-0.2-0.2-0.4-0.3-0.7-0.3
		s-0.5,0.1-0.7,0.3s-0.3,0.4-0.3,0.7c0,0.2,0.1,0.5,0.3,0.7C348.7,220.9,349,221,349.2,221z"/>
	<path class="st47" d="M349.2,221c0.2,0,0.5-0.1,0.7-0.3c0.2-0.2,0.3-0.4,0.3-0.7c0-0.2-0.1-0.5-0.3-0.7c-0.2-0.2-0.4-0.3-0.7-0.3
		s-0.5,0.1-0.7,0.3s-0.3,0.4-0.3,0.7c0,0.2,0.1,0.5,0.3,0.7C348.7,220.9,349,221,349.2,221z"/>
	<path class="st40" d="M352.6,220.8h1.4v0.3h-1.8v-0.3c0.1-0.2,0.3-0.4,0.6-0.6c0.3-0.3,0.4-0.4,0.5-0.5c0.1-0.1,0.2-0.3,0.3-0.4
		c0-0.1,0.1-0.2,0.1-0.3c0-0.2-0.1-0.3-0.2-0.4c-0.1-0.1-0.2-0.1-0.4-0.1c-0.1,0-0.3,0-0.4,0.1c-0.1,0-0.3,0.1-0.4,0.2v-0.4
		c0.2-0.1,0.3-0.1,0.4-0.1c0.1,0,0.3,0,0.4,0c0.3,0,0.5,0.1,0.7,0.2c0.2,0.2,0.3,0.3,0.3,0.6c0,0.1,0,0.2-0.1,0.3
		c0,0.1-0.1,0.2-0.2,0.4c0,0-0.1,0.1-0.3,0.3C353.1,220.2,352.9,220.5,352.6,220.8"/>
	<path class="st48" d="M349.2,226.8c0.2,0,0.5-0.1,0.7-0.3c0.2-0.2,0.3-0.4,0.3-0.7s-0.1-0.5-0.3-0.7c-0.2-0.2-0.4-0.3-0.7-0.3
		s-0.5,0.1-0.7,0.3s-0.3,0.4-0.3,0.7s0.1,0.5,0.3,0.7C348.7,226.7,349,226.8,349.2,226.8z"/>
	<path class="st49" d="M349.2,226.8c0.2,0,0.5-0.1,0.7-0.3c0.2-0.2,0.3-0.4,0.3-0.7s-0.1-0.5-0.3-0.7c-0.2-0.2-0.4-0.3-0.7-0.3
		s-0.5,0.1-0.7,0.3s-0.3,0.4-0.3,0.7s0.1,0.5,0.3,0.7C348.7,226.7,349,226.8,349.2,226.8z"/>
	<path class="st40" d="M353.4,225.4c0.2,0,0.3,0.1,0.4,0.2c0.1,0.1,0.2,0.3,0.2,0.5c0,0.3-0.1,0.5-0.3,0.7c-0.2,0.2-0.5,0.2-0.8,0.2
		c-0.1,0-0.2,0-0.4,0c-0.1,0-0.3-0.1-0.4-0.1v-0.4c0.1,0.1,0.2,0.1,0.4,0.1c0.1,0,0.3,0,0.4,0c0.2,0,0.4,0,0.6-0.1
		c0.1-0.1,0.2-0.2,0.2-0.4c0-0.2-0.1-0.3-0.2-0.4s-0.3-0.1-0.5-0.1h-0.3v-0.3h0.4c0.2,0,0.3,0,0.4-0.1c0.1-0.1,0.2-0.2,0.2-0.3
		c0-0.1-0.1-0.3-0.2-0.3c-0.1-0.1-0.3-0.1-0.5-0.1c-0.1,0-0.2,0-0.3,0c-0.1,0-0.3,0.1-0.4,0.1v-0.3c0.1,0,0.3-0.1,0.4-0.1
		c0.1,0,0.2,0,0.4,0c0.3,0,0.5,0.1,0.7,0.2c0.2,0.1,0.3,0.3,0.3,0.5c0,0.2,0,0.3-0.1,0.4C353.7,225.3,353.6,225.3,353.4,225.4"/>
	<path class="st50" d="M349.2,232.6c0.2,0,0.5-0.1,0.7-0.3c0.2-0.2,0.3-0.4,0.3-0.7s-0.1-0.5-0.3-0.7c-0.2-0.2-0.4-0.3-0.7-0.3
		s-0.5,0.1-0.7,0.3c-0.2,0.2-0.3,0.4-0.3,0.7s0.1,0.5,0.3,0.7S349,232.6,349.2,232.6z"/>
	<path class="st51" d="M349.2,232.6c0.2,0,0.5-0.1,0.7-0.3c0.2-0.2,0.3-0.4,0.3-0.7s-0.1-0.5-0.3-0.7c-0.2-0.2-0.4-0.3-0.7-0.3
		s-0.5,0.1-0.7,0.3c-0.2,0.2-0.3,0.4-0.3,0.7s0.1,0.5,0.3,0.7S349,232.6,349.2,232.6z"/>
	<path class="st40" d="M353.2,229.9h0.5v1.9h0.4v0.3h-0.4v0.7h-0.4v-0.7H352v-0.4L353.2,229.9 M353.3,230.2l-1,1.5h1V230.2"/>
</g>
<text transform="matrix(1 0 0 1 0.9968 268.3563)" class="st1 st2 st3">C</text>
<text transform="matrix(1 0 0 1 402.7173 155.9474)" class="st1 st2 st3">D</text>
<text transform="matrix(1 0 0 1 11.779 185.2285)" class="st52 st53">Human</text>
<text transform="matrix(1 0 0 1 141.5063 185.2285)" class="st52 st53">Chimp</text>
<text transform="matrix(1 0 0 1 251.0933 185.2285)" class="st52 st53">Orangutan</text>
<text transform="matrix(1 0 0 1 19.9009 271.3587)" class="st52 st53">Human</text>
<text transform="matrix(1 0 0 1 149.6282 271.3587)" class="st52 st53">Chimp</text>
<text transform="matrix(1 0 0 1 259.2151 271.3587)" class="st52 st53">Orangutan</text>
</svg>
