<?xml version="1.0" encoding="utf-8"?>
<!-- Generator: Adobe Illustrator 22.1.0, SVG Export Plug-In . SVG Version: 6.00 Build 0)  -->
<svg version="1.1" id="Layer_1" xmlns="http://www.w3.org/2000/svg" xmlns:xlink="http://www.w3.org/1999/xlink" x="0px" y="0px"
	 viewBox="0 0 517.3 455.3" style="enable-background:new 0 0 517.3 455.3;" xml:space="preserve">
<style type="text/css">
	.st0{fill:#010101;}
	.st1{font-family:'Helvetica-Bold';}
	.st2{font-size:12px;}
	.st3{fill:#E6E7E7;stroke:#010101;stroke-miterlimit:10;}
	.st4{enable-background:new    ;}
	.st5{font-family:'Helvetica-Light';}
	.st6{clip-path:url(#SVGID_2_);fill:#FFFFFF;}
	.st7{clip-path:url(#SVGID_2_);}
	.st8{clip-path:url(#SVGID_2_);fill:none;stroke:#000000;stroke-width:0.8;stroke-linecap:square;stroke-miterlimit:10;}
	.st9{clip-path:url(#SVGID_2_);fill:#2278B5;}
	.st10{clip-path:url(#SVGID_2_);fill:none;stroke:#2278B5;stroke-linejoin:round;stroke-miterlimit:10;}
	.st11{clip-path:url(#SVGID_2_);fill:#F57F20;}
	.st12{clip-path:url(#SVGID_2_);fill:none;stroke:#F57F20;stroke-linejoin:round;stroke-miterlimit:10;}
	.st13{clip-path:url(#SVGID_2_);fill:#279E69;}
	.st14{clip-path:url(#SVGID_2_);fill:none;stroke:#279E69;stroke-linejoin:round;stroke-miterlimit:10;}
	.st15{clip-path:url(#SVGID_2_);fill:#D62A28;}
	.st16{clip-path:url(#SVGID_2_);fill:none;stroke:#D62A28;stroke-linejoin:round;stroke-miterlimit:10;}
	.st17{clip-path:url(#SVGID_2_);fill:#855AA5;}
	.st18{clip-path:url(#SVGID_2_);fill:none;stroke:#855AA5;stroke-linejoin:round;stroke-miterlimit:10;}
	.st19{clip-path:url(#SVGID_2_);fill:#8D574C;}
	.st20{clip-path:url(#SVGID_2_);fill:none;stroke:#8D574C;stroke-linejoin:round;stroke-miterlimit:10;}
	.st21{clip-path:url(#SVGID_2_);fill:#D87AB2;}
	.st22{clip-path:url(#SVGID_2_);fill:none;stroke:#D87AB2;stroke-linejoin:round;stroke-miterlimit:10;}
	.st23{clip-path:url(#SVGID_6_);fill:#FFFFFF;}
	.st24{clip-path:url(#SVGID_6_);}
	.st25{clip-path:url(#SVGID_6_);fill:none;stroke:#000000;stroke-width:0.8;stroke-linecap:square;stroke-miterlimit:10;}
	.st26{clip-path:url(#SVGID_6_);fill:#2278B5;}
	.st27{clip-path:url(#SVGID_6_);fill:none;stroke:#2278B5;stroke-linejoin:round;stroke-miterlimit:10;}
	.st28{clip-path:url(#SVGID_6_);fill:#F57F20;}
	.st29{clip-path:url(#SVGID_6_);fill:none;stroke:#F57F20;stroke-linejoin:round;stroke-miterlimit:10;}
	.st30{clip-path:url(#SVGID_6_);fill:#279E69;}
	.st31{clip-path:url(#SVGID_6_);fill:none;stroke:#279E69;stroke-linejoin:round;stroke-miterlimit:10;}
	.st32{clip-path:url(#SVGID_6_);fill:#D62A28;}
	.st33{clip-path:url(#SVGID_6_);fill:none;stroke:#D62A28;stroke-linejoin:round;stroke-miterlimit:10;}
	.st34{clip-path:url(#SVGID_6_);fill:#855AA5;}
	.st35{clip-path:url(#SVGID_6_);fill:none;stroke:#855AA5;stroke-linejoin:round;stroke-miterlimit:10;}
	.st36{clip-path:url(#SVGID_6_);fill:#8D574C;}
	.st37{clip-path:url(#SVGID_6_);fill:none;stroke:#8D574C;stroke-linejoin:round;stroke-miterlimit:10;}
	.st38{clip-path:url(#SVGID_6_);fill:#D87AB2;}
	.st39{clip-path:url(#SVGID_6_);fill:none;stroke:#D87AB2;stroke-linejoin:round;stroke-miterlimit:10;}
	.st40{clip-path:url(#SVGID_10_);fill:#FFFFFF;}
	.st41{clip-path:url(#SVGID_10_);}
	.st42{clip-path:url(#SVGID_10_);fill:none;stroke:#000000;stroke-width:0.8;stroke-linecap:square;stroke-miterlimit:10;}
	.st43{clip-path:url(#SVGID_10_);fill:#2278B5;}
	.st44{clip-path:url(#SVGID_10_);fill:none;stroke:#2278B5;stroke-linejoin:round;stroke-miterlimit:10;}
	.st45{clip-path:url(#SVGID_10_);fill:#F57F20;}
	.st46{clip-path:url(#SVGID_10_);fill:none;stroke:#F57F20;stroke-linejoin:round;stroke-miterlimit:10;}
	.st47{clip-path:url(#SVGID_10_);fill:#279E69;}
	.st48{clip-path:url(#SVGID_10_);fill:none;stroke:#279E69;stroke-linejoin:round;stroke-miterlimit:10;}
	.st49{clip-path:url(#SVGID_10_);fill:#D62A28;}
	.st50{clip-path:url(#SVGID_10_);fill:none;stroke:#D62A28;stroke-linejoin:round;stroke-miterlimit:10;}
	.st51{clip-path:url(#SVGID_10_);fill:#855AA5;}
	.st52{clip-path:url(#SVGID_10_);fill:none;stroke:#855AA5;stroke-linejoin:round;stroke-miterlimit:10;}
	.st53{font-size:10px;}
	.st54{fill:none;}
</style>
<text transform="matrix(1 0 0 1 1.2535 10.8181)" class="st0 st1 st2">A</text>
<text transform="matrix(1 0 0 1 -1.716614e-05 185.7283)" class="st0 st1 st2">B</text>
<g>
	<rect x="1" y="346.8" class="st3" width="366.1" height="108"/>
	<text transform="matrix(1 0 0 1 136.6704 383.232)" class="st4"><tspan x="0" y="0" class="st0 st5 st2">kNN/UMAP of  </tspan><tspan x="-9" y="14.4" class="st0 st5 st2">primate organoid  </tspan><tspan x="8.3" y="28.8" class="st0 st5 st2">long reads  </tspan><tspan x="8.7" y="43.2" class="st0 st5 st2">MinHashes</tspan></text>
</g>
<g id="gKi02V.tif">
	
		<image style="overflow:visible;" width="1890" height="848" id="Layer_0_1_" xlink:href="7D970BBC7900E450.png"  transform="matrix(0.1928 0 0 0.1928 1.8583 11.8189)">
	</image>
</g>
<g id="wGa2Si.tif">
	<g id="wfToCW.tif">
		
			<image style="overflow:visible;" width="386" height="278" id="Layer_0_2_" xlink:href="7D970BBC7900E46E.png"  transform="matrix(0.2798 0 0 0.2798 0 267.1988)">
		</image>
	</g>
</g>
<g id="liyUq1.tif">
	
		<image style="overflow:visible;" width="386" height="270" id="Layer_0_3_" xlink:href="7D970BBC7900E46F.png"  transform="matrix(0.2798 0 0 0.2798 129.5499 268.318)">
	</image>
</g>
<g id="Z0Dqhc.tif">
	
		<image style="overflow:visible;" width="391" height="265" id="Layer_0_4_" xlink:href="7D970BBC7900E474.png"  transform="matrix(0.2762 0 0 0.2762 259.0999 269.4915)">
	</image>
</g>
<g>
	<defs>
		<rect id="SVGID_1_" x="9" y="179.6" width="90" height="82.1"/>
	</defs>
	<clipPath id="SVGID_2_">
		<use xlink:href="#SVGID_1_"  style="overflow:visible;"/>
	</clipPath>
	<rect x="9" y="179.6" class="st6" width="90" height="82.1"/>
	<rect x="16.6" y="186.9" class="st6" width="69" height="67.2"/>
	<g class="st7">
		<defs>
			<rect id="SVGID_3_" x="18.4" y="188.6" width="65.3" height="63.8"/>
		</defs>
		<clipPath id="SVGID_4_">
			<use xlink:href="#SVGID_3_"  style="overflow:visible;"/>
		</clipPath>
		<g style="clip-path:url(#SVGID_4_);">
			
				<image style="overflow:visible;" width="443" height="433" xlink:href="7D970BBC7900E475.png"  transform="matrix(0.1474 0 0 0.1474 18.4326 188.6111)">
			</image>
		</g>
	</g>
	<path class="st7" d="M43.9,255.5h0.4v1.9c0,0.3,0.1,0.6,0.2,0.7s0.3,0.2,0.6,0.2c0.3,0,0.5-0.1,0.6-0.2c0.1-0.1,0.2-0.4,0.2-0.7
		v-1.9h0.4v2c0,0.4-0.1,0.7-0.3,0.9s-0.5,0.3-0.9,0.3s-0.7-0.1-0.9-0.3c-0.2-0.2-0.3-0.5-0.3-0.9V255.5"/>
	<polyline class="st7" points="47.1,255.5 47.7,255.5 48.5,257.6 49.3,255.5 50,255.5 50,258.6 49.5,258.6 49.5,255.9 48.7,258 
		48.3,258 47.5,255.9 47.5,258.6 47.1,258.6 47.1,255.5 	"/>
	<path class="st7" d="M51.6,255.5h0.5l1.2,3.1h-0.4l-0.3-0.8h-1.4l-0.3,0.8h-0.4L51.6,255.5 M51.9,255.9l-0.6,1.6h1.2L51.9,255.9"/>
	<path class="st7" d="M53.7,255.5h1c0.3,0,0.6,0.1,0.8,0.2c0.2,0.2,0.3,0.4,0.3,0.7c0,0.3-0.1,0.5-0.3,0.7c-0.2,0.2-0.4,0.2-0.8,0.2
		h-0.5v1.3h-0.4V255.5 M54.2,255.9v1.2h0.5c0.2,0,0.3,0,0.5-0.2c0.1-0.1,0.2-0.2,0.2-0.4s-0.1-0.3-0.2-0.4c-0.1-0.1-0.3-0.2-0.5-0.2
		H54.2"/>
	<polyline class="st7" points="56.4,258.3 57.1,258.3 57.1,255.9 56.4,256 56.4,255.7 57.1,255.5 57.6,255.5 57.6,258.3 58.3,258.3 
		58.3,258.6 56.4,258.6 56.4,258.3 	"/>
	<path class="st7" d="M11.3,227.7v-0.4h1.9c0.3,0,0.6-0.1,0.7-0.2s0.2-0.3,0.2-0.6c0-0.3-0.1-0.5-0.2-0.6c-0.1-0.1-0.4-0.2-0.7-0.2
		h-1.9v-0.4h2c0.4,0,0.7,0.1,0.9,0.3c0.2,0.2,0.3,0.5,0.3,0.9c0,0.4-0.1,0.7-0.3,0.9s-0.5,0.3-0.9,0.3H11.3"/>
	<polyline class="st7" points="11.3,224.5 11.3,223.9 13.5,223.1 11.3,222.3 11.3,221.7 14.5,221.7 14.5,222.1 11.7,222.1 
		13.9,222.9 13.9,223.3 11.7,224.1 14.5,224.1 14.5,224.5 11.3,224.5 	"/>
	<path class="st7" d="M11.3,220v-0.5l3.1-1.2v0.4l-0.8,0.3v1.4l0.8,0.3v0.4L11.3,220 M11.8,219.8l1.6,0.6v-1.2L11.8,219.8"/>
	<path class="st7" d="M11.3,217.9v-1c0-0.3,0.1-0.6,0.2-0.8c0.2-0.2,0.4-0.3,0.7-0.3c0.3,0,0.5,0.1,0.7,0.3c0.2,0.2,0.2,0.4,0.2,0.8
		v0.5h1.3v0.4H11.3 M11.7,217.5h1.2v-0.5c0-0.2,0-0.3-0.2-0.5c-0.1-0.1-0.2-0.2-0.4-0.2c-0.2,0-0.3,0.1-0.4,0.2s-0.2,0.3-0.2,0.5
		V217.5"/>
	<path class="st7" d="M14.1,214.9v-1.5h0.4v2h-0.4c-0.2-0.2-0.4-0.4-0.7-0.7c-0.3-0.3-0.5-0.5-0.5-0.5c-0.2-0.1-0.3-0.2-0.4-0.3
		c-0.1-0.1-0.2-0.1-0.3-0.1c-0.2,0-0.3,0.1-0.4,0.2c-0.1,0.1-0.2,0.3-0.2,0.5c0,0.1,0,0.3,0.1,0.4c0,0.1,0.1,0.3,0.2,0.5h-0.4
		c-0.1-0.2-0.1-0.3-0.2-0.5c0-0.1-0.1-0.3-0.1-0.4c0-0.3,0.1-0.6,0.2-0.8c0.2-0.2,0.4-0.3,0.6-0.3c0.1,0,0.3,0,0.4,0.1
		c0.1,0,0.3,0.1,0.4,0.3c0,0,0.2,0.1,0.4,0.3C13.5,214.3,13.8,214.6,14.1,214.9"/>
	<line class="st8" x1="16.6" y1="254.1" x2="16.6" y2="186.9"/>
	<line class="st8" x1="85.6" y1="254.1" x2="85.6" y2="186.9"/>
	<line class="st8" x1="16.6" y1="254.1" x2="85.6" y2="254.1"/>
	<line class="st8" x1="16.6" y1="186.9" x2="85.6" y2="186.9"/>
	<polyline class="st7" points="44.9,181.8 45.3,181.8 45.3,185.1 44.9,185.1 44.9,181.8 	"/>
	<path class="st7" d="M47.7,183.7c0-0.2-0.1-0.4-0.2-0.5c-0.1-0.1-0.3-0.2-0.5-0.2c-0.2,0-0.4,0.1-0.5,0.2c-0.1,0.1-0.2,0.3-0.2,0.5
		H47.7 M48.1,183.8v0.2h-1.8c0,0.3,0.1,0.5,0.2,0.6c0.1,0.1,0.3,0.2,0.6,0.2c0.1,0,0.3,0,0.4-0.1s0.3-0.1,0.4-0.2v0.4
		c-0.1,0.1-0.3,0.1-0.4,0.1c-0.1,0-0.3,0-0.4,0c-0.4,0-0.7-0.1-0.9-0.3s-0.3-0.5-0.3-0.9c0-0.4,0.1-0.7,0.3-0.9
		c0.2-0.2,0.5-0.3,0.8-0.3c0.3,0,0.6,0.1,0.8,0.3C48,183.2,48.1,183.5,48.1,183.8"/>
	<path class="st7" d="M48.8,181.8h0.4v0.5h-0.4V181.8 M48.8,182.7h0.4v2.4h-0.4V182.7"/>
	<path class="st7" d="M50.2,183.9c0,0.3,0.1,0.5,0.2,0.7c0.1,0.2,0.3,0.2,0.5,0.2c0.2,0,0.4-0.1,0.5-0.2c0.1-0.2,0.2-0.4,0.2-0.7
		c0-0.3-0.1-0.5-0.2-0.7c-0.1-0.2-0.3-0.2-0.5-0.2c-0.2,0-0.4,0.1-0.5,0.2C50.2,183.4,50.2,183.6,50.2,183.9 M51.5,183.1v-1.3h0.4
		v3.3h-0.4v-0.4c-0.1,0.1-0.2,0.2-0.3,0.3s-0.3,0.1-0.4,0.1c-0.3,0-0.5-0.1-0.7-0.3c-0.2-0.2-0.3-0.5-0.3-0.9c0-0.4,0.1-0.7,0.3-0.9
		c0.2-0.2,0.4-0.3,0.7-0.3c0.2,0,0.3,0,0.4,0.1C51.3,182.9,51.4,183,51.5,183.1"/>
	<path class="st7" d="M54.3,183.7c0-0.2-0.1-0.4-0.2-0.5c-0.1-0.1-0.3-0.2-0.5-0.2c-0.2,0-0.4,0.1-0.5,0.2c-0.1,0.1-0.2,0.3-0.2,0.5
		H54.3 M54.7,183.8v0.2h-1.8c0,0.3,0.1,0.5,0.2,0.6c0.1,0.1,0.3,0.2,0.6,0.2c0.1,0,0.3,0,0.4-0.1c0.1,0,0.3-0.1,0.4-0.2v0.4
		c-0.1,0.1-0.3,0.1-0.4,0.1c-0.1,0-0.3,0-0.4,0c-0.4,0-0.7-0.1-0.9-0.3s-0.3-0.5-0.3-0.9c0-0.4,0.1-0.7,0.3-0.9
		c0.2-0.2,0.5-0.3,0.8-0.3c0.3,0,0.6,0.1,0.8,0.3C54.6,183.2,54.7,183.5,54.7,183.8"/>
	<path class="st7" d="M57.3,183.7v1.4h-0.4v-1.4c0-0.2,0-0.4-0.1-0.5c-0.1-0.1-0.2-0.2-0.4-0.2c-0.2,0-0.4,0.1-0.5,0.2
		c-0.1,0.1-0.2,0.3-0.2,0.5v1.3h-0.4v-2.4h0.4v0.4c0.1-0.1,0.2-0.2,0.3-0.3c0.1-0.1,0.3-0.1,0.4-0.1c0.3,0,0.5,0.1,0.6,0.3
		C57.2,183.1,57.3,183.4,57.3,183.7"/>
	<path class="st9" d="M90.1,204.1c0.2,0,0.5-0.1,0.7-0.3c0.2-0.2,0.3-0.4,0.3-0.7s-0.1-0.5-0.3-0.7c-0.2-0.2-0.4-0.3-0.7-0.3
		c-0.2,0-0.5,0.1-0.7,0.3c-0.2,0.2-0.3,0.4-0.3,0.7s0.1,0.5,0.3,0.7C89.6,204,89.9,204.1,90.1,204.1z"/>
	<path class="st10" d="M90.1,204.1c0.2,0,0.5-0.1,0.7-0.3c0.2-0.2,0.3-0.4,0.3-0.7s-0.1-0.5-0.3-0.7c-0.2-0.2-0.4-0.3-0.7-0.3
		c-0.2,0-0.5,0.1-0.7,0.3c-0.2,0.2-0.3,0.4-0.3,0.7s0.1,0.5,0.3,0.7C89.6,204,89.9,204.1,90.1,204.1z"/>
	<path class="st7" d="M94,201.3c0.3,0,0.6,0.1,0.7,0.4c0.2,0.3,0.3,0.6,0.3,1.1c0,0.5-0.1,0.9-0.3,1.1c-0.2,0.3-0.4,0.4-0.7,0.4
		c-0.3,0-0.6-0.1-0.7-0.4c-0.2-0.3-0.3-0.6-0.3-1.1c0-0.5,0.1-0.9,0.3-1.1C93.4,201.4,93.6,201.3,94,201.3 M94,201.6
		c-0.2,0-0.4,0.1-0.5,0.3s-0.2,0.5-0.2,0.9c0,0.4,0,0.7,0.2,0.9c0.1,0.2,0.3,0.3,0.5,0.3c0.2,0,0.4-0.1,0.5-0.3
		c0.1-0.2,0.2-0.5,0.2-0.9c0-0.4-0.1-0.7-0.2-0.9C94.3,201.7,94.2,201.6,94,201.6"/>
	<path class="st11" d="M90.1,209.9c0.2,0,0.5-0.1,0.7-0.3c0.2-0.2,0.3-0.4,0.3-0.7c0-0.2-0.1-0.5-0.3-0.7c-0.2-0.2-0.4-0.3-0.7-0.3
		c-0.2,0-0.5,0.1-0.7,0.3c-0.2,0.2-0.3,0.4-0.3,0.7c0,0.2,0.1,0.5,0.3,0.7C89.6,209.8,89.9,209.9,90.1,209.9z"/>
	<path class="st12" d="M90.1,209.9c0.2,0,0.5-0.1,0.7-0.3c0.2-0.2,0.3-0.4,0.3-0.7c0-0.2-0.1-0.5-0.3-0.7c-0.2-0.2-0.4-0.3-0.7-0.3
		c-0.2,0-0.5,0.1-0.7,0.3c-0.2,0.2-0.3,0.4-0.3,0.7c0,0.2,0.1,0.5,0.3,0.7C89.6,209.8,89.9,209.9,90.1,209.9z"/>
	<polyline class="st7" points="93.2,209.7 93.8,209.7 93.8,207.5 93.1,207.6 93.1,207.3 93.8,207.2 94.2,207.2 94.2,209.7 
		94.8,209.7 94.8,210 93.2,210 93.2,209.7 	"/>
	<path class="st13" d="M90.1,215.7c0.2,0,0.5-0.1,0.7-0.3c0.2-0.2,0.3-0.4,0.3-0.7s-0.1-0.5-0.3-0.7c-0.2-0.2-0.4-0.3-0.7-0.3
		c-0.2,0-0.5,0.1-0.7,0.3c-0.2,0.2-0.3,0.4-0.3,0.7s0.1,0.5,0.3,0.7C89.6,215.6,89.9,215.7,90.1,215.7z"/>
	<path class="st14" d="M90.1,215.7c0.2,0,0.5-0.1,0.7-0.3c0.2-0.2,0.3-0.4,0.3-0.7s-0.1-0.5-0.3-0.7c-0.2-0.2-0.4-0.3-0.7-0.3
		c-0.2,0-0.5,0.1-0.7,0.3c-0.2,0.2-0.3,0.4-0.3,0.7s0.1,0.5,0.3,0.7C89.6,215.6,89.9,215.7,90.1,215.7z"/>
	<path class="st7" d="M93.5,215.5h1.4v0.3H93v-0.3c0.1-0.2,0.3-0.4,0.6-0.6c0.3-0.3,0.4-0.4,0.5-0.5c0.1-0.1,0.2-0.3,0.3-0.4
		c0-0.1,0.1-0.2,0.1-0.3c0-0.2-0.1-0.3-0.2-0.4c-0.1-0.1-0.2-0.1-0.4-0.1c-0.1,0-0.3,0-0.4,0.1c-0.1,0-0.3,0.1-0.4,0.2v-0.4
		c0.2-0.1,0.3-0.1,0.4-0.1c0.1,0,0.3,0,0.4,0c0.3,0,0.5,0.1,0.7,0.2c0.2,0.2,0.3,0.3,0.3,0.6c0,0.1,0,0.2-0.1,0.3
		c0,0.1-0.1,0.2-0.2,0.4c0,0-0.1,0.1-0.3,0.3C94,214.9,93.8,215.2,93.5,215.5"/>
	<path class="st15" d="M90.1,221.5c0.2,0,0.5-0.1,0.7-0.3c0.2-0.2,0.3-0.4,0.3-0.7c0-0.2-0.1-0.5-0.3-0.7c-0.2-0.2-0.4-0.3-0.7-0.3
		c-0.2,0-0.5,0.1-0.7,0.3c-0.2,0.2-0.3,0.4-0.3,0.7c0,0.2,0.1,0.5,0.3,0.7C89.6,221.4,89.9,221.5,90.1,221.5z"/>
	<path class="st16" d="M90.1,221.5c0.2,0,0.5-0.1,0.7-0.3c0.2-0.2,0.3-0.4,0.3-0.7c0-0.2-0.1-0.5-0.3-0.7c-0.2-0.2-0.4-0.3-0.7-0.3
		c-0.2,0-0.5,0.1-0.7,0.3c-0.2,0.2-0.3,0.4-0.3,0.7c0,0.2,0.1,0.5,0.3,0.7C89.6,221.4,89.9,221.5,90.1,221.5z"/>
	<path class="st7" d="M94.3,220.1c0.2,0,0.3,0.1,0.4,0.2c0.1,0.1,0.2,0.3,0.2,0.5c0,0.3-0.1,0.5-0.3,0.7c-0.2,0.2-0.5,0.2-0.8,0.2
		c-0.1,0-0.2,0-0.4,0c-0.1,0-0.3-0.1-0.4-0.1v-0.4c0.1,0.1,0.2,0.1,0.4,0.1c0.1,0,0.3,0,0.4,0c0.2,0,0.4,0,0.6-0.1s0.2-0.2,0.2-0.4
		c0-0.2-0.1-0.3-0.2-0.4c-0.1-0.1-0.3-0.1-0.5-0.1h-0.3v-0.3h0.4c0.2,0,0.3,0,0.4-0.1c0.1-0.1,0.2-0.2,0.2-0.3
		c0-0.1-0.1-0.3-0.2-0.3c-0.1-0.1-0.3-0.1-0.5-0.1c-0.1,0-0.2,0-0.3,0c-0.1,0-0.3,0.1-0.4,0.1v-0.3c0.1,0,0.3-0.1,0.4-0.1
		c0.1,0,0.2,0,0.4,0c0.3,0,0.5,0.1,0.7,0.2c0.2,0.1,0.3,0.3,0.3,0.5c0,0.2,0,0.3-0.1,0.4C94.6,220,94.5,220,94.3,220.1"/>
	<path class="st17" d="M90.1,227.3c0.2,0,0.5-0.1,0.7-0.3c0.2-0.2,0.3-0.4,0.3-0.7s-0.1-0.5-0.3-0.7c-0.2-0.2-0.4-0.3-0.7-0.3
		c-0.2,0-0.5,0.1-0.7,0.3c-0.2,0.2-0.3,0.4-0.3,0.7s0.1,0.5,0.3,0.7C89.6,227.2,89.9,227.3,90.1,227.3z"/>
	<path class="st18" d="M90.1,227.3c0.2,0,0.5-0.1,0.7-0.3c0.2-0.2,0.3-0.4,0.3-0.7s-0.1-0.5-0.3-0.7c-0.2-0.2-0.4-0.3-0.7-0.3
		c-0.2,0-0.5,0.1-0.7,0.3c-0.2,0.2-0.3,0.4-0.3,0.7s0.1,0.5,0.3,0.7C89.6,227.2,89.9,227.3,90.1,227.3z"/>
	<path class="st7" d="M94.1,224.6h0.5v1.9H95v0.3h-0.4v0.7h-0.4v-0.7h-1.3v-0.4L94.1,224.6 M94.2,224.9l-1,1.5h1V224.9"/>
	<path class="st19" d="M90.1,233.1c0.2,0,0.5-0.1,0.7-0.3c0.2-0.2,0.3-0.4,0.3-0.7s-0.1-0.5-0.3-0.7c-0.2-0.2-0.4-0.3-0.7-0.3
		c-0.2,0-0.5,0.1-0.7,0.3c-0.2,0.2-0.3,0.4-0.3,0.7s0.1,0.5,0.3,0.7C89.6,233,89.9,233.1,90.1,233.1z"/>
	<path class="st20" d="M90.1,233.1c0.2,0,0.5-0.1,0.7-0.3c0.2-0.2,0.3-0.4,0.3-0.7s-0.1-0.5-0.3-0.7c-0.2-0.2-0.4-0.3-0.7-0.3
		c-0.2,0-0.5,0.1-0.7,0.3c-0.2,0.2-0.3,0.4-0.3,0.7s0.1,0.5,0.3,0.7C89.6,233,89.9,233.1,90.1,233.1z"/>
	<path class="st7" d="M93.1,230.4h1.5v0.3h-1.2v0.7c0.1,0,0.1,0,0.2,0c0.1,0,0.1,0,0.2,0c0.3,0,0.6,0.1,0.8,0.3
		c0.2,0.2,0.3,0.4,0.3,0.7c0,0.3-0.1,0.6-0.3,0.7s-0.5,0.3-0.8,0.3c-0.1,0-0.2,0-0.4,0c-0.1,0-0.3,0-0.4-0.1v-0.4
		c0.1,0.1,0.2,0.1,0.4,0.1c0.1,0,0.3,0,0.4,0c0.2,0,0.4-0.1,0.5-0.2c0.1-0.1,0.2-0.3,0.2-0.5c0-0.2-0.1-0.4-0.2-0.5
		c-0.1-0.1-0.3-0.2-0.5-0.2c-0.1,0-0.2,0-0.3,0c-0.1,0-0.2,0.1-0.3,0.1V230.4"/>
	<path class="st21" d="M90.1,238.9c0.2,0,0.5-0.1,0.7-0.3c0.2-0.2,0.3-0.4,0.3-0.7s-0.1-0.5-0.3-0.7c-0.2-0.2-0.4-0.3-0.7-0.3
		c-0.2,0-0.5,0.1-0.7,0.3c-0.2,0.2-0.3,0.4-0.3,0.7s0.1,0.5,0.3,0.7C89.6,238.8,89.9,238.9,90.1,238.9z"/>
	<path class="st22" d="M90.1,238.9c0.2,0,0.5-0.1,0.7-0.3c0.2-0.2,0.3-0.4,0.3-0.7s-0.1-0.5-0.3-0.7c-0.2-0.2-0.4-0.3-0.7-0.3
		c-0.2,0-0.5,0.1-0.7,0.3c-0.2,0.2-0.3,0.4-0.3,0.7s0.1,0.5,0.3,0.7C89.6,238.8,89.9,238.9,90.1,238.9z"/>
	<path class="st7" d="M94.8,236.2v0.4c-0.1,0-0.2-0.1-0.3-0.1c-0.1,0-0.2,0-0.3,0c-0.3,0-0.5,0.1-0.6,0.3c-0.1,0.2-0.2,0.4-0.2,0.8
		c0.1-0.1,0.2-0.2,0.3-0.3c0.1-0.1,0.2-0.1,0.4-0.1c0.3,0,0.5,0.1,0.7,0.3c0.2,0.2,0.3,0.4,0.3,0.7c0,0.3-0.1,0.5-0.3,0.7
		c-0.2,0.2-0.4,0.3-0.7,0.3c-0.3,0-0.6-0.1-0.8-0.4c-0.2-0.3-0.3-0.6-0.3-1.1c0-0.5,0.1-0.8,0.3-1.1c0.2-0.3,0.5-0.4,0.9-0.4
		c0.1,0,0.2,0,0.3,0C94.6,236.2,94.7,236.2,94.8,236.2 M94,237.4c-0.2,0-0.3,0.1-0.4,0.2c-0.1,0.1-0.2,0.3-0.2,0.5
		c0,0.2,0.1,0.4,0.2,0.5c0.1,0.1,0.2,0.2,0.4,0.2c0.2,0,0.3-0.1,0.4-0.2c0.1-0.1,0.2-0.3,0.2-0.5c0-0.2-0.1-0.4-0.2-0.5
		C94.3,237.5,94.2,237.4,94,237.4"/>
</g>
<g>
	<defs>
		<rect id="SVGID_5_" x="138.5" y="179.6" width="90" height="82.1"/>
	</defs>
	<clipPath id="SVGID_6_">
		<use xlink:href="#SVGID_5_"  style="overflow:visible;"/>
	</clipPath>
	<rect x="138.5" y="179.6" class="st23" width="90" height="82.1"/>
	<rect x="146.1" y="186.9" class="st23" width="69" height="67.2"/>
	<g class="st24">
		<defs>
			<rect id="SVGID_7_" x="148.1" y="188.8" width="65" height="63.5"/>
		</defs>
		<clipPath id="SVGID_8_">
			<use xlink:href="#SVGID_7_"  style="overflow:visible;"/>
		</clipPath>
		<g style="clip-path:url(#SVGID_8_);">
			
				<image style="overflow:visible;" width="441" height="431" xlink:href="7D970BBC7900E47A.png"  transform="matrix(0.1474 0 0 0.1474 148.1299 188.7585)">
			</image>
		</g>
	</g>
	<path class="st24" d="M173.4,255.5h0.4v1.9c0,0.3,0.1,0.6,0.2,0.7s0.3,0.2,0.6,0.2c0.3,0,0.5-0.1,0.6-0.2c0.1-0.1,0.2-0.4,0.2-0.7
		v-1.9h0.4v2c0,0.4-0.1,0.7-0.3,0.9s-0.5,0.3-0.9,0.3c-0.4,0-0.7-0.1-0.9-0.3s-0.3-0.5-0.3-0.9V255.5"/>
	<polyline class="st24" points="176.6,255.5 177.3,255.5 178.1,257.6 178.9,255.5 179.5,255.5 179.5,258.6 179.1,258.6 179.1,255.9 
		178.3,258 177.9,258 177.1,255.9 177.1,258.6 176.6,258.6 176.6,255.5 	"/>
	<path class="st24" d="M181.2,255.5h0.5l1.2,3.1h-0.4l-0.3-0.8h-1.4l-0.3,0.8H180L181.2,255.5 M181.4,255.9l-0.6,1.6h1.2
		L181.4,255.9"/>
	<path class="st24" d="M183.3,255.5h1c0.3,0,0.6,0.1,0.8,0.2s0.3,0.4,0.3,0.7c0,0.3-0.1,0.5-0.3,0.7c-0.2,0.2-0.4,0.2-0.8,0.2h-0.5
		v1.3h-0.4V255.5 M183.7,255.9v1.2h0.5c0.2,0,0.3,0,0.5-0.2c0.1-0.1,0.2-0.2,0.2-0.4s-0.1-0.3-0.2-0.4c-0.1-0.1-0.3-0.2-0.5-0.2
		H183.7"/>
	<polyline class="st24" points="186,258.3 186.7,258.3 186.7,255.9 185.9,256 185.9,255.7 186.7,255.5 187.1,255.5 187.1,258.3 
		187.8,258.3 187.8,258.6 186,258.6 186,258.3 	"/>
	<path class="st24" d="M140.9,227.7v-0.4h1.9c0.3,0,0.6-0.1,0.7-0.2c0.1-0.1,0.2-0.3,0.2-0.6c0-0.3-0.1-0.5-0.2-0.6
		c-0.1-0.1-0.4-0.2-0.7-0.2h-1.9v-0.4h2c0.4,0,0.7,0.1,0.9,0.3c0.2,0.2,0.3,0.5,0.3,0.9c0,0.4-0.1,0.7-0.3,0.9
		c-0.2,0.2-0.5,0.3-0.9,0.3H140.9"/>
	<polyline class="st24" points="140.9,224.5 140.9,223.9 143,223.1 140.9,222.3 140.9,221.7 144,221.7 144,222.1 141.3,222.1 
		143.4,222.9 143.4,223.3 141.3,224.1 144,224.1 144,224.5 140.9,224.5 	"/>
	<path class="st24" d="M140.9,220v-0.5l3.1-1.2v0.4l-0.8,0.3v1.4l0.8,0.3v0.4L140.9,220 M141.3,219.8l1.6,0.6v-1.2L141.3,219.8"/>
	<path class="st24" d="M140.9,217.9v-1c0-0.3,0.1-0.6,0.2-0.8c0.2-0.2,0.4-0.3,0.7-0.3c0.3,0,0.5,0.1,0.7,0.3
		c0.2,0.2,0.2,0.4,0.2,0.8v0.5h1.3v0.4H140.9 M141.2,217.5h1.2v-0.5c0-0.2,0-0.3-0.2-0.5c-0.1-0.1-0.2-0.2-0.4-0.2s-0.3,0.1-0.4,0.2
		s-0.2,0.3-0.2,0.5V217.5"/>
	<path class="st24" d="M143.7,214.9v-1.5h0.4v2h-0.4c-0.2-0.2-0.4-0.4-0.7-0.7c-0.3-0.3-0.5-0.5-0.5-0.5c-0.2-0.1-0.3-0.2-0.4-0.3
		c-0.1-0.1-0.2-0.1-0.3-0.1c-0.2,0-0.3,0.1-0.4,0.2c-0.1,0.1-0.2,0.3-0.2,0.5c0,0.1,0,0.3,0.1,0.4c0,0.1,0.1,0.3,0.2,0.5H141
		c-0.1-0.2-0.1-0.3-0.2-0.5s-0.1-0.3-0.1-0.4c0-0.3,0.1-0.6,0.2-0.8c0.2-0.2,0.4-0.3,0.6-0.3c0.1,0,0.3,0,0.4,0.1
		c0.1,0,0.3,0.1,0.4,0.3c0,0,0.2,0.1,0.4,0.3C143.1,214.3,143.3,214.6,143.7,214.9"/>
	<line class="st25" x1="146.1" y1="254.1" x2="146.1" y2="186.9"/>
	<line class="st25" x1="215.1" y1="254.1" x2="215.1" y2="186.9"/>
	<line class="st25" x1="146.1" y1="254.1" x2="215.1" y2="254.1"/>
	<line class="st25" x1="146.1" y1="186.9" x2="215.1" y2="186.9"/>
	<polyline class="st24" points="174.5,181.8 174.9,181.8 174.9,185.1 174.5,185.1 174.5,181.8 	"/>
	<path class="st24" d="M177.3,183.7c0-0.2-0.1-0.4-0.2-0.5c-0.1-0.1-0.3-0.2-0.5-0.2c-0.2,0-0.4,0.1-0.5,0.2s-0.2,0.3-0.2,0.5H177.3
		 M177.7,183.8v0.2h-1.8c0,0.3,0.1,0.5,0.2,0.6c0.1,0.1,0.3,0.2,0.6,0.2c0.1,0,0.3,0,0.4-0.1s0.3-0.1,0.4-0.2v0.4
		c-0.1,0.1-0.3,0.1-0.4,0.1c-0.1,0-0.3,0-0.4,0c-0.4,0-0.7-0.1-0.9-0.3c-0.2-0.2-0.3-0.5-0.3-0.9c0-0.4,0.1-0.7,0.3-0.9
		c0.2-0.2,0.5-0.3,0.8-0.3c0.3,0,0.6,0.1,0.8,0.3C177.6,183.2,177.7,183.5,177.7,183.8"/>
	<path class="st24" d="M178.3,181.8h0.4v0.5h-0.4V181.8 M178.3,182.7h0.4v2.4h-0.4V182.7"/>
	<path class="st24" d="M179.7,183.9c0,0.3,0.1,0.5,0.2,0.7c0.1,0.2,0.3,0.2,0.5,0.2c0.2,0,0.4-0.1,0.5-0.2c0.1-0.2,0.2-0.4,0.2-0.7
		c0-0.3-0.1-0.5-0.2-0.7c-0.1-0.2-0.3-0.2-0.5-0.2c-0.2,0-0.4,0.1-0.5,0.2C179.8,183.4,179.7,183.6,179.7,183.9 M181.1,183.1v-1.3
		h0.4v3.3h-0.4v-0.4c-0.1,0.1-0.2,0.2-0.3,0.3s-0.3,0.1-0.4,0.1c-0.3,0-0.5-0.1-0.7-0.3c-0.2-0.2-0.3-0.5-0.3-0.9
		c0-0.4,0.1-0.7,0.3-0.9c0.2-0.2,0.4-0.3,0.7-0.3c0.2,0,0.3,0,0.4,0.1C180.9,182.9,181,183,181.1,183.1"/>
	<path class="st24" d="M183.9,183.7c0-0.2-0.1-0.4-0.2-0.5c-0.1-0.1-0.3-0.2-0.5-0.2c-0.2,0-0.4,0.1-0.5,0.2
		c-0.1,0.1-0.2,0.3-0.2,0.5H183.9 M184.3,183.8v0.2h-1.8c0,0.3,0.1,0.5,0.2,0.6c0.1,0.1,0.3,0.2,0.6,0.2c0.1,0,0.3,0,0.4-0.1
		s0.3-0.1,0.4-0.2v0.4c-0.1,0.1-0.3,0.1-0.4,0.1c-0.1,0-0.3,0-0.4,0c-0.4,0-0.7-0.1-0.9-0.3s-0.3-0.5-0.3-0.9c0-0.4,0.1-0.7,0.3-0.9
		c0.2-0.2,0.5-0.3,0.8-0.3c0.3,0,0.6,0.1,0.8,0.3C184.2,183.2,184.3,183.5,184.3,183.8"/>
	<path class="st24" d="M186.8,183.7v1.4h-0.4v-1.4c0-0.2,0-0.4-0.1-0.5c-0.1-0.1-0.2-0.2-0.4-0.2c-0.2,0-0.4,0.1-0.5,0.2
		c-0.1,0.1-0.2,0.3-0.2,0.5v1.3h-0.4v-2.4h0.4v0.4c0.1-0.1,0.2-0.2,0.3-0.3c0.1-0.1,0.3-0.1,0.4-0.1c0.3,0,0.5,0.1,0.6,0.3
		S186.8,183.4,186.8,183.7"/>
	<path class="st26" d="M219.7,204.1c0.2,0,0.5-0.1,0.7-0.3c0.2-0.2,0.3-0.4,0.3-0.7s-0.1-0.5-0.3-0.7s-0.4-0.3-0.7-0.3
		s-0.5,0.1-0.7,0.3c-0.2,0.2-0.3,0.4-0.3,0.7s0.1,0.5,0.3,0.7C219.2,204,219.4,204.1,219.7,204.1z"/>
	<path class="st27" d="M219.7,204.1c0.2,0,0.5-0.1,0.7-0.3c0.2-0.2,0.3-0.4,0.3-0.7s-0.1-0.5-0.3-0.7s-0.4-0.3-0.7-0.3
		s-0.5,0.1-0.7,0.3c-0.2,0.2-0.3,0.4-0.3,0.7s0.1,0.5,0.3,0.7C219.2,204,219.4,204.1,219.7,204.1z"/>
	<path class="st24" d="M223.5,201.3c0.3,0,0.6,0.1,0.7,0.4c0.2,0.3,0.3,0.6,0.3,1.1c0,0.5-0.1,0.9-0.3,1.1c-0.2,0.3-0.4,0.4-0.7,0.4
		c-0.3,0-0.6-0.1-0.7-0.4c-0.2-0.3-0.3-0.6-0.3-1.1c0-0.5,0.1-0.9,0.3-1.1C222.9,201.4,223.2,201.3,223.5,201.3 M223.5,201.6
		c-0.2,0-0.4,0.1-0.5,0.3c-0.1,0.2-0.2,0.5-0.2,0.9c0,0.4,0,0.7,0.2,0.9c0.1,0.2,0.3,0.3,0.5,0.3s0.4-0.1,0.5-0.3
		c0.1-0.2,0.2-0.5,0.2-0.9c0-0.4-0.1-0.7-0.2-0.9C223.9,201.7,223.7,201.6,223.5,201.6"/>
	<path class="st28" d="M219.7,209.9c0.2,0,0.5-0.1,0.7-0.3c0.2-0.2,0.3-0.4,0.3-0.7c0-0.2-0.1-0.5-0.3-0.7c-0.2-0.2-0.4-0.3-0.7-0.3
		s-0.5,0.1-0.7,0.3c-0.2,0.2-0.3,0.4-0.3,0.7c0,0.2,0.1,0.5,0.3,0.7C219.2,209.8,219.4,209.9,219.7,209.9z"/>
	<path class="st29" d="M219.7,209.9c0.2,0,0.5-0.1,0.7-0.3c0.2-0.2,0.3-0.4,0.3-0.7c0-0.2-0.1-0.5-0.3-0.7c-0.2-0.2-0.4-0.3-0.7-0.3
		s-0.5,0.1-0.7,0.3c-0.2,0.2-0.3,0.4-0.3,0.7c0,0.2,0.1,0.5,0.3,0.7C219.2,209.8,219.4,209.9,219.7,209.9z"/>
	<polyline class="st24" points="222.7,209.7 223.4,209.7 223.4,207.5 222.7,207.6 222.7,207.3 223.4,207.2 223.8,207.2 223.8,209.7 
		224.4,209.7 224.4,210 222.7,210 222.7,209.7 	"/>
	<path class="st30" d="M219.7,215.7c0.2,0,0.5-0.1,0.7-0.3s0.3-0.4,0.3-0.7s-0.1-0.5-0.3-0.7c-0.2-0.2-0.4-0.3-0.7-0.3
		s-0.5,0.1-0.7,0.3c-0.2,0.2-0.3,0.4-0.3,0.7s0.1,0.5,0.3,0.7C219.2,215.6,219.4,215.7,219.7,215.7z"/>
	<path class="st31" d="M219.7,215.7c0.2,0,0.5-0.1,0.7-0.3s0.3-0.4,0.3-0.7s-0.1-0.5-0.3-0.7c-0.2-0.2-0.4-0.3-0.7-0.3
		s-0.5,0.1-0.7,0.3c-0.2,0.2-0.3,0.4-0.3,0.7s0.1,0.5,0.3,0.7C219.2,215.6,219.4,215.7,219.7,215.7z"/>
	<path class="st24" d="M223,215.5h1.4v0.3h-1.8v-0.3c0.1-0.2,0.3-0.4,0.6-0.6c0.3-0.3,0.4-0.4,0.5-0.5c0.1-0.1,0.2-0.3,0.3-0.4
		c0-0.1,0.1-0.2,0.1-0.3c0-0.2-0.1-0.3-0.2-0.4c-0.1-0.1-0.2-0.1-0.4-0.1c-0.1,0-0.3,0-0.4,0.1c-0.1,0-0.3,0.1-0.4,0.2v-0.4
		c0.2-0.1,0.3-0.1,0.4-0.1c0.1,0,0.3,0,0.4,0c0.3,0,0.5,0.1,0.7,0.2c0.2,0.2,0.3,0.3,0.3,0.6c0,0.1,0,0.2-0.1,0.3
		c0,0.1-0.1,0.2-0.2,0.4c0,0-0.1,0.1-0.3,0.3C223.6,214.9,223.3,215.2,223,215.5"/>
	<path class="st32" d="M219.7,221.5c0.2,0,0.5-0.1,0.7-0.3c0.2-0.2,0.3-0.4,0.3-0.7c0-0.2-0.1-0.5-0.3-0.7s-0.4-0.3-0.7-0.3
		s-0.5,0.1-0.7,0.3c-0.2,0.2-0.3,0.4-0.3,0.7c0,0.2,0.1,0.5,0.3,0.7C219.2,221.4,219.4,221.5,219.7,221.5z"/>
	<path class="st33" d="M219.7,221.5c0.2,0,0.5-0.1,0.7-0.3c0.2-0.2,0.3-0.4,0.3-0.7c0-0.2-0.1-0.5-0.3-0.7s-0.4-0.3-0.7-0.3
		s-0.5,0.1-0.7,0.3c-0.2,0.2-0.3,0.4-0.3,0.7c0,0.2,0.1,0.5,0.3,0.7C219.2,221.4,219.4,221.5,219.7,221.5z"/>
	<path class="st24" d="M223.8,220.1c0.2,0,0.3,0.1,0.4,0.2c0.1,0.1,0.2,0.3,0.2,0.5c0,0.3-0.1,0.5-0.3,0.7c-0.2,0.2-0.5,0.2-0.8,0.2
		c-0.1,0-0.2,0-0.4,0c-0.1,0-0.3-0.1-0.4-0.1v-0.4c0.1,0.1,0.2,0.1,0.4,0.1c0.1,0,0.3,0,0.4,0c0.2,0,0.4,0,0.6-0.1s0.2-0.2,0.2-0.4
		c0-0.2-0.1-0.3-0.2-0.4c-0.1-0.1-0.3-0.1-0.5-0.1H223v-0.3h0.4c0.2,0,0.3,0,0.4-0.1c0.1-0.1,0.2-0.2,0.2-0.3c0-0.1-0.1-0.3-0.2-0.3
		c-0.1-0.1-0.3-0.1-0.5-0.1c-0.1,0-0.2,0-0.3,0c-0.1,0-0.3,0.1-0.4,0.1v-0.3c0.1,0,0.3-0.1,0.4-0.1c0.1,0,0.2,0,0.4,0
		c0.3,0,0.5,0.1,0.7,0.2c0.2,0.1,0.3,0.3,0.3,0.5c0,0.2,0,0.3-0.1,0.4C224.1,220,224,220,223.8,220.1"/>
	<path class="st34" d="M219.7,227.3c0.2,0,0.5-0.1,0.7-0.3c0.2-0.2,0.3-0.4,0.3-0.7s-0.1-0.5-0.3-0.7s-0.4-0.3-0.7-0.3
		s-0.5,0.1-0.7,0.3c-0.2,0.2-0.3,0.4-0.3,0.7s0.1,0.5,0.3,0.7C219.2,227.2,219.4,227.3,219.7,227.3z"/>
	<path class="st35" d="M219.7,227.3c0.2,0,0.5-0.1,0.7-0.3c0.2-0.2,0.3-0.4,0.3-0.7s-0.1-0.5-0.3-0.7s-0.4-0.3-0.7-0.3
		s-0.5,0.1-0.7,0.3c-0.2,0.2-0.3,0.4-0.3,0.7s0.1,0.5,0.3,0.7C219.2,227.2,219.4,227.3,219.7,227.3z"/>
	<path class="st24" d="M223.6,224.6h0.5v1.9h0.4v0.3h-0.4v0.7h-0.4v-0.7h-1.3v-0.4L223.6,224.6 M223.7,224.9l-1,1.5h1V224.9"/>
	<path class="st36" d="M219.7,233.1c0.2,0,0.5-0.1,0.7-0.3s0.3-0.4,0.3-0.7s-0.1-0.5-0.3-0.7c-0.2-0.2-0.4-0.3-0.7-0.3
		s-0.5,0.1-0.7,0.3c-0.2,0.2-0.3,0.4-0.3,0.7s0.1,0.5,0.3,0.7C219.2,233,219.4,233.1,219.7,233.1z"/>
	<path class="st37" d="M219.7,233.1c0.2,0,0.5-0.1,0.7-0.3s0.3-0.4,0.3-0.7s-0.1-0.5-0.3-0.7c-0.2-0.2-0.4-0.3-0.7-0.3
		s-0.5,0.1-0.7,0.3c-0.2,0.2-0.3,0.4-0.3,0.7s0.1,0.5,0.3,0.7C219.2,233,219.4,233.1,219.7,233.1z"/>
	<path class="st24" d="M222.7,230.4h1.5v0.3H223v0.7c0.1,0,0.1,0,0.2,0c0.1,0,0.1,0,0.2,0c0.3,0,0.6,0.1,0.8,0.3
		c0.2,0.2,0.3,0.4,0.3,0.7c0,0.3-0.1,0.6-0.3,0.7c-0.2,0.2-0.5,0.3-0.8,0.3c-0.1,0-0.2,0-0.4,0c-0.1,0-0.3,0-0.4-0.1v-0.4
		c0.1,0.1,0.2,0.1,0.4,0.1c0.1,0,0.3,0,0.4,0c0.2,0,0.4-0.1,0.5-0.2c0.1-0.1,0.2-0.3,0.2-0.5c0-0.2-0.1-0.4-0.2-0.5
		c-0.1-0.1-0.3-0.2-0.5-0.2c-0.1,0-0.2,0-0.3,0s-0.2,0.1-0.3,0.1V230.4"/>
	<path class="st38" d="M219.7,238.9c0.2,0,0.5-0.1,0.7-0.3s0.3-0.4,0.3-0.7s-0.1-0.5-0.3-0.7s-0.4-0.3-0.7-0.3s-0.5,0.1-0.7,0.3
		c-0.2,0.2-0.3,0.4-0.3,0.7s0.1,0.5,0.3,0.7C219.2,238.8,219.4,238.9,219.7,238.9z"/>
	<path class="st39" d="M219.7,238.9c0.2,0,0.5-0.1,0.7-0.3s0.3-0.4,0.3-0.7s-0.1-0.5-0.3-0.7s-0.4-0.3-0.7-0.3s-0.5,0.1-0.7,0.3
		c-0.2,0.2-0.3,0.4-0.3,0.7s0.1,0.5,0.3,0.7C219.2,238.8,219.4,238.9,219.7,238.9z"/>
	<path class="st24" d="M224.3,236.2v0.4c-0.1,0-0.2-0.1-0.3-0.1c-0.1,0-0.2,0-0.3,0c-0.3,0-0.5,0.1-0.6,0.3
		c-0.1,0.2-0.2,0.4-0.2,0.8c0.1-0.1,0.2-0.2,0.3-0.3c0.1-0.1,0.2-0.1,0.4-0.1c0.3,0,0.5,0.1,0.7,0.3c0.2,0.2,0.3,0.4,0.3,0.7
		c0,0.3-0.1,0.5-0.3,0.7c-0.2,0.2-0.4,0.3-0.7,0.3c-0.3,0-0.6-0.1-0.8-0.4c-0.2-0.3-0.3-0.6-0.3-1.1c0-0.5,0.1-0.8,0.3-1.1
		c0.2-0.3,0.5-0.4,0.9-0.4c0.1,0,0.2,0,0.3,0C224.1,236.2,224.2,236.2,224.3,236.2 M223.5,237.4c-0.2,0-0.3,0.1-0.4,0.2
		c-0.1,0.1-0.2,0.3-0.2,0.5c0,0.2,0.1,0.4,0.2,0.5c0.1,0.1,0.2,0.2,0.4,0.2s0.3-0.1,0.4-0.2c0.1-0.1,0.2-0.3,0.2-0.5
		c0-0.2-0.1-0.4-0.2-0.5C223.9,237.5,223.7,237.4,223.5,237.4"/>
</g>
<g>
	<defs>
		<rect id="SVGID_9_" x="268.1" y="179.6" width="90" height="82.1"/>
	</defs>
	<clipPath id="SVGID_10_">
		<use xlink:href="#SVGID_9_"  style="overflow:visible;"/>
	</clipPath>
	<rect x="268.1" y="179.6" class="st40" width="90" height="82.1"/>
	<rect x="275.7" y="186.9" class="st40" width="69" height="67.2"/>
	<g class="st41">
		<defs>
			<rect id="SVGID_11_" x="277.1" y="188.2" width="66.2" height="64.7"/>
		</defs>
		<clipPath id="SVGID_12_">
			<use xlink:href="#SVGID_11_"  style="overflow:visible;"/>
		</clipPath>
		<g style="clip-path:url(#SVGID_12_);">
			
				<image style="overflow:visible;" width="449" height="439" xlink:href="7D970BBC7900E47B.png"  transform="matrix(0.1474 0 0 0.1474 277.0903 188.169)">
			</image>
		</g>
	</g>
	<path class="st41" d="M303,255.5h0.4v1.9c0,0.3,0.1,0.6,0.2,0.7s0.3,0.2,0.6,0.2c0.3,0,0.5-0.1,0.6-0.2c0.1-0.1,0.2-0.4,0.2-0.7
		v-1.9h0.4v2c0,0.4-0.1,0.7-0.3,0.9c-0.2,0.2-0.5,0.3-0.9,0.3c-0.4,0-0.7-0.1-0.9-0.3c-0.2-0.2-0.3-0.5-0.3-0.9V255.5"/>
	<polyline class="st41" points="306.2,255.5 306.8,255.5 307.6,257.6 308.4,255.5 309.1,255.5 309.1,258.6 308.6,258.6 308.6,255.9 
		307.8,258 307.4,258 306.6,255.9 306.6,258.6 306.2,258.6 306.2,255.5 	"/>
	<path class="st41" d="M310.7,255.5h0.5l1.2,3.1h-0.4l-0.3-0.8h-1.4l-0.3,0.8h-0.4L310.7,255.5 M311,255.9l-0.6,1.6h1.2L311,255.9"
		/>
	<path class="st41" d="M312.8,255.5h1c0.3,0,0.6,0.1,0.8,0.2s0.3,0.4,0.3,0.7c0,0.3-0.1,0.5-0.3,0.7c-0.2,0.2-0.4,0.2-0.8,0.2h-0.5
		v1.3h-0.4V255.5 M313.3,255.9v1.2h0.5c0.2,0,0.3,0,0.5-0.2c0.1-0.1,0.2-0.2,0.2-0.4s-0.1-0.3-0.2-0.4c-0.1-0.1-0.3-0.2-0.5-0.2
		H313.3"/>
	<polyline class="st41" points="315.5,258.3 316.2,258.3 316.2,255.9 315.5,256 315.5,255.7 316.2,255.5 316.7,255.5 316.7,258.3 
		317.4,258.3 317.4,258.6 315.5,258.6 315.5,258.3 	"/>
	<path class="st41" d="M270.4,227.7v-0.4h1.9c0.3,0,0.6-0.1,0.7-0.2c0.1-0.1,0.2-0.3,0.2-0.6c0-0.3-0.1-0.5-0.2-0.6
		c-0.1-0.1-0.4-0.2-0.7-0.2h-1.9v-0.4h2c0.4,0,0.7,0.1,0.9,0.3c0.2,0.2,0.3,0.5,0.3,0.9c0,0.4-0.1,0.7-0.3,0.9
		c-0.2,0.2-0.5,0.3-0.9,0.3H270.4"/>
	<polyline class="st41" points="270.4,224.5 270.4,223.9 272.6,223.1 270.4,222.3 270.4,221.7 273.6,221.7 273.6,222.1 270.8,222.1 
		273,222.9 273,223.3 270.8,224.1 273.6,224.1 273.6,224.5 270.4,224.5 	"/>
	<path class="st41" d="M270.4,220v-0.5l3.1-1.2v0.4l-0.8,0.3v1.4l0.8,0.3v0.4L270.4,220 M270.9,219.8l1.6,0.6v-1.2L270.9,219.8"/>
	<path class="st41" d="M270.4,217.9v-1c0-0.3,0.1-0.6,0.2-0.8c0.2-0.2,0.4-0.3,0.7-0.3c0.3,0,0.5,0.1,0.7,0.3
		c0.2,0.2,0.2,0.4,0.2,0.8v0.5h1.3v0.4H270.4 M270.8,217.5h1.2v-0.5c0-0.2,0-0.3-0.2-0.5c-0.1-0.1-0.2-0.2-0.4-0.2s-0.3,0.1-0.4,0.2
		c-0.1,0.1-0.2,0.3-0.2,0.5V217.5"/>
	<path class="st41" d="M273.2,214.9v-1.5h0.4v2h-0.4c-0.2-0.2-0.4-0.4-0.7-0.7c-0.3-0.3-0.5-0.5-0.5-0.5c-0.2-0.1-0.3-0.2-0.4-0.3
		c-0.1-0.1-0.2-0.1-0.3-0.1c-0.2,0-0.3,0.1-0.4,0.2c-0.1,0.1-0.2,0.3-0.2,0.5c0,0.1,0,0.3,0.1,0.4c0,0.1,0.1,0.3,0.2,0.5h-0.4
		c-0.1-0.2-0.1-0.3-0.2-0.5s-0.1-0.3-0.1-0.4c0-0.3,0.1-0.6,0.2-0.8c0.2-0.2,0.4-0.3,0.6-0.3c0.1,0,0.3,0,0.4,0.1
		c0.1,0,0.3,0.1,0.4,0.3c0,0,0.2,0.1,0.4,0.3C272.6,214.3,272.9,214.6,273.2,214.9"/>
	<line class="st42" x1="275.7" y1="254.1" x2="275.7" y2="186.9"/>
	<line class="st42" x1="344.7" y1="254.1" x2="344.7" y2="186.9"/>
	<line class="st42" x1="275.7" y1="254.1" x2="344.7" y2="254.1"/>
	<line class="st42" x1="275.7" y1="186.9" x2="344.7" y2="186.9"/>
	<polyline class="st41" points="304,181.8 304.4,181.8 304.4,185.1 304,185.1 304,181.8 	"/>
	<path class="st41" d="M306.8,183.7c0-0.2-0.1-0.4-0.2-0.5c-0.1-0.1-0.3-0.2-0.5-0.2c-0.2,0-0.4,0.1-0.5,0.2s-0.2,0.3-0.2,0.5H306.8
		 M307.2,183.8v0.2h-1.8c0,0.3,0.1,0.5,0.2,0.6c0.1,0.1,0.3,0.2,0.6,0.2c0.1,0,0.3,0,0.4-0.1c0.1,0,0.3-0.1,0.4-0.2v0.4
		c-0.1,0.1-0.3,0.1-0.4,0.1c-0.1,0-0.3,0-0.4,0c-0.4,0-0.7-0.1-0.9-0.3s-0.3-0.5-0.3-0.9c0-0.4,0.1-0.7,0.3-0.9
		c0.2-0.2,0.5-0.3,0.8-0.3c0.3,0,0.6,0.1,0.8,0.3C307.1,183.2,307.2,183.5,307.2,183.8"/>
	<path class="st41" d="M307.9,181.8h0.4v0.5h-0.4V181.8 M307.9,182.7h0.4v2.4h-0.4V182.7"/>
	<path class="st41" d="M309.3,183.9c0,0.3,0.1,0.5,0.2,0.7c0.1,0.2,0.3,0.2,0.5,0.2c0.2,0,0.4-0.1,0.5-0.2c0.1-0.2,0.2-0.4,0.2-0.7
		c0-0.3-0.1-0.5-0.2-0.7c-0.1-0.2-0.3-0.2-0.5-0.2c-0.2,0-0.4,0.1-0.5,0.2C309.3,183.4,309.3,183.6,309.3,183.9 M310.6,183.1v-1.3
		h0.4v3.3h-0.4v-0.4c-0.1,0.1-0.2,0.2-0.3,0.3s-0.3,0.1-0.4,0.1c-0.3,0-0.5-0.1-0.7-0.3c-0.2-0.2-0.3-0.5-0.3-0.9
		c0-0.4,0.1-0.7,0.3-0.9c0.2-0.2,0.4-0.3,0.7-0.3c0.2,0,0.3,0,0.4,0.1C310.4,182.9,310.5,183,310.6,183.1"/>
	<path class="st41" d="M313.4,183.7c0-0.2-0.1-0.4-0.2-0.5c-0.1-0.1-0.3-0.2-0.5-0.2c-0.2,0-0.4,0.1-0.5,0.2
		c-0.1,0.1-0.2,0.3-0.2,0.5H313.4 M313.8,183.8v0.2H312c0,0.3,0.1,0.5,0.2,0.6c0.1,0.1,0.3,0.2,0.6,0.2c0.1,0,0.3,0,0.4-0.1
		c0.1,0,0.3-0.1,0.4-0.2v0.4c-0.1,0.1-0.3,0.1-0.4,0.1c-0.1,0-0.3,0-0.4,0c-0.4,0-0.7-0.1-0.9-0.3s-0.3-0.5-0.3-0.9
		c0-0.4,0.1-0.7,0.3-0.9c0.2-0.2,0.5-0.3,0.8-0.3c0.3,0,0.6,0.1,0.8,0.3C313.7,183.2,313.8,183.5,313.8,183.8"/>
	<path class="st41" d="M316.4,183.7v1.4H316v-1.4c0-0.2,0-0.4-0.1-0.5c-0.1-0.1-0.2-0.2-0.4-0.2c-0.2,0-0.4,0.1-0.5,0.2
		c-0.1,0.1-0.2,0.3-0.2,0.5v1.3h-0.4v-2.4h0.4v0.4c0.1-0.1,0.2-0.2,0.3-0.3c0.1-0.1,0.3-0.1,0.4-0.1c0.3,0,0.5,0.1,0.6,0.3
		C316.3,183.1,316.4,183.4,316.4,183.7"/>
	<path class="st43" d="M349.2,209.9c0.2,0,0.5-0.1,0.7-0.3c0.2-0.2,0.3-0.4,0.3-0.7c0-0.2-0.1-0.5-0.3-0.7c-0.2-0.2-0.4-0.3-0.7-0.3
		s-0.5,0.1-0.7,0.3c-0.2,0.2-0.3,0.4-0.3,0.7c0,0.2,0.1,0.5,0.3,0.7C348.7,209.8,349,209.9,349.2,209.9z"/>
	<path class="st44" d="M349.2,209.9c0.2,0,0.5-0.1,0.7-0.3c0.2-0.2,0.3-0.4,0.3-0.7c0-0.2-0.1-0.5-0.3-0.7c-0.2-0.2-0.4-0.3-0.7-0.3
		s-0.5,0.1-0.7,0.3c-0.2,0.2-0.3,0.4-0.3,0.7c0,0.2,0.1,0.5,0.3,0.7C348.7,209.8,349,209.9,349.2,209.9z"/>
	<path class="st41" d="M353.1,207.1c0.3,0,0.6,0.1,0.7,0.4c0.2,0.3,0.3,0.6,0.3,1.1c0,0.5-0.1,0.9-0.3,1.1c-0.2,0.3-0.4,0.4-0.7,0.4
		c-0.3,0-0.6-0.1-0.7-0.4c-0.2-0.3-0.3-0.6-0.3-1.1c0-0.5,0.1-0.9,0.3-1.1C352.5,207.2,352.7,207.1,353.1,207.1 M353.1,207.4
		c-0.2,0-0.4,0.1-0.5,0.3c-0.1,0.2-0.2,0.5-0.2,0.9c0,0.4,0,0.7,0.2,0.9c0.1,0.2,0.3,0.3,0.5,0.3c0.2,0,0.4-0.1,0.5-0.3
		c0.1-0.2,0.2-0.5,0.2-0.9c0-0.4-0.1-0.7-0.2-0.9C353.4,207.5,353.3,207.4,353.1,207.4"/>
	<path class="st45" d="M349.2,215.7c0.2,0,0.5-0.1,0.7-0.3c0.2-0.2,0.3-0.4,0.3-0.7s-0.1-0.5-0.3-0.7c-0.2-0.2-0.4-0.3-0.7-0.3
		s-0.5,0.1-0.7,0.3c-0.2,0.2-0.3,0.4-0.3,0.7s0.1,0.5,0.3,0.7S349,215.7,349.2,215.7z"/>
	<path class="st46" d="M349.2,215.7c0.2,0,0.5-0.1,0.7-0.3c0.2-0.2,0.3-0.4,0.3-0.7s-0.1-0.5-0.3-0.7c-0.2-0.2-0.4-0.3-0.7-0.3
		s-0.5,0.1-0.7,0.3c-0.2,0.2-0.3,0.4-0.3,0.7s0.1,0.5,0.3,0.7S349,215.7,349.2,215.7z"/>
	<polyline class="st41" points="352.3,215.5 352.9,215.5 352.9,213.3 352.2,213.4 352.2,213.1 352.9,213 353.3,213 353.3,215.5 
		353.9,215.5 353.9,215.8 352.3,215.8 352.3,215.5 	"/>
	<path class="st47" d="M349.2,221.5c0.2,0,0.5-0.1,0.7-0.3c0.2-0.2,0.3-0.4,0.3-0.7c0-0.2-0.1-0.5-0.3-0.7c-0.2-0.2-0.4-0.3-0.7-0.3
		s-0.5,0.1-0.7,0.3s-0.3,0.4-0.3,0.7c0,0.2,0.1,0.5,0.3,0.7C348.7,221.4,349,221.5,349.2,221.5z"/>
	<path class="st48" d="M349.2,221.5c0.2,0,0.5-0.1,0.7-0.3c0.2-0.2,0.3-0.4,0.3-0.7c0-0.2-0.1-0.5-0.3-0.7c-0.2-0.2-0.4-0.3-0.7-0.3
		s-0.5,0.1-0.7,0.3s-0.3,0.4-0.3,0.7c0,0.2,0.1,0.5,0.3,0.7C348.7,221.4,349,221.5,349.2,221.5z"/>
	<path class="st41" d="M352.6,221.3h1.4v0.3h-1.8v-0.3c0.1-0.2,0.3-0.4,0.6-0.6c0.3-0.3,0.4-0.4,0.5-0.5c0.1-0.1,0.2-0.3,0.3-0.4
		c0-0.1,0.1-0.2,0.1-0.3c0-0.2-0.1-0.3-0.2-0.4c-0.1-0.1-0.2-0.1-0.4-0.1c-0.1,0-0.3,0-0.4,0.1c-0.1,0-0.3,0.1-0.4,0.2v-0.4
		c0.2-0.1,0.3-0.1,0.4-0.1c0.1,0,0.3,0,0.4,0c0.3,0,0.5,0.1,0.7,0.2c0.2,0.2,0.3,0.3,0.3,0.6c0,0.1,0,0.2-0.1,0.3
		c0,0.1-0.1,0.2-0.2,0.4c0,0-0.1,0.1-0.3,0.3C353.1,220.7,352.9,221,352.6,221.3"/>
	<path class="st49" d="M349.2,227.3c0.2,0,0.5-0.1,0.7-0.3c0.2-0.2,0.3-0.4,0.3-0.7s-0.1-0.5-0.3-0.7c-0.2-0.2-0.4-0.3-0.7-0.3
		s-0.5,0.1-0.7,0.3s-0.3,0.4-0.3,0.7s0.1,0.5,0.3,0.7C348.7,227.2,349,227.3,349.2,227.3z"/>
	<path class="st50" d="M349.2,227.3c0.2,0,0.5-0.1,0.7-0.3c0.2-0.2,0.3-0.4,0.3-0.7s-0.1-0.5-0.3-0.7c-0.2-0.2-0.4-0.3-0.7-0.3
		s-0.5,0.1-0.7,0.3s-0.3,0.4-0.3,0.7s0.1,0.5,0.3,0.7C348.7,227.2,349,227.3,349.2,227.3z"/>
	<path class="st41" d="M353.4,225.9c0.2,0,0.3,0.1,0.4,0.2c0.1,0.1,0.2,0.3,0.2,0.5c0,0.3-0.1,0.5-0.3,0.7c-0.2,0.2-0.5,0.2-0.8,0.2
		c-0.1,0-0.2,0-0.4,0c-0.1,0-0.3-0.1-0.4-0.1V227c0.1,0.1,0.2,0.1,0.4,0.1c0.1,0,0.3,0,0.4,0c0.2,0,0.4,0,0.6-0.1
		c0.1-0.1,0.2-0.2,0.2-0.4c0-0.2-0.1-0.3-0.2-0.4s-0.3-0.1-0.5-0.1h-0.3v-0.3h0.4c0.2,0,0.3,0,0.4-0.1c0.1-0.1,0.2-0.2,0.2-0.3
		c0-0.1-0.1-0.3-0.2-0.3c-0.1-0.1-0.3-0.1-0.5-0.1c-0.1,0-0.2,0-0.3,0c-0.1,0-0.3,0.1-0.4,0.1v-0.3c0.1,0,0.3-0.1,0.4-0.1
		c0.1,0,0.2,0,0.4,0c0.3,0,0.5,0.1,0.7,0.2c0.2,0.1,0.3,0.3,0.3,0.5c0,0.2,0,0.3-0.1,0.4C353.7,225.8,353.6,225.8,353.4,225.9"/>
	<path class="st51" d="M349.2,233.1c0.2,0,0.5-0.1,0.7-0.3c0.2-0.2,0.3-0.4,0.3-0.7s-0.1-0.5-0.3-0.7c-0.2-0.2-0.4-0.3-0.7-0.3
		s-0.5,0.1-0.7,0.3c-0.2,0.2-0.3,0.4-0.3,0.7s0.1,0.5,0.3,0.7S349,233.1,349.2,233.1z"/>
	<path class="st52" d="M349.2,233.1c0.2,0,0.5-0.1,0.7-0.3c0.2-0.2,0.3-0.4,0.3-0.7s-0.1-0.5-0.3-0.7c-0.2-0.2-0.4-0.3-0.7-0.3
		s-0.5,0.1-0.7,0.3c-0.2,0.2-0.3,0.4-0.3,0.7s0.1,0.5,0.3,0.7S349,233.1,349.2,233.1z"/>
	<path class="st41" d="M353.2,230.4h0.5v1.9h0.4v0.3h-0.4v0.7h-0.4v-0.7H352v-0.4L353.2,230.4 M353.3,230.7l-1,1.5h1V230.7"/>
</g>
<text transform="matrix(1 0 0 1 0.9968 268.8563)" class="st0 st1 st2">C</text>
<text transform="matrix(1 0 0 1 1.8584 360.0794)" class="st0 st1 st2">D</text>
<text transform="matrix(1 0 0 1 11.779 185.7285)" class="st5 st53">Human</text>
<text transform="matrix(1 0 0 1 141.5063 185.7285)" class="st5 st53">Chimp</text>
<text transform="matrix(1 0 0 1 251.0933 185.7285)" class="st5 st53">Orangutan</text>
<text transform="matrix(1 0 0 1 33.9121 268.8563)" class="st5 st53">Human</text>
<text transform="matrix(1 0 0 1 169.6442 268.8566)" class="st5 st53">Chimp</text>
<text transform="matrix(1 0 0 1 289.2391 268.8566)" class="st5 st53">Orangutan</text>
<g>
	<g>
		<rect x="372.8" y="0.5" class="st3" width="144" height="108"/>
		<text transform="matrix(1 0 0 1 392.1037 43.1237)" class="st4"><tspan x="0" y="0" class="st0 st5 st2">Ambiguous coding  </tspan><tspan x="-3.3" y="14.4" class="st0 st5 st2">sequences resolved  </tspan><tspan x="15.7" y="28.8" class="st0 st5 st2">by long reads</tspan></text>
	</g>
	<text transform="matrix(1 0 0 1 376.8587 11.8189)" class="st0 st1 st2">E</text>
</g>
<g>
	<g>
		<rect x="372.8" y="115.9" class="st3" width="144" height="108"/>
		<text transform="matrix(1 0 0 1 387.4348 158.5598)" class="st4"><tspan x="0" y="0" class="st0 st5 st2">UMAP of all species, </tspan><tspan x="23.7" y="14.4" class="st0 st5 st2">short reads, </tspan><tspan x="-5.6" y="28.8" class="st0 st5 st2">counts</tspan><tspan x="30.5" y="28.8" class="st0 st5 st2"> </tspan><tspan x="33.6" y="28.8" class="st0 st5 st2">TF 1:1 orthologs</tspan></text>
	</g>
	<text transform="matrix(1 0 0 1 376.8588 128.1227)" class="st0 st1 st2">F</text>
</g>
<g>
	<g>
		<rect x="372.8" y="231.4" class="st3" width="144" height="108"/>
		<rect x="383.9" y="263.7" class="st54" width="121.8" height="48.9"/>
		<text transform="matrix(1 0 0 1 389.1027 273.9955)" class="st4"><tspan x="0" y="0" class="st0 st5 st2">UMAP of all species,  </tspan><tspan x="23.7" y="14.4" class="st0 st5 st2">short reads, </tspan><tspan x="7.7" y="28.8" class="st0 st5 st2">MinHashes of TFs</tspan></text>
	</g>
	<text transform="matrix(1 0 0 1 376.8588 244.4265)" class="st0 st1 st2">G</text>
</g>
<g>
	<g>
		<rect x="372.8" y="346.8" class="st3" width="144" height="108"/>
		<text transform="matrix(1 0 0 1 387.4351 389.4312)" class="st4"><tspan x="0" y="0" class="st0 st5 st2">UMAP of all species,  </tspan><tspan x="25.3" y="14.4" class="st0 st5 st2">long reads, </tspan><tspan x="9.3" y="28.8" class="st0 st5 st2">MinHashes of TFs</tspan></text>
	</g>
	<text transform="matrix(1 0 0 1 376.8588 360.73)" class="st0 st1 st2">H</text>
</g>
</svg>
