<?xml version="1.0" encoding="utf-8"?>
<!-- Generator: Adobe Illustrator 22.1.0, SVG Export Plug-In . SVG Version: 6.00 Build 0)  -->
<svg version="1.1" id="Layer_1" xmlns="http://www.w3.org/2000/svg" xmlns:xlink="http://www.w3.org/1999/xlink" x="0px" y="0px"
	 viewBox="0 0 367.1 483.6" style="enable-background:new 0 0 367.1 483.6;" xml:space="preserve">
<style type="text/css">
	.st0{fill:#E6E7E7;stroke:#010101;stroke-miterlimit:10;}
	.st1{enable-background:new    ;}
	.st2{fill:#010101;}
	.st3{font-family:'Helvetica-Light';}
	.st4{font-size:12px;}
	.st5{font-family:'Helvetica-Bold';}
</style>
<g>
	<rect x="1" y="191.8" class="st0" width="172.6" height="137.2"/>
	<text transform="matrix(1 0 0 1 48.627 241.8454)" class="st1"><tspan x="0" y="0" class="st2 st3 st4">kNN/UMAP of  </tspan><tspan x="-9" y="14.4" class="st2 st3 st4">primate organoid  </tspan><tspan x="6.7" y="28.8" class="st2 st3 st4">short reads  </tspan><tspan x="8.7" y="43.2" class="st2 st3 st4">MinHashes</tspan></text>
</g>
<text transform="matrix(1 0 0 1 1.2535 10.3181)" class="st2 st5 st4">A</text>
<text transform="matrix(1 0 0 1 -1.716614e-05 185.2283)" class="st2 st5 st4">B</text>
<text transform="matrix(1 0 0 1 193.9999 185.2283)" class="st2 st5 st4">C</text>
<text transform="matrix(1 0 0 1 -4.768372e-05 341.8169)" class="st2 st5 st4">D</text>
<text transform="matrix(1 0 0 1 193.9998 341.8169)" class="st2 st5 st4">E</text>
<g>
	<rect x="1" y="345.9" class="st0" width="172.6" height="137.2"/>
	<text transform="matrix(1 0 0 1 48.6266 395.9239)" class="st1"><tspan x="0" y="0" class="st2 st3 st4">kNN/UMAP of  </tspan><tspan x="-9" y="14.4" class="st2 st3 st4">primate organoid  </tspan><tspan x="8.3" y="28.8" class="st2 st3 st4">long reads  </tspan><tspan x="8.7" y="43.2" class="st2 st3 st4">MinHashes</tspan></text>
</g>
<g>
	<rect x="194" y="191.8" class="st0" width="172.6" height="137.2"/>
	<text transform="matrix(1 0 0 1 241.63 241.8454)" class="st1"><tspan x="0" y="0" class="st2 st3 st4">kNN/UMAP of  </tspan><tspan x="-9" y="14.4" class="st2 st3 st4">primate organoid  </tspan><tspan x="6.7" y="28.8" class="st2 st3 st4">short reads  </tspan><tspan x="5.3" y="43.2" class="st2 st3 st4">gene counts</tspan></text>
</g>
<g>
	<rect x="194" y="345.9" class="st0" width="172.6" height="137.2"/>
	<text transform="matrix(1 0 0 1 227.6204 403.1491)" class="st1"><tspan x="0" y="0" class="st2 st3 st4">Ambiguous coding  </tspan><tspan x="-3.3" y="14.4" class="st2 st3 st4">sequences resolved  </tspan><tspan x="15.7" y="28.8" class="st2 st3 st4">by long reads</tspan></text>
</g>
<g id="gKi02V.tif">
	
		<image style="overflow:visible;" width="1890" height="848" id="Layer_0_1_" xlink:href="7D970BBC7900E44F.png"  transform="matrix(0.1928 0 0 0.1928 1.8583 11.3189)">
	</image>
</g>
</svg>
