<?xml version="1.0" encoding="utf-8"?>
<!-- Generator: Adobe Illustrator 22.1.0, SVG Export Plug-In . SVG Version: 6.00 Build 0)  -->
<svg version="1.1" id="Layer_1" xmlns="http://www.w3.org/2000/svg" xmlns:xlink="http://www.w3.org/1999/xlink" x="0px" y="0px"
	 viewBox="0 0 612 792" style="enable-background:new 0 0 612 792;" xml:space="preserve">
<style type="text/css">
	.st0{font-family:'Helvetica-Bold';}
	.st1{font-size:18px;}
	.st2{fill:#E6E7E8;stroke:#000000;stroke-miterlimit:10;}
	.st3{font-family:'Helvetica-Light';}
	.st4{font-size:12px;}
	.st5{fill:none;}
</style>
<text transform="matrix(1 0 0 1 14.0943 31.1939)" class="st0 st1">Figure 2</text>
<g>
	<rect x="23.2" y="58.4" class="st2" width="363.2" height="137.2"/>
	<text transform="matrix(1 0 0 1 74.3752 112.4273)"><tspan x="0" y="0" class="st3 st4">Extract coding sequence using human proteins,  </tspan><tspan x="7.3" y="14.4" class="st3 st4">k-merize coding sequence and minhash, com </tspan><tspan x="29.4" y="28.8" class="st3 st4">pare samples/cells across minhashes</tspan></text>
</g>
<g>
	<rect x="21.5" y="220.1" class="st2" width="172.6" height="137.2"/>
	<text transform="matrix(1 0 0 1 70.0871 277.3177)"><tspan x="0" y="0" class="st3 st4">kNN graph of  </tspan><tspan x="0.3" y="14.4" class="st3 st4">Brawand2011</tspan><tspan x="7.7" y="28.8" class="st3 st4">MinHashes</tspan></text>
</g>
<g>
	<rect x="21.5" y="376.7" class="st2" width="172.6" height="137.2"/>
	<rect x="59.9" y="424.1" class="st5" width="95.7" height="42.5"/>
	<text transform="matrix(1 0 0 1 68.4308 434.364)"><tspan x="0" y="0" class="st3 st4">K-mers driving </tspan><tspan x="9.7" y="14.4" class="st3 st4">similarity in </tspan><tspan x="2.3" y="28.8" class="st3 st4">brawand2011</tspan></text>
</g>
<text transform="matrix(1 0 0 1 26.734 49.2946)" class="st0 st4">A</text>
<text transform="matrix(1 0 0 1 21.4774 210.1935)" class="st0 st4">B</text>
<text transform="matrix(1 0 0 1 21.4773 374.456)" class="st0 st4">D</text>
<g>
	<rect x="213.8" y="375.3" class="st2" width="172.6" height="137.2"/>
	<text transform="matrix(1 0 0 1 245.3764 432.531)"><tspan x="0" y="0" class="st3 st4">Are the k-mers from  </tspan><tspan x="-0.3" y="14.4" class="st3 st4">unmapped reads or  </tspan><tspan x="-0.4" y="28.8" class="st3 st4">unannotated genes?</tspan></text>
</g>
<g>
	<rect x="215.5" y="220.1" class="st2" width="172.6" height="137.2"/>
	<text transform="matrix(1 0 0 1 264.0864 277.3177)"><tspan x="0" y="0" class="st3 st4">kNN graph of  </tspan><tspan x="0.3" y="14.4" class="st3 st4">Brawand2011</tspan><tspan x="-8" y="28.8" class="st3 st4">Gene expression</tspan></text>
</g>
<text transform="matrix(1 0 0 1 215.4772 214.0647)" class="st0 st4">C</text>
<text transform="matrix(1 0 0 1 215.4771 371.2303)" class="st0 st4">E</text>
</svg>
