<?xml version="1.0" encoding="utf-8"?>
<!-- Generator: Adobe Illustrator 22.1.0, SVG Export Plug-In . SVG Version: 6.00 Build 0)  -->
<svg version="1.1" id="Layer_1" xmlns="http://www.w3.org/2000/svg" xmlns:xlink="http://www.w3.org/1999/xlink" x="0px" y="0px"
	 viewBox="0 0 380.3 555.9" style="enable-background:new 0 0 380.3 555.9;" xml:space="preserve">
<style type="text/css">
	.st0{fill:#E6E7E8;stroke:#000000;stroke-miterlimit:10;}
	.st1{font-family:'Helvetica-Light';}
	.st2{font-size:12px;}
	.st3{font-family:'Helvetica-Bold';}
	.st4{fill:none;}
	.st5{enable-background:new    ;}
	.st6{fill:none;stroke:#000000;stroke-miterlimit:10;}
	.st7{font-size:8px;}
	.st8{fill:none;stroke:#29ABE2;stroke-width:3;stroke-miterlimit:10;}
	.st9{fill:none;stroke:#D4145A;stroke-width:3;stroke-miterlimit:10;}
	.st10{fill:none;stroke:#F7931E;stroke-width:3;stroke-miterlimit:10;}
	.st11{fill:#FEFEFE;}
	.st12{fill:#0076B9;}
	.st13{fill:#56C0FE;}
	.st14{font-size:10px;}
	.st15{opacity:0.75;fill:#0076B9;stroke:#000000;stroke-width:0.5;stroke-miterlimit:10;}
	.st16{opacity:0.75;fill:#56C0FE;stroke:#000000;stroke-width:0.5;stroke-miterlimit:10;}
	.st17{fill:#FFFFFF;}
	.st18{fill:none;stroke:#000000;stroke-width:0.5;stroke-miterlimit:10;}
	.st19{fill:none;stroke:#000000;stroke-width:0.5;stroke-miterlimit:10;stroke-dasharray:0.975,0.975;}
	.st20{fill:none;stroke:#000000;stroke-width:0.5;stroke-miterlimit:10;stroke-dasharray:1.0028,1.0028;}
	.st21{fill:none;stroke:#000000;stroke-width:0.5;stroke-miterlimit:10;stroke-dasharray:1.0039,1.0039;}
	.st22{fill:none;stroke:#000000;stroke-width:0.5;stroke-miterlimit:10;stroke-dasharray:0.9838,0.9838;}
	.st23{fill:none;stroke:#000000;stroke-width:0.5;stroke-miterlimit:10;stroke-dasharray:0.9835,0.9835;}
	.st24{fill:none;stroke:#000000;stroke-width:0.5;stroke-miterlimit:10;stroke-dasharray:0.9837,0.9837;}
	.st25{fill:none;stroke:#000000;stroke-width:0.5;stroke-miterlimit:10;stroke-dasharray:0.9716,0.9716;}
	.st26{fill:none;stroke:#000000;stroke-width:0.5;stroke-miterlimit:10;stroke-dasharray:0.9702,0.9702;}
	.st27{fill:none;stroke:#000000;stroke-width:0.5;stroke-miterlimit:10;stroke-dasharray:0.971,0.971;}
	.st28{fill:none;stroke:#000000;stroke-width:0.5;stroke-miterlimit:10;stroke-dasharray:0.9709,0.9709;}
	.st29{fill:none;stroke:#000000;stroke-width:0.5;stroke-miterlimit:10;stroke-dasharray:0.9707,0.9707;}
	.st30{fill:none;stroke:#000000;stroke-width:0.5;stroke-miterlimit:10;stroke-dasharray:0.97,0.97;}
	.st31{fill:none;stroke:#000000;stroke-width:0.5;stroke-miterlimit:10;stroke-dasharray:0.9692,0.9692;}
	.st32{fill:none;stroke:#000000;stroke-width:0.5;stroke-miterlimit:10;stroke-dasharray:0.9723,0.9723;}
	.st33{fill:none;stroke:#000000;stroke-width:0.5;stroke-miterlimit:10;stroke-dasharray:0.9732,0.9732;}
	.st34{fill:none;stroke:#000000;stroke-width:0.5;stroke-miterlimit:10;stroke-dasharray:0.9729,0.9729;}
	.st35{fill:none;stroke:#000000;stroke-width:0.5;stroke-miterlimit:10;stroke-dasharray:0.9727,0.9727;}
	.st36{fill:none;stroke:#000000;stroke-width:0.5;stroke-miterlimit:10;stroke-dasharray:0.9725,0.9725;}
	.st37{fill:none;stroke:#000000;stroke-width:0.5;stroke-miterlimit:10;stroke-dasharray:0.9726,0.9726;}
	.st38{fill:none;stroke:#000000;stroke-width:0.5;stroke-miterlimit:10;stroke-dasharray:1.0289,1.0289;}
	.st39{fill:none;stroke:#000000;stroke-width:0.5;stroke-miterlimit:10;stroke-dasharray:1.0287,1.0287;}
	.st40{fill:none;stroke:#000000;stroke-width:0.5;stroke-miterlimit:10;stroke-dasharray:1.029,1.029;}
	.st41{fill:none;stroke:#000000;stroke-width:0.5;stroke-miterlimit:10;stroke-dasharray:1.002,1.002;}
	.st42{fill:none;stroke:#000000;stroke-width:0.5;stroke-miterlimit:10;stroke-dasharray:0.982,0.982;}
	.st43{fill:none;stroke:#000000;stroke-width:0.5;stroke-miterlimit:10;stroke-dasharray:0.9821,0.9821;}
	.st44{fill:none;stroke:#000000;stroke-width:0.5;stroke-miterlimit:10;stroke-dasharray:0.9822,0.9822;}
	.st45{fill:none;stroke:#000000;stroke-width:0.5;stroke-miterlimit:10;stroke-dasharray:0.9823,0.9823;}
	.st46{fill:none;stroke:#000000;stroke-width:0.5;stroke-miterlimit:10;stroke-dasharray:0.9813,0.9813;}
	.st47{fill:none;stroke:#000000;stroke-width:0.5;stroke-miterlimit:10;stroke-dasharray:0.9693,0.9693;}
	.st48{fill:none;stroke:#000000;stroke-width:0.5;stroke-miterlimit:10;stroke-dasharray:0.9711,0.9711;}
	.st49{fill:none;stroke:#000000;stroke-width:0.5;stroke-miterlimit:10;stroke-dasharray:0.9685,0.9685;}
	.st50{fill:none;stroke:#000000;stroke-width:0.5;stroke-miterlimit:10;stroke-dasharray:0.9689,0.9689;}
	.st51{fill:none;stroke:#000000;stroke-width:0.5;stroke-miterlimit:10;stroke-dasharray:0.9699,0.9699;}
	.st52{fill:none;stroke:#000000;stroke-width:0.5;stroke-miterlimit:10;stroke-dasharray:0.9694,0.9694;}
	.st53{fill:none;stroke:#000000;stroke-width:0.5;stroke-miterlimit:10;stroke-dasharray:0.9722,0.9722;}
	.st54{fill:none;stroke:#000000;stroke-width:0.5;stroke-miterlimit:10;stroke-dasharray:0.9713,0.9713;}
	.st55{fill:none;stroke:#000000;stroke-width:0.5;stroke-miterlimit:10;stroke-dasharray:0.9712,0.9712;}
	.st56{fill:none;stroke:#000000;stroke-width:0.5;stroke-miterlimit:10;stroke-dasharray:1.0266,1.0266;}
	.st57{fill:none;stroke:#000000;stroke-width:0.5;stroke-miterlimit:10;stroke-dasharray:1.0267,1.0267;}
	.st58{clip-path:url(#SVGID_2_);}
	.st59{font-family:'CMMI10';}
	.st60{font-size:9.5996px;}
	.st61{font-family:'CMR10';}
	.st62{letter-spacing:1;}
	.st63{letter-spacing:2;}
	.st64{font-family:'CMSY10';}
	.st65{clip-path:url(#SVGID_2_);fill:none;stroke:#000000;stroke-width:1.4328;stroke-miterlimit:10;}
</style>
<g>
	<rect x="207.2" y="406.2" class="st0" width="172.6" height="137.2"/>
	<text transform="matrix(1 0 0 1 261.4805 477.844)" class="st1 st2">Placeholder</text>
</g>
<text transform="matrix(1 0 0 1 0.8127 10.3181)" class="st3 st2">A</text>
<text transform="matrix(1 0 0 1 2.1571 192.0006)" class="st3 st2">B</text>
<text transform="matrix(1 0 0 1 210.9806 199.2441)" class="st3 st2">C</text>
<g id="H7KY0M.tif">
	
		<image style="overflow:visible;" width="576" height="483" id="Layer_0_3_" xlink:href="82EBF962CB1DA4A4.png"  transform="matrix(0.3 0 0 0.3 207.0904 208.3701)">
	</image>
</g>
<g>
	<g id="gTJNQl.tif">
		
			<image style="overflow:visible;" width="672" height="697" id="Layer_0_1_" xlink:href="82EBF962CB1DA4A2.png"  transform="matrix(0.2571 0 0 0.2571 2.1571 195.8941)">
		</image>
	</g>
	<g>
		<rect x="39.6" y="252.1" class="st0" width="98" height="84"/>
		<rect x="49.5" y="258.4" class="st4" width="78" height="82.2"/>
		<text transform="matrix(1 0 0 1 61.8812 268.6657)" class="st5"><tspan x="0" y="0" class="st1 st2">Update to </tspan><tspan x="-10.7" y="14.4" class="st1 st2">Brawand2011 </tspan><tspan x="-11.7" y="28.8" class="st1 st2">species, show </tspan><tspan x="-6.3" y="43.2" class="st1 st2">diff between </tspan><tspan x="-6" y="57.6" class="st1 st2">background</tspan></text>
	</g>
</g>
<text transform="matrix(1 0 0 1 -3.051758e-05 396.6608)" class="st3 st2">D</text>
<g>
	<line class="st6" x1="25" y1="541" x2="167.6" y2="541"/>
	<text transform="matrix(1 0 0 1 64.51 553.0156)" class="st1 st7">Divergence time</text>
	<text transform="matrix(0 -1 1 0 18.9832 501.46)" class="st1 st7">k-mer size</text>
	<line class="st6" x1="25" y1="541" x2="25" y2="414"/>
	<line class="st8" x1="30.2" y1="451" x2="157.5" y2="533.6"/>
	<line class="st9" x1="41.5" y1="433.5" x2="168.9" y2="516.2"/>
	<line class="st10" x1="41.5" y1="416.6" x2="168.9" y2="499.3"/>
</g>
<g>
	<rect x="69.3" y="396.7" class="st0" width="104.2" height="82.8"/>
	<rect x="79.4" y="408.5" class="st4" width="83.9" height="59.1"/>
	<text transform="matrix(1 0 0 1 92.6825 418.848)" class="st5"><tspan x="0" y="0" class="st1 st2">K-mer size </tspan><tspan x="-1.7" y="14.4" class="st1 st2">maximizing </tspan><tspan x="-7.7" y="28.8" class="st1 st2">AUC for each </tspan><tspan x="3.3" y="43.2" class="st1 st2">encoding</tspan></text>
</g>
<g>
	<rect x="264.6" y="299.3" class="st0" width="98" height="54"/>
	<rect x="274.5" y="305.5" class="st4" width="78" height="41.5"/>
	<text transform="matrix(1 0 0 1 286.8812 315.8417)" class="st5"><tspan x="0" y="0" class="st1 st2">Update to </tspan><tspan x="-10.7" y="14.4" class="st1 st2">Brawand2011 </tspan><tspan x="5.7" y="28.8" class="st1 st2">species</tspan></text>
</g>
<g>
	<g id="XP1mju.tif">
		<g>
			<path class="st11" d="M135.1,26.4c0.4,0.2,0.2,0.6,0.2,0.9c0,17.9,0,35.7,0,53.6c0,0.9,0.4,2.2-0.1,2.7c-0.5,0.5-1.8,0.1-2.7,0.1
				c-18.1,0-36.2,0-54.2,0c-0.7,0-0.8-0.1-0.8-0.8c0-17.2,0-34.4,0-51.6c0.5-0.4,1.2-0.3,1.8-0.3c11.1,0,22.1,0,33.2,0
				c6.7,0,13.4,0,20.1,0c0.3,0,0.6,0,0.9,0c1.2,0,1.3-0.1,1.3-1.3c0-0.7,0-1.3,0-2C134.8,27.1,134.8,26.7,135.1,26.4z"/>
			<path class="st12" d="M135.1,26.4c0,1.3,0,2.6,0,3.9c0,0.7-0.2,0.9-0.9,0.9c-7.5,0-15.1,0-22.6,0c-11.4,0-22.7,0-34.1,0
				c0-1.4,0-2.8,0-4.1c0-0.6,0.1-0.7,0.7-0.7c9,0,18,0,27.1,0C115.2,26.4,125.2,26.4,135.1,26.4z"/>
			<path class="st12" d="M84.2,33.5c1.8,0,3.6,0,5.5,0c0.5,0,0.7,0.1,0.7,0.7c0,2.2,0.1,2.2-2.1,2.2c-3.2,0-6.4,0-9.6,0
				c-0.6,0-0.8-0.1-0.8-0.8c0-2.1,0-2.1,2-2.1C81.4,33.5,82.8,33.5,84.2,33.5z"/>
			<path class="st12" d="M98.9,36.3c-1.9,0-3.7,0-5.6,0c-0.5,0-0.7-0.1-0.7-0.7c0-2.2-0.1-2.2,2.1-2.2c3.2,0,6.4,0,9.6,0
				c0.6,0,0.8,0.1,0.8,0.8c0,2.1,0,2.1-2.1,2.1C101.7,36.3,100.3,36.3,98.9,36.3z"/>
			<path class="st12" d="M113.7,36.3c-1.9,0-3.7,0-5.6,0c-0.5,0-0.7-0.1-0.7-0.7c0-2.2-0.1-2.2,2.1-2.2c3.2,0,6.4,0,9.6,0
				c0.6,0,0.8,0.1,0.8,0.8c0,2.1,0,2.1-2.1,2.1C116.5,36.3,115.1,36.3,113.7,36.3z"/>
			<path class="st12" d="M128.4,36.3c-1.8,0-3.6,0-5.5,0c-0.5,0-0.7-0.2-0.7-0.7c0-2.2-0.1-2.2,2.1-2.2c3.2,0,6.4,0,9.6,0
				c0.6,0,0.8,0.2,0.8,0.8c0,2.1,0,2.1-2.1,2.1C131.3,36.3,129.8,36.3,128.4,36.3z"/>
			<path class="st12" d="M120.1,76.1c-1.8,0-3.6,0-5.5,0c-0.5,0-0.7-0.2-0.7-0.7c0-2.2-0.1-2.2,2.1-2.2c3.2,0,6.4,0,9.6,0
				c0.6,0,0.8,0.2,0.8,0.8c0,2.1,0,2.1-2.1,2.1C123,76.1,121.6,76.1,120.1,76.1z"/>
			<path class="st12" d="M117.1,69.6c1.8,0,3.6,0,5.5,0c0.5,0,0.7,0.1,0.7,0.7c0,2.2,0.1,2.2-2.1,2.2c-3.2,0-6.4,0-9.6,0
				c-0.6,0-0.8-0.1-0.8-0.8c0-2.1,0-2.1,2-2.1C114.2,69.6,115.6,69.6,117.1,69.6z"/>
			<path class="st12" d="M93.9,47.1c-1.9,0-3.7,0-5.6,0c-0.5,0-0.7-0.1-0.7-0.7c0-2.2-0.1-2.2,2.1-2.2c3.2,0,6.4,0,9.6,0
				c0.6,0,0.8,0.1,0.8,0.8c0,2.1,0,2.1-2,2.1C96.7,47.1,95.3,47.1,93.9,47.1z"/>
			<path class="st12" d="M126.8,50.7c-1.8,0-3.6,0-5.5,0c-0.5,0-0.7-0.1-0.7-0.6c-0.1-2.3-0.1-2.3,2.2-2.3c3.1,0,6.2,0,9.3,0
				c0.6,0,0.9,0.1,0.9,0.8c0,2.1,0,2.1-2.1,2.1C129.6,50.7,128.2,50.7,126.8,50.7z"/>
			<path class="st12" d="M100.5,54.4c-1.8,0-3.6,0-5.4,0c-0.5,0-0.8-0.1-0.8-0.7c0-2.2,0-2.2,2.2-2.2c3.1,0,6.2,0,9.3,0
				c0.6,0,0.9,0.1,0.9,0.8c0,2.1,0,2.1-2.1,2.1C103.3,54.4,101.9,54.4,100.5,54.4z"/>
			<path class="st12" d="M115.2,54.4c-1.8,0-3.6,0-5.4,0c-0.5,0-0.7-0.1-0.7-0.7c0-2.2-0.1-2.2,2.1-2.2c3.1,0,6.3,0,9.4,0
				c0.6,0,0.8,0.1,0.8,0.8c0,2.1,0,2.1-2,2.1C118,54.4,116.6,54.4,115.2,54.4z"/>
			<path class="st12" d="M103.7,58c-1.8,0-3.6,0-5.4,0c-0.5,0-0.7-0.2-0.7-0.7c0-2.2-0.1-2.2,2.1-2.2c3.1,0,6.3,0,9.4,0
				c0.6,0,0.8,0.2,0.8,0.8c0,2.1,0,2.1-2.1,2.1C106.5,58,105.1,58,103.7,58z"/>
			<path class="st12" d="M118.6,58c-1.8,0-3.6,0-5.5,0c-0.5,0-0.7-0.1-0.7-0.7c0-2.2-0.1-2.2,2.1-2.2c3.1,0,6.3,0,9.4,0
				c0.6,0,0.8,0.1,0.8,0.8c0,2.1,0,2.1-2.1,2.1C121.3,58,119.9,58,118.6,58z"/>
			<path class="st12" d="M123.6,79.7c-1.8,0-3.6,0-5.5,0c-0.5,0-0.7-0.1-0.7-0.7c0-2.2-0.1-2.2,2.1-2.2c3.1,0,6.3,0,9.4,0
				c0.6,0,0.8,0.1,0.8,0.8c0,2.1,0,2.1-2.1,2.1C126.3,79.7,124.9,79.7,123.6,79.7z"/>
			<path class="st12" d="M126.8,83.4c-1.8,0-3.6,0-5.4,0c-0.6,0-0.7-0.1-0.7-0.7c0-2.2,0-2.2,2.1-2.2c3.1,0,6.3,0,9.4,0
				c0.7,0,0.9,0.2,0.8,0.8c0,2.1,0,2.1-2.1,2.1C129.5,83.4,128.2,83.4,126.8,83.4z"/>
			<path class="st12" d="M112,50.7c-1.8,0-3.5,0-5.3,0c-0.6,0-0.8-0.1-0.8-0.8c0-2.1,0-2.1,2.1-2.1c3.1,0,6.2,0,9.3,0
				c0.7,0,0.9,0.1,0.9,0.9c0,2,0,2-2,2C114.8,50.7,113.4,50.7,112,50.7z"/>
			<path class="st12" d="M97.3,47.9c1.8,0,3.6,0,5.5,0c0.5,0,0.7,0.1,0.7,0.7c0,2.2,0.1,2.2-2.1,2.2c-3.1,0-6.3,0-9.4,0
				c-0.6,0-0.8-0.1-0.8-0.8c0-2.1,0-2.1,2.1-2.1C94.6,47.9,95.9,47.9,97.3,47.9z"/>
			<path class="st12" d="M123.6,47.1c-1.8,0-3.6,0-5.5,0c-0.5,0-0.7-0.1-0.7-0.6c-0.1-2.3-0.1-2.3,2.2-2.3c3.1,0,6.3,0,9.4,0
				c0.6,0,0.8,0.1,0.8,0.7c0,2.2,0,2.2-2.2,2.2C126.2,47.1,124.9,47.1,123.6,47.1z"/>
			<path class="st12" d="M108.8,44.2c1.8,0,3.6,0,5.5,0c0.5,0,0.7,0.1,0.7,0.7c0,2.2,0.1,2.2-2.1,2.2c-3.1,0-6.3,0-9.4,0
				c-0.6,0-0.8-0.1-0.8-0.8c0-2.1,0-2.1,2.1-2.1C106.1,44.2,107.5,44.2,108.8,44.2z"/>
			<path class="st12" d="M120.2,43.4c-1.9,0-3.7,0-5.6,0c-0.5,0-0.7-0.1-0.7-0.7c0-2,0-2,2-2c3.3,0,6.5,0,9.8,0
				c0.6,0,0.8,0.2,0.8,0.8c0,1.9,0,1.9-1.9,1.9C123.2,43.4,121.7,43.4,120.2,43.4z"/>
			<path class="st12" d="M105.4,43.4c-1.9,0-3.7,0-5.6,0c-0.5,0-0.7-0.1-0.7-0.7c0-2-0.1-2,1.9-2c3.3,0,6.5,0,9.8,0
				c0.6,0,0.8,0.1,0.8,0.8c0,1.9,0,1.9-1.9,1.9C108.3,43.4,106.9,43.4,105.4,43.4z"/>
			<path class="st12" d="M113.7,66.1c1.9,0,3.7,0,5.6,0c0.5,0,0.7,0.1,0.7,0.7c0,2,0.1,2-1.9,2c-3.2,0-6.4,0-9.7,0
				c-0.7,0-0.9-0.1-0.9-0.9c0-1.8,0-1.8,1.8-1.8C110.8,66.1,112.2,66.1,113.7,66.1z"/>
			<path class="st12" d="M128.5,66.1c1.8,0,3.6,0,5.5,0c0.5,0,0.8,0.1,0.8,0.7c0,2,0,2-2,2c-3.2,0-6.4,0-9.7,0
				c-0.6,0-0.9-0.1-0.9-0.8c0-1.9,0-1.9,1.9-1.9C125.6,66.1,127,66.1,128.5,66.1z"/>
			<path class="st12" d="M90.7,40.8c1.9,0,3.7,0,5.6,0c0.5,0,0.7,0.1,0.7,0.7c0,2,0.1,2-1.9,2c-3.3,0-6.5,0-9.8,0
				c-0.6,0-0.8-0.1-0.8-0.8c0-1.9,0-1.9,1.9-1.9C87.8,40.8,89.2,40.8,90.7,40.8z"/>
			<path class="st12" d="M116.9,39.8c-1.8,0-3.6,0-5.5,0c-0.6,0-0.7-0.2-0.7-0.8c0-2,0-2,1.9-2c3.3,0,6.5,0,9.8,0
				c0.7,0,0.8,0.2,0.8,0.9c0,1.9,0,1.9-1.8,1.9C119.9,39.8,118.4,39.8,116.9,39.8z"/>
			<path class="st12" d="M102.1,39.8c-1.8,0-3.6,0-5.5,0c-0.5,0-0.7-0.1-0.7-0.7c0-2,0-2,1.9-2c3.3,0,6.5,0,9.8,0
				c0.6,0,0.8,0.1,0.8,0.8c0,1.9,0,1.9-1.9,1.9C105.1,39.8,103.6,39.8,102.1,39.8z"/>
			<path class="st12" d="M87.3,39.8c-1.8,0-3.6,0-5.5,0c-0.5,0-0.7-0.1-0.7-0.7c0-2,0-2,2-2c3.3,0,6.5,0,9.8,0
				c0.6,0,0.8,0.2,0.8,0.8c0,1.9,0,1.9-1.9,1.9C90.3,39.8,88.8,39.8,87.3,39.8z"/>
			<path class="st12" d="M107,61.5c-1.8,0-3.6,0-5.4,0c-0.5,0-0.7-0.2-0.7-0.7c0-2,0-2,2-2c3.2,0,6.4,0,9.6,0c0.6,0,0.8,0.2,0.8,0.8
				c0,1.9,0,1.9-1.9,1.9C109.9,61.5,108.4,61.5,107,61.5z"/>
			<path class="st12" d="M121.9,61.5c-1.8,0-3.6,0-5.5,0c-0.5,0-0.7-0.1-0.7-0.7c0-2-0.1-2,1.9-2c3.2,0,6.4,0,9.6,0
				c0.6,0,0.8,0.1,0.8,0.8c0,1.9,0,1.9-1.9,1.9C124.7,61.5,123.3,61.5,121.9,61.5z"/>
			<path class="st12" d="M110.2,65.1c-1.8,0-3.6,0-5.4,0c-0.5,0-0.7-0.1-0.7-0.7c0-2,0-2,2-2c3.2,0,6.4,0,9.6,0
				c0.6,0,0.8,0.2,0.8,0.8c0,1.9,0,1.9-1.9,1.9C113.2,65.1,111.7,65.1,110.2,65.1z"/>
			<path class="st12" d="M125.2,62.5c1.8,0,3.6,0,5.4,0c0.5,0,0.7,0.1,0.7,0.7c0,2,0,2-2,2c-3.2,0-6.4,0-9.6,0
				c-0.6,0-0.8-0.2-0.8-0.8c0-1.9,0-1.9,1.9-1.9C122.3,62.5,123.8,62.5,125.2,62.5z"/>
		</g>
	</g>
	<g id="jUXD8v.tif">
		<g>
			<path class="st11" d="M274.9,26.4c0.4,0.2,0.2,0.6,0.2,0.9c0,17.9,0,35.7,0,53.6c0,0.9,0.4,2.2-0.1,2.7c-0.5,0.5-1.8,0.1-2.7,0.1
				c-18.1,0-36.2,0-54.2,0c-0.7,0-0.8-0.1-0.8-0.8c0-17.2,0-34.4,0-51.6c0.5-0.4,1.2-0.3,1.8-0.3c11.1,0,22.1,0,33.2,0
				c6.7,0,13.4,0,20.1,0c0.3,0,0.6,0,0.9,0c1.2,0,1.3-0.1,1.3-1.3c0-0.7,0-1.3,0-2C274.6,27.1,274.6,26.7,274.9,26.4z"/>
			<path class="st13" d="M274.9,26.4c0,1.2-0.1,2.5,0,3.7c0.1,0.9-0.3,1.1-1.1,1.1c-2.8,0-5.6,0-8.3,0c-16.1,0-32.1,0-48.2,0
				c0-1.4,0-2.8,0-4.1c0-0.6,0.1-0.7,0.7-0.7c9,0,18,0,27.1,0C255,26.4,264.9,26.4,274.9,26.4z"/>
			<path class="st13" d="M224,33.5c1.8,0,3.6,0,5.4,0c0.6,0,0.8,0.2,0.8,0.8c0,2.1,0,2.1-2,2.1c-3.2,0-6.4,0-9.6,0
				c-0.7,0-0.9-0.2-0.9-0.9c0-2,0-2,2-2C221.1,33.5,222.5,33.5,224,33.5z"/>
			<path class="st13" d="M238.7,36.3c-1.8,0-3.6,0-5.4,0c-0.6,0-0.8-0.1-0.8-0.8c0-2.1,0-2.1,2.1-2.1c3.2,0,6.3,0,9.5,0
				c0.8,0,1,0.2,0.9,1c0,1.9,0,1.9-1.9,1.9C241.6,36.3,240.1,36.3,238.7,36.3z"/>
			<path class="st13" d="M253.5,36.3c-1.8,0-3.6,0-5.5,0c-0.6,0-0.8-0.1-0.8-0.7c0-2.2-0.1-2.2,2.1-2.2c3.1,0,6.3,0,9.4,0
				c0.7,0,1,0.1,1,0.9c0,2,0,2-1.9,2C256.4,36.3,254.9,36.3,253.5,36.3z"/>
			<path class="st13" d="M268.2,36.3c-1.8,0-3.6,0-5.4,0c-0.6,0-0.8-0.1-0.8-0.7c0-2.2-0.1-2.2,2.1-2.2c3.1,0,6.3,0,9.4,0
				c0.7,0,1,0.1,1,0.9c0,2,0,2-1.9,2C271.1,36.3,269.6,36.3,268.2,36.3z"/>
			<path class="st13" d="M259.9,76.1c-1.8,0-3.6,0-5.4,0c-0.6,0-0.8-0.1-0.8-0.7c0-2.2-0.1-2.2,2.1-2.2c3.1,0,6.3,0,9.4,0
				c0.7,0,1,0.1,1,0.9c0,2,0,2-1.9,2C262.8,76.1,261.4,76.1,259.9,76.1z"/>
			<path class="st13" d="M256.8,69.6c1.8,0,3.5,0,5.3,0c0.6,0,0.9,0.1,0.9,0.8c0,2.1,0,2.1-2,2.1c-3.2,0-6.3,0-9.5,0
				c-0.7,0-1-0.1-1-0.9c0-2,0-2,1.9-2C253.9,69.6,255.4,69.6,256.8,69.6z"/>
			<path class="st13" d="M233.7,47.1c-1.8,0-3.6,0-5.4,0c-0.6,0-0.8-0.1-0.8-0.8c0-2.1,0-2.1,2.1-2.1c3.2,0,6.3,0,9.5,0
				c0.7,0,0.9,0.1,0.9,0.9c0,2,0,2-2,2C236.5,47.1,235.1,47.1,233.7,47.1z"/>
			<path class="st13" d="M266.6,50.7c-1.8,0-3.5,0-5.3,0c-0.6,0-0.8-0.1-0.8-0.8c0-2.1,0-2.1,2.1-2.1c3.1,0,6.2,0,9.3,0
				c0.7,0,1,0.1,0.9,0.9c0,2,0,2-2,2C269.4,50.7,268,50.7,266.6,50.7z"/>
			<path class="st13" d="M240.3,54.4c-1.8,0-3.6,0-5.4,0c-0.5,0-0.7-0.2-0.7-0.7c-0.1-2.2-0.1-2.2,2.1-2.2c3.1,0,6.3,0,9.4,0
				c0.6,0,0.8,0.2,0.8,0.8c0,2.1,0,2.1-2,2.1C243.1,54.4,241.7,54.4,240.3,54.4z"/>
			<path class="st13" d="M255,54.4c-1.8,0-3.5,0-5.3,0c-0.5,0-0.8-0.1-0.8-0.7c0-2.2-0.1-2.2,2.1-2.2c3.1,0,6.2,0,9.3,0
				c0.7,0,0.9,0.2,0.9,0.9c0,2,0,2-1.9,2C257.9,54.4,256.5,54.4,255,54.4z"/>
			<path class="st13" d="M243.5,58c-1.7,0-3.5,0-5.2,0c-0.6,0-0.9-0.1-0.9-0.8c0-2.1,0-2.1,2-2.1c3.1,0,6.2,0,9.3,0
				c0.7,0,1,0.1,1,0.9c0,2,0,2-1.9,2C246.4,58,244.9,58,243.5,58z"/>
			<path class="st13" d="M258.4,58c-1.8,0-3.5,0-5.3,0c-0.6,0-0.9-0.1-0.9-0.8c0-2.1,0-2.1,2-2.1c3.1,0,6.3,0,9.4,0
				c0.6,0,0.9,0.1,0.9,0.8c0,2.1,0,2.1-2,2.1C261.1,58,259.7,58,258.4,58z"/>
			<path class="st13" d="M263.4,79.7c-1.8,0-3.5,0-5.3,0c-0.6,0-0.9-0.1-0.9-0.8c0-2.1,0-2.1,2-2.1c3.1,0,6.3,0,9.4,0
				c0.6,0,0.9,0.1,0.9,0.8c0,2.1,0,2.1-2,2.1C266.1,79.7,264.7,79.7,263.4,79.7z"/>
			<path class="st13" d="M266.6,83.4c-1.8,0-3.6,0-5.4,0c-0.6,0-0.8-0.2-0.8-0.8c0-2.1,0-2.1,2.1-2.1c3.1,0,6.3,0,9.4,0
				c0.7,0,0.9,0.2,0.9,0.9c0,2,0,2-2.1,2C269.4,83.4,268,83.4,266.6,83.4z"/>
			<path class="st13" d="M251.8,50.7c-1.8,0-3.6,0-5.4,0c-0.5,0-0.7-0.1-0.7-0.7c-0.1-2.2-0.1-2.2,2.1-2.2c3.1,0,6.3,0,9.4,0
				c0.6,0,0.8,0.1,0.8,0.8c0,2.1,0,2.1-2.1,2.1C254.5,50.7,253.2,50.7,251.8,50.7z"/>
			<path class="st13" d="M237.1,47.9c1.8,0,3.6,0,5.4,0c0.6,0,0.8,0.1,0.8,0.7c0,2.2,0.1,2.2-2.1,2.2c-3.1,0-6.1,0-9.2,0
				c-0.7,0-1-0.1-1-0.9c0-2,0-2,1.9-2C234.3,47.9,235.7,47.9,237.1,47.9z"/>
			<path class="st13" d="M263.3,47.1c-1.8,0-3.6,0-5.4,0c-0.5,0-0.7-0.1-0.7-0.7c-0.1-2.2-0.1-2.2,2.1-2.2c3.1,0,6.3,0,9.4,0
				c0.6,0,0.8,0.1,0.8,0.8c0,2.1,0,2.1-2.1,2.1C266.1,47.1,264.7,47.1,263.3,47.1z"/>
			<path class="st13" d="M248.6,44.2c1.8,0,3.6,0,5.4,0c0.6,0,0.8,0.1,0.8,0.7c0,2.2,0.1,2.2-2.1,2.2c-3.1,0-6.1,0-9.2,0
				c-0.7,0-1-0.1-1-0.9c0-2,0-2,1.9-2C245.8,44.2,247.2,44.2,248.6,44.2z"/>
			<path class="st13" d="M260.1,43.4c-1.9,0-3.7,0-5.6,0c-0.6,0-0.8-0.2-0.8-0.8c0-1.9,0-1.9,1.9-1.9c3.3,0,6.5,0,9.8,0
				c0.7,0,0.9,0.2,0.9,0.9c0,1.8,0,1.8-1.9,1.8C263,43.4,261.5,43.4,260.1,43.4z"/>
			<path class="st13" d="M245.2,43.4c-1.8,0-3.6,0-5.4,0c-0.6,0-0.9-0.1-0.9-0.8c0-1.9,0-1.9,1.9-1.9c3.2,0,6.5,0,9.7,0
				c0.7,0,1,0.1,1,0.9c-0.1,1.8,0,1.8-1.8,1.8C248.2,43.4,246.7,43.4,245.2,43.4z"/>
			<path class="st13" d="M253.5,66.1c1.8,0,3.6,0,5.4,0c0.6,0,0.9,0.1,0.9,0.8c0,1.9,0,1.9-1.8,1.9c-3.2,0-6.5,0-9.7,0
				c-0.7,0-1-0.1-1-0.9c0.1-1.8,0-1.8,1.8-1.8C250.5,66.1,252,66.1,253.5,66.1z"/>
			<path class="st13" d="M268.3,66.1c1.8,0,3.6,0,5.5,0c0.5,0,0.7,0.2,0.7,0.7c0,2,0.1,2-1.9,2c-3.2,0-6.5,0-9.7,0
				c-0.7,0-0.9-0.2-0.9-0.9c0-1.8,0-1.8,1.8-1.8C265.3,66.1,266.8,66.1,268.3,66.1z"/>
			<path class="st13" d="M230.4,40.8c1.8,0,3.6,0,5.4,0c0.6,0,0.9,0.1,0.9,0.8c0,1.9,0,1.9-1.8,1.9c-3.2,0-6.5,0-9.7,0
				c-0.7,0-1-0.1-1-0.9c0.1-1.8,0-1.8,1.8-1.8C227.4,40.8,228.9,40.8,230.4,40.8z"/>
			<path class="st13" d="M256.7,39.8c-1.8,0-3.6,0-5.4,0c-0.6,0-0.8-0.1-0.8-0.8c0-1.9,0-1.9,1.9-1.9c3.2,0,6.5,0,9.7,0
				c0.8,0,1,0.2,0.9,1c0,1.7,0,1.7-1.8,1.7C259.7,39.8,258.2,39.8,256.7,39.8z"/>
			<path class="st13" d="M241.9,39.8c-1.8,0-3.5,0-5.3,0c-0.6,0-0.9-0.1-0.9-0.8c0-1.9,0-1.9,1.8-1.9c3.2,0,6.5,0,9.7,0
				c0.7,0,1,0.1,1,0.9c-0.1,1.8,0,1.8-1.8,1.8C244.9,39.8,243.4,39.8,241.9,39.8z"/>
			<path class="st13" d="M227.1,39.8c-1.8,0-3.5,0-5.3,0c-0.6,0-0.9-0.1-0.9-0.8c0-1.9,0-1.9,1.8-1.9c3.2,0,6.5,0,9.7,0
				c0.8,0,1,0.2,1,1c-0.1,1.7,0,1.7-1.6,1.7C230.2,39.8,228.6,39.8,227.1,39.8z"/>
			<path class="st13" d="M246.8,61.5c-1.7,0-3.5,0-5.2,0c-0.6,0-0.9-0.1-0.9-0.8c0-1.9,0-1.9,1.8-1.9c3.2,0,6.3,0,9.5,0
				c0.7,0,1,0.1,1,0.9c-0.1,1.8,0,1.8-1.8,1.8C249.8,61.5,248.3,61.5,246.8,61.5z"/>
			<path class="st13" d="M261.6,61.5c-1.8,0-3.5,0-5.3,0c-0.6,0-0.9-0.1-0.9-0.8c0-1.9,0-1.9,1.8-1.9c3.2,0,6.3,0,9.5,0
				c0.7,0,1,0.1,1,0.9c-0.1,1.8,0,1.8-1.8,1.8C264.6,61.5,263.1,61.5,261.6,61.5z"/>
			<path class="st13" d="M250,65.1c-1.7,0-3.5,0-5.2,0c-0.6,0-0.9-0.1-0.9-0.8c0-1.9,0-1.9,1.8-1.9c3.2,0,6.3,0,9.5,0
				c0.7,0,1,0.1,1,0.9c-0.1,1.8,0,1.8-1.8,1.8C253,65.1,251.5,65.1,250,65.1z"/>
			<path class="st13" d="M265,62.5c1.7,0,3.5,0,5.2,0c0.6,0,0.9,0.1,0.9,0.8c0,1.9,0,1.9-1.8,1.9c-3.2,0-6.3,0-9.5,0
				c-0.7,0-1-0.1-1-0.9c0.1-1.8,0-1.8,1.8-1.8C262,62.5,263.5,62.5,265,62.5z"/>
		</g>
	</g>
</g>
<rect x="129.7" y="152.3" class="st4" width="115.4" height="27.3"/>
<text transform="matrix(1 0 0 1 133.5169 160.9323)"><tspan x="0" y="0" class="st1 st14">Compute Jaccard index </tspan><tspan x="5" y="12" class="st1 st14">of overlapping k-mers</tspan></text>
<text transform="matrix(1 0 0 1 86.3428 10.318)"><tspan x="0" y="0" class="st1 st14">Human</tspan><tspan x="-40.3" y="12" class="st1 st14">protein-coding sequence</tspan></text>
<text transform="matrix(1 0 0 1 211.7852 10.9532)"><tspan x="0" y="0" class="st1 st14">Other species’  </tspan><tspan x="-22.5" y="12" class="st1 st14">protein-coding sequence</tspan></text>
<text transform="matrix(1 0 0 1 47.2514 47.955)" class="st1 st7">K-merize</text>
<text transform="matrix(1 0 0 1 274.0013 47.9549)" class="st1 st7">K-merize</text>
<g>
	<circle class="st15" cx="183.6" cy="126.4" r="16.5"/>
	<circle class="st16" cx="202.8" cy="126.4" r="16.5"/>
</g>
<text transform="matrix(0.9922 -3.383538e-03 3.410000e-03 1 207.0336 389.6686)" class="st3 st2">D</text>
<rect x="202.8" y="379.9" class="st17" width="16.5" height="10.4"/>
<text transform="matrix(1 0 0 1 207.0904 396.6608)" class="st3 st2">E</text>
<g>
	<g>
		<g>
			<line class="st18" x1="108" y1="78" x2="107.6" y2="78.4"/>
			<line class="st19" x1="106.9" y1="79.1" x2="83.8" y2="102.2"/>
			<line class="st18" x1="83.5" y1="102.5" x2="83.1" y2="102.9"/>
			<g>
				<path d="M81,105c0.6-1.4,1.2-3.3,1.3-4.7l1.1,2.3l2.3,1.1C84.3,103.8,82.4,104.4,81,105z"/>
			</g>
		</g>
	</g>
	<g>
		<g>
			<line class="st18" x1="278.4" y1="75.9" x2="278.7" y2="76.2"/>
			<line class="st19" x1="279.4" y1="76.9" x2="302.5" y2="100"/>
			<line class="st18" x1="302.9" y1="100.3" x2="303.2" y2="100.7"/>
			<g>
				<path d="M305.3,102.8c-1.4-0.6-3.3-1.2-4.7-1.3l2.3-1.1l1.1-2.3C304.1,99.6,304.7,101.4,305.3,102.8z"/>
			</g>
		</g>
	</g>
</g>
<rect x="0.8" y="78" class="st4" width="97.5" height="19.3"/>
<text transform="matrix(1 0 0 1 3.297 84.9186)"><tspan x="0" y="0" class="st1 st7">Maybe encode to Dayhoff </tspan><tspan x="8.5" y="9.6" class="st1 st7">or hydrophobic-polar</tspan></text>
<rect x="283" y="73.5" class="st4" width="97.5" height="19.3"/>
<text transform="matrix(1 0 0 1 285.4504 80.3644)"><tspan x="0" y="0" class="st1 st7">Maybe encode to Dayhoff </tspan><tspan x="8.5" y="9.6" class="st1 st7">or hydrophobic-polar</tspan></text>
<g id="XP1mju.tif_1_">
	<g>
		<g>
			<path class="st12" d="M97.2,109.4c0,1.3,0,2.6,0,3.9c0,0.7-0.2,0.9-0.9,0.9c-7.5,0-15.1,0-22.6,0c-11.4,0-22.7,0-34.1,0
				c0-1.4,0-2.8,0-4.1c0-0.6,0.1-0.7,0.7-0.7c9,0,18,0,27.1,0C77.3,109.4,87.3,109.4,97.2,109.4z"/>
			<g>
				<path class="st18" d="M96.7,109.4c0.2,0,0.3,0,0.5,0c0,0.2,0,0.3,0,0.5"/>
				<path class="st20" d="M97.2,110.9c0,0.8,0,1.6,0,2.4c0,0.7-0.2,0.9-0.9,0.9c-7.5,0-15.1,0-22.6,0c-11,0-22,0-33.1,0"/>
				<path class="st18" d="M40.1,114.2c-0.2,0-0.3,0-0.5,0c0-0.2,0-0.3,0-0.5"/>
				<path class="st21" d="M39.6,112.7c0-0.9,0-1.7,0-2.6c0-0.6,0.1-0.7,0.7-0.7c9,0,18,0,27.1,0c9.6,0,19.2,0,28.9,0"/>
			</g>
		</g>
		<g>
			<path class="st12" d="M46.3,116.5c1.8,0,3.6,0,5.5,0c0.5,0,0.7,0.1,0.7,0.7c0,2.2,0.1,2.2-2.1,2.2c-3.2,0-6.4,0-9.6,0
				c-0.6,0-0.8-0.1-0.8-0.8c0-2.1,0-2.1,2-2.1C43.5,116.5,44.9,116.5,46.3,116.5z"/>
			<path class="st22" d="M46.3,116.5c1.8,0,3.6,0,5.5,0c0.5,0,0.7,0.1,0.7,0.7c0,2.2,0.1,2.2-2.1,2.2c-3.2,0-6.4,0-9.6,0
				c-0.6,0-0.8-0.1-0.8-0.8c0-2.1,0-2.1,2-2.1C43.5,116.5,44.9,116.5,46.3,116.5z"/>
		</g>
		<g>
			<path class="st12" d="M61,119.4c-1.9,0-3.7,0-5.6,0c-0.5,0-0.7-0.1-0.7-0.7c0-2.2-0.1-2.2,2.1-2.2c3.2,0,6.4,0,9.6,0
				c0.6,0,0.8,0.1,0.8,0.8c0,2.1,0,2.1-2.1,2.1C63.8,119.4,62.4,119.4,61,119.4z"/>
			<path class="st23" d="M61,119.4c-1.9,0-3.7,0-5.6,0c-0.5,0-0.7-0.1-0.7-0.7c0-2.2-0.1-2.2,2.1-2.2c3.2,0,6.4,0,9.6,0
				c0.6,0,0.8,0.1,0.8,0.8c0,2.1,0,2.1-2.1,2.1C63.8,119.4,62.4,119.4,61,119.4z"/>
		</g>
		<g>
			<path class="st12" d="M75.8,119.4c-1.9,0-3.7,0-5.6,0c-0.5,0-0.7-0.1-0.7-0.7c0-2.2-0.1-2.2,2.1-2.2c3.2,0,6.4,0,9.6,0
				c0.6,0,0.8,0.1,0.8,0.8c0,2.1,0,2.1-2.1,2.1C78.6,119.4,77.2,119.4,75.8,119.4z"/>
			<path class="st23" d="M75.8,119.4c-1.9,0-3.7,0-5.6,0c-0.5,0-0.7-0.1-0.7-0.7c0-2.2-0.1-2.2,2.1-2.2c3.2,0,6.4,0,9.6,0
				c0.6,0,0.8,0.1,0.8,0.8c0,2.1,0,2.1-2.1,2.1C78.6,119.4,77.2,119.4,75.8,119.4z"/>
		</g>
		<g>
			<path class="st12" d="M90.5,119.4c-1.8,0-3.6,0-5.5,0c-0.5,0-0.7-0.2-0.7-0.7c0-2.2-0.1-2.2,2.1-2.2c3.2,0,6.4,0,9.6,0
				c0.6,0,0.8,0.2,0.8,0.8c0,2.1,0,2.1-2.1,2.1C93.4,119.4,91.9,119.4,90.5,119.4z"/>
			<path class="st24" d="M90.5,119.4c-1.8,0-3.6,0-5.5,0c-0.5,0-0.7-0.2-0.7-0.7c0-2.2-0.1-2.2,2.1-2.2c3.2,0,6.4,0,9.6,0
				c0.6,0,0.8,0.2,0.8,0.8c0,2.1,0,2.1-2.1,2.1C93.4,119.4,91.9,119.4,90.5,119.4z"/>
		</g>
		<g>
			<path class="st12" d="M82.2,159.1c-1.8,0-3.6,0-5.5,0c-0.5,0-0.7-0.2-0.7-0.7c0-2.2-0.1-2.2,2.1-2.2c3.2,0,6.4,0,9.6,0
				c0.6,0,0.8,0.2,0.8,0.8c0,2.1,0,2.1-2.1,2.1C85.1,159.1,83.7,159.1,82.2,159.1z"/>
			<path class="st24" d="M82.2,159.1c-1.8,0-3.6,0-5.5,0c-0.5,0-0.7-0.2-0.7-0.7c0-2.2-0.1-2.2,2.1-2.2c3.2,0,6.4,0,9.6,0
				c0.6,0,0.8,0.2,0.8,0.8c0,2.1,0,2.1-2.1,2.1C85.1,159.1,83.7,159.1,82.2,159.1z"/>
		</g>
		<g>
			<path class="st12" d="M79.2,152.6c1.8,0,3.6,0,5.5,0c0.5,0,0.7,0.1,0.7,0.7c0,2.2,0.1,2.2-2.1,2.2c-3.2,0-6.4,0-9.6,0
				c-0.6,0-0.8-0.1-0.8-0.8c0-2.1,0-2.1,2-2.1C76.3,152.6,77.7,152.6,79.2,152.6z"/>
			<path class="st22" d="M79.2,152.6c1.8,0,3.6,0,5.5,0c0.5,0,0.7,0.1,0.7,0.7c0,2.2,0.1,2.2-2.1,2.2c-3.2,0-6.4,0-9.6,0
				c-0.6,0-0.8-0.1-0.8-0.8c0-2.1,0-2.1,2-2.1C76.3,152.6,77.7,152.6,79.2,152.6z"/>
		</g>
		<g>
			<path class="st12" d="M56,130.1c-1.9,0-3.7,0-5.6,0c-0.5,0-0.7-0.1-0.7-0.7c0-2.2-0.1-2.2,2.1-2.2c3.2,0,6.4,0,9.6,0
				c0.6,0,0.8,0.1,0.8,0.8c0,2.1,0,2.1-2,2.1C58.9,130.1,57.4,130.1,56,130.1z"/>
			<path class="st22" d="M56,130.1c-1.9,0-3.7,0-5.6,0c-0.5,0-0.7-0.1-0.7-0.7c0-2.2-0.1-2.2,2.1-2.2c3.2,0,6.4,0,9.6,0
				c0.6,0,0.8,0.1,0.8,0.8c0,2.1,0,2.1-2,2.1C58.9,130.1,57.4,130.1,56,130.1z"/>
		</g>
		<g>
			<path class="st12" d="M88.9,133.8c-1.8,0-3.6,0-5.5,0c-0.5,0-0.7-0.1-0.7-0.6c-0.1-2.3-0.1-2.3,2.2-2.3c3.1,0,6.2,0,9.3,0
				c0.6,0,0.9,0.1,0.9,0.8c0,2.1,0,2.1-2.1,2.1C91.7,133.8,90.3,133.8,88.9,133.8z"/>
			<path class="st25" d="M88.9,133.8c-1.8,0-3.6,0-5.5,0c-0.5,0-0.7-0.1-0.7-0.6c-0.1-2.3-0.1-2.3,2.2-2.3c3.1,0,6.2,0,9.3,0
				c0.6,0,0.9,0.1,0.9,0.8c0,2.1,0,2.1-2.1,2.1C91.7,133.8,90.3,133.8,88.9,133.8z"/>
		</g>
		<g>
			<path class="st12" d="M62.6,137.4c-1.8,0-3.6,0-5.4,0c-0.5,0-0.8-0.1-0.8-0.7c0-2.2,0-2.2,2.2-2.2c3.1,0,6.2,0,9.3,0
				c0.6,0,0.9,0.1,0.9,0.8c0,2.1,0,2.1-2.1,2.1C65.4,137.4,64,137.4,62.6,137.4z"/>
			<path class="st26" d="M62.6,137.4c-1.8,0-3.6,0-5.4,0c-0.5,0-0.8-0.1-0.8-0.7c0-2.2,0-2.2,2.2-2.2c3.1,0,6.2,0,9.3,0
				c0.6,0,0.9,0.1,0.9,0.8c0,2.1,0,2.1-2.1,2.1C65.4,137.4,64,137.4,62.6,137.4z"/>
		</g>
		<g>
			<path class="st12" d="M77.4,137.4c-1.8,0-3.6,0-5.4,0c-0.5,0-0.7-0.1-0.7-0.7c0-2.2-0.1-2.2,2.1-2.2c3.1,0,6.3,0,9.4,0
				c0.6,0,0.8,0.1,0.8,0.8c0,2.1,0,2.1-2,2.1C80.2,137.4,78.8,137.4,77.4,137.4z"/>
			<path class="st27" d="M77.4,137.4c-1.8,0-3.6,0-5.4,0c-0.5,0-0.7-0.1-0.7-0.7c0-2.2-0.1-2.2,2.1-2.2c3.1,0,6.3,0,9.4,0
				c0.6,0,0.8,0.1,0.8,0.8c0,2.1,0,2.1-2,2.1C80.2,137.4,78.8,137.4,77.4,137.4z"/>
		</g>
		<g>
			<path class="st12" d="M65.8,141.1c-1.8,0-3.6,0-5.4,0c-0.5,0-0.7-0.2-0.7-0.7c0-2.2-0.1-2.2,2.1-2.2c3.1,0,6.3,0,9.4,0
				c0.6,0,0.8,0.2,0.8,0.8c0,2.1,0,2.1-2.1,2.1C68.6,141.1,67.2,141.1,65.8,141.1z"/>
			<path class="st28" d="M65.8,141.1c-1.8,0-3.6,0-5.4,0c-0.5,0-0.7-0.2-0.7-0.7c0-2.2-0.1-2.2,2.1-2.2c3.1,0,6.3,0,9.4,0
				c0.6,0,0.8,0.2,0.8,0.8c0,2.1,0,2.1-2.1,2.1C68.6,141.1,67.2,141.1,65.8,141.1z"/>
		</g>
		<g>
			<path class="st12" d="M80.7,141.1c-1.8,0-3.6,0-5.5,0c-0.5,0-0.7-0.1-0.7-0.7c0-2.2-0.1-2.2,2.1-2.2c3.1,0,6.3,0,9.4,0
				c0.6,0,0.8,0.1,0.8,0.8c0,2.1,0,2.1-2.1,2.1C83.4,141.1,82.1,141.1,80.7,141.1z"/>
			<path class="st29" d="M80.7,141.1c-1.8,0-3.6,0-5.5,0c-0.5,0-0.7-0.1-0.7-0.7c0-2.2-0.1-2.2,2.1-2.2c3.1,0,6.3,0,9.4,0
				c0.6,0,0.8,0.1,0.8,0.8c0,2.1,0,2.1-2.1,2.1C83.4,141.1,82.1,141.1,80.7,141.1z"/>
		</g>
		<g>
			<path class="st12" d="M85.7,162.7c-1.8,0-3.6,0-5.5,0c-0.5,0-0.7-0.1-0.7-0.7c0-2.2-0.1-2.2,2.1-2.2c3.1,0,6.3,0,9.4,0
				c0.6,0,0.8,0.1,0.8,0.8c0,2.1,0,2.1-2.1,2.1C88.4,162.7,87.1,162.7,85.7,162.7z"/>
			<path class="st29" d="M85.7,162.7c-1.8,0-3.6,0-5.5,0c-0.5,0-0.7-0.1-0.7-0.7c0-2.2-0.1-2.2,2.1-2.2c3.1,0,6.3,0,9.4,0
				c0.6,0,0.8,0.1,0.8,0.8c0,2.1,0,2.1-2.1,2.1C88.4,162.7,87.1,162.7,85.7,162.7z"/>
		</g>
		<g>
			<path class="st12" d="M88.9,166.4c-1.8,0-3.6,0-5.4,0c-0.6,0-0.7-0.1-0.7-0.7c0-2.2,0-2.2,2.1-2.2c3.1,0,6.3,0,9.4,0
				c0.7,0,0.9,0.2,0.8,0.8c0,2.1,0,2.1-2.1,2.1C91.7,166.4,90.3,166.4,88.9,166.4z"/>
			<path class="st30" d="M88.9,166.4c-1.8,0-3.6,0-5.4,0c-0.6,0-0.7-0.1-0.7-0.7c0-2.2,0-2.2,2.1-2.2c3.1,0,6.3,0,9.4,0
				c0.7,0,0.9,0.2,0.8,0.8c0,2.1,0,2.1-2.1,2.1C91.7,166.4,90.3,166.4,88.9,166.4z"/>
		</g>
		<g>
			<path class="st12" d="M74.1,133.8c-1.8,0-3.5,0-5.3,0c-0.6,0-0.8-0.1-0.8-0.8c0-2.1,0-2.1,2.1-2.1c3.1,0,6.2,0,9.3,0
				c0.7,0,0.9,0.1,0.9,0.9c0,2,0,2-2,2C76.9,133.8,75.5,133.8,74.1,133.8z"/>
			<path class="st31" d="M74.1,133.8c-1.8,0-3.5,0-5.3,0c-0.6,0-0.8-0.1-0.8-0.8c0-2.1,0-2.1,2.1-2.1c3.1,0,6.2,0,9.3,0
				c0.7,0,0.9,0.1,0.9,0.9c0,2,0,2-2,2C76.9,133.8,75.5,133.8,74.1,133.8z"/>
		</g>
		<g>
			<path class="st12" d="M59.4,130.9c1.8,0,3.6,0,5.5,0c0.5,0,0.7,0.1,0.7,0.7c0,2.2,0.1,2.2-2.1,2.2c-3.1,0-6.3,0-9.4,0
				c-0.6,0-0.8-0.1-0.8-0.8c0-2.1,0-2.1,2.1-2.1C56.7,130.9,58.1,130.9,59.4,130.9z"/>
			<path class="st29" d="M59.4,130.9c1.8,0,3.6,0,5.5,0c0.5,0,0.7,0.1,0.7,0.7c0,2.2,0.1,2.2-2.1,2.2c-3.1,0-6.3,0-9.4,0
				c-0.6,0-0.8-0.1-0.8-0.8c0-2.1,0-2.1,2.1-2.1C56.7,130.9,58.1,130.9,59.4,130.9z"/>
		</g>
		<g>
			<path class="st12" d="M85.7,130.1c-1.8,0-3.6,0-5.5,0c-0.5,0-0.7-0.1-0.7-0.6c-0.1-2.3-0.1-2.3,2.2-2.3c3.1,0,6.3,0,9.4,0
				c0.6,0,0.8,0.1,0.8,0.7c0,2.2,0,2.2-2.2,2.2C88.4,130.1,87,130.1,85.7,130.1z"/>
			<path class="st32" d="M85.7,130.1c-1.8,0-3.6,0-5.5,0c-0.5,0-0.7-0.1-0.7-0.6c-0.1-2.3-0.1-2.3,2.2-2.3c3.1,0,6.3,0,9.4,0
				c0.6,0,0.8,0.1,0.8,0.7c0,2.2,0,2.2-2.2,2.2C88.4,130.1,87,130.1,85.7,130.1z"/>
		</g>
		<g>
			<path class="st12" d="M70.9,127.2c1.8,0,3.6,0,5.5,0c0.5,0,0.7,0.1,0.7,0.7c0,2.2,0.1,2.2-2.1,2.2c-3.1,0-6.3,0-9.4,0
				c-0.6,0-0.8-0.1-0.8-0.8c0-2.1,0-2.1,2.1-2.1C68.2,127.2,69.6,127.2,70.9,127.2z"/>
			<path class="st29" d="M70.9,127.2c1.8,0,3.6,0,5.5,0c0.5,0,0.7,0.1,0.7,0.7c0,2.2,0.1,2.2-2.1,2.2c-3.1,0-6.3,0-9.4,0
				c-0.6,0-0.8-0.1-0.8-0.8c0-2.1,0-2.1,2.1-2.1C68.2,127.2,69.6,127.2,70.9,127.2z"/>
		</g>
		<g>
			<path class="st12" d="M82.3,126.5c-1.9,0-3.7,0-5.6,0c-0.5,0-0.7-0.1-0.7-0.7c0-2,0-2,2-2c3.3,0,6.5,0,9.8,0
				c0.6,0,0.8,0.2,0.8,0.8c0,1.9,0,1.9-1.9,1.9C85.3,126.5,83.8,126.5,82.3,126.5z"/>
			<path class="st33" d="M82.3,126.5c-1.9,0-3.7,0-5.6,0c-0.5,0-0.7-0.1-0.7-0.7c0-2,0-2,2-2c3.3,0,6.5,0,9.8,0
				c0.6,0,0.8,0.2,0.8,0.8c0,1.9,0,1.9-1.9,1.9C85.3,126.5,83.8,126.5,82.3,126.5z"/>
		</g>
		<g>
			<path class="st12" d="M67.6,126.5c-1.9,0-3.7,0-5.6,0c-0.5,0-0.7-0.1-0.7-0.7c0-2-0.1-2,1.9-2c3.3,0,6.5,0,9.8,0
				c0.6,0,0.8,0.1,0.8,0.8c0,1.9,0,1.9-1.9,1.9C70.4,126.5,69,126.5,67.6,126.5z"/>
			<path class="st34" d="M67.6,126.5c-1.9,0-3.7,0-5.6,0c-0.5,0-0.7-0.1-0.7-0.7c0-2-0.1-2,1.9-2c3.3,0,6.5,0,9.8,0
				c0.6,0,0.8,0.1,0.8,0.8c0,1.9,0,1.9-1.9,1.9C70.4,126.5,69,126.5,67.6,126.5z"/>
		</g>
		<g>
			<path class="st12" d="M75.8,149.1c1.9,0,3.7,0,5.6,0c0.5,0,0.7,0.1,0.7,0.7c0,2,0.1,2-1.9,2c-3.2,0-6.4,0-9.7,0
				c-0.7,0-0.9-0.1-0.9-0.9c0-1.8,0-1.8,1.8-1.8C72.9,149.1,74.3,149.1,75.8,149.1z"/>
			<path class="st35" d="M75.8,149.1c1.9,0,3.7,0,5.6,0c0.5,0,0.7,0.1,0.7,0.7c0,2,0.1,2-1.9,2c-3.2,0-6.4,0-9.7,0
				c-0.7,0-0.9-0.1-0.9-0.9c0-1.8,0-1.8,1.8-1.8C72.9,149.1,74.3,149.1,75.8,149.1z"/>
		</g>
		<g>
			<path class="st12" d="M90.6,149.1c1.8,0,3.6,0,5.5,0c0.5,0,0.8,0.1,0.8,0.7c0,2,0,2-2,2c-3.2,0-6.4,0-9.7,0
				c-0.6,0-0.9-0.1-0.9-0.8c0-1.9,0-1.9,1.9-1.9C87.7,149.1,89.2,149.1,90.6,149.1z"/>
			<path class="st36" d="M90.6,149.1c1.8,0,3.6,0,5.5,0c0.5,0,0.8,0.1,0.8,0.7c0,2,0,2-2,2c-3.2,0-6.4,0-9.7,0
				c-0.6,0-0.9-0.1-0.9-0.8c0-1.9,0-1.9,1.9-1.9C87.7,149.1,89.2,149.1,90.6,149.1z"/>
		</g>
		<g>
			<path class="st12" d="M52.8,123.8c1.9,0,3.7,0,5.6,0c0.5,0,0.7,0.1,0.7,0.7c0,2,0.1,2-1.9,2c-3.3,0-6.5,0-9.8,0
				c-0.6,0-0.8-0.1-0.8-0.8c0-1.9,0-1.9,1.9-1.9C49.9,123.8,51.3,123.8,52.8,123.8z"/>
			<path class="st34" d="M52.8,123.8c1.9,0,3.7,0,5.6,0c0.5,0,0.7,0.1,0.7,0.7c0,2,0.1,2-1.9,2c-3.3,0-6.5,0-9.8,0
				c-0.6,0-0.8-0.1-0.8-0.8c0-1.9,0-1.9,1.9-1.9C49.9,123.8,51.3,123.8,52.8,123.8z"/>
		</g>
		<g>
			<path class="st12" d="M79,122.8c-1.8,0-3.6,0-5.5,0c-0.6,0-0.7-0.2-0.7-0.8c0-2,0-2,1.9-2c3.3,0,6.5,0,9.8,0
				c0.7,0,0.8,0.2,0.8,0.9c0,1.9,0,1.9-1.8,1.9C82,122.8,80.5,122.8,79,122.8z"/>
			<path class="st37" d="M79,122.8c-1.8,0-3.6,0-5.5,0c-0.6,0-0.7-0.2-0.7-0.8c0-2,0-2,1.9-2c3.3,0,6.5,0,9.8,0
				c0.7,0,0.8,0.2,0.8,0.9c0,1.9,0,1.9-1.8,1.9C82,122.8,80.5,122.8,79,122.8z"/>
		</g>
		<g>
			<path class="st12" d="M64.2,122.8c-1.8,0-3.6,0-5.5,0c-0.5,0-0.7-0.1-0.7-0.7c0-2,0-2,1.9-2c3.3,0,6.5,0,9.8,0
				c0.6,0,0.8,0.1,0.8,0.8c0,1.9,0,1.9-1.9,1.9C67.2,122.8,65.7,122.8,64.2,122.8z"/>
			<path class="st33" d="M64.2,122.8c-1.8,0-3.6,0-5.5,0c-0.5,0-0.7-0.1-0.7-0.7c0-2,0-2,1.9-2c3.3,0,6.5,0,9.8,0
				c0.6,0,0.8,0.1,0.8,0.8c0,1.9,0,1.9-1.9,1.9C67.2,122.8,65.7,122.8,64.2,122.8z"/>
		</g>
		<g>
			<path class="st12" d="M49.4,122.8c-1.8,0-3.6,0-5.5,0c-0.5,0-0.7-0.1-0.7-0.7c0-2,0-2,2-2c3.3,0,6.5,0,9.8,0
				c0.6,0,0.8,0.2,0.8,0.8c0,1.9,0,1.9-1.9,1.9C52.4,122.8,50.9,122.8,49.4,122.8z"/>
			<path class="st33" d="M49.4,122.8c-1.8,0-3.6,0-5.5,0c-0.5,0-0.7-0.1-0.7-0.7c0-2,0-2,2-2c3.3,0,6.5,0,9.8,0
				c0.6,0,0.8,0.2,0.8,0.8c0,1.9,0,1.9-1.9,1.9C52.4,122.8,50.9,122.8,49.4,122.8z"/>
		</g>
		<g>
			<path class="st12" d="M69.1,144.5c-1.8,0-3.6,0-5.4,0c-0.5,0-0.7-0.2-0.7-0.7c0-2,0-2,2-2c3.2,0,6.4,0,9.6,0
				c0.6,0,0.8,0.2,0.8,0.8c0,1.9,0,1.9-1.9,1.9C72,144.5,70.6,144.5,69.1,144.5z"/>
			<path class="st38" d="M69.1,144.5c-1.8,0-3.6,0-5.4,0c-0.5,0-0.7-0.2-0.7-0.7c0-2,0-2,2-2c3.2,0,6.4,0,9.6,0
				c0.6,0,0.8,0.2,0.8,0.8c0,1.9,0,1.9-1.9,1.9C72,144.5,70.6,144.5,69.1,144.5z"/>
		</g>
		<g>
			<path class="st12" d="M84,144.5c-1.8,0-3.6,0-5.5,0c-0.5,0-0.7-0.1-0.7-0.7c0-2-0.1-2,1.9-2c3.2,0,6.4,0,9.6,0
				c0.6,0,0.8,0.1,0.8,0.8c0,1.9,0,1.9-1.9,1.9C86.8,144.5,85.4,144.5,84,144.5z"/>
			<path class="st39" d="M84,144.5c-1.8,0-3.6,0-5.5,0c-0.5,0-0.7-0.1-0.7-0.7c0-2-0.1-2,1.9-2c3.2,0,6.4,0,9.6,0
				c0.6,0,0.8,0.1,0.8,0.8c0,1.9,0,1.9-1.9,1.9C86.8,144.5,85.4,144.5,84,144.5z"/>
		</g>
		<g>
			<path class="st12" d="M72.4,148.2c-1.8,0-3.6,0-5.4,0c-0.5,0-0.7-0.1-0.7-0.7c0-2,0-2,2-2c3.2,0,6.4,0,9.6,0
				c0.6,0,0.8,0.2,0.8,0.8c0,1.9,0,1.9-1.9,1.9C75.3,148.2,73.8,148.2,72.4,148.2z"/>
			<path class="st40" d="M72.4,148.2c-1.8,0-3.6,0-5.4,0c-0.5,0-0.7-0.1-0.7-0.7c0-2,0-2,2-2c3.2,0,6.4,0,9.6,0
				c0.6,0,0.8,0.2,0.8,0.8c0,1.9,0,1.9-1.9,1.9C75.3,148.2,73.8,148.2,72.4,148.2z"/>
		</g>
		<g>
			<path class="st12" d="M87.3,145.5c1.8,0,3.6,0,5.4,0c0.5,0,0.7,0.1,0.7,0.7c0,2,0,2-2,2c-3.2,0-6.4,0-9.6,0
				c-0.6,0-0.8-0.2-0.8-0.8c0-1.9,0-1.9,1.9-1.9C84.4,145.5,85.9,145.5,87.3,145.5z"/>
			<path class="st40" d="M87.3,145.5c1.8,0,3.6,0,5.4,0c0.5,0,0.7,0.1,0.7,0.7c0,2,0,2-2,2c-3.2,0-6.4,0-9.6,0
				c-0.6,0-0.8-0.2-0.8-0.8c0-1.9,0-1.9,1.9-1.9C84.4,145.5,85.9,145.5,87.3,145.5z"/>
		</g>
	</g>
</g>
<g id="jUXD8v.tif_1_">
	<g>
		<g>
			<path class="st13" d="M341.1,109.1c0,1.2-0.1,2.5,0,3.7c0.1,0.9-0.3,1.1-1.1,1.1c-2.8,0-5.6,0-8.3,0c-16.1,0-32.1,0-48.2,0
				c0-1.4,0-2.8,0-4.1c0-0.6,0.1-0.7,0.7-0.7c9,0,18,0,27.1,0C321.2,109.1,331.1,109.1,341.1,109.1z"/>
			<g>
				<path class="st18" d="M340.6,109.1c0.2,0,0.3,0,0.5,0c0,0.2,0,0.3,0,0.5"/>
				<path class="st41" d="M341.1,110.6c0,0.7,0,1.5,0,2.2c0.1,0.9-0.3,1.1-1.1,1.1c-2.8,0-5.6,0-8.3,0c-15.7,0-31.4,0-47.2,0"/>
				<path class="st18" d="M284,113.9c-0.2,0-0.3,0-0.5,0c0-0.2,0-0.3,0-0.5"/>
				<path class="st21" d="M283.5,112.4c0-0.9,0-1.7,0-2.6c0-0.6,0.1-0.7,0.7-0.7c9,0,18,0,27.1,0c9.6,0,19.2,0,28.9,0"/>
			</g>
		</g>
		<g>
			<path class="st13" d="M290.2,116.2c1.8,0,3.6,0,5.4,0c0.6,0,0.8,0.2,0.8,0.8c0,2.1,0,2.1-2,2.1c-3.2,0-6.4,0-9.6,0
				c-0.7,0-0.9-0.2-0.9-0.9c0-2,0-2,2-2C287.3,116.2,288.8,116.2,290.2,116.2z"/>
			<path class="st42" d="M290.2,116.2c1.8,0,3.6,0,5.4,0c0.6,0,0.8,0.2,0.8,0.8c0,2.1,0,2.1-2,2.1c-3.2,0-6.4,0-9.6,0
				c-0.7,0-0.9-0.2-0.9-0.9c0-2,0-2,2-2C287.3,116.2,288.8,116.2,290.2,116.2z"/>
		</g>
		<g>
			<path class="st13" d="M304.9,119.1c-1.8,0-3.6,0-5.4,0c-0.6,0-0.8-0.1-0.8-0.8c0-2.1,0-2.1,2.1-2.1c3.2,0,6.3,0,9.5,0
				c0.8,0,1,0.2,0.9,1c0,1.9,0,1.9-1.9,1.9C307.8,119.1,306.3,119.1,304.9,119.1z"/>
			<path class="st43" d="M304.9,119.1c-1.8,0-3.6,0-5.4,0c-0.6,0-0.8-0.1-0.8-0.8c0-2.1,0-2.1,2.1-2.1c3.2,0,6.3,0,9.5,0
				c0.8,0,1,0.2,0.9,1c0,1.9,0,1.9-1.9,1.9C307.8,119.1,306.3,119.1,304.9,119.1z"/>
		</g>
		<g>
			<path class="st13" d="M319.7,119.1c-1.8,0-3.6,0-5.5,0c-0.6,0-0.8-0.1-0.8-0.7c0-2.2-0.1-2.2,2.1-2.2c3.1,0,6.3,0,9.4,0
				c0.7,0,1,0.1,1,0.9c0,2,0,2-1.9,2C322.6,119.1,321.1,119.1,319.7,119.1z"/>
			<path class="st44" d="M319.7,119.1c-1.8,0-3.6,0-5.5,0c-0.6,0-0.8-0.1-0.8-0.7c0-2.2-0.1-2.2,2.1-2.2c3.1,0,6.3,0,9.4,0
				c0.7,0,1,0.1,1,0.9c0,2,0,2-1.9,2C322.6,119.1,321.1,119.1,319.7,119.1z"/>
		</g>
		<g>
			<path class="st13" d="M334.4,119.1c-1.8,0-3.6,0-5.4,0c-0.6,0-0.8-0.1-0.8-0.7c0-2.2-0.1-2.2,2.1-2.2c3.1,0,6.3,0,9.4,0
				c0.7,0,1,0.1,1,0.9c0,2,0,2-1.9,2C337.3,119.1,335.9,119.1,334.4,119.1z"/>
			<path class="st45" d="M334.4,119.1c-1.8,0-3.6,0-5.4,0c-0.6,0-0.8-0.1-0.8-0.7c0-2.2-0.1-2.2,2.1-2.2c3.1,0,6.3,0,9.4,0
				c0.7,0,1,0.1,1,0.9c0,2,0,2-1.9,2C337.3,119.1,335.9,119.1,334.4,119.1z"/>
		</g>
		<g>
			<path class="st13" d="M326.1,158.8c-1.8,0-3.6,0-5.4,0c-0.6,0-0.8-0.1-0.8-0.7c0-2.2-0.1-2.2,2.1-2.2c3.1,0,6.3,0,9.4,0
				c0.7,0,1,0.1,1,0.9c0,2,0,2-1.9,2C329.1,158.8,327.6,158.8,326.1,158.8z"/>
			<path class="st45" d="M326.1,158.8c-1.8,0-3.6,0-5.4,0c-0.6,0-0.8-0.1-0.8-0.7c0-2.2-0.1-2.2,2.1-2.2c3.1,0,6.3,0,9.4,0
				c0.7,0,1,0.1,1,0.9c0,2,0,2-1.9,2C329.1,158.8,327.6,158.8,326.1,158.8z"/>
		</g>
		<g>
			<path class="st13" d="M323.1,152.3c1.8,0,3.5,0,5.3,0c0.6,0,0.9,0.1,0.9,0.8c0,2.1,0,2.1-2,2.1c-3.2,0-6.3,0-9.5,0
				c-0.7,0-1-0.1-1-0.9c0-2,0-2,1.9-2C320.1,152.3,321.6,152.3,323.1,152.3z"/>
			<path class="st46" d="M323.1,152.3c1.8,0,3.5,0,5.3,0c0.6,0,0.9,0.1,0.9,0.8c0,2.1,0,2.1-2,2.1c-3.2,0-6.3,0-9.5,0
				c-0.7,0-1-0.1-1-0.9c0-2,0-2,1.9-2C320.1,152.3,321.6,152.3,323.1,152.3z"/>
		</g>
		<g>
			<path class="st13" d="M299.9,129.8c-1.8,0-3.6,0-5.4,0c-0.6,0-0.8-0.1-0.8-0.8c0-2.1,0-2.1,2.1-2.1c3.2,0,6.3,0,9.5,0
				c0.7,0,0.9,0.1,0.9,0.9c0,2,0,2-2,2C302.7,129.8,301.3,129.8,299.9,129.8z"/>
			<path class="st43" d="M299.9,129.8c-1.8,0-3.6,0-5.4,0c-0.6,0-0.8-0.1-0.8-0.8c0-2.1,0-2.1,2.1-2.1c3.2,0,6.3,0,9.5,0
				c0.7,0,0.9,0.1,0.9,0.9c0,2,0,2-2,2C302.7,129.8,301.3,129.8,299.9,129.8z"/>
		</g>
		<g>
			<path class="st13" d="M332.8,133.5c-1.8,0-3.5,0-5.3,0c-0.6,0-0.8-0.1-0.8-0.8c0-2.1,0-2.1,2.1-2.1c3.1,0,6.2,0,9.3,0
				c0.7,0,1,0.1,0.9,0.9c0,2,0,2-2,2C335.6,133.5,334.2,133.5,332.8,133.5z"/>
			<path class="st47" d="M332.8,133.5c-1.8,0-3.5,0-5.3,0c-0.6,0-0.8-0.1-0.8-0.8c0-2.1,0-2.1,2.1-2.1c3.1,0,6.2,0,9.3,0
				c0.7,0,1,0.1,0.9,0.9c0,2,0,2-2,2C335.6,133.5,334.2,133.5,332.8,133.5z"/>
		</g>
		<g>
			<path class="st13" d="M306.5,137.1c-1.8,0-3.6,0-5.4,0c-0.5,0-0.7-0.2-0.7-0.7c-0.1-2.2-0.1-2.2,2.1-2.2c3.1,0,6.3,0,9.4,0
				c0.6,0,0.8,0.2,0.8,0.8c0,2.1,0,2.1-2,2.1C309.3,137.1,307.9,137.1,306.5,137.1z"/>
			<path class="st48" d="M306.5,137.1c-1.8,0-3.6,0-5.4,0c-0.5,0-0.7-0.2-0.7-0.7c-0.1-2.2-0.1-2.2,2.1-2.2c3.1,0,6.3,0,9.4,0
				c0.6,0,0.8,0.2,0.8,0.8c0,2.1,0,2.1-2,2.1C309.3,137.1,307.9,137.1,306.5,137.1z"/>
		</g>
		<g>
			<path class="st13" d="M321.2,137.1c-1.8,0-3.5,0-5.3,0c-0.5,0-0.8-0.1-0.8-0.7c0-2.2-0.1-2.2,2.1-2.2c3.1,0,6.2,0,9.3,0
				c0.7,0,0.9,0.2,0.9,0.9c0,2,0,2-1.9,2C324.1,137.1,322.7,137.1,321.2,137.1z"/>
			<path class="st26" d="M321.2,137.1c-1.8,0-3.5,0-5.3,0c-0.5,0-0.8-0.1-0.8-0.7c0-2.2-0.1-2.2,2.1-2.2c3.1,0,6.2,0,9.3,0
				c0.7,0,0.9,0.2,0.9,0.9c0,2,0,2-1.9,2C324.1,137.1,322.7,137.1,321.2,137.1z"/>
		</g>
		<g>
			<path class="st13" d="M309.7,140.8c-1.7,0-3.5,0-5.2,0c-0.6,0-0.9-0.1-0.9-0.8c0-2.1,0-2.1,2-2.1c3.1,0,6.2,0,9.3,0
				c0.7,0,1,0.1,1,0.9c0,2,0,2-1.9,2C312.6,140.8,311.2,140.8,309.7,140.8z"/>
			<path class="st49" d="M309.7,140.8c-1.7,0-3.5,0-5.2,0c-0.6,0-0.9-0.1-0.9-0.8c0-2.1,0-2.1,2-2.1c3.1,0,6.2,0,9.3,0
				c0.7,0,1,0.1,1,0.9c0,2,0,2-1.9,2C312.6,140.8,311.2,140.8,309.7,140.8z"/>
		</g>
		<g>
			<path class="st13" d="M324.6,140.8c-1.8,0-3.5,0-5.3,0c-0.6,0-0.9-0.1-0.9-0.8c0-2.1,0-2.1,2-2.1c3.1,0,6.3,0,9.4,0
				c0.6,0,0.9,0.1,0.9,0.8c0,2.1,0,2.1-2,2.1C327.3,140.8,326,140.8,324.6,140.8z"/>
			<path class="st50" d="M324.6,140.8c-1.8,0-3.5,0-5.3,0c-0.6,0-0.9-0.1-0.9-0.8c0-2.1,0-2.1,2-2.1c3.1,0,6.3,0,9.4,0
				c0.6,0,0.9,0.1,0.9,0.8c0,2.1,0,2.1-2,2.1C327.3,140.8,326,140.8,324.6,140.8z"/>
		</g>
		<g>
			<path class="st13" d="M329.6,162.5c-1.8,0-3.5,0-5.3,0c-0.6,0-0.9-0.1-0.9-0.8c0-2.1,0-2.1,2-2.1c3.1,0,6.3,0,9.4,0
				c0.6,0,0.9,0.1,0.9,0.8c0,2.1,0,2.1-2,2.1C332.3,162.5,330.9,162.5,329.6,162.5z"/>
			<path class="st50" d="M329.6,162.5c-1.8,0-3.5,0-5.3,0c-0.6,0-0.9-0.1-0.9-0.8c0-2.1,0-2.1,2-2.1c3.1,0,6.3,0,9.4,0
				c0.6,0,0.9,0.1,0.9,0.8c0,2.1,0,2.1-2,2.1C332.3,162.5,330.9,162.5,329.6,162.5z"/>
		</g>
		<g>
			<path class="st13" d="M332.8,166.1c-1.8,0-3.6,0-5.4,0c-0.6,0-0.8-0.2-0.8-0.8c0-2.1,0-2.1,2.1-2.1c3.1,0,6.3,0,9.4,0
				c0.7,0,0.9,0.2,0.9,0.9c0,2,0,2-2.1,2C335.6,166.1,334.2,166.1,332.8,166.1z"/>
			<path class="st51" d="M332.8,166.1c-1.8,0-3.6,0-5.4,0c-0.6,0-0.8-0.2-0.8-0.8c0-2.1,0-2.1,2.1-2.1c3.1,0,6.3,0,9.4,0
				c0.7,0,0.9,0.2,0.9,0.9c0,2,0,2-2.1,2C335.6,166.1,334.2,166.1,332.8,166.1z"/>
		</g>
		<g>
			<path class="st13" d="M318,133.5c-1.8,0-3.6,0-5.4,0c-0.5,0-0.7-0.1-0.7-0.7c-0.1-2.2-0.1-2.2,2.1-2.2c3.1,0,6.3,0,9.4,0
				c0.6,0,0.8,0.1,0.8,0.8c0,2.1,0,2.1-2.1,2.1C320.8,133.5,319.4,133.5,318,133.5z"/>
			<path class="st27" d="M318,133.5c-1.8,0-3.6,0-5.4,0c-0.5,0-0.7-0.1-0.7-0.7c-0.1-2.2-0.1-2.2,2.1-2.2c3.1,0,6.3,0,9.4,0
				c0.6,0,0.8,0.1,0.8,0.8c0,2.1,0,2.1-2.1,2.1C320.8,133.5,319.4,133.5,318,133.5z"/>
		</g>
		<g>
			<path class="st13" d="M303.3,130.6c1.8,0,3.6,0,5.4,0c0.6,0,0.8,0.1,0.8,0.7c0,2.2,0.1,2.2-2.1,2.2c-3.1,0-6.1,0-9.2,0
				c-0.7,0-1-0.1-1-0.9c0-2,0-2,1.9-2C300.5,130.6,301.9,130.6,303.3,130.6z"/>
			<path class="st52" d="M303.3,130.6c1.8,0,3.6,0,5.4,0c0.6,0,0.8,0.1,0.8,0.7c0,2.2,0.1,2.2-2.1,2.2c-3.1,0-6.1,0-9.2,0
				c-0.7,0-1-0.1-1-0.9c0-2,0-2,1.9-2C300.5,130.6,301.9,130.6,303.3,130.6z"/>
		</g>
		<g>
			<path class="st13" d="M329.5,129.8c-1.8,0-3.6,0-5.4,0c-0.5,0-0.7-0.1-0.7-0.7c-0.1-2.2-0.1-2.2,2.1-2.2c3.1,0,6.3,0,9.4,0
				c0.6,0,0.8,0.1,0.8,0.8c0,2.1,0,2.1-2.1,2.1C332.3,129.8,330.9,129.8,329.5,129.8z"/>
			<path class="st48" d="M329.5,129.8c-1.8,0-3.6,0-5.4,0c-0.5,0-0.7-0.1-0.7-0.7c-0.1-2.2-0.1-2.2,2.1-2.2c3.1,0,6.3,0,9.4,0
				c0.6,0,0.8,0.1,0.8,0.8c0,2.1,0,2.1-2.1,2.1C332.3,129.8,330.9,129.8,329.5,129.8z"/>
		</g>
		<g>
			<path class="st13" d="M314.8,127c1.8,0,3.6,0,5.4,0c0.6,0,0.8,0.1,0.8,0.7c0,2.2,0.1,2.2-2.1,2.2c-3.1,0-6.1,0-9.2,0
				c-0.7,0-1-0.1-1-0.9c0-2,0-2,1.9-2C312,127,313.4,127,314.8,127z"/>
			<path class="st52" d="M314.8,127c1.8,0,3.6,0,5.4,0c0.6,0,0.8,0.1,0.8,0.7c0,2.2,0.1,2.2-2.1,2.2c-3.1,0-6.1,0-9.2,0
				c-0.7,0-1-0.1-1-0.9c0-2,0-2,1.9-2C312,127,313.4,127,314.8,127z"/>
		</g>
		<g>
			<path class="st13" d="M326.3,126.2c-1.9,0-3.7,0-5.6,0c-0.6,0-0.8-0.2-0.8-0.8c0-1.9,0-1.9,1.9-1.9c3.3,0,6.5,0,9.8,0
				c0.7,0,0.9,0.2,0.9,0.9c0,1.8,0,1.8-1.9,1.8C329.2,126.2,327.7,126.2,326.3,126.2z"/>
			<path class="st53" d="M326.3,126.2c-1.9,0-3.7,0-5.6,0c-0.6,0-0.8-0.2-0.8-0.8c0-1.9,0-1.9,1.9-1.9c3.3,0,6.5,0,9.8,0
				c0.7,0,0.9,0.2,0.9,0.9c0,1.8,0,1.8-1.9,1.8C329.2,126.2,327.7,126.2,326.3,126.2z"/>
		</g>
		<g>
			<path class="st13" d="M311.4,126.2c-1.8,0-3.6,0-5.4,0c-0.6,0-0.9-0.1-0.9-0.8c0-1.9,0-1.9,1.9-1.9c3.2,0,6.5,0,9.7,0
				c0.7,0,1,0.1,1,0.9c-0.1,1.8,0,1.8-1.8,1.8C314.4,126.2,312.9,126.2,311.4,126.2z"/>
			<path class="st28" d="M311.4,126.2c-1.8,0-3.6,0-5.4,0c-0.6,0-0.9-0.1-0.9-0.8c0-1.9,0-1.9,1.9-1.9c3.2,0,6.5,0,9.7,0
				c0.7,0,1,0.1,1,0.9c-0.1,1.8,0,1.8-1.8,1.8C314.4,126.2,312.9,126.2,311.4,126.2z"/>
		</g>
		<g>
			<path class="st13" d="M319.7,148.8c1.8,0,3.6,0,5.4,0c0.6,0,0.9,0.1,0.9,0.8c0,1.9,0,1.9-1.8,1.9c-3.2,0-6.5,0-9.7,0
				c-0.7,0-1-0.1-1-0.9c0.1-1.8,0-1.8,1.8-1.8C316.7,148.8,318.2,148.8,319.7,148.8z"/>
			<path class="st27" d="M319.7,148.8c1.8,0,3.6,0,5.4,0c0.6,0,0.9,0.1,0.9,0.8c0,1.9,0,1.9-1.8,1.9c-3.2,0-6.5,0-9.7,0
				c-0.7,0-1-0.1-1-0.9c0.1-1.8,0-1.8,1.8-1.8C316.7,148.8,318.2,148.8,319.7,148.8z"/>
		</g>
		<g>
			<path class="st13" d="M334.5,148.8c1.8,0,3.6,0,5.5,0c0.5,0,0.7,0.2,0.7,0.7c0,2,0.1,2-1.9,2c-3.2,0-6.5,0-9.7,0
				c-0.7,0-0.9-0.2-0.9-0.9c0-1.8,0-1.8,1.8-1.8C331.5,148.8,333,148.8,334.5,148.8z"/>
			<path class="st37" d="M334.5,148.8c1.8,0,3.6,0,5.5,0c0.5,0,0.7,0.2,0.7,0.7c0,2,0.1,2-1.9,2c-3.2,0-6.5,0-9.7,0
				c-0.7,0-0.9-0.2-0.9-0.9c0-1.8,0-1.8,1.8-1.8C331.5,148.8,333,148.8,334.5,148.8z"/>
		</g>
		<g>
			<path class="st13" d="M296.7,123.5c1.8,0,3.6,0,5.4,0c0.6,0,0.9,0.1,0.9,0.8c0,1.9,0,1.9-1.8,1.9c-3.2,0-6.5,0-9.7,0
				c-0.7,0-1-0.1-1-0.9c0.1-1.8,0-1.8,1.8-1.8C293.7,123.5,295.2,123.5,296.7,123.5z"/>
			<path class="st28" d="M296.7,123.5c1.8,0,3.6,0,5.4,0c0.6,0,0.9,0.1,0.9,0.8c0,1.9,0,1.9-1.8,1.9c-3.2,0-6.5,0-9.7,0
				c-0.7,0-1-0.1-1-0.9c0.1-1.8,0-1.8,1.8-1.8C293.7,123.5,295.2,123.5,296.7,123.5z"/>
		</g>
		<g>
			<path class="st13" d="M322.9,122.5c-1.8,0-3.6,0-5.4,0c-0.6,0-0.8-0.1-0.8-0.8c0-1.9,0-1.9,1.9-1.9c3.2,0,6.5,0,9.7,0
				c0.8,0,1,0.2,0.9,1c0,1.7,0,1.7-1.8,1.7C325.9,122.5,324.4,122.5,322.9,122.5z"/>
			<path class="st54" d="M322.9,122.5c-1.8,0-3.6,0-5.4,0c-0.6,0-0.8-0.1-0.8-0.8c0-1.9,0-1.9,1.9-1.9c3.2,0,6.5,0,9.7,0
				c0.8,0,1,0.2,0.9,1c0,1.7,0,1.7-1.8,1.7C325.9,122.5,324.4,122.5,322.9,122.5z"/>
		</g>
		<g>
			<path class="st13" d="M308.1,122.5c-1.8,0-3.5,0-5.3,0c-0.6,0-0.9-0.1-0.9-0.8c0-1.9,0-1.9,1.8-1.9c3.2,0,6.5,0,9.7,0
				c0.7,0,1,0.1,1,0.9c-0.1,1.8,0,1.8-1.8,1.8C311.1,122.5,309.6,122.5,308.1,122.5z"/>
			<path class="st27" d="M308.1,122.5c-1.8,0-3.5,0-5.3,0c-0.6,0-0.9-0.1-0.9-0.8c0-1.9,0-1.9,1.8-1.9c3.2,0,6.5,0,9.7,0
				c0.7,0,1,0.1,1,0.9c-0.1,1.8,0,1.8-1.8,1.8C311.1,122.5,309.6,122.5,308.1,122.5z"/>
		</g>
		<g>
			<path class="st13" d="M293.3,122.5c-1.8,0-3.5,0-5.3,0c-0.6,0-0.9-0.1-0.9-0.8c0-1.9,0-1.9,1.8-1.9c3.2,0,6.5,0,9.7,0
				c0.8,0,1,0.2,1,1c-0.1,1.7,0,1.7-1.6,1.7C296.4,122.5,294.9,122.5,293.3,122.5z"/>
			<path class="st55" d="M293.3,122.5c-1.8,0-3.5,0-5.3,0c-0.6,0-0.9-0.1-0.9-0.8c0-1.9,0-1.9,1.8-1.9c3.2,0,6.5,0,9.7,0
				c0.8,0,1,0.2,1,1c-0.1,1.7,0,1.7-1.6,1.7C296.4,122.5,294.9,122.5,293.3,122.5z"/>
		</g>
		<g>
			<path class="st13" d="M313,144.2c-1.7,0-3.5,0-5.2,0c-0.6,0-0.9-0.1-0.9-0.8c0-1.9,0-1.9,1.8-1.9c3.2,0,6.3,0,9.5,0
				c0.7,0,1,0.1,1,0.9c-0.1,1.8,0,1.8-1.8,1.8C316,144.2,314.5,144.2,313,144.2z"/>
			<path class="st56" d="M313,144.2c-1.7,0-3.5,0-5.2,0c-0.6,0-0.9-0.1-0.9-0.8c0-1.9,0-1.9,1.8-1.9c3.2,0,6.3,0,9.5,0
				c0.7,0,1,0.1,1,0.9c-0.1,1.8,0,1.8-1.8,1.8C316,144.2,314.5,144.2,313,144.2z"/>
		</g>
		<g>
			<path class="st13" d="M327.9,144.2c-1.8,0-3.5,0-5.3,0c-0.6,0-0.9-0.1-0.9-0.8c0-1.9,0-1.9,1.8-1.9c3.2,0,6.3,0,9.5,0
				c0.7,0,1,0.1,1,0.9c-0.1,1.8,0,1.8-1.8,1.8C330.8,144.2,329.3,144.2,327.9,144.2z"/>
			<path class="st57" d="M327.9,144.2c-1.8,0-3.5,0-5.3,0c-0.6,0-0.9-0.1-0.9-0.8c0-1.9,0-1.9,1.8-1.9c3.2,0,6.3,0,9.5,0
				c0.7,0,1,0.1,1,0.9c-0.1,1.8,0,1.8-1.8,1.8C330.8,144.2,329.3,144.2,327.9,144.2z"/>
		</g>
		<g>
			<path class="st13" d="M316.2,147.9c-1.7,0-3.5,0-5.2,0c-0.6,0-0.9-0.1-0.9-0.8c0-1.9,0-1.9,1.8-1.9c3.2,0,6.3,0,9.5,0
				c0.7,0,1,0.1,1,0.9c-0.1,1.8,0,1.8-1.8,1.8C319.2,147.9,317.7,147.9,316.2,147.9z"/>
			<path class="st56" d="M316.2,147.9c-1.7,0-3.5,0-5.2,0c-0.6,0-0.9-0.1-0.9-0.8c0-1.9,0-1.9,1.8-1.9c3.2,0,6.3,0,9.5,0
				c0.7,0,1,0.1,1,0.9c-0.1,1.8,0,1.8-1.8,1.8C319.2,147.9,317.7,147.9,316.2,147.9z"/>
		</g>
		<g>
			<path class="st13" d="M331.2,145.2c1.7,0,3.5,0,5.2,0c0.6,0,0.9,0.1,0.9,0.8c0,1.9,0,1.9-1.8,1.9c-3.2,0-6.3,0-9.5,0
				c-0.7,0-1-0.1-1-0.9c0.1-1.8,0-1.8,1.8-1.8C328.2,145.2,329.7,145.2,331.2,145.2z"/>
			<path class="st56" d="M331.2,145.2c1.7,0,3.5,0,5.2,0c0.6,0,0.9,0.1,0.9,0.8c0,1.9,0,1.9-1.8,1.9c-3.2,0-6.3,0-9.5,0
				c-0.7,0-1-0.1-1-0.9c0.1-1.8,0-1.8,1.8-1.8C328.2,145.2,329.7,145.2,331.2,145.2z"/>
		</g>
	</g>
</g>
<g>
	<g>
		<g>
			<line class="st18" x1="243.5" y1="78" x2="218.6" y2="102.9"/>
			<g>
				<path d="M216.5,105c0.6-1.4,1.2-3.3,1.3-4.7l1.1,2.3l2.3,1.1C219.7,103.8,217.9,104.4,216.5,105z"/>
			</g>
		</g>
	</g>
	<g>
		<g>
			<line class="st18" x1="142.9" y1="78" x2="167.7" y2="102.9"/>
			<g>
				<path d="M169.9,105c-1.4-0.6-3.3-1.2-4.7-1.3l2.3-1.1l1.1-2.3C168.6,101.8,169.2,103.6,169.9,105z"/>
			</g>
		</g>
	</g>
</g>
<g>
	<g>
		<g>
			<line class="st18" x1="109.5" y1="126.3" x2="110" y2="126.3"/>
			<line class="st19" x1="111" y1="126.3" x2="143.7" y2="126.3"/>
			<line class="st18" x1="144.1" y1="126.3" x2="144.6" y2="126.3"/>
			<g>
				<path d="M147.7,126.3c-1.4,0.5-3.2,1.4-4.3,2.4l0.9-2.4l-0.9-2.4C144.5,124.9,146.2,125.8,147.7,126.3z"/>
			</g>
		</g>
	</g>
	<g>
		<g>
			<line class="st18" x1="276.8" y1="126.6" x2="276.3" y2="126.6"/>
			<line class="st19" x1="275.4" y1="126.6" x2="242.7" y2="126.6"/>
			<line class="st18" x1="242.2" y1="126.6" x2="241.7" y2="126.6"/>
			<g>
				<path d="M238.7,126.6c1.4-0.5,3.2-1.4,4.3-2.4l-0.9,2.4l0.9,2.4C241.9,128,240.1,127.1,238.7,126.6z"/>
			</g>
		</g>
	</g>
</g>
<g>
	<defs>
		<rect id="SVGID_1_" x="243.2" y="155.8" width="72" height="20.3"/>
	</defs>
	<clipPath id="SVGID_2_">
		<use xlink:href="#SVGID_1_"  style="overflow:visible;"/>
	</clipPath>
	<g class="st58">
		<text transform="matrix(1 0 0 1 242.6302 169.3185)" class="st59 st60">J</text>
	</g>
	<g class="st58">
		<text transform="matrix(1 0 0 1 248.8763 169.3185)" class="st61 st60">(</text>
	</g>
	<g class="st58">
		<text transform="matrix(1 0 0 1 252.6097 169.3185)"><tspan x="0" y="0" class="st59 st60">A</tspan><tspan x="7.2" y="0" class="st59 st60 st62">,</tspan><tspan x="11.5" y="0" class="st59 st60">B</tspan></text>
	</g>
	<g class="st58">
		<text transform="matrix(1 0 0 1 271.8387 169.3185)"><tspan x="0" y="0" class="st61 st60 st63">)</tspan><tspan x="6.4" y="0" class="st61 st60">=</tspan></text>
	</g>
	<g class="st58">
		<text transform="matrix(1 0 0 1 289.5237 162.8243)" class="st59 st60">A</text>
	</g>
	<g class="st58">
		<text transform="matrix(1 0 0 1 298.8563 162.8243)" class="st64 st60">∩</text>
	</g>
	<g class="st58">
		<text transform="matrix(1 0 0 1 307.3895 162.8243)" class="st59 st60">B</text>
	</g>
	<line class="st65" x1="289.5" y1="166.9" x2="315.2" y2="166.9"/>
	<g class="st58">
		<text transform="matrix(1 0 0 1 289.5237 175.9044)" class="st59 st60">A</text>
	</g>
	<g class="st58">
		<text transform="matrix(1 0 0 1 298.8563 175.9044)" class="st64 st60">∪</text>
	</g>
	<g class="st58">
		<text transform="matrix(1 0 0 1 307.3895 175.9044)" class="st59 st60">B</text>
	</g>
</g>
</svg>
