<?xml version="1.0" encoding="utf-8"?>
<!-- Generator: Adobe Illustrator 22.1.0, SVG Export Plug-In . SVG Version: 6.00 Build 0)  -->
<svg version="1.1" id="Layer_1" xmlns="http://www.w3.org/2000/svg" xmlns:xlink="http://www.w3.org/1999/xlink" x="0px" y="0px"
	 viewBox="0 0 380.3 555.9" style="enable-background:new 0 0 380.3 555.9;" xml:space="preserve">
<style type="text/css">
	.st0{fill:#E6E7E8;stroke:#000000;stroke-miterlimit:10;}
	.st1{font-family:'Helvetica-Light';}
	.st2{font-size:12px;}
	.st3{font-family:'Helvetica-Bold';}
	.st4{fill:none;}
	.st5{enable-background:new    ;}
	.st6{fill:none;stroke:#000000;stroke-miterlimit:10;}
	.st7{font-size:8px;}
	.st8{fill:none;stroke:#29ABE2;stroke-width:3;stroke-miterlimit:10;}
	.st9{fill:none;stroke:#D4145A;stroke-width:3;stroke-miterlimit:10;}
	.st10{fill:none;stroke:#F7931E;stroke-width:3;stroke-miterlimit:10;}
	.st11{fill:#FFFFFF;}
	.st12{fill:#0376B8;}
	.st13{fill:#68BBE8;}
	.st14{font-size:10px;}
	.st15{opacity:0.75;fill:#0376B8;stroke:#000000;stroke-width:0.5;stroke-miterlimit:10;}
	.st16{opacity:0.75;fill:#68BBE8;stroke:#000000;stroke-width:0.5;stroke-miterlimit:10;}
	.st17{fill:none;stroke:#000000;stroke-width:0.5;stroke-miterlimit:10;}
	.st18{fill:none;stroke:#000000;stroke-width:0.5;stroke-miterlimit:10;stroke-dasharray:0.975,0.975;}
	.st19{fill:none;stroke:#0376B8;stroke-width:0.5;stroke-miterlimit:10;}
	.st20{fill:none;stroke:#68BBE8;stroke-width:0.5;stroke-miterlimit:10;}
	.st21{clip-path:url(#SVGID_2_);}
	.st22{font-family:'CMMI10';}
	.st23{font-size:9.5996px;}
	.st24{font-family:'CMR10';}
	.st25{letter-spacing:1;}
	.st26{letter-spacing:2;}
	.st27{font-family:'CMSY10';}
	.st28{clip-path:url(#SVGID_2_);fill:none;stroke:#000000;stroke-width:1.4328;stroke-miterlimit:10;}
</style>
<g>
	<rect x="207.2" y="406.2" class="st0" width="172.6" height="137.2"/>
	<text transform="matrix(1 0 0 1 261.4805 477.844)" class="st1 st2">Placeholder</text>
</g>
<text transform="matrix(1 0 0 1 0.8127 10.3181)" class="st3 st2">A</text>
<text transform="matrix(1 0 0 1 2.1571 192.0006)" class="st3 st2">B</text>
<text transform="matrix(1 0 0 1 210.9806 199.2441)" class="st3 st2">C</text>
<g id="H7KY0M.tif">
	
		<image style="overflow:visible;" width="576" height="483" id="Layer_0_3_" xlink:href="82EBF962CB1DA4A1.png"  transform="matrix(0.3 0 0 0.3 207.0904 208.3701)">
	</image>
</g>
<g>
	<g id="gTJNQl.tif">
		
			<image style="overflow:visible;" width="672" height="697" id="Layer_0_1_" xlink:href="82EBF962CB1DA4A3.png"  transform="matrix(0.2571 0 0 0.2571 2.1571 195.8941)">
		</image>
	</g>
	<g>
		<rect x="39.6" y="252.1" class="st0" width="98" height="84"/>
		<rect x="49.5" y="258.4" class="st4" width="78" height="82.2"/>
		<text transform="matrix(1 0 0 1 61.8812 268.6657)" class="st5"><tspan x="0" y="0" class="st1 st2">Update to </tspan><tspan x="-10.7" y="14.4" class="st1 st2">Brawand2011 </tspan><tspan x="-11.7" y="28.8" class="st1 st2">species, show </tspan><tspan x="-6.3" y="43.2" class="st1 st2">diff between </tspan><tspan x="-6" y="57.6" class="st1 st2">background</tspan></text>
	</g>
</g>
<text transform="matrix(1 0 0 1 -3.051758e-05 396.6608)" class="st3 st2">D</text>
<g>
	<line class="st6" x1="25" y1="541" x2="167.6" y2="541"/>
	<text transform="matrix(1 0 0 1 64.51 553.0156)" class="st1 st7">Divergence time</text>
	<text transform="matrix(0 -1 1 0 18.9832 501.46)" class="st1 st7">k-mer size</text>
	<line class="st6" x1="25" y1="541" x2="25" y2="414"/>
	<line class="st8" x1="30.2" y1="451" x2="157.5" y2="533.6"/>
	<line class="st9" x1="41.5" y1="433.5" x2="168.9" y2="516.2"/>
	<line class="st10" x1="41.5" y1="416.6" x2="168.9" y2="499.3"/>
</g>
<g>
	<rect x="69.3" y="396.7" class="st0" width="104.2" height="82.8"/>
	<rect x="79.4" y="408.5" class="st4" width="83.9" height="59.1"/>
	<text transform="matrix(1 0 0 1 92.6825 418.848)" class="st5"><tspan x="0" y="0" class="st1 st2">K-mer size </tspan><tspan x="-1.7" y="14.4" class="st1 st2">maximizing </tspan><tspan x="-7.7" y="28.8" class="st1 st2">AUC for each </tspan><tspan x="3.3" y="43.2" class="st1 st2">encoding</tspan></text>
</g>
<g>
	<rect x="264.6" y="299.3" class="st0" width="98" height="54"/>
	<rect x="274.5" y="305.5" class="st4" width="78" height="41.5"/>
	<text transform="matrix(1 0 0 1 286.8812 315.8417)" class="st5"><tspan x="0" y="0" class="st1 st2">Update to </tspan><tspan x="-10.7" y="14.4" class="st1 st2">Brawand2011 </tspan><tspan x="5.7" y="28.8" class="st1 st2">species</tspan></text>
</g>
<text transform="matrix(0.9922 -3.383538e-03 3.410000e-03 1 207.0336 389.6686)" class="st3 st2">D</text>
<rect x="202.8" y="379.9" class="st11" width="16.5" height="10.4"/>
<text transform="matrix(1 0 0 1 207.0904 396.6608)" class="st3 st2">E</text>
<g>
	<g>
		<g id="XP1mju.tif">
			<g>
				<path class="st11" d="M134.6,26.5c0.4,0.2,0.2,0.6,0.2,0.9c0,17.9,0,35.7,0,53.6c0,0.9,0.4,2.2-0.1,2.7
					c-0.5,0.5-1.8,0.1-2.7,0.1c-18.1,0-36.2,0-54.2,0c-0.7,0-0.8-0.1-0.8-0.8c0-17.2,0-34.4,0-51.6c0.5-0.4,1.2-0.3,1.8-0.3
					c11.1,0,22.1,0,33.2,0c6.7,0,13.4,0,20.1,0c0.3,0,0.6,0,0.9,0c1.2,0,1.3-0.1,1.3-1.3c0-0.7,0-1.3,0-2
					C134.3,27.2,134.3,26.8,134.6,26.5z"/>
				<path class="st12" d="M134.6,26.5c0,1.3,0,2.6,0,3.9c0,0.7-0.2,0.9-0.9,0.9c-7.5,0-15.1,0-22.6,0c-11.4,0-22.7,0-34.1,0
					c0-1.4,0-2.8,0-4.1c0-0.6,0.1-0.7,0.7-0.7c9,0,18,0,27.1,0C114.7,26.5,124.7,26.5,134.6,26.5z"/>
				<path class="st12" d="M83.8,33.6c1.8,0,3.6,0,5.5,0c0.5,0,0.7,0.1,0.7,0.7c0,2.2,0.1,2.2-2.1,2.2c-3.2,0-6.4,0-9.6,0
					c-0.6,0-0.8-0.1-0.8-0.8c0-2.1,0-2.1,2-2.1C80.9,33.6,82.3,33.6,83.8,33.6z"/>
				<path class="st12" d="M98.5,36.5c-1.9,0-3.7,0-5.6,0c-0.5,0-0.7-0.1-0.7-0.7c0-2.2-0.1-2.2,2.1-2.2c3.2,0,6.4,0,9.6,0
					c0.6,0,0.8,0.1,0.8,0.8c0,2.1,0,2.1-2.1,2.1C101.2,36.5,99.8,36.5,98.5,36.5z"/>
				<path class="st12" d="M113.2,36.5c-1.9,0-3.7,0-5.6,0c-0.5,0-0.7-0.1-0.7-0.7c0-2.2-0.1-2.2,2.1-2.2c3.2,0,6.4,0,9.6,0
					c0.6,0,0.8,0.1,0.8,0.8c0,2.1,0,2.1-2.1,2.1C116,36.5,114.6,36.5,113.2,36.5z"/>
				<path class="st12" d="M127.9,36.5c-1.8,0-3.6,0-5.5,0c-0.5,0-0.7-0.2-0.7-0.7c0-2.2-0.1-2.2,2.1-2.2c3.2,0,6.4,0,9.6,0
					c0.6,0,0.8,0.2,0.8,0.8c0,2.1,0,2.1-2.1,2.1C130.8,36.5,129.3,36.5,127.9,36.5z"/>
				<path class="st12" d="M119.7,76.2c-1.8,0-3.6,0-5.5,0c-0.5,0-0.7-0.2-0.7-0.7c0-2.2-0.1-2.2,2.1-2.2c3.2,0,6.4,0,9.6,0
					c0.6,0,0.8,0.2,0.8,0.8c0,2.1,0,2.1-2.1,2.1C122.5,76.2,121.1,76.2,119.7,76.2z"/>
				<path class="st12" d="M116.6,69.7c1.8,0,3.6,0,5.5,0c0.5,0,0.7,0.1,0.7,0.7c0,2.2,0.1,2.2-2.1,2.2c-3.2,0-6.4,0-9.6,0
					c-0.6,0-0.8-0.1-0.8-0.8c0-2.1,0-2.1,2-2.1C113.7,69.7,115.2,69.7,116.6,69.7z"/>
				<path class="st12" d="M93.5,47.2c-1.9,0-3.7,0-5.6,0c-0.5,0-0.7-0.1-0.7-0.7c0-2.2-0.1-2.2,2.1-2.2c3.2,0,6.4,0,9.6,0
					c0.6,0,0.8,0.1,0.8,0.8c0,2.1,0,2.1-2,2.1C96.3,47.2,94.9,47.2,93.5,47.2z"/>
				<path class="st12" d="M126.4,50.9c-1.8,0-3.6,0-5.5,0c-0.5,0-0.7-0.1-0.7-0.6c-0.1-2.3-0.1-2.3,2.2-2.3c3.1,0,6.2,0,9.3,0
					c0.6,0,0.9,0.1,0.9,0.8c0,2.1,0,2.1-2.1,2.1C129.1,50.9,127.7,50.9,126.4,50.9z"/>
				<path class="st12" d="M100.1,54.5c-1.8,0-3.6,0-5.4,0c-0.5,0-0.8-0.1-0.8-0.7c0-2.2,0-2.2,2.2-2.2c3.1,0,6.2,0,9.3,0
					c0.6,0,0.9,0.1,0.9,0.8c0,2.1,0,2.1-2.1,2.1C102.8,54.5,101.4,54.5,100.1,54.5z"/>
				<path class="st12" d="M114.8,54.5c-1.8,0-3.6,0-5.4,0c-0.5,0-0.7-0.1-0.7-0.7c0-2.2-0.1-2.2,2.1-2.2c3.1,0,6.3,0,9.4,0
					c0.6,0,0.8,0.1,0.8,0.8c0,2.1,0,2.1-2,2.1C117.6,54.5,116.2,54.5,114.8,54.5z"/>
				<path class="st12" d="M103.2,58.2c-1.8,0-3.6,0-5.4,0c-0.5,0-0.7-0.2-0.7-0.7c0-2.2-0.1-2.2,2.1-2.2c3.1,0,6.3,0,9.4,0
					c0.6,0,0.8,0.2,0.8,0.8c0,2.1,0,2.1-2.1,2.1C106,58.2,104.6,58.2,103.2,58.2z"/>
				<path class="st12" d="M118.1,58.2c-1.8,0-3.6,0-5.5,0c-0.5,0-0.7-0.1-0.7-0.7c0-2.2-0.1-2.2,2.1-2.2c3.1,0,6.3,0,9.4,0
					c0.6,0,0.8,0.1,0.8,0.8c0,2.1,0,2.1-2.1,2.1C120.8,58.2,119.5,58.2,118.1,58.2z"/>
				<path class="st12" d="M123.1,79.9c-1.8,0-3.6,0-5.5,0c-0.5,0-0.7-0.1-0.7-0.7c0-2.2-0.1-2.2,2.1-2.2c3.1,0,6.3,0,9.4,0
					c0.6,0,0.8,0.1,0.8,0.8c0,2.1,0,2.1-2.1,2.1C125.8,79.9,124.5,79.9,123.1,79.9z"/>
				<path class="st12" d="M126.3,83.5c-1.8,0-3.6,0-5.4,0c-0.6,0-0.7-0.1-0.7-0.7c0-2.2,0-2.2,2.1-2.2c3.1,0,6.3,0,9.4,0
					c0.7,0,0.9,0.2,0.8,0.8c0,2.1,0,2.1-2.1,2.1C129.1,83.5,127.7,83.5,126.3,83.5z"/>
				<path class="st12" d="M111.5,50.9c-1.8,0-3.5,0-5.3,0c-0.6,0-0.8-0.1-0.8-0.8c0-2.1,0-2.1,2.1-2.1c3.1,0,6.2,0,9.3,0
					c0.7,0,0.9,0.1,0.9,0.9c0,2,0,2-2,2C114.3,50.9,112.9,50.9,111.5,50.9z"/>
				<path class="st12" d="M96.8,48c1.8,0,3.6,0,5.5,0c0.5,0,0.7,0.1,0.7,0.7c0,2.2,0.1,2.2-2.1,2.2c-3.1,0-6.3,0-9.4,0
					c-0.6,0-0.8-0.1-0.8-0.8c0-2.1,0-2.1,2.1-2.1C94.1,48,95.5,48,96.8,48z"/>
				<path class="st12" d="M123.1,47.2c-1.8,0-3.6,0-5.5,0c-0.5,0-0.7-0.1-0.7-0.6c-0.1-2.3-0.1-2.3,2.2-2.3c3.1,0,6.3,0,9.4,0
					c0.6,0,0.8,0.1,0.8,0.7c0,2.2,0,2.2-2.2,2.2C125.8,47.2,124.4,47.2,123.1,47.2z"/>
				<path class="st12" d="M108.3,44.3c1.8,0,3.6,0,5.5,0c0.5,0,0.7,0.1,0.7,0.7c0,2.2,0.1,2.2-2.1,2.2c-3.1,0-6.3,0-9.4,0
					c-0.6,0-0.8-0.1-0.8-0.8c0-2.1,0-2.1,2.1-2.1C105.6,44.3,107,44.3,108.3,44.3z"/>
				<path class="st12" d="M119.7,43.6c-1.9,0-3.7,0-5.6,0c-0.5,0-0.7-0.1-0.7-0.7c0-2,0-2,2-2c3.3,0,6.5,0,9.8,0
					c0.6,0,0.8,0.2,0.8,0.8c0,1.9,0,1.9-1.9,1.9C122.7,43.6,121.2,43.6,119.7,43.6z"/>
				<path class="st12" d="M105,43.6c-1.9,0-3.7,0-5.6,0c-0.5,0-0.7-0.1-0.7-0.7c0-2-0.1-2,1.9-2c3.3,0,6.5,0,9.8,0
					c0.6,0,0.8,0.1,0.8,0.8c0,1.9,0,1.9-1.9,1.9C107.8,43.6,106.4,43.6,105,43.6z"/>
				<path class="st12" d="M113.2,66.2c1.9,0,3.7,0,5.6,0c0.5,0,0.7,0.1,0.7,0.7c0,2,0.1,2-1.9,2c-3.2,0-6.4,0-9.7,0
					c-0.7,0-0.9-0.1-0.9-0.9c0-1.8,0-1.8,1.8-1.8C110.3,66.2,111.8,66.2,113.2,66.2z"/>
				<path class="st12" d="M128,66.2c1.8,0,3.6,0,5.5,0c0.5,0,0.8,0.1,0.8,0.7c0,2,0,2-2,2c-3.2,0-6.4,0-9.7,0
					c-0.6,0-0.9-0.1-0.9-0.8c0-1.9,0-1.9,1.9-1.9C125.1,66.2,126.6,66.2,128,66.2z"/>
				<path class="st12" d="M90.2,40.9c1.9,0,3.7,0,5.6,0c0.5,0,0.7,0.1,0.7,0.7c0,2,0.1,2-1.9,2c-3.3,0-6.5,0-9.8,0
					c-0.6,0-0.8-0.1-0.8-0.8c0-1.9,0-1.9,1.9-1.9C87.3,40.9,88.7,40.9,90.2,40.9z"/>
				<path class="st12" d="M116.4,39.9c-1.8,0-3.6,0-5.5,0c-0.6,0-0.7-0.2-0.7-0.8c0-2,0-2,1.9-2c3.3,0,6.5,0,9.8,0
					c0.7,0,0.8,0.2,0.8,0.9c0,1.9,0,1.9-1.8,1.9C119.4,39.9,117.9,39.9,116.4,39.9z"/>
				<path class="st12" d="M101.6,39.9c-1.8,0-3.6,0-5.5,0c-0.5,0-0.7-0.1-0.7-0.7c0-2,0-2,1.9-2c3.3,0,6.5,0,9.8,0
					c0.6,0,0.8,0.1,0.8,0.8c0,1.9,0,1.9-1.9,1.9C104.6,39.9,103.1,39.9,101.6,39.9z"/>
				<path class="st12" d="M86.8,39.9c-1.8,0-3.6,0-5.5,0c-0.5,0-0.7-0.1-0.7-0.7c0-2,0-2,2-2c3.3,0,6.5,0,9.8,0
					c0.6,0,0.8,0.2,0.8,0.8c0,1.9,0,1.9-1.9,1.9C89.8,39.9,88.3,39.9,86.8,39.9z"/>
				<path class="st12" d="M106.5,61.6c-1.8,0-3.6,0-5.4,0c-0.5,0-0.7-0.2-0.7-0.7c0-2,0-2,2-2c3.2,0,6.4,0,9.6,0
					c0.6,0,0.8,0.2,0.8,0.8c0,1.9,0,1.9-1.9,1.9C109.4,61.6,108,61.6,106.5,61.6z"/>
				<path class="st12" d="M121.4,61.6c-1.8,0-3.6,0-5.5,0c-0.5,0-0.7-0.1-0.7-0.7c0-2-0.1-2,1.9-2c3.2,0,6.4,0,9.6,0
					c0.6,0,0.8,0.1,0.8,0.8c0,1.9,0,1.9-1.9,1.9C124.2,61.6,122.8,61.6,121.4,61.6z"/>
				<path class="st12" d="M109.8,65.3c-1.8,0-3.6,0-5.4,0c-0.5,0-0.7-0.1-0.7-0.7c0-2,0-2,2-2c3.2,0,6.4,0,9.6,0
					c0.6,0,0.8,0.2,0.8,0.8c0,1.9,0,1.9-1.9,1.9C112.7,65.3,111.2,65.3,109.8,65.3z"/>
				<path class="st12" d="M124.8,62.6c1.8,0,3.6,0,5.4,0c0.5,0,0.7,0.1,0.7,0.7c0,2,0,2-2,2c-3.2,0-6.4,0-9.6,0
					c-0.6,0-0.8-0.2-0.8-0.8c0-1.9,0-1.9,1.9-1.9C121.8,62.6,123.3,62.6,124.8,62.6z"/>
			</g>
		</g>
		<g id="jUXD8v.tif">
			<g>
				<path class="st11" d="M274.4,26.5c0.4,0.2,0.2,0.6,0.2,0.9c0,17.9,0,35.7,0,53.6c0,0.9,0.4,2.2-0.1,2.7
					c-0.5,0.5-1.8,0.1-2.7,0.1c-18.1,0-36.2,0-54.2,0c-0.7,0-0.8-0.1-0.8-0.8c0-17.2,0-34.4,0-51.6c0.5-0.4,1.2-0.3,1.8-0.3
					c11.1,0,22.1,0,33.2,0c6.7,0,13.4,0,20.1,0c0.3,0,0.6,0,0.9,0c1.2,0,1.3-0.1,1.3-1.3c0-0.7,0-1.3,0-2
					C274.1,27.2,274.1,26.8,274.4,26.5z"/>
				<path class="st13" d="M274.4,26.5c0,1.2-0.1,2.5,0,3.7c0.1,0.9-0.3,1.1-1.1,1.1c-2.8,0-5.6,0-8.3,0c-16.1,0-32.1,0-48.2,0
					c0-1.4,0-2.8,0-4.1c0-0.6,0.1-0.7,0.7-0.7c9,0,18,0,27.1,0C254.5,26.5,264.5,26.5,274.4,26.5z"/>
				<path class="st13" d="M223.5,33.6c1.8,0,3.6,0,5.4,0c0.6,0,0.8,0.2,0.8,0.8c0,2.1,0,2.1-2,2.1c-3.2,0-6.4,0-9.6,0
					c-0.7,0-0.9-0.2-0.9-0.9c0-2,0-2,2-2C220.6,33.6,222.1,33.6,223.5,33.6z"/>
				<path class="st13" d="M238.2,36.5c-1.8,0-3.6,0-5.4,0c-0.6,0-0.8-0.1-0.8-0.8c0-2.1,0-2.1,2.1-2.1c3.2,0,6.3,0,9.5,0
					c0.8,0,1,0.2,0.9,1c0,1.9,0,1.9-1.9,1.9C241.1,36.5,239.7,36.5,238.2,36.5z"/>
				<path class="st13" d="M253,36.5c-1.8,0-3.6,0-5.5,0c-0.6,0-0.8-0.1-0.8-0.7c0-2.2-0.1-2.2,2.1-2.2c3.1,0,6.3,0,9.4,0
					c0.7,0,1,0.1,1,0.9c0,2,0,2-1.9,2C255.9,36.5,254.4,36.5,253,36.5z"/>
				<path class="st13" d="M267.7,36.5c-1.8,0-3.6,0-5.4,0c-0.6,0-0.8-0.1-0.8-0.7c0-2.2-0.1-2.2,2.1-2.2c3.1,0,6.3,0,9.4,0
					c0.7,0,1,0.1,1,0.9c0,2,0,2-1.9,2C270.6,36.5,269.2,36.5,267.7,36.5z"/>
				<path class="st13" d="M259.4,76.2c-1.8,0-3.6,0-5.4,0c-0.6,0-0.8-0.1-0.8-0.7c0-2.2-0.1-2.2,2.1-2.2c3.1,0,6.3,0,9.4,0
					c0.7,0,1,0.1,1,0.9c0,2,0,2-1.9,2C262.4,76.2,260.9,76.2,259.4,76.2z"/>
				<path class="st13" d="M256.4,69.7c1.8,0,3.5,0,5.3,0c0.6,0,0.9,0.1,0.9,0.8c0,2.1,0,2.1-2,2.1c-3.2,0-6.3,0-9.5,0
					c-0.7,0-1-0.1-1-0.9c0-2,0-2,1.9-2C253.4,69.7,254.9,69.7,256.4,69.7z"/>
				<path class="st13" d="M233.2,47.2c-1.8,0-3.6,0-5.4,0c-0.6,0-0.8-0.1-0.8-0.8c0-2.1,0-2.1,2.1-2.1c3.2,0,6.3,0,9.5,0
					c0.7,0,0.9,0.1,0.9,0.9c0,2,0,2-2,2C236.1,47.2,234.6,47.2,233.2,47.2z"/>
				<path class="st13" d="M266.1,50.9c-1.8,0-3.5,0-5.3,0c-0.6,0-0.8-0.1-0.8-0.8c0-2.1,0-2.1,2.1-2.1c3.1,0,6.2,0,9.3,0
					c0.7,0,1,0.1,0.9,0.9c0,2,0,2-2,2C268.9,50.9,267.5,50.9,266.1,50.9z"/>
				<path class="st13" d="M239.8,54.5c-1.8,0-3.6,0-5.4,0c-0.5,0-0.7-0.2-0.7-0.7c-0.1-2.2-0.1-2.2,2.1-2.2c3.1,0,6.3,0,9.4,0
					c0.6,0,0.8,0.2,0.8,0.8c0,2.1,0,2.1-2,2.1C242.6,54.5,241.2,54.5,239.8,54.5z"/>
				<path class="st13" d="M254.6,54.5c-1.8,0-3.5,0-5.3,0c-0.5,0-0.8-0.1-0.8-0.7c0-2.2-0.1-2.2,2.1-2.2c3.1,0,6.2,0,9.3,0
					c0.7,0,0.9,0.2,0.9,0.9c0,2,0,2-1.9,2C257.4,54.5,256,54.5,254.6,54.5z"/>
				<path class="st13" d="M243,58.2c-1.7,0-3.5,0-5.2,0c-0.6,0-0.9-0.1-0.9-0.8c0-2.1,0-2.1,2-2.1c3.1,0,6.2,0,9.3,0
					c0.7,0,1,0.1,1,0.9c0,2,0,2-1.9,2C245.9,58.2,244.5,58.2,243,58.2z"/>
				<path class="st13" d="M257.9,58.2c-1.8,0-3.5,0-5.3,0c-0.6,0-0.9-0.1-0.9-0.8c0-2.1,0-2.1,2-2.1c3.1,0,6.3,0,9.4,0
					c0.6,0,0.9,0.1,0.9,0.8c0,2.1,0,2.1-2,2.1C260.6,58.2,259.3,58.2,257.9,58.2z"/>
				<path class="st13" d="M262.9,79.9c-1.8,0-3.5,0-5.3,0c-0.6,0-0.9-0.1-0.9-0.8c0-2.1,0-2.1,2-2.1c3.1,0,6.3,0,9.4,0
					c0.6,0,0.9,0.1,0.9,0.8c0,2.1,0,2.1-2,2.1C265.6,79.9,264.3,79.9,262.9,79.9z"/>
				<path class="st13" d="M266.1,83.5c-1.8,0-3.6,0-5.4,0c-0.6,0-0.8-0.2-0.8-0.8c0-2.1,0-2.1,2.1-2.1c3.1,0,6.3,0,9.4,0
					c0.7,0,0.9,0.2,0.9,0.9c0,2,0,2-2.1,2C268.9,83.5,267.5,83.5,266.1,83.5z"/>
				<path class="st13" d="M251.3,50.9c-1.8,0-3.6,0-5.4,0c-0.5,0-0.7-0.1-0.7-0.7c-0.1-2.2-0.1-2.2,2.1-2.2c3.1,0,6.3,0,9.4,0
					c0.6,0,0.8,0.1,0.8,0.8c0,2.1,0,2.1-2.1,2.1C254.1,50.9,252.7,50.9,251.3,50.9z"/>
				<path class="st13" d="M236.6,48c1.8,0,3.6,0,5.4,0c0.6,0,0.8,0.1,0.8,0.7c0,2.2,0.1,2.2-2.1,2.2c-3.1,0-6.1,0-9.2,0
					c-0.7,0-1-0.1-1-0.9c0-2,0-2,1.9-2C233.8,48,235.2,48,236.6,48z"/>
				<path class="st13" d="M262.8,47.2c-1.8,0-3.6,0-5.4,0c-0.5,0-0.7-0.1-0.7-0.7c-0.1-2.2-0.1-2.2,2.1-2.2c3.1,0,6.3,0,9.4,0
					c0.6,0,0.8,0.1,0.8,0.8c0,2.1,0,2.1-2.1,2.1C265.6,47.2,264.2,47.2,262.8,47.2z"/>
				<path class="st13" d="M248.1,44.3c1.8,0,3.6,0,5.4,0c0.6,0,0.8,0.1,0.8,0.7c0,2.2,0.1,2.2-2.1,2.2c-3.1,0-6.1,0-9.2,0
					c-0.7,0-1-0.1-1-0.9c0-2,0-2,1.9-2C245.3,44.3,246.7,44.3,248.1,44.3z"/>
				<path class="st13" d="M259.6,43.6c-1.9,0-3.7,0-5.6,0c-0.6,0-0.8-0.2-0.8-0.8c0-1.9,0-1.9,1.9-1.9c3.3,0,6.5,0,9.8,0
					c0.7,0,0.9,0.2,0.9,0.9c0,1.8,0,1.8-1.9,1.8C262.5,43.6,261,43.6,259.6,43.6z"/>
				<path class="st13" d="M244.7,43.6c-1.8,0-3.6,0-5.4,0c-0.6,0-0.9-0.1-0.9-0.8c0-1.9,0-1.9,1.9-1.9c3.2,0,6.5,0,9.7,0
					c0.7,0,1,0.1,1,0.9c-0.1,1.8,0,1.8-1.8,1.8C247.7,43.6,246.2,43.6,244.7,43.6z"/>
				<path class="st13" d="M253,66.2c1.8,0,3.6,0,5.4,0c0.6,0,0.9,0.1,0.9,0.8c0,1.9,0,1.9-1.8,1.9c-3.2,0-6.5,0-9.7,0
					c-0.7,0-1-0.1-1-0.9c0.1-1.8,0-1.8,1.8-1.8C250,66.2,251.5,66.2,253,66.2z"/>
				<path class="st13" d="M267.9,66.2c1.8,0,3.6,0,5.5,0c0.5,0,0.7,0.2,0.7,0.7c0,2,0.1,2-1.9,2c-3.2,0-6.5,0-9.7,0
					c-0.7,0-0.9-0.2-0.9-0.9c0-1.8,0-1.8,1.8-1.8C264.9,66.2,266.4,66.2,267.9,66.2z"/>
				<path class="st13" d="M230,40.9c1.8,0,3.6,0,5.4,0c0.6,0,0.9,0.1,0.9,0.8c0,1.9,0,1.9-1.8,1.9c-3.2,0-6.5,0-9.7,0
					c-0.7,0-1-0.1-1-0.9c0.1-1.8,0-1.8,1.8-1.8C227,40.9,228.5,40.9,230,40.9z"/>
				<path class="st13" d="M256.2,39.9c-1.8,0-3.6,0-5.4,0c-0.6,0-0.8-0.1-0.8-0.8c0-1.9,0-1.9,1.9-1.9c3.2,0,6.5,0,9.7,0
					c0.8,0,1,0.2,0.9,1c0,1.7,0,1.7-1.8,1.7C259.2,39.9,257.7,39.9,256.2,39.9z"/>
				<path class="st13" d="M241.4,39.9c-1.8,0-3.5,0-5.3,0c-0.6,0-0.9-0.1-0.9-0.8c0-1.9,0-1.9,1.8-1.9c3.2,0,6.5,0,9.7,0
					c0.7,0,1,0.1,1,0.9c-0.1,1.8,0,1.8-1.8,1.8C244.5,39.9,242.9,39.9,241.4,39.9z"/>
				<path class="st13" d="M226.6,39.9c-1.8,0-3.5,0-5.3,0c-0.6,0-0.9-0.1-0.9-0.8c0-1.9,0-1.9,1.8-1.9c3.2,0,6.5,0,9.7,0
					c0.8,0,1,0.2,1,1c-0.1,1.7,0,1.7-1.6,1.7C229.7,39.9,228.2,39.9,226.6,39.9z"/>
				<path class="st13" d="M246.3,61.6c-1.7,0-3.5,0-5.2,0c-0.6,0-0.9-0.1-0.9-0.8c0-1.9,0-1.9,1.8-1.9c3.2,0,6.3,0,9.5,0
					c0.7,0,1,0.1,1,0.9c-0.1,1.8,0,1.8-1.8,1.8C249.3,61.6,247.8,61.6,246.3,61.6z"/>
				<path class="st13" d="M261.2,61.6c-1.8,0-3.5,0-5.3,0c-0.6,0-0.9-0.1-0.9-0.8c0-1.9,0-1.9,1.8-1.9c3.2,0,6.3,0,9.5,0
					c0.7,0,1,0.1,1,0.9c-0.1,1.8,0,1.8-1.8,1.8C264.1,61.6,262.6,61.6,261.2,61.6z"/>
				<path class="st13" d="M249.5,65.3c-1.7,0-3.5,0-5.2,0c-0.6,0-0.9-0.1-0.9-0.8c0-1.9,0-1.9,1.8-1.9c3.2,0,6.3,0,9.5,0
					c0.7,0,1,0.1,1,0.9c-0.1,1.8,0,1.8-1.8,1.8C252.6,65.3,251.1,65.3,249.5,65.3z"/>
				<path class="st13" d="M264.5,62.6c1.7,0,3.5,0,5.2,0c0.6,0,0.9,0.1,0.9,0.8c0,1.9,0,1.9-1.8,1.9c-3.2,0-6.3,0-9.5,0
					c-0.7,0-1-0.1-1-0.9c0.1-1.8,0-1.8,1.8-1.8C261.5,62.6,263,62.6,264.5,62.6z"/>
			</g>
		</g>
	</g>
	<text transform="matrix(1 0 0 1 100.0671 155.3162)" class="st1 st14">Compute Jaccard index of overlapping k-mers</text>
	<text transform="matrix(1 0 0 1 85.8704 10.4435)"><tspan x="0" y="0" class="st1 st14">Human</tspan><tspan x="-40.3" y="12" class="st1 st14">protein-coding sequence</tspan></text>
	<text transform="matrix(1 0 0 1 211.3128 11.0787)"><tspan x="0" y="0" class="st1 st14">Other species’  </tspan><tspan x="-22.5" y="12" class="st1 st14">protein-coding sequence</tspan></text>
	<text transform="matrix(1 0 0 1 46.7791 48.0805)" class="st1 st7">K-merize</text>
	<text transform="matrix(1 0 0 1 273.529 48.0804)" class="st1 st7">K-merize</text>
	<g>
		<circle class="st15" cx="183.1" cy="126.5" r="16.5"/>
		<circle class="st16" cx="202.3" cy="126.5" r="16.5"/>
	</g>
	<g>
		<g>
			<g>
				<line class="st17" x1="107.5" y1="78.2" x2="107.2" y2="78.5"/>
				<line class="st18" x1="106.5" y1="79.2" x2="83.4" y2="102.3"/>
				<line class="st17" x1="83" y1="102.7" x2="82.7" y2="103"/>
				<g>
					<path d="M80.5,105.1c0.6-1.4,1.2-3.3,1.3-4.7l1.1,2.3l2.3,1.1C83.8,103.9,81.9,104.5,80.5,105.1z"/>
				</g>
			</g>
		</g>
		<g>
			<g>
				<line class="st17" x1="277.9" y1="76" x2="278.2" y2="76.3"/>
				<line class="st18" x1="278.9" y1="77" x2="302" y2="100.1"/>
				<line class="st17" x1="302.4" y1="100.5" x2="302.7" y2="100.8"/>
				<g>
					<path d="M304.9,102.9c-1.4-0.6-3.3-1.2-4.7-1.3l2.3-1.1l1.1-2.3C303.6,99.7,304.2,101.6,304.9,102.9z"/>
				</g>
			</g>
		</g>
	</g>
	<rect x="0.3" y="78.2" class="st4" width="97.5" height="19.3"/>
	<text transform="matrix(1 0 0 1 2.8246 85.0441)"><tspan x="0" y="0" class="st1 st7">Maybe encode to Dayhoff </tspan><tspan x="8.5" y="9.6" class="st1 st7">or hydrophobic-polar</tspan></text>
	<rect x="282.5" y="73.6" class="st4" width="97.5" height="19.3"/>
	<text transform="matrix(1 0 0 1 284.978 80.4899)"><tspan x="0" y="0" class="st1 st7">Maybe encode to Dayhoff </tspan><tspan x="8.5" y="9.6" class="st1 st7">or hydrophobic-polar</tspan></text>
	<g id="XP1mju.tif_1_">
		<g>
			<path class="st19" d="M96.8,109.5c0,1.3,0,2.6,0,3.9c0,0.7-0.2,0.9-0.9,0.9c-7.5,0-15.1,0-22.6,0c-11.4,0-22.7,0-34.1,0
				c0-1.4,0-2.8,0-4.1c0-0.6,0.1-0.7,0.7-0.7c9,0,18,0,27.1,0C76.9,109.5,86.8,109.5,96.8,109.5z"/>
			<path class="st19" d="M45.9,116.6c1.8,0,3.6,0,5.5,0c0.5,0,0.7,0.1,0.7,0.7c0,2.2,0.1,2.2-2.1,2.2c-3.2,0-6.4,0-9.6,0
				c-0.6,0-0.8-0.1-0.8-0.8c0-2.1,0-2.1,2-2.1C43,116.6,44.4,116.6,45.9,116.6z"/>
			<path class="st19" d="M60.6,119.5c-1.9,0-3.7,0-5.6,0c-0.5,0-0.7-0.1-0.7-0.7c0-2.2-0.1-2.2,2.1-2.2c3.2,0,6.4,0,9.6,0
				c0.6,0,0.8,0.1,0.8,0.8c0,2.1,0,2.1-2.1,2.1C63.3,119.5,61.9,119.5,60.6,119.5z"/>
			<path class="st19" d="M75.4,119.5c-1.9,0-3.7,0-5.6,0c-0.5,0-0.7-0.1-0.7-0.7c0-2.2-0.1-2.2,2.1-2.2c3.2,0,6.4,0,9.6,0
				c0.6,0,0.8,0.1,0.8,0.8c0,2.1,0,2.1-2.1,2.1C78.1,119.5,76.7,119.5,75.4,119.5z"/>
			<path class="st19" d="M90,119.5c-1.8,0-3.6,0-5.5,0c-0.5,0-0.7-0.2-0.7-0.7c0-2.2-0.1-2.2,2.1-2.2c3.2,0,6.4,0,9.6,0
				c0.6,0,0.8,0.2,0.8,0.8c0,2.1,0,2.1-2.1,2.1C92.9,119.5,91.5,119.5,90,119.5z"/>
			<path class="st19" d="M81.8,159.2c-1.8,0-3.6,0-5.5,0c-0.5,0-0.7-0.2-0.7-0.7c0-2.2-0.1-2.2,2.1-2.2c3.2,0,6.4,0,9.6,0
				c0.6,0,0.8,0.2,0.8,0.8c0,2.1,0,2.1-2.1,2.1C84.6,159.2,83.2,159.2,81.8,159.2z"/>
			<path class="st19" d="M78.7,152.7c1.8,0,3.6,0,5.5,0c0.5,0,0.7,0.1,0.7,0.7c0,2.2,0.1,2.2-2.1,2.2c-3.2,0-6.4,0-9.6,0
				c-0.6,0-0.8-0.1-0.8-0.8c0-2.1,0-2.1,2-2.1C75.8,152.7,77.3,152.7,78.7,152.7z"/>
			<path class="st19" d="M55.6,130.2c-1.9,0-3.7,0-5.6,0c-0.5,0-0.7-0.1-0.7-0.7c0-2.2-0.1-2.2,2.1-2.2c3.2,0,6.4,0,9.6,0
				c0.6,0,0.8,0.1,0.8,0.8c0,2.1,0,2.1-2,2.1C58.4,130.2,57,130.2,55.6,130.2z"/>
			<path class="st19" d="M88.5,133.9c-1.8,0-3.6,0-5.5,0c-0.5,0-0.7-0.1-0.7-0.6c-0.1-2.3-0.1-2.3,2.2-2.3c3.1,0,6.2,0,9.3,0
				c0.6,0,0.9,0.1,0.9,0.8c0,2.1,0,2.1-2.1,2.1C91.2,133.9,89.8,133.9,88.5,133.9z"/>
			<path class="st19" d="M62.2,137.5c-1.8,0-3.6,0-5.4,0c-0.5,0-0.8-0.1-0.8-0.7c0-2.2,0-2.2,2.2-2.2c3.1,0,6.2,0,9.3,0
				c0.6,0,0.9,0.1,0.9,0.8c0,2.1,0,2.1-2.1,2.1C64.9,137.5,63.5,137.5,62.2,137.5z"/>
			<path class="st19" d="M76.9,137.5c-1.8,0-3.6,0-5.4,0c-0.5,0-0.7-0.1-0.7-0.7c0-2.2-0.1-2.2,2.1-2.2c3.1,0,6.3,0,9.4,0
				c0.6,0,0.8,0.1,0.8,0.8c0,2.1,0,2.1-2,2.1C79.7,137.5,78.3,137.5,76.9,137.5z"/>
			<path class="st19" d="M65.4,141.2c-1.8,0-3.6,0-5.4,0c-0.5,0-0.7-0.2-0.7-0.7c0-2.2-0.1-2.2,2.1-2.2c3.1,0,6.3,0,9.4,0
				c0.6,0,0.8,0.2,0.8,0.8c0,2.1,0,2.1-2.1,2.1C68.2,141.2,66.8,141.2,65.4,141.2z"/>
			<path class="st19" d="M80.2,141.2c-1.8,0-3.6,0-5.5,0c-0.5,0-0.7-0.1-0.7-0.7c0-2.2-0.1-2.2,2.1-2.2c3.1,0,6.3,0,9.4,0
				c0.6,0,0.8,0.1,0.8,0.8c0,2.1,0,2.1-2.1,2.1C82.9,141.2,81.6,141.2,80.2,141.2z"/>
			<path class="st19" d="M85.2,162.9c-1.8,0-3.6,0-5.5,0c-0.5,0-0.7-0.1-0.7-0.7c0-2.2-0.1-2.2,2.1-2.2c3.1,0,6.3,0,9.4,0
				c0.6,0,0.8,0.1,0.8,0.8c0,2.1,0,2.1-2.1,2.1C87.9,162.9,86.6,162.9,85.2,162.9z"/>
			<path class="st19" d="M88.4,166.5c-1.8,0-3.6,0-5.4,0c-0.6,0-0.7-0.1-0.7-0.7c0-2.2,0-2.2,2.1-2.2c3.1,0,6.3,0,9.4,0
				c0.7,0,0.9,0.2,0.8,0.8c0,2.1,0,2.1-2.1,2.1C91.2,166.5,89.8,166.5,88.4,166.5z"/>
			<path class="st19" d="M73.6,133.9c-1.8,0-3.5,0-5.3,0c-0.6,0-0.8-0.1-0.8-0.8c0-2.1,0-2.1,2.1-2.1c3.1,0,6.2,0,9.3,0
				c0.7,0,0.9,0.1,0.9,0.9c0,2,0,2-2,2C76.4,133.9,75,133.9,73.6,133.9z"/>
			<path class="st19" d="M58.9,131c1.8,0,3.6,0,5.5,0c0.5,0,0.7,0.1,0.7,0.7c0,2.2,0.1,2.2-2.1,2.2c-3.1,0-6.3,0-9.4,0
				c-0.6,0-0.8-0.1-0.8-0.8c0-2.1,0-2.1,2.1-2.1C56.2,131,57.6,131,58.9,131z"/>
			<path class="st19" d="M85.2,130.2c-1.8,0-3.6,0-5.5,0c-0.5,0-0.7-0.1-0.7-0.6c-0.1-2.3-0.1-2.3,2.2-2.3c3.1,0,6.3,0,9.4,0
				c0.6,0,0.8,0.1,0.8,0.7c0,2.2,0,2.2-2.2,2.2C87.9,130.2,86.5,130.2,85.2,130.2z"/>
			<path class="st19" d="M70.4,127.4c1.8,0,3.6,0,5.5,0c0.5,0,0.7,0.1,0.7,0.7c0,2.2,0.1,2.2-2.1,2.2c-3.1,0-6.3,0-9.4,0
				c-0.6,0-0.8-0.1-0.8-0.8c0-2.1,0-2.1,2.1-2.1C67.8,127.4,69.1,127.4,70.4,127.4z"/>
			<path class="st19" d="M81.9,126.6c-1.9,0-3.7,0-5.6,0c-0.5,0-0.7-0.1-0.7-0.7c0-2,0-2,2-2c3.3,0,6.5,0,9.8,0
				c0.6,0,0.8,0.2,0.8,0.8c0,1.9,0,1.9-1.9,1.9C84.8,126.6,83.3,126.6,81.9,126.6z"/>
			<path class="st19" d="M67.1,126.6c-1.9,0-3.7,0-5.6,0c-0.5,0-0.7-0.1-0.7-0.7c0-2-0.1-2,1.9-2c3.3,0,6.5,0,9.8,0
				c0.6,0,0.8,0.1,0.8,0.8c0,1.9,0,1.9-1.9,1.9C70,126.6,68.5,126.6,67.1,126.6z"/>
			<path class="st19" d="M75.3,149.2c1.9,0,3.7,0,5.6,0c0.5,0,0.7,0.1,0.7,0.7c0,2,0.1,2-1.9,2c-3.2,0-6.4,0-9.7,0
				c-0.7,0-0.9-0.1-0.9-0.9c0-1.8,0-1.8,1.8-1.8C72.4,149.2,73.9,149.2,75.3,149.2z"/>
			<path class="st19" d="M90.2,149.2c1.8,0,3.6,0,5.5,0c0.5,0,0.8,0.1,0.8,0.7c0,2,0,2-2,2c-3.2,0-6.4,0-9.7,0
				c-0.6,0-0.9-0.1-0.9-0.8c0-1.9,0-1.9,1.9-1.9C87.2,149.2,88.7,149.2,90.2,149.2z"/>
			<path class="st19" d="M52.3,123.9c1.9,0,3.7,0,5.6,0c0.5,0,0.7,0.1,0.7,0.7c0,2,0.1,2-1.9,2c-3.3,0-6.5,0-9.8,0
				c-0.6,0-0.8-0.1-0.8-0.8c0-1.9,0-1.9,1.9-1.9C49.4,123.9,50.9,123.9,52.3,123.9z"/>
			<path class="st19" d="M78.5,122.9c-1.8,0-3.6,0-5.5,0c-0.6,0-0.7-0.2-0.7-0.8c0-2,0-2,1.9-2c3.3,0,6.5,0,9.8,0
				c0.7,0,0.8,0.2,0.8,0.9c0,1.9,0,1.9-1.8,1.9C81.5,122.9,80,122.9,78.5,122.9z"/>
			<path class="st19" d="M63.7,122.9c-1.8,0-3.6,0-5.5,0c-0.5,0-0.7-0.1-0.7-0.7c0-2,0-2,1.9-2c3.3,0,6.5,0,9.8,0
				c0.6,0,0.8,0.1,0.8,0.8c0,1.9,0,1.9-1.9,1.9C66.7,122.9,65.2,122.9,63.7,122.9z"/>
			<path class="st19" d="M48.9,122.9c-1.8,0-3.6,0-5.5,0c-0.5,0-0.7-0.1-0.7-0.7c0-2,0-2,2-2c3.3,0,6.5,0,9.8,0
				c0.6,0,0.8,0.2,0.8,0.8c0,1.9,0,1.9-1.9,1.9C51.9,122.9,50.4,122.9,48.9,122.9z"/>
			<path class="st19" d="M68.6,144.6c-1.8,0-3.6,0-5.4,0c-0.5,0-0.7-0.2-0.7-0.7c0-2,0-2,2-2c3.2,0,6.4,0,9.6,0
				c0.6,0,0.8,0.2,0.8,0.8c0,1.9,0,1.9-1.9,1.9C71.6,144.6,70.1,144.6,68.6,144.6z"/>
			<path class="st19" d="M83.5,144.6c-1.8,0-3.6,0-5.5,0c-0.5,0-0.7-0.1-0.7-0.7c0-2-0.1-2,1.9-2c3.2,0,6.4,0,9.6,0
				c0.6,0,0.8,0.1,0.8,0.8c0,1.9,0,1.9-1.9,1.9C86.3,144.6,84.9,144.6,83.5,144.6z"/>
			<path class="st19" d="M71.9,148.3c-1.8,0-3.6,0-5.4,0c-0.5,0-0.7-0.1-0.7-0.7c0-2,0-2,2-2c3.2,0,6.4,0,9.6,0
				c0.6,0,0.8,0.2,0.8,0.8c0,1.9,0,1.9-1.9,1.9C74.8,148.3,73.4,148.3,71.9,148.3z"/>
			<path class="st19" d="M86.9,145.6c1.8,0,3.6,0,5.4,0c0.5,0,0.7,0.1,0.7,0.7c0,2,0,2-2,2c-3.2,0-6.4,0-9.6,0
				c-0.6,0-0.8-0.2-0.8-0.8c0-1.9,0-1.9,1.9-1.9C83.9,145.6,85.4,145.6,86.9,145.6z"/>
		</g>
	</g>
	<g id="jUXD8v.tif_1_">
		<g>
			<path class="st20" d="M340.6,109.2c0,1.2-0.1,2.5,0,3.7c0.1,0.9-0.3,1.1-1.1,1.1c-2.8,0-5.6,0-8.3,0c-16.1,0-32.1,0-48.2,0
				c0-1.4,0-2.8,0-4.1c0-0.6,0.1-0.7,0.7-0.7c9,0,18,0,27.1,0C320.7,109.2,330.7,109.2,340.6,109.2z"/>
			<path class="st20" d="M289.7,116.3c1.8,0,3.6,0,5.4,0c0.6,0,0.8,0.2,0.8,0.8c0,2.1,0,2.1-2,2.1c-3.2,0-6.4,0-9.6,0
				c-0.7,0-0.9-0.2-0.9-0.9c0-2,0-2,2-2C286.9,116.3,288.3,116.3,289.7,116.3z"/>
			<path class="st20" d="M304.4,119.2c-1.8,0-3.6,0-5.4,0c-0.6,0-0.8-0.1-0.8-0.8c0-2.1,0-2.1,2.1-2.1c3.2,0,6.3,0,9.5,0
				c0.8,0,1,0.2,0.9,1c0,1.9,0,1.9-1.9,1.9C307.3,119.2,305.9,119.2,304.4,119.2z"/>
			<path class="st20" d="M319.2,119.2c-1.8,0-3.6,0-5.5,0c-0.6,0-0.8-0.1-0.8-0.7c0-2.2-0.1-2.2,2.1-2.2c3.1,0,6.3,0,9.4,0
				c0.7,0,1,0.1,1,0.9c0,2,0,2-1.9,2C322.1,119.2,320.7,119.2,319.2,119.2z"/>
			<path class="st20" d="M333.9,119.2c-1.8,0-3.6,0-5.4,0c-0.6,0-0.8-0.1-0.8-0.7c0-2.2-0.1-2.2,2.1-2.2c3.1,0,6.3,0,9.4,0
				c0.7,0,1,0.1,1,0.9c0,2,0,2-1.9,2C336.9,119.2,335.4,119.2,333.9,119.2z"/>
			<path class="st20" d="M325.7,158.9c-1.8,0-3.6,0-5.4,0c-0.6,0-0.8-0.1-0.8-0.7c0-2.2-0.1-2.2,2.1-2.2c3.1,0,6.3,0,9.4,0
				c0.7,0,1,0.1,1,0.9c0,2,0,2-1.9,2C328.6,158.9,327.1,158.9,325.7,158.9z"/>
			<path class="st20" d="M322.6,152.4c1.8,0,3.5,0,5.3,0c0.6,0,0.9,0.1,0.9,0.8c0,2.1,0,2.1-2,2.1c-3.2,0-6.3,0-9.5,0
				c-0.7,0-1-0.1-1-0.9c0-2,0-2,1.9-2C319.6,152.4,321.1,152.4,322.6,152.4z"/>
			<path class="st20" d="M299.4,130c-1.8,0-3.6,0-5.4,0c-0.6,0-0.8-0.1-0.8-0.8c0-2.1,0-2.1,2.1-2.1c3.2,0,6.3,0,9.5,0
				c0.7,0,0.9,0.1,0.9,0.9c0,2,0,2-2,2C302.3,130,300.8,130,299.4,130z"/>
			<path class="st20" d="M332.3,133.6c-1.8,0-3.5,0-5.3,0c-0.6,0-0.8-0.1-0.8-0.8c0-2.1,0-2.1,2.1-2.1c3.1,0,6.2,0,9.3,0
				c0.7,0,1,0.1,0.9,0.9c0,2,0,2-2,2C335.1,133.6,333.7,133.6,332.3,133.6z"/>
			<path class="st20" d="M306,137.3c-1.8,0-3.6,0-5.4,0c-0.5,0-0.7-0.2-0.7-0.7c-0.1-2.2-0.1-2.2,2.1-2.2c3.1,0,6.3,0,9.4,0
				c0.6,0,0.8,0.2,0.8,0.8c0,2.1,0,2.1-2,2.1C308.8,137.3,307.4,137.3,306,137.3z"/>
			<path class="st20" d="M320.8,137.3c-1.8,0-3.5,0-5.3,0c-0.5,0-0.8-0.1-0.8-0.7c0-2.2-0.1-2.2,2.1-2.2c3.1,0,6.2,0,9.3,0
				c0.7,0,0.9,0.2,0.9,0.9c0,2,0,2-1.9,2C323.6,137.3,322.2,137.3,320.8,137.3z"/>
			<path class="st20" d="M309.2,140.9c-1.7,0-3.5,0-5.2,0c-0.6,0-0.9-0.1-0.9-0.8c0-2.1,0-2.1,2-2.1c3.1,0,6.2,0,9.3,0
				c0.7,0,1,0.1,1,0.9c0,2,0,2-1.9,2C312.1,140.9,310.7,140.9,309.2,140.9z"/>
			<path class="st20" d="M324.1,140.9c-1.8,0-3.5,0-5.3,0c-0.6,0-0.9-0.1-0.9-0.8c0-2.1,0-2.1,2-2.1c3.1,0,6.3,0,9.4,0
				c0.6,0,0.9,0.1,0.9,0.8c0,2.1,0,2.1-2,2.1C326.9,140.9,325.5,140.9,324.1,140.9z"/>
			<path class="st20" d="M329.1,162.6c-1.8,0-3.5,0-5.3,0c-0.6,0-0.9-0.1-0.9-0.8c0-2.1,0-2.1,2-2.1c3.1,0,6.3,0,9.4,0
				c0.6,0,0.9,0.1,0.9,0.8c0,2.1,0,2.1-2,2.1C331.9,162.6,330.5,162.6,329.1,162.6z"/>
			<path class="st20" d="M332.4,166.2c-1.8,0-3.6,0-5.4,0c-0.6,0-0.8-0.2-0.8-0.8c0-2.1,0-2.1,2.1-2.1c3.1,0,6.3,0,9.4,0
				c0.7,0,0.9,0.2,0.9,0.9c0,2,0,2-2.1,2C335.1,166.2,333.7,166.2,332.4,166.2z"/>
			<path class="st20" d="M317.5,133.6c-1.8,0-3.6,0-5.4,0c-0.5,0-0.7-0.1-0.7-0.7c-0.1-2.2-0.1-2.2,2.1-2.2c3.1,0,6.3,0,9.4,0
				c0.6,0,0.8,0.1,0.8,0.8c0,2.1,0,2.1-2.1,2.1C320.3,133.6,318.9,133.6,317.5,133.6z"/>
			<path class="st20" d="M302.8,130.7c1.8,0,3.6,0,5.4,0c0.6,0,0.8,0.1,0.8,0.7c0,2.2,0.1,2.2-2.1,2.2c-3.1,0-6.1,0-9.2,0
				c-0.7,0-1-0.1-1-0.9c0-2,0-2,1.9-2C300,130.7,301.4,130.7,302.8,130.7z"/>
			<path class="st20" d="M329.1,130c-1.8,0-3.6,0-5.4,0c-0.5,0-0.7-0.1-0.7-0.7c-0.1-2.2-0.1-2.2,2.1-2.2c3.1,0,6.3,0,9.4,0
				c0.6,0,0.8,0.1,0.8,0.8c0,2.1,0,2.1-2.1,2.1C331.8,130,330.4,130,329.1,130z"/>
			<path class="st20" d="M314.3,127.1c1.8,0,3.6,0,5.4,0c0.6,0,0.8,0.1,0.8,0.7c0,2.2,0.1,2.2-2.1,2.2c-3.1,0-6.1,0-9.2,0
				c-0.7,0-1-0.1-1-0.9c0-2,0-2,1.9-2C311.5,127.1,312.9,127.1,314.3,127.1z"/>
			<path class="st20" d="M325.8,126.3c-1.9,0-3.7,0-5.6,0c-0.6,0-0.8-0.2-0.8-0.8c0-1.9,0-1.9,1.9-1.9c3.3,0,6.5,0,9.8,0
				c0.7,0,0.9,0.2,0.9,0.9c0,1.8,0,1.8-1.9,1.8C328.7,126.3,327.3,126.3,325.8,126.3z"/>
			<path class="st20" d="M311,126.3c-1.8,0-3.6,0-5.4,0c-0.6,0-0.9-0.1-0.9-0.8c0-1.9,0-1.9,1.9-1.9c3.2,0,6.5,0,9.7,0
				c0.7,0,1,0.1,1,0.9c-0.1,1.8,0,1.8-1.8,1.8C314,126.3,312.5,126.3,311,126.3z"/>
			<path class="st20" d="M319.2,149c1.8,0,3.6,0,5.4,0c0.6,0,0.9,0.1,0.9,0.8c0,1.9,0,1.9-1.8,1.9c-3.2,0-6.5,0-9.7,0
				c-0.7,0-1-0.1-1-0.9c0.1-1.8,0-1.8,1.8-1.8C316.2,149,317.7,149,319.2,149z"/>
			<path class="st20" d="M334.1,149c1.8,0,3.6,0,5.5,0c0.5,0,0.7,0.2,0.7,0.7c0,2,0.1,2-1.9,2c-3.2,0-6.5,0-9.7,0
				c-0.7,0-0.9-0.2-0.9-0.9c0-1.8,0-1.8,1.8-1.8C331.1,149,332.6,149,334.1,149z"/>
			<path class="st20" d="M296.2,123.6c1.8,0,3.6,0,5.4,0c0.6,0,0.9,0.1,0.9,0.8c0,1.9,0,1.9-1.8,1.9c-3.2,0-6.5,0-9.7,0
				c-0.7,0-1-0.1-1-0.9c0.1-1.8,0-1.8,1.8-1.8C293.2,123.6,294.7,123.6,296.2,123.6z"/>
			<path class="st20" d="M322.4,122.7c-1.8,0-3.6,0-5.4,0c-0.6,0-0.8-0.1-0.8-0.8c0-1.9,0-1.9,1.9-1.9c3.2,0,6.5,0,9.7,0
				c0.8,0,1,0.2,0.9,1c0,1.7,0,1.7-1.8,1.7C325.5,122.7,323.9,122.7,322.4,122.7z"/>
			<path class="st20" d="M307.6,122.7c-1.8,0-3.5,0-5.3,0c-0.6,0-0.9-0.1-0.9-0.8c0-1.9,0-1.9,1.8-1.9c3.2,0,6.5,0,9.7,0
				c0.7,0,1,0.1,1,0.9c-0.1,1.8,0,1.8-1.8,1.8C310.7,122.7,309.1,122.7,307.6,122.7z"/>
			<path class="st20" d="M292.8,122.7c-1.8,0-3.5,0-5.3,0c-0.6,0-0.9-0.1-0.9-0.8c0-1.9,0-1.9,1.8-1.9c3.2,0,6.5,0,9.7,0
				c0.8,0,1,0.2,1,1c-0.1,1.7,0,1.7-1.6,1.7C296,122.7,294.4,122.7,292.8,122.7z"/>
			<path class="st20" d="M312.5,144.4c-1.7,0-3.5,0-5.2,0c-0.6,0-0.9-0.1-0.9-0.8c0-1.9,0-1.9,1.8-1.9c3.2,0,6.3,0,9.5,0
				c0.7,0,1,0.1,1,0.9c-0.1,1.8,0,1.8-1.8,1.8C315.5,144.4,314,144.4,312.5,144.4z"/>
			<path class="st20" d="M327.4,144.4c-1.8,0-3.5,0-5.3,0c-0.6,0-0.9-0.1-0.9-0.8c0-1.9,0-1.9,1.8-1.9c3.2,0,6.3,0,9.5,0
				c0.7,0,1,0.1,1,0.9c-0.1,1.8,0,1.8-1.8,1.8C330.3,144.4,328.9,144.4,327.4,144.4z"/>
			<path class="st20" d="M315.8,148c-1.7,0-3.5,0-5.2,0c-0.6,0-0.9-0.1-0.9-0.8c0-1.9,0-1.9,1.8-1.9c3.2,0,6.3,0,9.5,0
				c0.7,0,1,0.1,1,0.9c-0.1,1.8,0,1.8-1.8,1.8C318.8,148,317.3,148,315.8,148z"/>
			<path class="st20" d="M330.7,145.3c1.7,0,3.5,0,5.2,0c0.6,0,0.9,0.1,0.9,0.8c0,1.9,0,1.9-1.8,1.9c-3.2,0-6.3,0-9.5,0
				c-0.7,0-1-0.1-1-0.9c0.1-1.8,0-1.8,1.8-1.8C327.7,145.3,329.2,145.3,330.7,145.3z"/>
		</g>
	</g>
	<g>
		<g>
			<g>
				<line class="st17" x1="243" y1="78.2" x2="218.1" y2="103"/>
				<g>
					<path d="M216,105.1c0.6-1.4,1.2-3.3,1.3-4.7l1.1,2.3l2.3,1.1C219.3,103.9,217.4,104.5,216,105.1z"/>
				</g>
			</g>
		</g>
		<g>
			<g>
				<line class="st17" x1="142.4" y1="78.2" x2="167.3" y2="103"/>
				<g>
					<path d="M169.4,105.1c-1.4-0.6-3.3-1.2-4.7-1.3l2.3-1.1l1.1-2.3C168.2,101.9,168.8,103.8,169.4,105.1z"/>
				</g>
			</g>
		</g>
	</g>
	<g>
		<g>
			<g>
				<line class="st17" x1="109" y1="126.4" x2="109.5" y2="126.4"/>
				<line class="st18" x1="110.5" y1="126.4" x2="143.2" y2="126.4"/>
				<line class="st17" x1="143.7" y1="126.4" x2="144.2" y2="126.4"/>
				<g>
					<path d="M147.2,126.4c-1.4,0.5-3.2,1.4-4.3,2.4l0.9-2.4l-0.9-2.4C144,125,145.8,125.9,147.2,126.4z"/>
				</g>
			</g>
		</g>
		<g>
			<g>
				<line class="st17" x1="276.4" y1="126.7" x2="275.9" y2="126.7"/>
				<line class="st18" x1="274.9" y1="126.7" x2="242.2" y2="126.7"/>
				<line class="st17" x1="241.7" y1="126.7" x2="241.2" y2="126.7"/>
				<g>
					<path d="M238.2,126.7c1.4-0.5,3.2-1.4,4.3-2.4l-0.9,2.4l0.9,2.4C241.4,128.1,239.6,127.2,238.2,126.7z"/>
				</g>
			</g>
		</g>
	</g>
	<g>
		<defs>
			<rect id="SVGID_1_" x="154.7" y="158.5" width="72" height="20.3"/>
		</defs>
		<clipPath id="SVGID_2_">
			<use xlink:href="#SVGID_1_"  style="overflow:visible;"/>
		</clipPath>
		<g class="st21">
			<text transform="matrix(1 0 0 1 154.1034 172.0148)" class="st22 st23">J</text>
		</g>
		<g class="st21">
			<text transform="matrix(1 0 0 1 160.3495 172.0148)" class="st24 st23">(</text>
		</g>
		<g class="st21">
			<text transform="matrix(1 0 0 1 164.0829 172.0148)"><tspan x="0" y="0" class="st22 st23">A</tspan><tspan x="7.2" y="0" class="st22 st23 st25">,</tspan><tspan x="11.5" y="0" class="st22 st23">B</tspan></text>
		</g>
		<g class="st21">
			<text transform="matrix(1 0 0 1 183.3119 172.0148)"><tspan x="0" y="0" class="st24 st23 st26">)</tspan><tspan x="6.4" y="0" class="st24 st23">=</tspan></text>
		</g>
		<g class="st21">
			<text transform="matrix(1 0 0 1 200.997 165.5206)" class="st22 st23">A</text>
		</g>
		<g class="st21">
			<text transform="matrix(1 0 0 1 210.3295 165.5206)" class="st27 st23">∩</text>
		</g>
		<g class="st21">
			<text transform="matrix(1 0 0 1 218.8627 165.5206)" class="st22 st23">B</text>
		</g>
		<line class="st28" x1="201" y1="169.6" x2="226.6" y2="169.6"/>
		<g class="st21">
			<text transform="matrix(1 0 0 1 200.997 178.6007)" class="st22 st23">A</text>
		</g>
		<g class="st21">
			<text transform="matrix(1 0 0 1 210.3295 178.6007)" class="st27 st23">∪</text>
		</g>
		<g class="st21">
			<text transform="matrix(1 0 0 1 218.8627 178.6007)" class="st22 st23">B</text>
		</g>
	</g>
</g>
</svg>
