<svg id="Layer_1" data-name="Layer 1" xmlns="http://www.w3.org/2000/svg" xmlns:xlink="http://www.w3.org/1999/xlink" viewBox="0 0 555.22 313.69"><defs><style>.cls-1,.cls-10,.cls-11,.cls-12,.cls-14,.cls-15,.cls-16,.cls-17,.cls-19,.cls-2,.cls-29,.cls-3,.cls-30,.cls-31,.cls-32,.cls-33,.cls-34,.cls-35,.cls-4,.cls-7{fill:none;}.cls-2,.cls-3,.cls-35,.cls-4{stroke:#231f20;}.cls-11,.cls-14,.cls-15,.cls-17,.cls-19,.cls-2,.cls-29,.cls-3,.cls-30,.cls-31,.cls-32,.cls-35,.cls-4{stroke-miterlimit:10;}.cls-19,.cls-2,.cls-3,.cls-35,.cls-4{stroke-width:0.5px;}.cls-3{stroke-dasharray:1.99 1.99;}.cls-4{stroke-dasharray:1.99 1.99;}.cls-24,.cls-26,.cls-5,.cls-6,.cls-9{font-size:10px;}.cls-21,.cls-5,.cls-8{fill:gray;}.cls-24,.cls-26,.cls-37,.cls-5,.cls-6,.cls-8{font-family:ArialMT, Arial;}.cls-20,.cls-23,.cls-36,.cls-37,.cls-6,.cls-9{fill:#231f20;}.cls-7{stroke:#080505;}.cls-10,.cls-12,.cls-15,.cls-16,.cls-17,.cls-30,.cls-32,.cls-33,.cls-34,.cls-7{stroke-linecap:round;}.cls-10,.cls-12,.cls-16,.cls-33,.cls-34,.cls-7{stroke-linejoin:round;}.cls-11,.cls-7{stroke-width:0.25px;}.cls-36,.cls-37,.cls-8{font-size:8px;}.cls-9{font-family:Arial-ItalicMT, Arial;font-style:italic;}.cls-10,.cls-16{stroke:#662d91;}.cls-11{stroke:#000;}.cls-12{stroke:#9574b4;}.cls-13{clip-path:url(#clip-path);}.cls-14,.cls-15{stroke:#00addc;}.cls-15,.cls-17{stroke-width:2px;}.cls-16,.cls-33,.cls-34{stroke-width:0.75px;}.cls-17{stroke:#29aae2;}.cls-18{fill:#662f90;}.cls-19{stroke:#fff;}.cls-22{fill:#fff;}.cls-23{font-size:12px;font-family:Arial-BoldMT, Arial;font-weight:700;}.cls-24,.cls-27{fill:#21b573;}.cls-25{letter-spacing:-0.05em;}.cls-26,.cls-28{fill:#f79420;}.cls-29,.cls-30,.cls-34{stroke:#21b573;}.cls-31,.cls-32,.cls-33{stroke:#f79420;}.cls-35{stroke-dasharray:2.02 2.02;}.cls-36{font-family:FantasqueSansMonoNerdFontComplete-Regular, FantasqueSansMono Nerd Font;}</style><clipPath id="clip-path"><rect class="cls-1" x="1.66" y="1.71" width="551.54" height="311.98"/></clipPath></defs><title>figure1</title><polyline class="cls-2" points="360.07 115.6 360.07 116.6 359.07 116.6"/><line class="cls-3" x1="357.08" y1="116.6" x2="3.65" y2="116.6"/><polyline class="cls-2" points="2.66 116.6 1.66 116.6 1.66 115.6"/><line class="cls-4" x1="1.66" y1="113.62" x2="1.66" y2="3.38"/><polyline class="cls-2" points="1.66 2.38 1.66 1.39 2.66 1.39"/><line class="cls-3" x1="4.65" y1="1.38" x2="358.08" y2="1.38"/><polyline class="cls-2" points="359.07 1.39 360.07 1.39 360.07 2.38"/><line class="cls-4" x1="360.07" y1="4.37" x2="360.07" y2="114.61"/><text class="cls-5" transform="translate(5.36 58.01)">Aligned </text><text class="cls-5" transform="translate(5.36 70.01)">single-cell </text><text class="cls-5" transform="translate(5.36 82.01)">reads</text><text class="cls-6" transform="translate(62 58.01)">RNA-seq </text><text class="cls-6" transform="translate(62 70.01)">reads</text><line class="cls-7" x1="75.02" y1="44.43" x2="94.35" y2="44.43"/><line class="cls-7" x1="75.02" y1="35.65" x2="94.35" y2="35.65"/><line class="cls-7" x1="75.02" y1="29.8" x2="94.35" y2="29.8"/><line class="cls-7" x1="75.02" y1="26.87" x2="94.35" y2="26.87"/><line class="cls-7" x1="75.02" y1="23.94" x2="94.35" y2="23.94"/><line class="cls-7" x1="75.02" y1="21.02" x2="94.35" y2="21.02"/><line class="cls-7" x1="75.02" y1="18.09" x2="94.35" y2="18.09"/><line class="cls-7" x1="75.02" y1="38.57" x2="94.35" y2="38.57"/><line class="cls-7" x1="75.02" y1="41.5" x2="94.35" y2="41.5"/><line class="cls-7" x1="75.02" y1="32.72" x2="94.35" y2="32.72"/><text class="cls-8" transform="translate(5.18 94.14)">(droplet-based </text><text class="cls-8" transform="translate(13.19 103.74)">single-cell </text><text class="cls-8" transform="translate(4.96 113.34)">RNA-seq only)</text><text class="cls-6" transform="translate(122.54 58.01)">Predicted </text><text class="cls-6" transform="translate(122.54 70.01)">amino acid</text><text class="cls-6" transform="translate(122.54 82.01)">sequence</text><text class="cls-6" transform="translate(245.21 58.01)">Random </text><text class="cls-6" transform="translate(245.21 70.01)">amino acid </text><text class="cls-9" transform="translate(245.21 82.01)">k</text><text class="cls-6" transform="translate(250.21 82.01)">-mers</text><line class="cls-10" x1="137.05" y1="44.43" x2="156.39" y2="44.43"/><line class="cls-10" x1="137.05" y1="35.65" x2="156.39" y2="35.65"/><line class="cls-10" x1="137.05" y1="29.8" x2="156.39" y2="29.8"/><line class="cls-10" x1="137.05" y1="26.87" x2="156.39" y2="26.87"/><line class="cls-10" x1="137.05" y1="23.94" x2="156.39" y2="23.94"/><line class="cls-10" x1="137.05" y1="21.02" x2="156.39" y2="21.02"/><line class="cls-10" x1="137.05" y1="18.09" x2="156.39" y2="18.09"/><line class="cls-10" x1="137.05" y1="38.57" x2="156.39" y2="38.57"/><line class="cls-10" x1="137.05" y1="41.5" x2="156.39" y2="41.5"/><line class="cls-10" x1="137.05" y1="32.72" x2="156.39" y2="32.72"/><line class="cls-11" x1="261.12" y1="44.43" x2="280.45" y2="44.43"/><line class="cls-11" x1="261.12" y1="35.65" x2="280.45" y2="35.65"/><line class="cls-11" x1="261.12" y1="29.8" x2="280.45" y2="29.8"/><line class="cls-11" x1="261.12" y1="26.87" x2="280.45" y2="26.87"/><line class="cls-11" x1="261.12" y1="23.94" x2="280.45" y2="23.94"/><line class="cls-11" x1="261.12" y1="21.02" x2="280.45" y2="21.02"/><line class="cls-11" x1="261.12" y1="18.09" x2="280.45" y2="18.09"/><line class="cls-11" x1="261.12" y1="38.57" x2="280.45" y2="38.57"/><line class="cls-11" x1="261.12" y1="41.5" x2="280.45" y2="41.5"/><line class="cls-11" x1="261.12" y1="32.72" x2="280.45" y2="32.72"/><line class="cls-12" x1="264.12" y1="44.43" x2="270.12" y2="44.43"/><line class="cls-12" x1="261.12" y1="35.65" x2="267.12" y2="35.65"/><line class="cls-12" x1="271.12" y1="29.8" x2="277.12" y2="29.8"/><line class="cls-12" x1="264.12" y1="26.87" x2="270.12" y2="26.87"/><line class="cls-12" x1="267.12" y1="23.94" x2="273.12" y2="23.94"/><line class="cls-12" x1="263.12" y1="21.02" x2="269.12" y2="21.02"/><line class="cls-12" x1="273.12" y1="18.09" x2="279.12" y2="18.09"/><line class="cls-12" x1="267.12" y1="38.57" x2="273.12" y2="38.57"/><line class="cls-12" x1="272.12" y1="41.5" x2="278.12" y2="41.5"/><line class="cls-12" x1="274.12" y1="32.72" x2="280.12" y2="32.72"/><line class="cls-12" x1="270.75" y1="35.65" x2="276.75" y2="35.65"/><line class="cls-12" x1="264.63" y1="32.72" x2="270.63" y2="32.72"/><text class="cls-6" transform="translate(311.38 58.01)">Cluster on </text><text class="cls-9" transform="translate(311.38 70.01)">k</text><text class="cls-6" transform="translate(316.38 70.01)">-mer </text><text class="cls-6" transform="translate(311.38 82.01)">similarit</text><text class="cls-6" transform="translate(345.27 82.01)">y</text><g class="cls-13"><path d="M328.17,23.12a.88.88,0,1,1-.88-.88.87.87,0,0,1,.88.88"/><path d="M332,24a.88.88,0,1,1-.87-.88A.87.87,0,0,1,332,24"/><path d="M332,21.36a.88.88,0,1,1-.87-.88.88.88,0,0,1,.87.88"/><path d="M330.08,25.75a.88.88,0,1,1-.88-.88.88.88,0,0,1,.88.88"/><path d="M327.44,24.88a.88.88,0,1,1-.88-.88.87.87,0,0,1,.88.88"/><path d="M330.08,23.12a.88.88,0,1,1-.88-.88.88.88,0,0,1,.88.88"/><path d="M329.05,20.48a.88.88,0,1,1-1.76,0,.88.88,0,0,1,1.76,0"/><path d="M326.56,22.24a.88.88,0,1,1-.87-.88.88.88,0,0,1,.87.88"/><path d="M342.78,23.63a.88.88,0,0,1,0-1.24.89.89,0,0,1,1.25,0,.88.88,0,0,1-1.25,1.24"/><path d="M339.47,25.71a.88.88,0,0,1,1.24-1.24.88.88,0,1,1-1.24,1.24"/><path d="M341.33,27.57a.88.88,0,0,1,1.24-1.24.88.88,0,0,1-1.24,1.24"/><path d="M339.57,23.12a.88.88,0,0,1,0-1.24.88.88,0,0,1,1.24,1.24.88.88,0,0,1-1.24,0"/><path d="M342.05,21.87a.88.88,0,0,1,0-1.24.89.89,0,0,1,1.25,0,.88.88,0,0,1,0,1.24.89.89,0,0,1-1.25,0"/><path d="M341.44,25a.86.86,0,0,1,0-1.24A.88.88,0,0,1,342.68,25a.86.86,0,0,1-1.24,0"/><path d="M343,26.12a.88.88,0,0,1,1.24-1.24A.88.88,0,0,1,343,26.12"/><path d="M344.54,23.12a.88.88,0,0,1,0-1.24.88.88,0,0,1,1.24,1.24.88.88,0,0,1-1.24,0"/><path d="M334.25,31A.88.88,0,0,1,336,31a.88.88,0,0,1-1.76,0"/><path d="M330.43,30.12a.88.88,0,1,1,.88.88.88.88,0,0,1-.88-.88"/><path d="M330.43,32.75a.88.88,0,1,1,.88.88.88.88,0,0,1-.88-.88"/><path d="M332.34,28.36a.88.88,0,1,1,1.76,0,.88.88,0,1,1-1.76,0"/><path d="M335,29.23a.88.88,0,1,1,.88.88.87.87,0,0,1-.88-.88"/><path d="M332.34,31a.88.88,0,1,1,.88.88.88.88,0,0,1-.88-.88"/><path d="M333.37,33.63a.88.88,0,1,1,.88.88.88.88,0,0,1-.88-.88"/><path d="M335.86,31.88a.88.88,0,1,1,.87.87.87.87,0,0,1-.87-.87"/><path d="M337,30.12a.88.88,0,0,1,1.76,0,.88.88,0,1,1-1.76,0"/><path d="M326.72,37.83A.88.88,0,0,1,328,36.59a.88.88,0,1,1-1.24,1.24"/><path d="M323.4,39.91a.88.88,0,1,1,1.25,0,.89.89,0,0,1-1.25,0"/><path d="M325.27,41.77a.86.86,0,0,1,0-1.24.88.88,0,1,1,0,1.24"/><path d="M323.51,37.32a.89.89,0,0,1,0-1.25.88.88,0,1,1,0,1.25"/><path d="M325.37,39.18a.88.88,0,1,1,1.25,0,.89.89,0,0,1-1.25,0"/><path d="M328,40.32a.88.88,0,1,1,1.25,0,.89.89,0,0,1-1.25,0"/><path d="M328.48,37.32a.89.89,0,0,1,0-1.25.88.88,0,1,1,0,1.25"/><path d="M335.38,42.18a.88.88,0,0,1,0-1.24.89.89,0,0,1,1.25,0,.88.88,0,1,1-1.25,1.24"/><path d="M337.25,44.05a.88.88,0,0,1,1.24-1.25.89.89,0,0,1,0,1.25.88.88,0,0,1-1.24,0"/><path d="M335.49,39.59a.88.88,0,1,1,1.24,0,.86.86,0,0,1-1.24,0"/><path d="M338,38.35a.89.89,0,0,1,0-1.25.88.88,0,1,1,0,1.25"/><path d="M337.35,41.46a.88.88,0,1,1,1.25,0,.89.89,0,0,1-1.25,0"/><path d="M339.94,42.59a.88.88,0,0,1,0-1.24.89.89,0,0,1,1.25,0,.88.88,0,0,1-1.25,1.24"/><path d="M340.46,39.59a.88.88,0,1,1,1.24,0,.86.86,0,0,1-1.24,0"/><circle class="cls-14" cx="342.1" cy="24.08" r="5.87" transform="translate(240.06 351.49) rotate(-76.72)"/></g><text class="cls-6" transform="translate(378.1 58.01)">k-mers </text><text class="cls-6" transform="translate(378.1 70.01)">enriched </text><text class="cls-6" transform="translate(378.1 82.01)">in clusters</text><g class="cls-13"><line class="cls-15" x1="393.66" y1="44.44" x2="399.66" y2="44.44"/><line class="cls-15" x1="390.66" y1="35.66" x2="396.66" y2="35.66"/><line class="cls-15" x1="402.66" y1="18.11" x2="408.66" y2="18.11"/><line class="cls-15" x1="403.66" y1="32.74" x2="409.66" y2="32.74"/><line class="cls-16" x1="453.24" y1="44.43" x2="472.58" y2="44.43"/><line class="cls-16" x1="453.24" y1="35.65" x2="472.58" y2="35.65"/><line class="cls-16" x1="453.24" y1="29.8" x2="472.58" y2="29.8"/><line class="cls-16" x1="453.24" y1="26.87" x2="472.58" y2="26.87"/><line class="cls-16" x1="453.24" y1="23.94" x2="472.58" y2="23.94"/><line class="cls-16" x1="453.24" y1="21.02" x2="472.58" y2="21.02"/><line class="cls-16" x1="453.24" y1="18.09" x2="472.58" y2="18.09"/><line class="cls-16" x1="453.24" y1="38.57" x2="472.58" y2="38.57"/><line class="cls-16" x1="453.24" y1="41.5" x2="472.58" y2="41.5"/><line class="cls-16" x1="453.24" y1="32.72" x2="472.58" y2="32.72"/><line class="cls-17" x1="456.24" y1="44.43" x2="462.24" y2="44.43"/><line class="cls-17" x1="453.24" y1="35.65" x2="459.24" y2="35.65"/><line class="cls-17" x1="465.24" y1="18.09" x2="471.24" y2="18.09"/><line class="cls-17" x1="466.24" y1="32.72" x2="472.24" y2="32.72"/></g><text class="cls-6" transform="translate(429.18 58.01)">Get amino </text><text class="cls-6" transform="translate(429.18 70.01)">acid</text><text class="cls-6" transform="translate(447.52 70.01)"> </text><text class="cls-6" transform="translate(450.5 70.01)">sequence </text><text class="cls-6" transform="translate(429.18 82.01)">from reads </text><text class="cls-6" transform="translate(429.18 94.01)">with enriched </text><text class="cls-6" transform="translate(429.18 106.01)">k-mers</text><g class="cls-13"><text class="cls-6" transform="translate(496.51 58.01)">Query NCBI </text></g><text class="cls-6" transform="translate(496.51 70.01)">RefSeq NR </text><text class="cls-6" transform="translate(496.51 82.01)">for putative </text><text class="cls-6" transform="translate(496.51 94.01)">orthologous </text><text class="cls-6" transform="translate(496.51 106.01)">genes</text><g class="cls-13"><rect class="cls-18" x="515.28" y="20.77" width="19.16" height="20.98"/><path class="cls-18" d="M534.43,20.77c0,.94-4.29,1.71-9.58,1.71s-9.57-.77-9.57-1.71,4.28-1.7,9.57-1.7,9.58.76,9.58,1.7"/><path class="cls-18" d="M534.43,41.75c0,.94-4.29,1.7-9.58,1.7s-9.57-.76-9.57-1.7S519.56,40,524.85,40s9.58.77,9.58,1.71"/><path class="cls-19" d="M534.43,20.77c0,.94-4.29,1.71-9.58,1.71s-9.57-.77-9.57-1.71,4.28-1.7,9.57-1.7S534.43,19.83,534.43,20.77Z"/><polygon class="cls-20" points="110.7 30.57 116.25 30.57 115.64 29.12 120.7 31.26 115.64 33.4 116.25 31.95 110.7 31.95 110.7 30.57"/><polygon class="cls-21" points="48.67 30.57 54.22 30.57 53.61 29.12 58.67 31.26 53.61 33.4 54.22 31.95 48.67 31.95 48.67 30.57"/><polygon class="cls-20" points="234.77 30.57 240.31 30.57 239.7 29.12 244.77 31.26 239.7 33.4 240.31 31.95 234.77 31.95 234.77 30.57"/><polygon class="cls-20" points="296.8 30.57 302.34 30.57 301.73 29.12 306.8 31.26 301.73 33.4 302.34 31.95 296.8 31.95 296.8 30.57"/><polygon class="cls-20" points="364.31 30.57 369.86 30.57 369.24 29.12 374.31 31.26 369.24 33.4 369.86 31.95 364.31 31.95 364.31 30.57"/><polygon class="cls-20" points="426.9 30.57 432.44 30.57 431.83 29.12 436.9 31.26 431.83 33.4 432.44 31.95 426.9 31.95 426.9 30.57"/><polygon class="cls-20" points="488.93 30.57 494.47 30.57 493.86 29.12 498.93 31.26 493.86 33.4 494.47 31.95 488.93 31.95 488.93 30.57"/><path class="cls-21" d="M28.32,44.43H15a4,4,0,0,1-4-4V22.09a4,4,0,0,1,4-4h13.3a4,4,0,0,1,4,4V40.43a4,4,0,0,1-4,4"/><rect class="cls-22" x="12.37" y="32.34" width="1.23" height="1.31"/><path class="cls-22" d="M20,31.41a3.62,3.62,0,0,1-.1.91,2.16,2.16,0,0,1-.33.72,1.31,1.31,0,0,1-.58.48,2,2,0,0,1-.85.17,1.83,1.83,0,0,1-1.25-.44,4.07,4.07,0,0,1-.05.46l-.81-.09a7.93,7.93,0,0,0,.09-1.15V28c0-.33,0-.73-.07-1.21l.77,0A9.71,9.71,0,0,1,16.92,28v1a2.24,2.24,0,0,1,.25-.17.87.87,0,0,1,.27-.12,1.32,1.32,0,0,1,.41-.05c1.46,0,2.18.91,2.18,2.73m-.77-.09c0-1.26-.44-1.89-1.34-1.89l-.16,0-.14,0a.48.48,0,0,0-.15.07l-.12.07-.12.1-.11.09-.11.11-.09.09v2.14a2.1,2.1,0,0,0,.52.61,1.33,1.33,0,0,0,.73.17.91.91,0,0,0,.84-.41,2.35,2.35,0,0,0,.25-1.21"/><path class="cls-22" d="M25.09,32.1a2,2,0,0,0,.06.71l.09.09.16.12.13.1-.4.58L25,33.6a.86.86,0,0,1-.16-.13l-.13-.13a.76.76,0,0,1-.12-.19,1,1,0,0,1-.08-.26,3.85,3.85,0,0,1-.31.29l-.38.24a1.61,1.61,0,0,1-.52.2,3,3,0,0,1-.63.07,1.41,1.41,0,0,1-1-.45,1.44,1.44,0,0,1-.44-1.05,1.56,1.56,0,0,1,.12-.59,1.46,1.46,0,0,1,.32-.52,1.94,1.94,0,0,1,.69-.46,2.47,2.47,0,0,1,.84-.13,2.37,2.37,0,0,1,1.19.25,1.55,1.55,0,0,0-.28-1,1.06,1.06,0,0,0-.89-.34,1.59,1.59,0,0,0-.8.17,1.77,1.77,0,0,0-.57.68l-.63-.4a2,2,0,0,1,.82-.91,2.35,2.35,0,0,1,1.17-.27,1.94,1.94,0,0,1,1.41.51,1.76,1.76,0,0,1,.54,1.34Zm-3.16,0a.84.84,0,0,0,.19.59.69.69,0,0,0,.53.21,2,2,0,0,0,.56-.08,1.81,1.81,0,0,0,.44-.2A1.92,1.92,0,0,0,24,32.4l.23-.25a1.4,1.4,0,0,0,.12-.18v-.46a2.13,2.13,0,0,0-1.15-.31,1.5,1.5,0,0,0-.88.26.8.8,0,0,0-.36.68"/><path class="cls-22" d="M29.69,28.65a.64.64,0,0,1,.43.15.81.81,0,0,1,.26.38,2.93,2.93,0,0,1,.11.45,3,3,0,0,1,0,.42V32.6a.43.43,0,0,0,.14.31,1,1,0,0,0,.31.2l-.29.65a.94.94,0,0,1-.28-.1,1.41,1.41,0,0,1-.27-.18,1.11,1.11,0,0,1-.21-.32,1.19,1.19,0,0,1-.08-.44h0V29.88c0-.32-.1-.49-.31-.49s-.52.3-.79.89v3.38h-.69V29.72a.66.66,0,0,0,0-.15.25.25,0,0,0-.07-.12.2.2,0,0,0-.16-.06.71.71,0,0,0-.43.22,2.21,2.21,0,0,0-.44.67v3.38h-.69v-4a2.77,2.77,0,0,0-.15-.94l.73-.2a1.43,1.43,0,0,1,.1.38,2.92,2.92,0,0,1,0,.45,1.76,1.76,0,0,1,.47-.51.92.92,0,0,1,.54-.21.71.71,0,0,1,.55.22.76.76,0,0,1,.2.5,1.15,1.15,0,0,1,1-.72"/><text class="cls-23" transform="translate(7.82 12)">A</text></g><text class="cls-23" transform="translate(7.82 140.47)">B</text><text class="cls-24" transform="translate(30.32 149.07)">Model</text><text class="cls-24" transform="translate(21.98 161.07)">Species<tspan class="cls-25" x="35.58" y="0"> </tspan><tspan x="37.81" y="0">A</tspan></text><text class="cls-24" transform="translate(11.15 173.07)">transcriptomes</text><text class="cls-26" transform="translate(19.48 220.29)">Non-model</text><text class="cls-26" transform="translate(21.42 232.29)">Species B</text><text class="cls-26" transform="translate(11.14 244.29)">transcriptomes</text><text class="cls-6" transform="translate(183.17 56.8)">Reduced </text><text class="cls-6" transform="translate(183.17 68.8)">amino acid </text><text class="cls-6" transform="translate(183.17 80.8)">alphabet</text><g class="cls-13"><polygon class="cls-20" points="172.74 30.3 178.28 30.3 177.67 28.86 182.74 31 177.67 33.13 178.28 31.69 172.74 31.69 172.74 30.3"/><path class="cls-27" d="M207.23,171.32a2.51,2.51,0,1,1-2.51-2.5,2.51,2.51,0,0,1,2.51,2.5"/><path class="cls-27" d="M218.11,173.83a2.51,2.51,0,1,1-2.51-2.51,2.51,2.51,0,0,1,2.51,2.51"/><path class="cls-27" d="M218.11,166.31a2.51,2.51,0,1,1-2.51-2.51,2.51,2.51,0,0,1,2.51,2.51"/><path class="cls-27" d="M212.67,178.85a2.51,2.51,0,1,1-2.51-2.51,2.51,2.51,0,0,1,2.51,2.51"/><path class="cls-27" d="M205.15,176.36a2.51,2.51,0,1,1-2.51-2.51,2.52,2.52,0,0,1,2.51,2.51"/><path class="cls-27" d="M212.67,171.32a2.51,2.51,0,1,1-2.51-2.5,2.51,2.51,0,0,1,2.51,2.5"/><path class="cls-27" d="M209.74,163.8a2.51,2.51,0,1,1-2.51-2.51,2.51,2.51,0,0,1,2.51,2.51"/><path class="cls-27" d="M202.64,168.82a2.51,2.51,0,1,1-2.51-2.51,2.51,2.51,0,0,1,2.51,2.51"/><path class="cls-27" d="M248.94,172.8a2.51,2.51,0,1,1,3.55,0,2.5,2.5,0,0,1-3.55,0"/><path class="cls-27" d="M239.47,178.73a2.51,2.51,0,1,1,3.55,0,2.51,2.51,0,0,1-3.55,0"/><path class="cls-27" d="M244.79,184.05a2.51,2.51,0,1,1,3.55,0,2.51,2.51,0,0,1-3.55,0"/><path class="cls-28" d="M239.77,171.33a2.51,2.51,0,1,1,3.55,0,2.51,2.51,0,0,1-3.55,0"/><path class="cls-27" d="M246.85,167.77a2.51,2.51,0,1,1,3.55,0,2.51,2.51,0,0,1-3.55,0"/><path class="cls-27" d="M245.09,176.65a2.51,2.51,0,1,1,3.55,0,2.51,2.51,0,0,1-3.55,0"/><path class="cls-28" d="M249.63,179.9a2.51,2.51,0,1,1,3.55,0,2.51,2.51,0,0,1-3.55,0"/><path class="cls-27" d="M254,171.33a2.51,2.51,0,1,1,3.55,0,2.51,2.51,0,0,1-3.55,0"/><path class="cls-28" d="M224.57,193.82a2.51,2.51,0,1,1,2.51,2.51,2.51,2.51,0,0,1-2.51-2.51"/><path class="cls-28" d="M213.69,191.31a2.51,2.51,0,1,1,2.51,2.51,2.51,2.51,0,0,1-2.51-2.51"/><path class="cls-28" d="M213.69,198.84a2.51,2.51,0,1,1,2.51,2.51,2.51,2.51,0,0,1-2.51-2.51"/><path class="cls-27" d="M219.13,186.3a2.51,2.51,0,1,1,2.51,2.5,2.51,2.51,0,0,1-2.51-2.5"/><path class="cls-28" d="M226.66,188.78a2.51,2.51,0,1,1,2.5,2.51,2.5,2.5,0,0,1-2.5-2.51"/><path class="cls-27" d="M219.13,193.82a2.51,2.51,0,1,1,2.51,2.51,2.51,2.51,0,0,1-2.51-2.51"/><path class="cls-27" d="M222.06,201.35a2.51,2.51,0,1,1,2.51,2.5,2.51,2.51,0,0,1-2.51-2.5"/><path class="cls-27" d="M229.16,196.33a2.51,2.51,0,1,1,2.51,2.51,2.51,2.51,0,0,1-2.51-2.51"/><path class="cls-27" d="M232.4,191.31a2.51,2.51,0,1,1,2.51,2.51,2.52,2.52,0,0,1-2.51-2.51"/><path class="cls-27" d="M203.09,213.33a2.51,2.51,0,1,1,3.55,0,2.51,2.51,0,0,1-3.55,0"/><path class="cls-28" d="M193.62,219.25a2.51,2.51,0,1,1,3.55,0,2.5,2.5,0,0,1-3.55,0"/><path class="cls-27" d="M198.94,224.57a2.51,2.51,0,1,1,3.55,0,2.5,2.5,0,0,1-3.55,0"/><path class="cls-28" d="M193.92,211.86a2.51,2.51,0,1,1,3.55,0,2.51,2.51,0,0,1-3.55,0"/><path class="cls-27" d="M199.24,217.18a2.51,2.51,0,1,1,3.55,0,2.51,2.51,0,0,1-3.55,0"/><path class="cls-27" d="M206.64,220.43a2.51,2.51,0,1,1,3.54,0,2.51,2.51,0,0,1-3.54,0"/><path class="cls-27" d="M208.11,211.86a2.51,2.51,0,1,1,3.55,0,2.51,2.51,0,0,1-3.55,0"/><path class="cls-28" d="M227.82,225.75a2.5,2.5,0,1,1,3.54,0,2.5,2.5,0,0,1-3.54,0"/><path class="cls-28" d="M233.14,231.07a2.5,2.5,0,1,1,3.54,0,2.5,2.5,0,0,1-3.54,0"/><path class="cls-28" d="M228.12,218.36a2.51,2.51,0,1,1,3.54,0,2.51,2.51,0,0,1-3.54,0"/><path class="cls-28" d="M235.2,214.8a2.51,2.51,0,1,1,3.55,0,2.51,2.51,0,0,1-3.55,0"/><path class="cls-28" d="M233.44,223.68a2.51,2.51,0,1,1,3.54,0,2.51,2.51,0,0,1-3.54,0"/><path class="cls-28" d="M240.83,226.92a2.51,2.51,0,1,1,3.55,0,2.5,2.5,0,0,1-3.55,0"/><path class="cls-14" d="M239.19,193.71a15,15,0,1,1-15-15A15,15,0,0,1,239.19,193.71Z"/><path class="cls-27" d="M95,158.67a2.51,2.51,0,1,1-2.51-2.5,2.51,2.51,0,0,1,2.51,2.5"/><path class="cls-27" d="M100.4,166.2a2.51,2.51,0,1,1-2.51-2.51,2.51,2.51,0,0,1,2.51,2.51"/><path class="cls-27" d="M92.88,163.71a2.51,2.51,0,1,1-2.51-2.51,2.52,2.52,0,0,1,2.51,2.51"/><path class="cls-27" d="M100.4,158.67a2.51,2.51,0,1,1-2.51-2.5,2.51,2.51,0,0,1,2.51,2.5"/><path class="cls-27" d="M97.47,152.27A2.51,2.51,0,1,1,95,149.76a2.51,2.51,0,0,1,2.51,2.51"/><path class="cls-27" d="M90.37,156.17a2.51,2.51,0,1,1-2.51-2.51,2.5,2.5,0,0,1,2.51,2.51"/><path class="cls-28" d="M84.59,234.88a2.51,2.51,0,1,1,3.55,0,2.52,2.52,0,0,1-3.55,0"/><path class="cls-28" d="M89.92,240.2a2.5,2.5,0,1,1,3.54,0,2.5,2.5,0,0,1-3.54,0"/><path class="cls-28" d="M90.22,232.81a2.51,2.51,0,1,1,3.54,0,2.51,2.51,0,0,1-3.54,0"/><path class="cls-28" d="M97.61,236.05a2.51,2.51,0,1,1,3.55,0,2.5,2.5,0,0,1-3.55,0"/></g><text class="cls-6" transform="translate(87.24 259.84)">Represent each </text><text class="cls-6" transform="translate(87.24 271.84)">transcriptome as sets </text><text class="cls-6" transform="translate(87.24 283.84)">of amino acid k-mers</text><text class="cls-6" transform="translate(201.65 261.02)">Cluster on </text><text class="cls-6" transform="translate(201.65 273.02)">k-mer </text><text class="cls-6" transform="translate(201.65 285.02)">similarity</text><g class="cls-13"><circle class="cls-29" cx="150.83" cy="159.23" r="5.21" transform="translate(-38.8 269.45) rotate(-76.72)"/><circle class="cls-29" cx="162.14" cy="174.87" r="5.21" transform="translate(-45.3 292.49) rotate(-76.72)"/><circle class="cls-29" cx="146.51" cy="169.69" r="5.21" transform="translate(-52.31 273.29) rotate(-76.72)"/><circle class="cls-29" cx="162.14" cy="159.23" r="5.21" transform="translate(-30.09 280.45) rotate(-76.72)"/><circle class="cls-29" cx="156.04" cy="143.6" r="5.21" transform="translate(-19.57 262.48) rotate(-76.72)"/><circle class="cls-29" cx="141.29" cy="154.02" r="5.21" transform="translate(-41.07 256.15) rotate(-76.72)"/><line class="cls-30" x1="153.24" y1="142.87" x2="155.33" y2="142.87"/><line class="cls-30" x1="156.76" y1="143.63" x2="158.85" y2="143.63"/><line class="cls-30" x1="153.24" y1="144.68" x2="155.33" y2="144.68"/><line class="cls-30" x1="156.34" y1="145.94" x2="158.44" y2="145.94"/><line class="cls-30" x1="155.3" y1="141.26" x2="157.39" y2="141.26"/><line class="cls-30" x1="150.19" y1="162.02" x2="152.28" y2="162.02"/><line class="cls-30" x1="148.97" y1="156.45" x2="151.06" y2="156.45"/><line class="cls-30" x1="148.09" y1="160.03" x2="150.19" y2="160.03"/><line class="cls-30" x1="151.81" y1="157.62" x2="153.9" y2="157.62"/><line class="cls-30" x1="147.76" y1="158.25" x2="149.86" y2="158.25"/><line class="cls-30" x1="151.81" y1="159.43" x2="153.9" y2="159.43"/><line class="cls-30" x1="160.74" y1="156.36" x2="162.83" y2="156.36"/><line class="cls-30" x1="159.69" y1="158.48" x2="161.78" y2="158.48"/><line class="cls-30" x1="163.11" y1="157.89" x2="165.2" y2="157.89"/><line class="cls-30" x1="159.07" y1="159.91" x2="161.17" y2="159.91"/><line class="cls-30" x1="162.9" y1="159.91" x2="164.99" y2="159.91"/><line class="cls-30" x1="162.9" y1="161.37" x2="164.99" y2="161.37"/><line class="cls-30" x1="159.88" y1="162.11" x2="161.97" y2="162.11"/><line class="cls-30" x1="140.36" y1="151.33" x2="142.45" y2="151.33"/><line class="cls-30" x1="138.12" y1="152.83" x2="140.21" y2="152.83"/><line class="cls-30" x1="142.38" y1="153.13" x2="144.47" y2="153.13"/><line class="cls-30" x1="138.47" y1="154.68" x2="140.56" y2="154.68"/><line class="cls-30" x1="142.17" y1="155.69" x2="144.26" y2="155.69"/><line class="cls-30" x1="139.31" y1="156.72" x2="141.4" y2="156.72"/><line class="cls-30" x1="147.15" y1="166.91" x2="145.06" y2="166.91"/><line class="cls-30" x1="148.37" y1="172.48" x2="146.28" y2="172.48"/><line class="cls-30" x1="149.24" y1="168.9" x2="147.15" y2="168.9"/><line class="cls-30" x1="145.53" y1="171.31" x2="143.44" y2="171.31"/><line class="cls-30" x1="149.57" y1="170.68" x2="147.48" y2="170.68"/><line class="cls-30" x1="145.53" y1="169.49" x2="143.44" y2="169.49"/><line class="cls-30" x1="162.78" y1="172.09" x2="160.69" y2="172.09"/><line class="cls-30" x1="164" y1="177.65" x2="161.91" y2="177.65"/><line class="cls-30" x1="164.88" y1="174.07" x2="162.78" y2="174.07"/><line class="cls-30" x1="161.16" y1="176.48" x2="159.07" y2="176.48"/><line class="cls-30" x1="165.21" y1="175.85" x2="163.12" y2="175.85"/><line class="cls-30" x1="161.16" y1="174.67" x2="159.07" y2="174.67"/><path class="cls-31" d="M134.51,235a5.21,5.21,0,1,1,7.37,0A5.2,5.2,0,0,1,134.51,235Z"/><path class="cls-31" d="M145.56,246.1a5.21,5.21,0,1,1,7.37,0A5.22,5.22,0,0,1,145.56,246.1Z"/><path class="cls-31" d="M146.19,230.73a5.21,5.21,0,1,1,7.37,0A5.2,5.2,0,0,1,146.19,230.73Z"/><path class="cls-31" d="M161.55,237.48a5.21,5.21,0,1,1,7.37,0A5.22,5.22,0,0,1,161.55,237.48Z"/><line class="cls-32" x1="147.07" y1="226.32" x2="149.16" y2="226.32"/><line class="cls-32" x1="150.58" y1="227.08" x2="152.68" y2="227.08"/><line class="cls-32" x1="147.07" y1="228.13" x2="149.16" y2="228.13"/><line class="cls-32" x1="150.17" y1="229.39" x2="152.27" y2="229.39"/><line class="cls-32" x1="149.13" y1="224.71" x2="151.22" y2="224.71"/><line class="cls-32" x1="137.26" y1="228.66" x2="139.35" y2="228.66"/><line class="cls-32" x1="135.02" y1="230.16" x2="137.11" y2="230.16"/><line class="cls-32" x1="139.28" y1="230.46" x2="141.37" y2="230.46"/><line class="cls-32" x1="135.37" y1="232.01" x2="137.46" y2="232.01"/><line class="cls-32" x1="139.07" y1="233.03" x2="141.16" y2="233.03"/><line class="cls-32" x1="136.21" y1="234.05" x2="138.3" y2="234.05"/><line class="cls-32" x1="149.89" y1="239.63" x2="147.8" y2="239.63"/><line class="cls-32" x1="151.11" y1="245.2" x2="149.02" y2="245.2"/><line class="cls-32" x1="151.99" y1="241.62" x2="149.89" y2="241.62"/><line class="cls-32" x1="148.27" y1="244.03" x2="146.18" y2="244.03"/><line class="cls-32" x1="152.32" y1="243.4" x2="150.23" y2="243.4"/><line class="cls-32" x1="148.27" y1="242.21" x2="146.18" y2="242.21"/><line class="cls-32" x1="165.88" y1="231.01" x2="163.79" y2="231.01"/><line class="cls-32" x1="167.1" y1="236.58" x2="165.01" y2="236.58"/><line class="cls-32" x1="167.98" y1="233" x2="165.88" y2="233"/><line class="cls-32" x1="164.26" y1="235.41" x2="162.17" y2="235.41"/><line class="cls-32" x1="168.31" y1="234.78" x2="166.21" y2="234.78"/><line class="cls-32" x1="164.26" y1="233.59" x2="162.17" y2="233.59"/><polygon class="cls-20" points="112.84 158.54 118.39 158.54 117.77 157.1 122.84 159.23 117.77 161.37 118.39 159.93 112.84 159.93 112.84 158.54"/><polygon class="cls-20" points="112.84 234.04 118.39 234.04 117.77 232.59 122.84 234.73 117.77 236.87 118.39 235.43 112.84 235.43 112.84 234.04"/><polygon class="cls-20" points="177.95 164.18 181.87 168.1 182.46 166.65 184.53 171.74 179.44 169.67 180.89 169.08 176.97 165.16 177.95 164.18"/><polygon class="cls-20" points="176.97 228.35 180.89 224.43 179.44 223.84 184.53 221.77 182.46 226.87 181.87 225.41 177.95 229.34 176.97 228.35"/></g><text class="cls-6" transform="translate(281.34 262.44)">k-mers </text><text class="cls-6" transform="translate(281.34 274.44)">enriched </text><text class="cls-6" transform="translate(281.34 286.44)">in clusters</text><g class="cls-13"><line class="cls-33" x1="332.42" y1="180.08" x2="351.76" y2="180.08"/><line class="cls-33" x1="332.42" y1="171.3" x2="351.76" y2="171.3"/><line class="cls-33" x1="332.42" y1="165.45" x2="351.76" y2="165.45"/><line class="cls-33" x1="332.42" y1="162.52" x2="351.76" y2="162.52"/><line class="cls-33" x1="332.42" y1="159.6" x2="351.76" y2="159.6"/><line class="cls-33" x1="332.42" y1="156.67" x2="351.76" y2="156.67"/><line class="cls-33" x1="332.42" y1="153.75" x2="351.76" y2="153.75"/><line class="cls-33" x1="332.42" y1="174.23" x2="351.76" y2="174.23"/><line class="cls-33" x1="332.42" y1="177.15" x2="351.76" y2="177.15"/><line class="cls-33" x1="332.42" y1="168.38" x2="351.76" y2="168.38"/><line class="cls-17" x1="335.42" y1="180.08" x2="341.42" y2="180.08"/><line class="cls-17" x1="332.42" y1="171.3" x2="338.42" y2="171.3"/><line class="cls-17" x1="344.42" y1="153.75" x2="350.42" y2="153.75"/><line class="cls-17" x1="345.42" y1="168.38" x2="351.42" y2="168.38"/></g><text class="cls-6" transform="translate(332.42 262.44)">Get amino </text><text class="cls-6" transform="translate(332.42 274.44)">acid</text><text class="cls-6" transform="translate(350.76 274.44)"> </text><text class="cls-6" transform="translate(353.74 274.44)">sequence </text><text class="cls-6" transform="translate(332.42 286.44)">from reads </text><text class="cls-6" transform="translate(332.42 298.44)">with enriched </text><g class="cls-13"><text class="cls-6" transform="translate(332.42 310.44)">k-mers</text><polygon class="cls-20" points="363.99 164.59 369.53 164.59 368.92 163.15 373.99 165.29 368.92 167.43 369.53 165.98 363.99 165.98 363.99 164.59"/><polygon class="cls-20" points="308.33 224.82 312.25 228.74 312.84 227.29 314.91 232.38 309.82 230.31 311.27 229.72 307.35 225.8 308.33 224.82"/><polygon class="cls-20" points="311.7 178.9 315.63 174.97 314.17 174.39 319.26 172.32 317.19 177.41 316.61 175.96 312.69 179.88 311.7 178.9"/><line class="cls-15" x1="281.64" y1="209.51" x2="287.64" y2="209.51"/><line class="cls-15" x1="278.64" y1="200.73" x2="284.64" y2="200.73"/><line class="cls-15" x1="290.64" y1="183.18" x2="296.64" y2="183.18"/><line class="cls-15" x1="291.64" y1="197.81" x2="297.64" y2="197.81"/><line class="cls-34" x1="333.65" y1="246.19" x2="352.98" y2="246.19"/><line class="cls-34" x1="333.65" y1="237.41" x2="352.98" y2="237.41"/><line class="cls-34" x1="333.65" y1="231.56" x2="352.98" y2="231.56"/><line class="cls-34" x1="333.65" y1="228.64" x2="352.98" y2="228.64"/><line class="cls-34" x1="333.65" y1="225.71" x2="352.98" y2="225.71"/><line class="cls-34" x1="333.65" y1="222.78" x2="352.98" y2="222.78"/><line class="cls-34" x1="333.65" y1="219.86" x2="352.98" y2="219.86"/><line class="cls-34" x1="333.65" y1="240.34" x2="352.98" y2="240.34"/><line class="cls-34" x1="333.65" y1="243.27" x2="352.98" y2="243.27"/><line class="cls-34" x1="333.65" y1="234.49" x2="352.98" y2="234.49"/><line class="cls-17" x1="349.65" y1="219.86" x2="343.65" y2="219.86"/><line class="cls-17" x1="352.65" y1="228.64" x2="346.65" y2="228.64"/><line class="cls-17" x1="340.65" y1="246.19" x2="334.65" y2="246.19"/><line class="cls-17" x1="339.65" y1="231.56" x2="333.65" y2="231.56"/><polygon class="cls-20" points="259.12 200.01 264.66 200.01 264.05 198.56 269.12 200.7 264.05 202.84 264.66 201.4 259.12 201.4 259.12 200.01"/><polygon class="cls-20" points="363.99 231.32 369.53 231.32 368.92 229.88 373.99 232.01 368.92 234.15 369.53 232.71 363.99 232.71 363.99 231.32"/></g><text class="cls-6" transform="translate(413.22 262.44)">Putative orthologous </text><text class="cls-6" transform="translate(413.22 274.44)">protein-coding genes</text><g class="cls-13"><line class="cls-33" x1="427.77" y1="191.92" x2="447.1" y2="191.92"/><line class="cls-34" x1="427.77" y1="193.59" x2="447.1" y2="193.59"/><line class="cls-33" x1="427.77" y1="212.58" x2="447.1" y2="212.58"/><line class="cls-34" x1="427.77" y1="214.24" x2="447.1" y2="214.24"/><line class="cls-12" x1="199.13" y1="43.95" x2="218.46" y2="43.95"/><line class="cls-12" x1="199.13" y1="35.17" x2="218.46" y2="35.17"/><line class="cls-12" x1="199.13" y1="29.32" x2="218.46" y2="29.32"/><line class="cls-12" x1="199.13" y1="26.39" x2="218.46" y2="26.39"/><line class="cls-12" x1="199.13" y1="23.47" x2="218.46" y2="23.47"/><line class="cls-12" x1="199.13" y1="20.54" x2="218.46" y2="20.54"/><line class="cls-12" x1="199.13" y1="17.61" x2="218.46" y2="17.61"/><line class="cls-12" x1="199.13" y1="38.09" x2="218.46" y2="38.09"/><line class="cls-12" x1="199.13" y1="41.02" x2="218.46" y2="41.02"/><line class="cls-12" x1="199.13" y1="32.24" x2="218.46" y2="32.24"/></g><polyline class="cls-2" points="553.19 115.65 553.19 116.65 552.19 116.65"/><line class="cls-35" x1="550.17" y1="116.65" x2="425.89" y2="116.65"/><polyline class="cls-2" points="424.88 116.65 423.88 116.65 423.88 115.65"/><line class="cls-4" x1="423.88" y1="113.66" x2="423.88" y2="3.42"/><polyline class="cls-2" points="423.88 2.43 423.88 1.43 424.88 1.43"/><line class="cls-35" x1="426.9" y1="1.43" x2="551.18" y2="1.43"/><polyline class="cls-2" points="552.19 1.43 553.19 1.43 553.19 2.43"/><line class="cls-4" x1="553.19" y1="4.42" x2="553.19" y2="114.66"/><text class="cls-36" transform="translate(291.87 9.18)">nf-core/kmermaid</text><text class="cls-36" transform="translate(425.61 9.18)">czbiohub/nf-predictorthologs</text><text class="cls-37" transform="translate(374.94 111.62)">Manual</text></svg>