<svg id="Layer_1" data-name="Layer 1" xmlns="http://www.w3.org/2000/svg" viewBox="0 0 610 180"><defs><style>.cls-1,.cls-10,.cls-11,.cls-18,.cls-19,.cls-20,.cls-23,.cls-27,.cls-28,.cls-29,.cls-30,.cls-4,.cls-5,.cls-6,.cls-7,.cls-8,.cls-9{fill:none;stroke-miterlimit:10;}.cls-1,.cls-19,.cls-27{stroke:#000;}.cls-1,.cls-19,.cls-27,.cls-29{stroke-linecap:round;}.cls-1{stroke-width:0.75px;}.cls-2{font-size:10px;}.cls-13,.cls-2,.cls-3,.cls-31{fill:#231f20;}.cls-13,.cls-2{font-family:ArialMT, Arial;}.cls-4,.cls-5{stroke:#fbb885;}.cls-10,.cls-11,.cls-20,.cls-23,.cls-28,.cls-4,.cls-5,.cls-6,.cls-7,.cls-8,.cls-9{stroke-linecap:square;}.cls-10,.cls-11,.cls-20,.cls-23,.cls-4,.cls-5,.cls-6,.cls-7,.cls-8,.cls-9{stroke-width:3px;}.cls-11,.cls-5,.cls-7,.cls-9{stroke-dasharray:1.02 5.09;}.cls-6,.cls-7{stroke:#6fa58c;}.cls-8,.cls-9{stroke:#c1e4d5;}.cls-10,.cls-11{stroke:#fedfc0;}.cls-12{font-family:Arial-ItalicMT, Arial;font-style:italic;}.cls-13,.cls-31{font-size:8px;}.cls-14{letter-spacing:-0.04em;}.cls-15{fill:#2b3990;}.cls-16{fill:#fbb885;}.cls-17{fill:#fedfc0;}.cls-18{stroke:#fff;}.cls-18,.cls-27,.cls-28{stroke-width:0.5px;}.cls-20{stroke:#64c298;}.cls-21{fill:#64c298;}.cls-22{fill:#c1e4d5;}.cls-23{stroke:#c69f80;}.cls-24{fill:#c69f80;}.cls-25{fill:#6fa58c;}.cls-26{fill:#be1e2d;}.cls-28{stroke:#a7a9ac;}.cls-29,.cls-30{stroke:#939598;}.cls-29{stroke-width:2px;}.cls-30{stroke-width:0.25px;}.cls-31{font-family:ZapfDingbatsITC, Zapf Dingbats;}</style></defs><title>sencha_translate</title><line class="cls-1" x1="12.7" y1="66.79" x2="27.32" y2="66.79"/><line class="cls-1" x1="7.73" y1="70.58" x2="22.36" y2="70.58"/><line class="cls-1" x1="24.41" y1="68.84" x2="39.04" y2="68.84"/><line class="cls-1" x1="8.4" y1="74.38" x2="23.02" y2="74.38"/><line class="cls-1" x1="25.4" y1="72.4" x2="40.03" y2="72.4"/><line class="cls-1" x1="11.55" y1="78.84" x2="26.17" y2="78.84"/><line class="cls-1" x1="26.17" y1="76.53" x2="40.8" y2="76.53"/><line class="cls-1" x1="17.1" y1="82.26" x2="31.73" y2="82.26"/><line class="cls-1" x1="31.73" y1="80.66" x2="46.35" y2="80.66"/><line class="cls-1" x1="28.03" y1="85.37" x2="42.66" y2="85.37"/><line class="cls-1" x1="33.48" y1="66.16" x2="48.11" y2="66.16"/><line class="cls-1" x1="4.24" y1="84.79" x2="18.86" y2="84.79"/><text class="cls-2" transform="translate(76.23 14.18)">For each read, do <tspan x="0" y="12">six-frame translation</tspan></text><text class="cls-2" transform="translate(179.8 14.18)">Discard reading frames <tspan x="0" y="12">with stop codons</tspan></text><polygon class="cls-3" points="58.59 73.89 70.37 73.89 69.07 68.89 79.84 76.3 69.07 83.71 70.37 78.71 58.59 78.71 58.59 73.89"/><path class="cls-4" d="M311.12,48.61l.5,0"/><path class="cls-5" d="M315.85,51.18c2.39,3,3.81,7.43,8.09,7.43,6.42,0,6.42-10,12.84-10s6.41,10,12.83,10,6.41-10,12.83-10c5.28,0,6.22,6.76,9.95,9.16"/><path class="cls-4" d="M374.78,58.59l.5,0"/><path class="cls-6" d="M311.12,108.81l.5,0"/><path class="cls-7" d="M315.85,111.38c2.39,3,3.81,7.43,8.09,7.43,6.42,0,6.42-10,12.84-10s6.41,10,12.83,10,6.41-10,12.83-10c5.28,0,6.22,6.76,9.95,9.16"/><path class="cls-6" d="M374.78,118.79l.5,0"/><path class="cls-8" d="M311.12,84.81l.5,0"/><path class="cls-9" d="M315.85,87.38c2.39,3,3.81,7.43,8.09,7.43,6.42,0,6.42-10,12.84-10s6.41,10,12.83,10,6.41-10,12.83-10c5.28,0,6.22,6.76,9.95,9.16"/><path class="cls-8" d="M374.78,94.79l.5,0"/><path class="cls-10" d="M311.12,60.71l.5,0"/><path class="cls-11" d="M315.85,63.28c2.39,3,3.81,7.43,8.09,7.43,6.42,0,6.42-10,12.84-10s6.41,10,12.83,10,6.41-10,12.83-10c5.28,0,6.22,6.76,9.95,9.16"/><path class="cls-10" d="M374.78,70.69l.5,0"/><text class="cls-2" transform="translate(307.83 14.18)">Decompose into <tspan x="0" y="12">amino acid </tspan><tspan class="cls-12" x="51.14" y="12">k</tspan><tspan x="56.14" y="12">-mers</tspan></text><text class="cls-2" transform="translate(3.66 43.3)">Input reads</text><text class="cls-13" transform="translate(85.91 132.57)"><tspan class="cls-14">T</tspan><tspan x="4.59" y="0">ranslated protein </tspan><tspan x="12.74" y="9.6">sequences</tspan></text><path class="cls-15" d="M420.86,48.8l-1.5-.13h-1.87v-3H419q.33,0,.63,0l1.5.12Z"/><path class="cls-15" d="M431.2,58.79l-.36-3,1.49-.18a3.11,3.11,0,0,0,.7-.16l1.43-.46.93,2.85-1.43.47a7.55,7.55,0,0,1-1.27.28Z"/><path class="cls-16" d="M456.36,58.74,455,58.19a6,6,0,0,1-1.16-.59l-1.27-.81,1.62-2.53,1.26.81a3.53,3.53,0,0,0,.64.33l1.4.55Z"/><path class="cls-15" d="M459.93,58.39l-1.63-2.52,1.26-.81a5.19,5.19,0,0,0,.62-.48l1.11-1,2,2.23-1.12,1a9.68,9.68,0,0,1-1,.76Z"/><path class="cls-16" d="M427.92,57.61l-1.07-1c-.28-.27-.54-.56-.8-.86l-.95-1.16,2.3-1.92,1,1.16c.19.22.38.43.58.63L430,55.46Z"/><path class="cls-16" d="M478.08,56.58l-.93-1.17q-.33-.44-.66-.9l-.85-1.23,2.46-1.71L479,52.8c.17.25.36.5.55.74l.93,1.18Z"/><path class="cls-16" d="M437.64,55.72,435.18,54l.85-1.23q.29-.41.54-.81l.82-1.26,2.52,1.64-.82,1.26-.59.88Z"/><polygon class="cls-16" points="450.86 54.6 448.68 51.23 451.2 49.6 453.38 52.98 450.86 54.6"/><path class="cls-15" d="M464.67,53.72l-2.52-1.63.82-1.26c.19-.3.39-.59.59-.88l.85-1.24,2.47,1.7L466,51.65c-.19.27-.36.54-.54.81Z"/><path class="cls-16" d="M424,52.63l-.86-1.22c-.18-.26-.36-.51-.55-.74l-.95-1.17L424,47.62l.94,1.17c.23.28.45.58.67.89l.87,1.22Z"/><path class="cls-15" d="M474.67,51.58l-1-1.14a6.82,6.82,0,0,0-.59-.61l-1.09-1,2.05-2.19,1.1,1a9.53,9.53,0,0,1,.81.86l1,1.14Z"/><path class="cls-15" d="M440.78,50.83l-2-2.2,1.1-1a8.72,8.72,0,0,1,1-.78L442,46l1.69,2.48-1.24.84a4.61,4.61,0,0,0-.61.5Z"/><path class="cls-16" d="M447.91,50l-1.28-.78a3.84,3.84,0,0,0-.65-.31l-1.41-.51,1-2.82,1.41.51a7.93,7.93,0,0,1,1.18.56l1.28.78Z"/><path class="cls-15" d="M467.6,49.38l-1-2.83,1.41-.5a7,7,0,0,1,1.27-.32l1.48-.21.44,3-1.48.22a4,4,0,0,0-.7.17Z"/><path class="cls-16" d="M484.66,58.66h-1.5q-.33,0-.63,0l-1.5-.12.26-3,1.49.12.38,0h1.5Z"/><path class="cls-15" d="M420.86,109l-1.49-.13h-1.88v-3H419l.63,0,1.49.13Z"/><path class="cls-15" d="M431.2,119l-.36-3,1.49-.18a3.11,3.11,0,0,0,.7-.16l1.43-.46.93,2.85-1.43.47a7.55,7.55,0,0,1-1.27.28Z"/><path class="cls-15" d="M456.36,118.94l-1.39-.55a6,6,0,0,1-1.16-.59l-1.27-.81,1.62-2.53,1.26.81a3.53,3.53,0,0,0,.64.33l1.4.55Z"/><path class="cls-15" d="M459.93,118.59l-1.63-2.52,1.26-.81a5.19,5.19,0,0,0,.62-.48l1.11-1,2,2.23-1.12,1a9.68,9.68,0,0,1-1,.76Z"/><path class="cls-15" d="M427.92,117.81l-1.07-1c-.28-.27-.54-.56-.8-.86l-.95-1.16,2.3-1.92,1,1.16c.19.22.38.43.58.63l1.08,1Z"/><path class="cls-15" d="M478.08,116.78l-.93-1.18c-.22-.28-.44-.58-.66-.89l-.85-1.23,2.46-1.71L479,113c.17.25.36.5.55.74l.93,1.18Z"/><path class="cls-15" d="M437.64,115.92l-2.46-1.71L436,113q.29-.41.54-.81l.82-1.26,2.52,1.64-.82,1.26-.59.88Z"/><polygon class="cls-15" points="450.86 114.8 448.68 111.43 451.2 109.8 453.38 113.18 450.86 114.8"/><path class="cls-15" d="M464.67,113.92l-2.52-1.63L463,111c.19-.3.39-.59.59-.88l.85-1.24,2.47,1.7-.85,1.24c-.19.27-.36.54-.54.81Z"/><path class="cls-15" d="M424,112.83l-.86-1.22c-.18-.26-.36-.51-.55-.74l-.95-1.17,2.34-1.88.94,1.17c.23.28.45.58.67.89l.87,1.22Z"/><path class="cls-15" d="M474.67,111.78l-1-1.14c-.19-.22-.38-.42-.59-.62L472,109l2.05-2.19,1.1,1a9.53,9.53,0,0,1,.81.86l1,1.14Z"/><path class="cls-15" d="M440.78,111l-2-2.2,1.1-1a8.72,8.72,0,0,1,1-.78l1.24-.84,1.69,2.48-1.24.84a4.61,4.61,0,0,0-.61.5Z"/><path class="cls-15" d="M447.91,110.17l-1.28-.78a3.84,3.84,0,0,0-.65-.31l-1.41-.51,1-2.82,1.41.51a7.93,7.93,0,0,1,1.18.56l1.28.78Z"/><path class="cls-15" d="M467.6,109.58l-1-2.83,1.41-.5a7,7,0,0,1,1.27-.32l1.48-.21.44,3-1.48.22a4,4,0,0,0-.7.17Z"/><path class="cls-15" d="M484.66,118.86h-1.5q-.33,0-.63,0l-1.5-.12.26-3,1.49.12.38,0h1.5Z"/><path class="cls-15" d="M420.86,85l-1.49-.13h-1.88v-3H419l.63,0,1.49.13Z"/><path class="cls-15" d="M431.2,95l-.36-3,1.49-.18a3.11,3.11,0,0,0,.7-.16l1.43-.46.93,2.85-1.43.47a7.55,7.55,0,0,1-1.27.28Z"/><path class="cls-15" d="M456.36,94.94,455,94.39a6,6,0,0,1-1.16-.59L452.54,93l1.62-2.53,1.26.81a3.53,3.53,0,0,0,.64.33l1.4.55Z"/><path class="cls-15" d="M459.93,94.59l-1.63-2.52,1.26-.81a5.19,5.19,0,0,0,.62-.48l1.11-1,2,2.23-1.12,1a9.68,9.68,0,0,1-1,.76Z"/><path class="cls-15" d="M427.92,93.81l-1.07-1c-.28-.27-.54-.56-.8-.86l-.95-1.16,2.3-1.92,1,1.16c.19.22.38.43.58.63l1.08,1Z"/><path class="cls-15" d="M478.08,92.78l-.93-1.18c-.22-.28-.44-.58-.66-.89l-.85-1.23,2.46-1.71L479,89c.17.25.36.5.55.74l.93,1.18Z"/><path class="cls-15" d="M437.64,91.92l-2.46-1.71L436,89q.29-.41.54-.81l.82-1.26,2.52,1.64-.82,1.26-.59.88Z"/><polygon class="cls-15" points="450.86 90.8 448.68 87.43 451.2 85.8 453.38 89.18 450.86 90.8"/><path class="cls-15" d="M464.67,89.92l-2.52-1.63L463,87c.19-.3.39-.59.59-.88l.85-1.24,2.47,1.7L466,87.85c-.19.27-.36.54-.54.81Z"/><path class="cls-15" d="M424,88.83l-.86-1.22c-.18-.26-.36-.51-.55-.74l-.95-1.17L424,83.82l.94,1.17c.23.28.45.58.67.89l.87,1.22Z"/><path class="cls-15" d="M474.67,87.78l-1-1.14c-.19-.22-.38-.42-.59-.62L472,85l2.05-2.19,1.1,1a9.53,9.53,0,0,1,.81.86l1,1.14Z"/><path class="cls-15" d="M440.78,87l-2-2.2,1.1-1a8.72,8.72,0,0,1,1-.78l1.24-.84,1.69,2.48-1.24.84a4.61,4.61,0,0,0-.61.5Z"/><path class="cls-15" d="M447.91,86.17l-1.28-.78a3.84,3.84,0,0,0-.65-.31l-1.41-.51,1-2.82,1.41.51a7.93,7.93,0,0,1,1.18.56l1.28.78Z"/><path class="cls-15" d="M467.6,85.58l-1-2.83,1.41-.5a7,7,0,0,1,1.27-.32l1.48-.21.44,3-1.48.22a4,4,0,0,0-.7.17Z"/><path class="cls-15" d="M484.66,94.86h-1.5q-.33,0-.63,0l-1.5-.12.26-3,1.49.12.38,0h1.5Z"/><path class="cls-17" d="M420.86,60.9l-1.5-.13h-1.87v-3H419q.33,0,.63,0l1.5.12Z"/><path class="cls-17" d="M431.2,70.89l-.36-3,1.49-.18a3.11,3.11,0,0,0,.7-.16l1.43-.46.93,2.85-1.43.47a7.55,7.55,0,0,1-1.27.28Z"/><path class="cls-17" d="M456.36,70.84,455,70.29a6,6,0,0,1-1.16-.59l-1.27-.81,1.62-2.53,1.26.81a3.53,3.53,0,0,0,.64.33l1.4.55Z"/><path class="cls-15" d="M459.93,70.49,458.3,68l1.26-.81a5.19,5.19,0,0,0,.62-.48l1.11-1,2,2.23-1.12,1a9.68,9.68,0,0,1-1,.76Z"/><path class="cls-17" d="M427.92,69.71l-1.07-1a11.15,11.15,0,0,1-.8-.87l-.95-1.15,2.3-1.92,1,1.16c.19.22.38.43.58.63l1.08,1Z"/><path class="cls-15" d="M478.08,68.68l-.93-1.18c-.22-.28-.44-.58-.66-.89l-.85-1.23,2.46-1.71L479,64.9c.17.25.36.5.55.74l.93,1.18Z"/><path class="cls-17" d="M437.64,67.82l-2.46-1.71.85-1.23q.29-.41.54-.81l.82-1.26,2.52,1.64-.82,1.26-.59.88Z"/><polygon class="cls-15" points="450.86 66.7 448.68 63.33 451.2 61.7 453.38 65.08 450.86 66.7"/><path class="cls-17" d="M464.67,65.82l-2.52-1.63.82-1.26c.19-.3.39-.59.59-.88l.85-1.24,2.47,1.7L466,63.75c-.19.27-.36.54-.54.81Z"/><path class="cls-15" d="M424,64.73l-.86-1.22c-.18-.26-.36-.51-.55-.74l-.95-1.17L424,59.72l.94,1.17c.23.28.45.58.67.89l.87,1.22Z"/><path class="cls-17" d="M474.67,63.68l-1-1.14c-.19-.22-.38-.42-.59-.62l-1.09-1,2.05-2.19,1.1,1a9.53,9.53,0,0,1,.81.86l1,1.14Z"/><path class="cls-17" d="M440.78,62.93l-2-2.2,1.1-1a8.72,8.72,0,0,1,1-.78l1.24-.84,1.69,2.48-1.24.84a4.61,4.61,0,0,0-.61.5Z"/><path class="cls-17" d="M447.91,62.07l-1.28-.78A3.84,3.84,0,0,0,446,61l-1.41-.51,1-2.82,1.41.51a7.93,7.93,0,0,1,1.18.56l1.28.78Z"/><path class="cls-15" d="M467.6,61.48l-1-2.83,1.41-.5a7,7,0,0,1,1.27-.32l1.48-.21.44,3-1.48.22a4,4,0,0,0-.7.17Z"/><path class="cls-17" d="M484.66,70.76h-1.5c-.22,0-.43,0-.64,0L481,70.6l.26-3,1.5.13.37,0h1.5Z"/><path class="cls-15" d="M404.32,149.76c0,.94-4.29,1.7-9.58,1.7s-9.57-.76-9.57-1.7,4.28-1.71,9.57-1.71,9.58.76,9.58,1.71"/><rect class="cls-15" x="385.17" y="128.78" width="19.16" height="20.98"/><path class="cls-15" d="M404.32,128.78c0,.94-4.29,1.71-9.58,1.71s-9.57-.77-9.57-1.71,4.28-1.71,9.57-1.71,9.58.77,9.58,1.71"/><path class="cls-18" d="M404.32,128.78c0,.94-4.29,1.71-9.58,1.71s-9.57-.77-9.57-1.71,4.28-1.71,9.57-1.71S404.32,127.84,404.32,128.78Z"/><line class="cls-19" x1="90.48" y1="76.81" x2="154.48" y2="76.81"/><path class="cls-4" d="M90.32,48.33c6.4,0,6.4,10,12.79,10s6.4-10,12.8-10,6.4,10,12.8,10,6.4-10,12.8-10,6.41,10,12.81,10"/><path class="cls-16" d="M160.11,58.33a28.88,28.88,0,0,0-8.2,4.56l1.65-4.56-1.65-4.57A28.9,28.9,0,0,0,160.11,58.33Z"/><path class="cls-20" d="M90.32,97.1c6.4,0,6.4,10,12.79,10s6.4-10,12.8-10,6.4,10,12.8,10,6.4-10,12.8-10,6.41,10,12.81,10"/><path class="cls-21" d="M84.53,97.1a29.26,29.26,0,0,1,8.2,4.56L91.08,97.1l1.65-4.57A29,29,0,0,1,84.53,97.1Z"/><path class="cls-8" d="M90.32,84.53c6.4,0,6.4,10,12.79,10s6.4-10,12.8-10,6.4,10,12.8,10,6.4-10,12.8-10,6.41,10,12.81,10"/><path class="cls-22" d="M84.53,84.53a29,29,0,0,1,8.2,4.56l-1.65-4.56L92.73,80A29.29,29.29,0,0,1,84.53,84.53Z"/><path class="cls-10" d="M90.32,60.43c6.4,0,6.4,10,12.79,10s6.4-10,12.8-10,6.4,10,12.8,10,6.4-10,12.8-10,6.41,10,12.81,10"/><path class="cls-17" d="M160.11,70.43a28.88,28.88,0,0,0-8.2,4.56l1.65-4.56-1.65-4.57A29.15,29.15,0,0,0,160.11,70.43Z"/><path class="cls-23" d="M90.32,35.34c6.4,0,6.4,10,12.79,10s6.4-10,12.8-10,6.4,10,12.8,10,6.4-10,12.8-10,6.41,10,12.81,10"/><path class="cls-24" d="M160.11,45.34a28.88,28.88,0,0,0-8.2,4.56l1.65-4.56-1.65-4.57A28.9,28.9,0,0,0,160.11,45.34Z"/><path class="cls-6" d="M90.32,109.32c6.4,0,6.4,10,12.79,10s6.4-10,12.8-10,6.4,10,12.8,10,6.4-10,12.8-10,6.41,10,12.81,10"/><path class="cls-25" d="M84.53,109.32a29,29,0,0,1,8.2,4.56l-1.65-4.56,1.65-4.57A29,29,0,0,1,84.53,109.32Z"/><polygon class="cls-26" points="102.14 104.41 101 103.27 101 101.66 102.14 100.53 103.75 100.53 104.88 101.66 104.88 103.27 103.75 104.41 102.14 104.41"/><path d="M103.64,100.78l1,1v1.4l-1,1h-1.4l-1-1v-1.4l1-1h1.4m.21-.5H102l-.14.14-1,1-.15.15v1.81l.15.15,1,1,.14.15h1.82l.15-.15,1-1,.14-.15v-1.81l-.14-.15-1-1-.15-.14Z"/><line class="cls-27" x1="102.94" y1="106.99" x2="102.94" y2="104.34"/><polygon class="cls-26" points="130.13 39.95 128.99 38.81 128.99 37.2 130.13 36.07 131.74 36.07 132.87 37.2 132.87 38.81 131.74 39.95 130.13 39.95"/><path d="M131.63,36.32l1,1v1.4l-1,1h-1.4l-1-1v-1.4l1-1h1.4m.21-.5H130l-.15.14-1,1-.15.15v1.82l.15.14,1,1,.15.15h1.81l.15-.15,1-1,.14-.14V37.1L133,37l-1-1-.15-.14Z"/><line class="cls-27" x1="130.93" y1="42.53" x2="130.93" y2="39.89"/><text class="cls-2" transform="translate(408 14.18)">Check <tspan class="cls-12" x="31.12" y="0">k</tspan><tspan x="36.12" y="0">-mer presence </tspan><tspan x="0" y="12">in reference proteome</tspan></text><polygon class="cls-3" points="404.73 121.39 408.65 117.47 407.2 116.88 412.29 114.81 410.22 119.91 409.63 118.45 405.71 122.37 404.73 121.39"/><text class="cls-13" transform="translate(376.29 162.21)">Reference <tspan x="1.56" y="9.6">proteome</tspan></text><path class="cls-4" d="M196.69,47.82c6.4,0,6.4,10,12.8,10s6.4-10,12.8-10,6.39,10,12.79,10,6.4-10,12.81-10,6.4,10,12.8,10"/><path class="cls-16" d="M266.48,57.82a29.26,29.26,0,0,0-8.2,4.56l1.65-4.56-1.65-4.57A29,29,0,0,0,266.48,57.82Z"/><path class="cls-8" d="M196.69,84c6.4,0,6.4,10,12.8,10s6.4-10,12.8-10,6.39,10,12.79,10,6.4-10,12.81-10,6.4,10,12.8,10"/><path class="cls-22" d="M190.9,84a29.12,29.12,0,0,1,8.2,4.56L197.45,84l1.65-4.57A28.9,28.9,0,0,1,190.9,84Z"/><path class="cls-10" d="M196.69,59.92c6.4,0,6.4,10,12.8,10s6.4-10,12.8-10,6.39,10,12.79,10,6.4-10,12.81-10,6.4,10,12.8,10"/><path class="cls-17" d="M266.48,69.92a29.26,29.26,0,0,0-8.2,4.56l1.65-4.56-1.65-4.57A29,29,0,0,0,266.48,69.92Z"/><path class="cls-6" d="M196.69,108.81c6.4,0,6.4,10,12.8,10s6.4-10,12.8-10,6.39,10,12.79,10,6.4-10,12.81-10,6.4,10,12.8,10"/><path class="cls-25" d="M190.9,108.81a28.9,28.9,0,0,1,8.2,4.57l-1.65-4.57,1.65-4.57A28.9,28.9,0,0,1,190.9,108.81Z"/><line class="cls-19" x1="196.69" y1="76.3" x2="260.69" y2="76.3"/><path class="cls-4" d="M196.69,47.81c6.4,0,6.4,10,12.8,10s6.4-10,12.8-10,6.39,10,12.79,10,6.4-10,12.81-10,6.4,10,12.8,10"/><path class="cls-16" d="M266.48,57.81a29.26,29.26,0,0,0-8.2,4.56l1.65-4.56-1.65-4.57A29,29,0,0,0,266.48,57.81Z"/><path class="cls-28" d="M196.69,96.58c6.4,0,6.4,10,12.8,10s6.4-10,12.8-10,6.39,10,12.79,10,6.4-10,12.81-10,6.4,10,12.8,10"/><path class="cls-8" d="M196.69,84c6.4,0,6.4,10,12.8,10s6.4-10,12.8-10,6.39,10,12.79,10,6.4-10,12.81-10,6.4,10,12.8,10"/><path class="cls-22" d="M190.9,84a29.12,29.12,0,0,1,8.2,4.56L197.45,84l1.65-4.57A28.9,28.9,0,0,1,190.9,84Z"/><path class="cls-10" d="M196.69,59.91c6.4,0,6.4,10,12.8,10s6.4-10,12.8-10,6.39,10,12.79,10,6.4-10,12.81-10,6.4,10,12.8,10"/><path class="cls-17" d="M266.48,69.91a29.26,29.26,0,0,0-8.2,4.56l1.65-4.56-1.65-4.57A29,29,0,0,0,266.48,69.91Z"/><path class="cls-28" d="M196.69,34.82c6.4,0,6.4,10,12.8,10s6.4-10,12.8-10,6.39,10,12.79,10,6.4-10,12.81-10,6.4,10,12.8,10"/><path class="cls-6" d="M196.69,108.8c6.4,0,6.4,10,12.8,10s6.4-10,12.8-10,6.39,10,12.79,10,6.4-10,12.81-10,6.4,10,12.8,10"/><path class="cls-25" d="M190.9,108.8a28.9,28.9,0,0,1,8.2,4.57l-1.65-4.57,1.65-4.56A29.12,29.12,0,0,1,190.9,108.8Z"/><line class="cls-29" x1="262.9" y1="39.83" x2="268.9" y2="45.83"/><line class="cls-29" x1="268.9" y1="39.83" x2="262.9" y2="45.83"/><line class="cls-29" x1="262.9" y1="102.37" x2="268.9" y2="108.37"/><line class="cls-29" x1="268.9" y1="102.37" x2="262.9" y2="108.37"/><polygon class="cls-26" points="209.53 104.04 208.39 102.9 208.39 101.29 209.53 100.16 211.14 100.16 212.27 101.29 212.27 102.9 211.14 104.04 209.53 104.04"/><path d="M211,100.41l1,1v1.4l-1,1h-1.4l-1-1v-1.4l1-1H211m.21-.5h-1.82l-.14.14-1,1-.15.15V103l.15.15,1,1,.14.15h1.82l.15-.15,1-1,.14-.15v-1.81l-.14-.15-1-1-.15-.14Z"/><line class="cls-27" x1="210.33" y1="106.61" x2="210.33" y2="103.97"/><polygon class="cls-26" points="236.5 41.09 235.36 39.95 235.36 38.34 236.5 37.2 238.11 37.2 239.25 38.34 239.25 39.95 238.11 41.09 236.5 41.09"/><path d="M238,37.45l1,1v1.4l-1,1h-1.4l-1-1v-1.4l1-1H238m.21-.5H236.4l-.15.15-1,1-.15.15v1.81l.15.15,1,1,.15.14h1.81l.15-.14,1-1,.14-.15V38.24l-.14-.15-1-1-.15-.15Z"/><line class="cls-27" x1="237.3" y1="43.66" x2="237.3" y2="41.02"/><path class="cls-30" d="M530.23,52.88l-1.49-.13-.37,0h-1.5v-3h1.5q.32,0,.63,0l1.49.13Z"/><path class="cls-30" d="M540.58,62.86l-.36-3,1.49-.18a4.15,4.15,0,0,0,.7-.15l1.43-.47.93,2.86-1.43.46a6.85,6.85,0,0,1-1.27.28Z"/><path class="cls-30" d="M565.74,62.82l-1.4-.55a7.53,7.53,0,0,1-1.16-.6l-1.26-.8,1.61-2.53,1.27.8a3.59,3.59,0,0,0,.64.34l1.4.55Z"/><path class="cls-30" d="M569.3,62.47l-1.62-2.53,1.26-.81a5.9,5.9,0,0,0,.61-.47l1.12-1,2,2.23-1.12,1a7.68,7.68,0,0,1-1,.76Z"/><path class="cls-30" d="M537.3,61.68l-1.08-1c-.27-.27-.54-.56-.79-.86l-1-1.15,2.31-1.92,1,1.15c.18.22.38.44.58.64l1.07,1Z"/><path class="cls-30" d="M587.46,60.66l-.93-1.18c-.23-.29-.45-.59-.66-.89L585,57.36l2.46-1.72.86,1.23c.18.26.36.51.55.75l.93,1.18Z"/><path class="cls-30" d="M547,59.79l-2.47-1.71.86-1.23c.18-.26.36-.54.54-.81l.82-1.26,2.51,1.64-.82,1.26c-.19.3-.39.59-.59.88Z"/><polygon class="cls-30" points="560.23 58.67 558.05 55.3 560.57 53.67 562.75 57.05 560.23 58.67"/><path class="cls-30" d="M574.05,57.79l-2.52-1.63.82-1.26c.19-.29.38-.59.58-.88l.85-1.23,2.47,1.7-.85,1.23-.54.82Z"/><path class="cls-30" d="M533.35,56.71l-.86-1.23c-.18-.25-.37-.5-.56-.74L531,53.57l2.34-1.88.94,1.17c.23.29.45.58.67.89L535.8,55Z"/><path class="cls-30" d="M584,55.66l-1-1.14a6.85,6.85,0,0,0-.58-.62l-1.09-1,2.05-2.19,1.09,1a11.1,11.1,0,0,1,.82.86l1,1.14Z"/><path class="cls-30" d="M550.15,54.9l-2-2.19,1.1-1a7.63,7.63,0,0,1,1-.78l1.24-.85,1.69,2.48-1.24.85a5.24,5.24,0,0,0-.61.49Z"/><path class="cls-30" d="M557.29,54,556,53.27a3.27,3.27,0,0,0-.65-.32l-1.41-.51,1-2.82,1.41.51a7,7,0,0,1,1.17.57l1.29.77Z"/><path class="cls-30" d="M577,53.45l-1-2.82,1.41-.51a6.55,6.55,0,0,1,1.27-.31l1.48-.22.44,3-1.49.22a3.17,3.17,0,0,0-.69.17Z"/><path class="cls-30" d="M594,62.73h-1.5l-.63,0-1.49-.13.25-3,1.5.13H594Z"/><path class="cls-15" d="M530.24,113.07l-1.5-.12-.37,0h-1.5v-3h1.5c.21,0,.42,0,.62,0l1.5.12Z"/><path class="cls-15" d="M540.58,123.06l-.36-3,1.49-.18a4.15,4.15,0,0,0,.7-.15l1.43-.47.93,2.85-1.43.47a6.85,6.85,0,0,1-1.27.28Z"/><path class="cls-15" d="M565.74,123l-1.4-.55a7.53,7.53,0,0,1-1.16-.6l-1.26-.8,1.61-2.53,1.27.8a3,3,0,0,0,.64.33l1.4.56Z"/><path class="cls-15" d="M569.3,122.67l-1.62-2.53,1.26-.81a5.9,5.9,0,0,0,.61-.47l1.12-1,2,2.23-1.12,1a7.68,7.68,0,0,1-1,.76Z"/><path class="cls-15" d="M537.3,121.88l-1.08-1c-.27-.27-.54-.56-.79-.86l-1-1.15,2.31-1.92,1,1.15c.18.22.38.44.58.64l1.07,1Z"/><path class="cls-15" d="M587.46,120.86l-.93-1.18c-.23-.29-.45-.59-.66-.89l-.86-1.23,2.46-1.72.86,1.23c.18.26.36.51.55.75l.93,1.18Z"/><path class="cls-15" d="M547,120l-2.47-1.71.86-1.23c.18-.26.36-.54.54-.81l.82-1.26,2.51,1.64-.82,1.26c-.19.3-.39.59-.59.88Z"/><polygon class="cls-15" points="560.23 118.88 558.05 115.5 560.57 113.87 562.75 117.25 560.23 118.88"/><path class="cls-15" d="M574.05,118l-2.52-1.63.82-1.26c.19-.29.38-.59.58-.88l.85-1.23,2.47,1.7-.85,1.23-.54.82Z"/><path class="cls-15" d="M533.35,116.9l-.86-1.22c-.18-.26-.37-.5-.56-.74l-.94-1.17,2.34-1.88.94,1.17c.23.28.45.58.67.89l.86,1.22Z"/><path class="cls-15" d="M584,115.86l-1-1.15a8.36,8.36,0,0,0-.58-.61l-1.09-1,2.05-2.19,1.09,1a11.1,11.1,0,0,1,.82.86l1,1.14Z"/><path class="cls-15" d="M550.15,115.1l-2-2.19,1.1-1a6.84,6.84,0,0,1,1-.78l1.24-.85,1.69,2.48-1.24.85a5.24,5.24,0,0,0-.61.49Z"/><path class="cls-15" d="M557.29,114.24l-1.29-.77a3.27,3.27,0,0,0-.65-.32l-1.41-.51,1-2.82,1.41.51a7,7,0,0,1,1.17.57l1.29.77Z"/><path class="cls-15" d="M577,113.65l-1-2.82,1.41-.51a6.55,6.55,0,0,1,1.27-.31l1.48-.22.44,3-1.49.22a3.17,3.17,0,0,0-.69.17Z"/><path class="cls-15" d="M594,122.93h-1.5l-.63,0-1.49-.13.25-3,1.5.13H594Z"/><path class="cls-15" d="M530.24,89.07l-1.5-.12-.37,0h-1.5v-3h1.5c.21,0,.42,0,.62,0l1.5.12Z"/><path class="cls-15" d="M540.58,99.06l-.36-3,1.49-.18a4.15,4.15,0,0,0,.7-.15l1.43-.47.93,2.85-1.43.47a6.85,6.85,0,0,1-1.27.28Z"/><path class="cls-15" d="M565.74,99l-1.4-.55a7.53,7.53,0,0,1-1.16-.6l-1.26-.8,1.61-2.53,1.27.8a3,3,0,0,0,.64.33l1.4.56Z"/><path class="cls-15" d="M569.3,98.67l-1.62-2.53,1.26-.81a5.9,5.9,0,0,0,.61-.47l1.12-1,2,2.23-1.12,1a7.68,7.68,0,0,1-1,.76Z"/><path class="cls-15" d="M537.3,97.88l-1.08-1c-.27-.27-.54-.56-.79-.86l-1-1.15,2.31-1.92,1,1.15c.18.22.38.44.58.64l1.07,1Z"/><path class="cls-15" d="M587.46,96.86l-.93-1.18c-.23-.29-.45-.59-.66-.89L585,93.56l2.46-1.72.86,1.23c.18.26.36.51.55.75l.93,1.18Z"/><path class="cls-15" d="M547,96l-2.47-1.71.86-1.23c.18-.26.36-.54.54-.81l.82-1.26,2.51,1.64-.82,1.26c-.19.3-.39.59-.59.88Z"/><polygon class="cls-15" points="560.23 94.88 558.05 91.5 560.57 89.87 562.75 93.25 560.23 94.88"/><path class="cls-15" d="M574.05,94l-2.52-1.63.82-1.26c.19-.29.38-.59.58-.88l.85-1.23,2.47,1.7-.85,1.23-.54.82Z"/><path class="cls-15" d="M533.35,92.9l-.86-1.22c-.18-.26-.37-.5-.56-.74L531,89.77l2.34-1.88.94,1.17c.23.28.45.58.67.89l.86,1.22Z"/><path class="cls-15" d="M584,91.86l-1-1.15a8.36,8.36,0,0,0-.58-.61l-1.09-1,2.05-2.19,1.09,1a11.1,11.1,0,0,1,.82.86l1,1.14Z"/><path class="cls-15" d="M550.15,91.1l-2-2.19,1.1-1a6.84,6.84,0,0,1,1-.78l1.24-.85,1.69,2.48-1.24.85a5.24,5.24,0,0,0-.61.49Z"/><path class="cls-15" d="M557.29,90.24,556,89.47a3.27,3.27,0,0,0-.65-.32l-1.41-.51,1-2.82,1.41.51a7,7,0,0,1,1.17.57l1.29.77Z"/><path class="cls-15" d="M577,89.65l-1-2.82,1.41-.51a6.55,6.55,0,0,1,1.27-.31l1.48-.22.44,3-1.49.22a3.17,3.17,0,0,0-.69.17Z"/><path class="cls-15" d="M594,98.93h-1.5l-.63,0-1.49-.13.25-3,1.5.13H594Z"/><path class="cls-30" d="M530.23,65l-1.49-.13-.37,0h-1.5v-3h1.5q.32,0,.63,0l1.49.13Z"/><path class="cls-30" d="M540.58,75l-.36-3,1.49-.18a4.15,4.15,0,0,0,.7-.15l1.43-.47.93,2.85-1.43.47a6.85,6.85,0,0,1-1.27.28Z"/><path class="cls-30" d="M565.74,74.92l-1.4-.55a7.53,7.53,0,0,1-1.16-.6l-1.26-.8,1.61-2.53,1.27.8a3,3,0,0,0,.64.33l1.4.55Z"/><path class="cls-30" d="M569.3,74.57,567.68,72l1.26-.81a5.9,5.9,0,0,0,.61-.47l1.12-1,2,2.23-1.12,1a7.68,7.68,0,0,1-1,.76Z"/><path class="cls-30" d="M537.3,73.78l-1.08-1c-.27-.27-.54-.56-.79-.86l-1-1.15,2.31-1.92,1,1.15c.18.22.38.44.58.64l1.07,1Z"/><path class="cls-30" d="M587.46,72.76l-.93-1.18c-.23-.29-.45-.59-.66-.89L585,69.46l2.46-1.72.86,1.23c.18.26.36.51.55.75l.93,1.18Z"/><path class="cls-30" d="M547,71.89l-2.47-1.71.86-1.23c.18-.26.36-.54.54-.81l.82-1.26,2.51,1.64-.82,1.26c-.19.3-.39.59-.59.88Z"/><polygon class="cls-30" points="560.23 70.77 558.05 67.4 560.57 65.77 562.75 69.15 560.23 70.77"/><path class="cls-30" d="M574.05,69.89l-2.52-1.63.82-1.26c.19-.29.38-.59.58-.88l.85-1.23,2.47,1.7-.85,1.23-.54.82Z"/><path class="cls-30" d="M533.35,68.8l-.86-1.22c-.18-.26-.37-.5-.56-.74L531,65.67l2.34-1.88.94,1.17c.23.28.45.58.67.89l.86,1.22Z"/><path class="cls-30" d="M584,67.76l-1-1.15a8.36,8.36,0,0,0-.58-.61l-1.09-1,2.05-2.19,1.09,1a11.1,11.1,0,0,1,.82.86l1,1.14Z"/><path class="cls-30" d="M550.15,67l-2-2.19,1.1-1a6.84,6.84,0,0,1,1-.78l1.24-.85,1.69,2.48-1.24.85a5.24,5.24,0,0,0-.61.49Z"/><path class="cls-30" d="M557.29,66.14,556,65.37a3.27,3.27,0,0,0-.65-.32l-1.41-.51,1-2.82,1.41.51a7,7,0,0,1,1.17.57l1.29.77Z"/><path class="cls-30" d="M577,65.55l-1-2.82,1.41-.51a6.55,6.55,0,0,1,1.27-.31l1.48-.22.44,3-1.49.22a3.17,3.17,0,0,0-.69.17Z"/><path class="cls-30" d="M594,74.83h-1.5q-.33,0-.63,0l-1.49-.13.26-3,1.49.13H594Z"/><polygon class="cls-3" points="164.96 73.92 176.75 73.92 175.44 68.92 186.21 76.32 175.44 83.73 176.75 78.73 164.96 78.73 164.96 73.92"/><polygon class="cls-3" points="279.38 76.43 291.17 76.43 289.87 71.43 300.64 78.84 289.87 86.25 291.17 81.25 279.38 81.25 279.38 76.43"/><polygon class="cls-3" points="385.76 78.25 397.55 78.25 396.25 73.25 407.01 80.65 396.25 88.06 397.55 83.06 385.76 83.06 385.76 78.25"/><polygon class="cls-3" points="495.14 81.55 506.92 81.55 505.62 76.55 516.39 83.95 505.62 91.36 506.92 86.36 495.14 86.36 495.14 81.55"/><text class="cls-2" transform="translate(520.01 14.18)">Use reading <tspan x="0" y="12">frames with </tspan><tspan class="cls-12" x="53.9" y="12">k</tspan><tspan x="58.9" y="12">-mer </tspan><tspan x="0" y="24">match to proteome</tspan></text><text class="cls-31" transform="translate(599.57 97.88)">✔</text><text class="cls-31" transform="translate(599.57 123.06)">✔</text><text class="cls-13" transform="translate(518.28 139.27)">Accepted reading frames</text></svg>