<svg id="Layer_1" data-name="Layer 1" xmlns="http://www.w3.org/2000/svg" viewBox="0 0 565.43 850.21"><defs><style>.cls-1,.cls-18,.cls-19,.cls-20,.cls-21,.cls-26,.cls-27,.cls-28,.cls-29{font-size:10px;}.cls-1,.cls-11,.cls-13,.cls-16,.cls-25,.cls-26,.cls-27,.cls-33,.cls-4,.cls-44,.cls-8{fill:#231f20;}.cls-1,.cls-18,.cls-19,.cls-26,.cls-27,.cls-33,.cls-4,.cls-42,.cls-44{font-family:ArialMT, Arial;}.cls-14,.cls-15,.cls-2,.cls-24,.cls-3,.cls-30,.cls-31,.cls-34,.cls-35,.cls-36,.cls-37,.cls-38,.cls-40,.cls-41,.cls-7{fill:none;}.cls-2{stroke:#080505;}.cls-2,.cls-22,.cls-24,.cls-3,.cls-30,.cls-31,.cls-34,.cls-35,.cls-36,.cls-37,.cls-38,.cls-40,.cls-41{stroke-linecap:round;stroke-linejoin:round;}.cls-2,.cls-35,.cls-36,.cls-37,.cls-40{stroke-width:0.25px;}.cls-3{stroke:#662d91;}.cls-11,.cls-33,.cls-4,.cls-42{font-size:8px;}.cls-5{letter-spacing:-0.02em;}.cls-6{fill:#662f90;}.cls-7{stroke:#fff;}.cls-15,.cls-7{stroke-miterlimit:10;}.cls-15,.cls-31,.cls-34,.cls-7{stroke-width:0.5px;}.cls-42,.cls-9{fill:gray;}.cls-10{fill:#fff;}.cls-11,.cls-28,.cls-29{font-family:FantasqueSansMonoNerdFontComplete-Regular, FantasqueSansMono Nerd Font;}.cls-12{fill:#29aae2;}.cls-13{font-size:4.39px;font-family:FantasqueSansMonoNerdFontCompleteM-Regular, FantasqueSansMono Nerd Font Mono;}.cls-15{stroke:#000;}.cls-16,.cls-25,.cls-44{font-size:12px;}.cls-16,.cls-25{font-family:Arial-BoldMT, Arial;font-weight:700;}.cls-16{letter-spacing:-0.04em;}.cls-17{fill:#edebea;}.cls-18,.cls-19,.cls-20,.cls-21,.cls-25,.cls-26,.cls-27,.cls-28,.cls-29,.cls-33{isolation:isolate;}.cls-18,.cls-19,.cls-20,.cls-21{fill:#0b0909;}.cls-19{letter-spacing:0.28em;}.cls-20,.cls-21{font-family:Monaco;}.cls-21{letter-spacing:0.6em;}.cls-22{fill:#f3f2f3;}.cls-22,.cls-24,.cls-31,.cls-35,.cls-36,.cls-37,.cls-40{stroke:#0b0909;}.cls-22,.cls-41{stroke-width:0.75px;}.cls-23{fill:#d9d6d5;}.cls-24{stroke-width:0.18px;}.cls-25{letter-spacing:-0.08em;}.cls-27,.cls-29{letter-spacing:-0.02em;}.cls-28,.cls-29{fill:#079247;}.cls-30{stroke:#66318f;}.cls-32{fill:#66318f;}.cls-34{stroke:#818181;}.cls-36{stroke-dasharray:1.02 1.02;}.cls-37{stroke-dasharray:0.58 0.58;}.cls-38,.cls-41{stroke:#f89522;}.cls-39{fill:#f89522;}.cls-40{stroke-dasharray:0.68 0.68;}.cls-43{letter-spacing:-0.02em;}</style></defs><title>supplemental_figure3_old</title><text class="cls-1" transform="translate(133.42 560.4)">FASTQs</text><line class="cls-2" x1="142.92" y1="544.21" x2="162.25" y2="544.21"/><line class="cls-2" x1="142.92" y1="535.43" x2="162.25" y2="535.43"/><line class="cls-2" x1="142.92" y1="529.58" x2="162.25" y2="529.58"/><line class="cls-2" x1="142.92" y1="526.65" x2="162.25" y2="526.65"/><line class="cls-2" x1="142.92" y1="523.73" x2="162.25" y2="523.73"/><line class="cls-2" x1="142.92" y1="520.8" x2="162.25" y2="520.8"/><line class="cls-2" x1="142.92" y1="517.88" x2="162.25" y2="517.88"/><line class="cls-2" x1="142.92" y1="538.36" x2="162.25" y2="538.36"/><line class="cls-2" x1="142.92" y1="541.28" x2="162.25" y2="541.28"/><line class="cls-2" x1="142.92" y1="532.51" x2="162.25" y2="532.51"/><text class="cls-1" transform="translate(372.65 557.84)">Predicted<tspan x="0" y="12">amino acid</tspan><tspan x="0" y="24">sequence</tspan></text><line class="cls-3" x1="387.16" y1="544.21" x2="406.5" y2="544.21"/><line class="cls-3" x1="387.16" y1="535.43" x2="406.5" y2="535.43"/><line class="cls-3" x1="387.16" y1="529.58" x2="406.5" y2="529.58"/><line class="cls-3" x1="387.16" y1="526.65" x2="406.5" y2="526.65"/><line class="cls-3" x1="387.16" y1="523.73" x2="406.5" y2="523.73"/><line class="cls-3" x1="387.16" y1="520.8" x2="406.5" y2="520.8"/><line class="cls-3" x1="387.16" y1="517.88" x2="406.5" y2="517.88"/><line class="cls-3" x1="387.16" y1="538.36" x2="406.5" y2="538.36"/><line class="cls-3" x1="387.16" y1="541.28" x2="406.5" y2="541.28"/><line class="cls-3" x1="387.16" y1="532.51" x2="406.5" y2="532.51"/><text class="cls-4" transform="translate(418.61 616.49)">NCBI RefSeq <tspan x="0" y="9.6">non-redundant prot</tspan><tspan class="cls-5" x="68.05" y="9.6">e</tspan><tspan x="72.34" y="9.6">in</tspan></text><rect class="cls-6" x="448.31" y="583.36" width="19.16" height="20.98"/><path class="cls-6" d="M467.47,583.36c0,.94-4.29,1.7-9.58,1.7s-9.58-.76-9.58-1.7,4.29-1.71,9.58-1.71,9.58.76,9.58,1.71"/><path class="cls-6" d="M467.47,604.33c0,.94-4.29,1.71-9.58,1.71s-9.58-.77-9.58-1.71,4.29-1.71,9.58-1.71,9.58.77,9.58,1.71"/><path class="cls-7" d="M467.47,583.36c0,.94-4.29,1.7-9.58,1.7s-9.58-.76-9.58-1.7,4.29-1.71,9.58-1.71S467.47,582.41,467.47,583.36Z"/><polygon class="cls-8" points="330.77 530.35 336.31 530.35 335.7 528.9 340.77 531.04 335.7 533.18 336.31 531.74 330.77 531.74 330.77 530.35"/><polygon class="cls-8" points="86.52 530.35 92.07 530.35 91.46 528.9 96.52 531.04 91.46 533.18 92.07 531.74 86.52 531.74 86.52 530.35"/><polygon class="cls-8" points="208.65 530.35 214.19 530.35 213.58 528.9 218.65 531.04 213.58 533.18 214.19 531.74 208.65 531.74 208.65 530.35"/><path class="cls-9" d="M32.11,544.21H18.81a4,4,0,0,1-4-4V521.88a4,4,0,0,1,4-4h13.3a4,4,0,0,1,4,4v18.33a4,4,0,0,1-4,4"/><rect class="cls-10" x="16.16" y="532.13" width="1.23" height="1.31"/><path class="cls-10" d="M23.82,531.2a3.68,3.68,0,0,1-.1.91,2.11,2.11,0,0,1-.33.71,1.31,1.31,0,0,1-.58.48,1.87,1.87,0,0,1-.85.17,1.83,1.83,0,0,1-1.25-.44,4.18,4.18,0,0,1-.05.47l-.81-.1a7.89,7.89,0,0,0,.1-1.15v-.12c0-.39,0-1.09,0-2.11v-2.23a11.45,11.45,0,0,0-.07-1.2l.77-.05a9.81,9.81,0,0,1,.07,1.27v1a2.24,2.24,0,0,1,.25-.17.91.91,0,0,1,.27-.11,1.31,1.31,0,0,1,.41-.06c1.46,0,2.18.91,2.18,2.74m-.76-.1q0-1.89-1.35-1.89l-.16,0-.14,0-.15.07-.12.07-.12.1-.11.1-.11.1-.09.1v2.13a2.1,2.1,0,0,0,.52.61,1.25,1.25,0,0,0,.73.17.91.91,0,0,0,.84-.41,2.34,2.34,0,0,0,.26-1.21"/><path class="cls-10" d="M28.88,531.89a2,2,0,0,0,.06.7l.09.09.16.12a.88.88,0,0,1,.13.11l-.4.58-.15-.11-.16-.12a.92.92,0,0,1-.13-.14.62.62,0,0,1-.12-.19.92.92,0,0,1-.08-.25A3.56,3.56,0,0,1,28,533a2.51,2.51,0,0,1-.38.24,1.61,1.61,0,0,1-.52.2,2.48,2.48,0,0,1-.63.07,1.44,1.44,0,0,1-1.05-.44A1.47,1.47,0,0,1,25,532a1.59,1.59,0,0,1,.12-.59,1.34,1.34,0,0,1,.32-.51,1.85,1.85,0,0,1,.69-.47,2.74,2.74,0,0,1,.84-.13,2.37,2.37,0,0,1,1.19.25,1.56,1.56,0,0,0-.28-1,1.09,1.09,0,0,0-.89-.33,1.6,1.6,0,0,0-.8.16,1.77,1.77,0,0,0-.57.68l-.63-.4a2,2,0,0,1,.82-.91,2.35,2.35,0,0,1,1.17-.27,1.94,1.94,0,0,1,1.41.51,1.76,1.76,0,0,1,.54,1.34Zm-3.16,0a.84.84,0,0,0,.19.59.67.67,0,0,0,.53.22,1.73,1.73,0,0,0,.56-.09,2.31,2.31,0,0,0,.44-.19,2.69,2.69,0,0,0,.32-.27c.11-.1.18-.19.23-.24l.12-.19v-.46A2.13,2.13,0,0,0,27,531a1.5,1.5,0,0,0-.88.26.8.8,0,0,0-.36.68"/><path class="cls-10" d="M33.48,528.43a.64.64,0,0,1,.43.15.92.92,0,0,1,.26.38,2.93,2.93,0,0,1,.11.45,3,3,0,0,1,0,.42v2.55a.43.43,0,0,0,.14.31.87.87,0,0,0,.31.2l-.29.65a.94.94,0,0,1-.28-.1.91.91,0,0,1-.48-.49,1.23,1.23,0,0,1-.08-.44h0v-2.84c0-.32-.1-.48-.31-.48s-.52.29-.79.88v3.38h-.69V529.5a.66.66,0,0,0,0-.15.19.19,0,0,0-.07-.11.2.2,0,0,0-.16-.06.69.69,0,0,0-.43.21,2.15,2.15,0,0,0-.44.68v3.37H30v-4a2.77,2.77,0,0,0-.15-.94l.73-.19a1.23,1.23,0,0,1,.1.37,2.91,2.91,0,0,1,.05.46,1.79,1.79,0,0,1,.47-.52.92.92,0,0,1,.54-.21.71.71,0,0,1,.55.22.76.76,0,0,1,.2.51c.27-.49.59-.73,1-.73"/><polygon class="cls-8" points="452.89 530.35 458.44 530.35 457.82 528.9 462.89 531.04 457.82 533.18 458.44 531.74 452.89 531.74 452.89 530.35"/><text class="cls-1" transform="translate(254.42 557.89)">Adapter, <tspan x="0" y="12">poly-A, </tspan><tspan x="0" y="24">trimmed</tspan></text><line class="cls-2" x1="265.04" y1="544.21" x2="284.37" y2="544.21"/><line class="cls-2" x1="265.04" y1="535.43" x2="284.37" y2="535.43"/><line class="cls-2" x1="265.04" y1="529.58" x2="284.37" y2="529.58"/><line class="cls-2" x1="265.04" y1="526.65" x2="284.37" y2="526.65"/><line class="cls-2" x1="265.04" y1="523.73" x2="284.37" y2="523.73"/><line class="cls-2" x1="265.04" y1="520.8" x2="284.37" y2="520.8"/><line class="cls-2" x1="265.04" y1="517.88" x2="284.37" y2="517.88"/><line class="cls-2" x1="265.04" y1="538.36" x2="284.37" y2="538.36"/><line class="cls-2" x1="265.04" y1="541.28" x2="284.37" y2="541.28"/><line class="cls-2" x1="265.04" y1="532.51" x2="284.37" y2="532.51"/><text class="cls-11" transform="translate(72.54 541.28)">samtools fastq</text><text class="cls-11" transform="translate(203.29 541.28)">fastp</text><text class="cls-11" transform="translate(290.22 541.28)">khtools extract_coding</text><text class="cls-11" transform="translate(428.91 544.21)">diamond blastp</text><path class="cls-12" d="M345.35,599.09c0,.95-4.29,1.71-9.58,1.71s-9.58-.76-9.58-1.71,4.29-1.7,9.58-1.7,9.58.76,9.58,1.7"/><rect class="cls-12" x="326.19" y="578.12" width="19.16" height="20.98"/><path class="cls-12" d="M345.35,578.12c0,.94-4.29,1.7-9.58,1.7s-9.58-.76-9.58-1.7,4.29-1.71,9.58-1.71,9.58.77,9.58,1.71"/><path class="cls-7" d="M345.35,578.12c0,.94-4.29,1.7-9.58,1.7s-9.58-.76-9.58-1.7,4.29-1.71,9.58-1.71S345.35,577.18,345.35,578.12Z"/><text class="cls-4" transform="translate(284.85 616.49)">UNIPROT/SwissProt <tspan x="0" y="9.6">manually curated eukaryotic </tspan><tspan x="0" y="19.2">protein sequences</tspan></text><text class="cls-13" transform="translate(492.74 522.2)">XP_008705901.1 PREDICTED: phospholipase A2 [Ursus maritimus]<tspan x="0" y="5.26">XP_026370896.1 phospholipase A2 [Ursus arctos horribilis]</tspan><tspan x="0" y="10.53">XP_011803952.1 PREDICTED: phospholipase A2 [Colobus angolensis palliatus]</tspan><tspan x="0" y="15.79">NP_001177150.1 cytochrome c oxidase subunit VIa polypeptide 1 [Sus scrofa]</tspan><tspan x="0" y="21.06">XP_003419308.1 cytochrome c oxidase subunit 6A1, mitochondrial isoform X1 [Loxodonta africana]</tspan></text><rect class="cls-14" x="492.74" y="518.74" width="52.43" height="26.22"/><text class="cls-1" transform="translate(475.32 560.4)">Putatitive homologs</text><line class="cls-15" x1="335.77" y1="573.01" x2="335.77" y2="544.21"/><rect class="cls-14" x="334.28" y="542.72" width="2.97" height="3.52"/><polygon class="cls-8" points="337.25 546.24 335.77 545.61 334.28 546.24 335.77 542.72 337.25 546.24"/><line class="cls-15" x1="457.89" y1="576.53" x2="457.89" y2="547.73"/><rect class="cls-14" x="456.41" y="546.24" width="2.97" height="3.52"/><polygon class="cls-8" points="459.38 549.75 457.89 549.13 456.41 549.75 457.89 546.24 459.38 549.75"/><text class="cls-16" transform="translate(3.3 529.21)">B</text><text class="cls-16" transform="translate(3.3 666.84)">C</text><text class="cls-4" transform="translate(86.5 526.54)">1.</text><text class="cls-4" transform="translate(208.89 526.54)">2.</text><text class="cls-4" transform="translate(332.43 526.54)">3.</text><text class="cls-4" transform="translate(454.55 526.54)">4.</text><rect class="cls-17" x="265.36" y="359.2" width="110.67" height="19.33"/><rect class="cls-17" x="265.86" y="399.7" width="110.67" height="19.33"/><rect class="cls-17" x="264.86" y="438.7" width="135.51" height="19.33"/><text class="cls-18" transform="translate(77.46 187.37)">RNA-se</text><text class="cls-19" transform="translate(112.46 187.37)">q</text><text class="cls-18" transform="translate(120.81 187.37)">reads</text><text class="cls-18" transform="translate(217.28 89.86)">Referenc</text><text class="cls-19" transform="translate(257.86 89.86)">e</text><text class="cls-18" transform="translate(266.2 89.86)">proteome</text><text class="cls-20" transform="translate(151.6 370.85)">sourmas</text><text class="cls-21" transform="translate(193.61 370.85)">h</text><text class="cls-20" transform="translate(205.61 370.85)">sketch</text><text class="cls-20" transform="translate(150.6 414.35)">sourmas</text><text class="cls-21" transform="translate(192.61 414.35)">h</text><text class="cls-20" transform="translate(204.61 414.35)">compare</text><text class="cls-20" transform="translate(148.6 452.85)">sourmas</text><text class="cls-21" transform="translate(190.61 452.85)">h</text><text class="cls-20" transform="translate(202.61 452.85)">index</text><text class="cls-18" transform="translate(121.24 367.3)">(b)</text><text class="cls-18" transform="translate(123.76 413.74)">(c)</text><text class="cls-18" transform="translate(119.11 448.37)">(d)</text><text class="cls-18" transform="translate(270.04 371.52)">MinHas</text><text class="cls-19" transform="translate(303.94 371.52)">h</text><text class="cls-18" transform="translate(312.28 371.52)">protei</text><text class="cls-19" transform="translate(337.29 371.52)">n</text><text class="cls-18" transform="translate(345.63 371.52)">k-mers</text><text class="cls-18" transform="translate(266.54 412.02)">Comput</text><text class="cls-19" transform="translate(301.55 412.02)">e</text><text class="cls-18" transform="translate(309.9 412.02)">cell-cel</text><text class="cls-19" transform="translate(341.01 412.02)">l</text><text class="cls-18" transform="translate(346.02 412.02)">similarity</text><text class="cls-18" transform="translate(270.04 454.02)">Build sequence bloom tree (SBT)</text><rect class="cls-17" x="284.81" y="195.5" width="136.95" height="27.6"/><text class="cls-18" transform="translate(292.72 205.97)">Intersec</text><text class="cls-19" transform="translate(328.29 205.97)">t</text><text class="cls-18" transform="translate(333.84 205.97)">translate</text><text class="cls-19" transform="translate(372.19 205.97)">d</text><text class="cls-18" transform="translate(380.54 205.97)">k-mers </text><text class="cls-18" transform="translate(292.72 217.97)">wit</text><text class="cls-19" transform="translate(304.94 217.97)">h</text><text class="cls-18" transform="translate(313.28 217.97)">referenc</text><text class="cls-19" transform="translate(349.97 217.97)">e</text><text class="cls-18" transform="translate(358.31 217.97)">proteome</text><rect class="cls-22" x="341.41" y="70.89" width="143.79" height="91.69"/><rect class="cls-23" x="371.65" y="96.81" width="108.51" height="23.29"/><rect class="cls-24" x="371.65" y="96.81" width="108.51" height="23.29"/><rect class="cls-23" x="369.49" y="128.13" width="63.15" height="19.33"/><rect class="cls-24" x="369.49" y="128.13" width="63.15" height="19.33"/><text class="cls-18" transform="translate(356.43 107.11)">(1)</text><text class="cls-18" transform="translate(375.05 105.33)">Re-encod</text><text class="cls-19" transform="translate(418.41 105.33)">e</text><text class="cls-18" transform="translate(426.75 105.33)">t</text><text class="cls-19" transform="translate(429.53 105.33)">o</text><text class="cls-18" transform="translate(437.87 105.33)">reduced</text><text class="cls-18" transform="translate(375.05 115.65)">amin</text><text class="cls-19" transform="translate(396.72 115.65)">o</text><text class="cls-18" transform="translate(405.07 115.65)">aci</text><text class="cls-19" transform="translate(417.85 115.65)">d</text><text class="cls-18" transform="translate(426.19 115.65)">alphabet</text><text class="cls-18" transform="translate(373.97 142.41)">Bloo</text><text class="cls-19" transform="translate(393.98 142.41)">m</text><text class="cls-18" transform="translate(405.09 142.41)">ﬁlter</text><text class="cls-18" transform="translate(355.86 139.71)">(2)</text><text class="cls-18" transform="translate(348.14 82.62)">Creat</text><text class="cls-19" transform="translate(372.59 82.62)">e</text><text class="cls-18" transform="translate(380.93 82.62)">referenc</text><text class="cls-19" transform="translate(417.62 82.62)">e</text><text class="cls-18" transform="translate(425.96 82.62)">proteome</text><text class="cls-18" transform="translate(348.14 92.95)">bloo</text><text class="cls-19" transform="translate(367.05 92.95)">m</text><text class="cls-18" transform="translate(378.16 92.95)">ﬁlter</text><text class="cls-18" transform="translate(318.54 302.81)">Putativ</text><text class="cls-19" transform="translate(349.11 302.81)">e</text><text class="cls-18" transform="translate(357.45 302.81)">amino </text><text class="cls-18" transform="translate(318.54 314.81)">acid sequences</text><text class="cls-25" transform="translate(87.67 37.59)">A</text><text class="cls-26" transform="translate(115.73 37.59)">1. Extract cell barcodes with su</text><text class="cls-27" transform="translate(253.57 37.59)">f</text><text class="cls-26" transform="translate(256.16 37.59)">ficient nUMI from single-cell bam via </text><text class="cls-28" transform="translate(419.55 37.59)">bam2fast</text><text class="cls-29" transform="translate(460.95 37.59)">a</text><text class="cls-26" transform="translate(115.73 62.9)">2. Predict amino acid sequence from RNA-seq reads via </text><text class="cls-28" transform="translate(367.51 62.9)">khtools extract_coding</text><line class="cls-30" x1="152.98" y1="164.57" x2="172.31" y2="164.57"/><line class="cls-31" x1="154.98" y1="158.72" x2="174.31" y2="158.72"/><line class="cls-30" x1="155.98" y1="155.79" x2="175.31" y2="155.79"/><line class="cls-30" x1="156.98" y1="152.86" x2="176.31" y2="152.86"/><line class="cls-30" x1="157.98" y1="149.94" x2="177.31" y2="149.94"/><line class="cls-30" x1="151.98" y1="167.49" x2="171.31" y2="167.49"/><line class="cls-30" x1="153.98" y1="161.64" x2="173.31" y2="161.64"/><rect class="cls-14" x="166.58" y="148.29" width="2.13" height="3.29"/><polygon class="cls-32" points="167.07 151.58 166.58 151.09 167.73 149.94 166.58 148.78 167.07 148.29 168.71 149.94 167.07 151.58"/><rect class="cls-14" x="165.58" y="151.26" width="2.13" height="3.29"/><polygon class="cls-32" points="166.07 154.55 165.58 154.06 166.73 152.91 165.58 151.75 166.07 151.26 167.71 152.91 166.07 154.55"/><rect class="cls-14" x="164.58" y="154.15" width="2.13" height="3.29"/><polygon class="cls-32" points="165.07 157.43 164.58 156.94 165.73 155.79 164.58 154.64 165.07 154.15 166.71 155.79 165.07 157.43"/><rect class="cls-14" x="160.58" y="165.85" width="2.13" height="3.29"/><polygon class="cls-32" points="162.22 165.85 162.71 166.34 161.56 167.49 162.71 168.65 162.22 169.14 160.58 167.49 162.22 165.85"/><rect class="cls-14" x="161.58" y="162.88" width="2.13" height="3.29"/><polygon class="cls-32" points="163.22 162.88 163.71 163.37 162.56 164.52 163.71 165.68 163.22 166.17 161.58 164.52 163.22 162.88"/><rect class="cls-14" x="162.58" y="160" width="2.13" height="3.29"/><polygon class="cls-32" points="164.22 160 164.71 160.49 163.56 161.64 164.71 162.8 164.22 163.29 162.58 161.64 164.22 160"/><text class="cls-33" transform="translate(111.84 118.41)">6-frame </text><text class="cls-33" transform="translate(111.84 128.01)">translation </text><text class="cls-33" transform="translate(111.84 137.61)">on each read</text><line class="cls-34" x1="99.78" y1="173.32" x2="119.11" y2="173.32"/><line class="cls-34" x1="99.78" y1="164.55" x2="119.11" y2="164.55"/><line class="cls-31" x1="99.78" y1="158.69" x2="119.11" y2="158.69"/><line class="cls-34" x1="99.78" y1="155.77" x2="119.11" y2="155.77"/><line class="cls-34" x1="99.78" y1="152.84" x2="119.11" y2="152.84"/><line class="cls-34" x1="99.78" y1="149.92" x2="119.11" y2="149.92"/><line class="cls-34" x1="99.78" y1="146.99" x2="119.11" y2="146.99"/><line class="cls-34" x1="99.78" y1="167.47" x2="119.11" y2="167.47"/><line class="cls-34" x1="99.78" y1="170.4" x2="119.11" y2="170.4"/><line class="cls-34" x1="99.78" y1="161.62" x2="119.11" y2="161.62"/><line class="cls-34" x1="99.64" y1="144.06" x2="118.97" y2="144.06"/><polyline class="cls-35" points="120.61 159.57 120.61 160.07 120.11 160.07"/><line class="cls-36" x1="119.09" y1="160.07" x2="99.28" y2="160.07"/><polyline class="cls-35" points="98.78 160.07 98.28 160.07 98.28 159.57"/><line class="cls-37" x1="98.28" y1="158.98" x2="98.28" y2="158.11"/><polyline class="cls-35" points="98.28 157.82 98.28 157.32 98.78 157.32"/><line class="cls-36" x1="99.79" y1="157.32" x2="119.6" y2="157.32"/><polyline class="cls-35" points="120.11 157.32 120.61 157.32 120.61 157.82"/><line class="cls-37" x1="120.61" y1="158.4" x2="120.61" y2="159.28"/><text class="cls-33" transform="translate(168.16 118.4)">Re-encode to </text><text class="cls-33" transform="translate(168.16 128)">reduced </text><text class="cls-33" transform="translate(168.16 137.6)">alphabet</text><line class="cls-35" x1="125.77" y1="158.69" x2="145.77" y2="158.69"/><rect class="cls-14" x="143.86" y="157.45" width="2.95" height="2.49"/><polygon class="cls-8" points="143.86 159.94 144.39 158.69 143.86 157.45 146.82 158.69 143.86 159.94"/><line class="cls-35" x1="182.48" y1="158.69" x2="202.48" y2="158.69"/><rect class="cls-14" x="200.57" y="157.45" width="2.95" height="2.49"/><polygon class="cls-8" points="200.57 159.94 201.1 158.69 200.57 157.45 203.52 158.69 200.57 159.94"/><line class="cls-30" x1="343.69" y1="288.49" x2="363.02" y2="288.49"/><line class="cls-30" x1="343.69" y1="279.71" x2="363.02" y2="279.71"/><line class="cls-30" x1="343.69" y1="273.86" x2="363.02" y2="273.86"/><line class="cls-30" x1="343.69" y1="270.94" x2="363.02" y2="270.94"/><line class="cls-30" x1="343.69" y1="268.01" x2="363.02" y2="268.01"/><line class="cls-30" x1="343.69" y1="265.08" x2="363.02" y2="265.08"/><line class="cls-30" x1="343.69" y1="262.16" x2="363.02" y2="262.16"/><line class="cls-30" x1="343.69" y1="282.64" x2="363.02" y2="282.64"/><line class="cls-30" x1="343.69" y1="285.57" x2="363.02" y2="285.57"/><line class="cls-30" x1="343.69" y1="276.79" x2="363.02" y2="276.79"/><line class="cls-30" x1="343.55" y1="259.23" x2="362.89" y2="259.23"/><line class="cls-35" x1="286.83" y1="168.73" x2="300.97" y2="182.88"/><rect class="cls-14" x="299.42" y="181.09" width="2.49" height="2.95" transform="translate(-41.03 266.08) rotate(-45)"/><polygon class="cls-8" points="298.74 182.41 300 181.9 300.51 180.65 301.71 183.62 298.74 182.41"/><line class="cls-31" x1="211.68" y1="158.72" x2="231.02" y2="158.72"/><line class="cls-38" x1="209.68" y1="164.57" x2="229.02" y2="164.57"/><line class="cls-38" x1="212.68" y1="155.79" x2="232.02" y2="155.79"/><line class="cls-38" x1="213.68" y1="152.86" x2="233.02" y2="152.86"/><line class="cls-38" x1="214.68" y1="149.94" x2="234.02" y2="149.94"/><line class="cls-38" x1="208.68" y1="167.49" x2="228.02" y2="167.49"/><line class="cls-38" x1="210.68" y1="161.64" x2="230.02" y2="161.64"/><rect class="cls-14" x="223.28" y="148.29" width="2.13" height="3.29"/><polygon class="cls-39" points="223.77 151.58 223.28 151.09 224.44 149.94 223.28 148.78 223.77 148.29 225.42 149.94 223.77 151.58"/><rect class="cls-14" x="222.28" y="151.26" width="2.13" height="3.29"/><polygon class="cls-39" points="222.77 154.55 222.28 154.06 223.44 152.91 222.28 151.75 222.77 151.26 224.42 152.91 222.77 154.55"/><rect class="cls-14" x="221.28" y="154.15" width="2.13" height="3.29"/><polygon class="cls-39" points="221.77 157.43 221.28 156.94 222.44 155.79 221.28 154.64 221.77 154.15 223.42 155.79 221.77 157.43"/><rect class="cls-14" x="217.28" y="165.85" width="2.13" height="3.29"/><polygon class="cls-39" points="218.93 165.85 219.42 166.34 218.26 167.49 219.42 168.65 218.93 169.14 217.28 167.49 218.93 165.85"/><rect class="cls-14" x="218.28" y="162.88" width="2.13" height="3.29"/><polygon class="cls-39" points="219.93 162.88 220.42 163.37 219.26 164.52 220.42 165.68 219.93 166.17 218.28 164.52 219.93 162.88"/><rect class="cls-14" x="219.28" y="160" width="2.13" height="3.29"/><polygon class="cls-39" points="220.93 160 221.42 160.49 220.26 161.64 221.42 162.8 220.93 163.29 219.28 161.64 220.93 160"/><polyline class="cls-35" points="233.45 156.95 233.45 157.45 232.95 157.45"/><line class="cls-36" x1="231.93" y1="157.45" x2="212.12" y2="157.45"/><polyline class="cls-35" points="211.62 157.45 211.12 157.45 211.12 156.95"/><line class="cls-40" x1="211.12" y1="156.26" x2="211.12" y2="155.24"/><polyline class="cls-35" points="211.12 154.9 211.12 154.4 211.62 154.4"/><line class="cls-36" x1="212.63" y1="154.4" x2="232.44" y2="154.4"/><polyline class="cls-35" points="232.95 154.4 233.45 154.4 233.45 154.9"/><line class="cls-40" x1="233.45" y1="155.58" x2="233.45" y2="156.61"/><text class="cls-33" transform="translate(225.27 118.41)">Each putative </text><text class="cls-33" transform="translate(225.27 128.01)">translation, </text><text class="cls-33" transform="translate(225.27 137.61)">k-merize</text><line class="cls-38" x1="265.48" y1="163.58" x2="284.81" y2="163.58"/><line class="cls-41" x1="265.48" y1="161.21" x2="271.48" y2="161.21"/><line class="cls-41" x1="266.48" y1="159.73" x2="272.48" y2="159.73"/><line class="cls-41" x1="268.48" y1="156.77" x2="274.48" y2="156.77"/><line class="cls-41" x1="269.48" y1="155.29" x2="275.48" y2="155.29"/><line class="cls-41" x1="267.48" y1="158.25" x2="273.48" y2="158.25"/><line class="cls-41" x1="270.48" y1="153.8" x2="276.48" y2="153.8"/><line class="cls-41" x1="273.81" y1="161.21" x2="279.81" y2="161.21"/><line class="cls-41" x1="274.81" y1="159.73" x2="280.81" y2="159.73"/><line class="cls-41" x1="276.81" y1="156.77" x2="282.81" y2="156.77"/><line class="cls-41" x1="277.81" y1="155.29" x2="283.81" y2="155.29"/><line class="cls-41" x1="275.81" y1="158.25" x2="281.81" y2="158.25"/><line class="cls-41" x1="278.81" y1="153.8" x2="284.81" y2="153.8"/><line class="cls-35" x1="239.18" y1="158.69" x2="259.18" y2="158.69"/><rect class="cls-14" x="257.27" y="157.45" width="2.95" height="2.49"/><polygon class="cls-8" points="257.27 159.94 257.8 158.69 257.27 157.45 260.23 158.69 257.27 159.94"/><line class="cls-35" x1="394.4" y1="168.73" x2="380.25" y2="182.88"/><rect class="cls-14" x="379.08" y="181.32" width="2.95" height="2.49" transform="translate(-17.63 322.57) rotate(-45)"/><polygon class="cls-8" points="380.72 180.65 381.23 181.9 382.48 182.41 379.51 183.62 380.72 180.65"/><line class="cls-35" x1="314.09" y1="84.9" x2="334.09" y2="84.9"/><rect class="cls-14" x="332.18" y="83.65" width="2.95" height="2.49"/><polygon class="cls-8" points="332.18 86.15 332.71 84.9 332.18 83.65 335.13 84.9 332.18 86.15"/><line class="cls-35" x1="353.29" y1="231.06" x2="353.29" y2="251.06"/><rect class="cls-14" x="352.04" y="249.15" width="2.49" height="2.95"/><polygon class="cls-8" points="352.04 249.15 353.29 249.68 354.53 249.15 353.29 252.1 352.04 249.15"/><text class="cls-26" transform="translate(99.78 334.71)">3. Randomly subsample amino acid k-mers via MinHash algorithm in </text><text class="cls-28" transform="translate(406.57 334.71)">sourmash sketch</text><text class="cls-42" transform="translate(11.23 556.64)">(if input is bam, <tspan x="0" y="9.6">convert to fastq)</tspan></text><path class="cls-9" d="M61,544.21H47.72a4,4,0,0,1-4-4V521.88a4,4,0,0,1,4-4H61a4,4,0,0,1,4,4v18.33a4,4,0,0,1-4,4"/><path class="cls-10" d="M45.8,532.08h1.26v1.35H45.8Z"/><path class="cls-10" d="M53.25,531.13a3.39,3.39,0,0,1-.11.93,2.26,2.26,0,0,1-.33.74,1.5,1.5,0,0,1-.59.49,2.16,2.16,0,0,1-.88.17,1.87,1.87,0,0,1-1.28-.45,4.3,4.3,0,0,1-.05.48l-.83-.1a8.33,8.33,0,0,0,.09-1.18v-4.58c0-.33,0-.74-.08-1.23l.8,0a10.25,10.25,0,0,1,.07,1.31v1l.25-.18a1.8,1.8,0,0,1,.28-.11,1.44,1.44,0,0,1,.43-.06C52.51,528.32,53.25,529.25,53.25,531.13Zm-.79-.1c0-1.29-.45-1.94-1.37-1.94l-.17,0-.15,0-.14.07-.13.08-.12.1-.11.09-.11.11-.1.1v2.19a2,2,0,0,0,.54.63,1.33,1.33,0,0,0,.74.17,1,1,0,0,0,.87-.42A2.45,2.45,0,0,0,52.46,531Z"/><path class="cls-10" d="M56.16,528.31a2.25,2.25,0,0,1,.71.11,2,2,0,0,1,.53.28,1.89,1.89,0,0,1,.37.42,2.4,2.4,0,0,1,.25.47,3.65,3.65,0,0,1,.13.5,3.35,3.35,0,0,1,.07.45c0,.13,0,.25,0,.37s0,.19,0,.21c-1.49.1-2.64.16-3.44.17a1.49,1.49,0,0,0,.37,1,1.38,1.38,0,0,0,1.09.4,1.57,1.57,0,0,0,.81-.2,1.7,1.7,0,0,0,.52-.47l.62.55-.18.19-.26.21a1.37,1.37,0,0,1-.39.24,2.39,2.39,0,0,1-.5.17,2.67,2.67,0,0,1-.64.08,2,2,0,0,1-1.66-.71,3,3,0,0,1-.57-1.93,2.81,2.81,0,0,1,.57-1.82A1.93,1.93,0,0,1,56.16,528.31Zm-1.37,2.21a26.38,26.38,0,0,0,2.65-.13,1.57,1.57,0,0,0-.41-1,1.15,1.15,0,0,0-.86-.36,1.24,1.24,0,0,0-1,.43A1.49,1.49,0,0,0,54.79,530.52Z"/><path class="cls-10" d="M62.86,532.09v.13a7.68,7.68,0,0,0,.09,1.17l-.83.1a4.3,4.3,0,0,1,0-.48,1.87,1.87,0,0,1-1.28.45,1.68,1.68,0,0,1-1.45-.63,2.81,2.81,0,0,1-.46-1.7,8.8,8.8,0,0,1,0-1,3.77,3.77,0,0,1,.19-.77,1.94,1.94,0,0,1,.35-.6,1.49,1.49,0,0,1,.58-.37,2.29,2.29,0,0,1,.83-.14,2.21,2.21,0,0,1,1.18.37v-1A12.3,12.3,0,0,0,62,526.4l.8,0a10.09,10.09,0,0,1,.07,1.3ZM59.67,531a2.42,2.42,0,0,0,.25,1.24.94.94,0,0,0,.87.42,1.53,1.53,0,0,0,.56-.09,1.12,1.12,0,0,0,.38-.24,4.21,4.21,0,0,0,.34-.47V529.7a3.1,3.1,0,0,0-.59-.43,1.43,1.43,0,0,0-.67-.19,1,1,0,0,0-.88.44A3.24,3.24,0,0,0,59.67,531Z"/><path class="cls-9" d="M39.59,529.27h.6v1.4H41.7v.61H40.19v1.54h-.6v-1.54H38.14v-.61h1.45Z"/><rect class="cls-17" x="262.39" y="464.3" width="135.51" height="19.33"/><text class="cls-20" transform="translate(146.13 478.45)">sourmas</text><text class="cls-21" transform="translate(188.14 478.45)">h</text><text class="cls-20" transform="translate(200.14 478.45)">knn</text><text class="cls-18" transform="translate(116.64 473.97)">(e)</text><text class="cls-18" transform="translate(267.57 479.62)">Buil</text><text class="cls-19" transform="translate(284.24 479.62)">d</text><text class="cls-18" transform="translate(292.59 479.62)">neares</text><text class="cls-19" transform="translate(323.16 479.62)">t</text><text class="cls-18" transform="translate(328.71 479.62)">neighbo</text><text class="cls-19" transform="translate(364.3 479.62)">r</text><text class="cls-18" transform="translate(370.41 479.62)">graph</text><rect class="cls-17" x="261.28" y="484.95" width="135.51" height="19.33"/><text class="cls-20" transform="translate(145.02 499.1)">sourmas</text><text class="cls-21" transform="translate(187.03 499.1)">h</text><text class="cls-20" transform="translate(199.03 499.1)">umap</text><text class="cls-18" transform="translate(115.53 494.61)">(f)</text><text class="cls-18" transform="translate(266.46 500.27)">Build UMA<tspan class="cls-43" x="47.24" y="0">P</tspan><tspan x="53.73" y="0" xml:space="preserve"> o</tspan><tspan class="cls-43" x="62.07" y="0">f</tspan><tspan x="64.66" y="0">f of knn</tspan></text><text class="cls-44" transform="translate(9.1 15.89)">Supplemental Figure 3</text></svg>