<svg id="Layer_1" data-name="Layer 1" xmlns="http://www.w3.org/2000/svg" viewBox="0 0 718.45 168.59"><defs><style>.cls-1,.cls-14,.cls-22{font-size:8px;}.cls-1,.cls-22,.cls-4,.cls-7{fill:#231f20;}.cls-1,.cls-14,.cls-23,.cls-30,.cls-4,.cls-6{font-family:ArialMT, Arial;}.cls-2{letter-spacing:-0.02em;}.cls-3{letter-spacing:-0.06em;}.cls-23,.cls-30,.cls-4{font-size:10px;}.cls-22,.cls-5{font-family:Arial-ItalicMT, Arial;font-style:italic;}.cls-6{font-style:normal;}.cls-18,.cls-8{fill:#e18dbc;}.cls-11,.cls-12,.cls-8{stroke:#e18dbc;}.cls-10,.cls-11,.cls-12,.cls-15,.cls-17,.cls-19,.cls-20,.cls-21,.cls-25,.cls-26,.cls-27,.cls-28,.cls-29,.cls-31,.cls-32,.cls-33,.cls-34,.cls-35,.cls-8,.cls-9{stroke-miterlimit:10;}.cls-13,.cls-18,.cls-8{opacity:0.5;}.cls-16,.cls-17,.cls-21,.cls-23,.cls-25,.cls-9{fill:#4d4d4e;}.cls-10,.cls-15,.cls-19,.cls-20,.cls-21,.cls-31,.cls-9{stroke:#000;}.cls-10,.cls-25,.cls-26,.cls-9{stroke-width:0.25px;}.cls-10,.cls-20,.cls-26,.cls-30{fill:#b3b4b4;}.cls-11,.cls-12,.cls-15,.cls-19,.cls-27,.cls-28,.cls-29,.cls-31,.cls-32,.cls-33,.cls-34,.cls-35{fill:none;}.cls-12,.cls-28,.cls-31,.cls-32,.cls-33,.cls-34,.cls-35{stroke-linecap:round;}.cls-13{fill:#fddb00;}.cls-17{stroke:#fff;stroke-width:0.75px;}.cls-19,.cls-20,.cls-21{stroke-width:0.5px;}.cls-24{letter-spacing:-0.05em;}.cls-25,.cls-26,.cls-27{stroke:#4d4d4e;}.cls-28,.cls-33,.cls-34,.cls-35{stroke:#f6915d;}.cls-29{stroke:#b3b4b4;}.cls-31,.cls-32{stroke-width:0.71px;}.cls-32{stroke:#6ac1a4;}.cls-33{stroke-width:0.98px;}.cls-34,.cls-35{stroke-width:0.98px;}.cls-35{stroke-dasharray:0.69 1.73;}</style></defs><title>Artboard 16</title><text class="cls-1" transform="translate(398.33 30.93)">Di<tspan class="cls-2" x="7.55" y="0">f</tspan><tspan x="9.63" y="0">ferential k-mer expression </tspan><tspan x="0.37" y="9.6">within cluste</tspan><tspan class="cls-3" x="43.94" y="9.6">r</tspan><tspan x="46.17" y="9.6">, across species</tspan></text><text class="cls-4" transform="translate(300.96 26.52)">Cluster on <tspan class="cls-5"><tspan x="-9.43" y="12">k</tspan><tspan class="cls-6" x="-4.43" y="12">-mer similarity</tspan></tspan></text><polygon class="cls-7" points="283.94 56.72 287.86 60.64 288.45 59.18 290.52 64.28 285.43 62.21 286.88 61.62 282.96 57.7 283.94 56.72"/><polygon class="cls-7" points="282.96 110.89 286.88 106.97 285.43 106.38 290.52 104.31 288.45 109.41 287.86 107.95 283.94 111.87 282.96 110.89"/><polygon class="cls-7" points="357.1 92.55 362.65 92.55 362.04 91.1 367.1 93.24 362.04 95.38 362.65 93.94 357.1 93.94 357.1 92.55"/><path class="cls-8" d="M340.17,76.24a15,15,0,1,1-15-15A15,15,0,0,1,340.17,76.24Z"/><path class="cls-9" d="M308.22,53.86a2.51,2.51,0,1,1-2.51-2.51,2.51,2.51,0,0,1,2.51,2.51"/><path class="cls-9" d="M319.1,56.37a2.51,2.51,0,1,1-2.51-2.51,2.51,2.51,0,0,1,2.51,2.51"/><path class="cls-9" d="M319.1,48.85a2.51,2.51,0,1,1-2.51-2.51,2.5,2.5,0,0,1,2.51,2.51"/><path class="cls-9" d="M313.66,61.39a2.51,2.51,0,1,1-2.51-2.51,2.51,2.51,0,0,1,2.51,2.51"/><path class="cls-9" d="M306.13,58.9a2.51,2.51,0,1,1-2.5-2.51,2.51,2.51,0,0,1,2.5,2.51"/><path class="cls-9" d="M313.66,53.86a2.51,2.51,0,1,1-2.51-2.51,2.51,2.51,0,0,1,2.51,2.51"/><path class="cls-9" d="M310.73,46.34a2.51,2.51,0,1,1-2.51-2.51,2.52,2.52,0,0,1,2.51,2.51"/><path class="cls-9" d="M303.63,51.35a2.51,2.51,0,1,1-2.51-2.5,2.51,2.51,0,0,1,2.51,2.5"/><path class="cls-9" d="M349.93,55.34a2.51,2.51,0,1,1,3.55,0,2.51,2.51,0,0,1-3.55,0"/><path class="cls-9" d="M340.46,61.26a2.51,2.51,0,1,1,3.55,0,2.5,2.5,0,0,1-3.55,0"/><path class="cls-9" d="M345.78,66.59a2.51,2.51,0,1,1,3.55,0,2.51,2.51,0,0,1-3.55,0"/><path class="cls-10" d="M340.76,53.87a2.51,2.51,0,1,1,3.55,0,2.51,2.51,0,0,1-3.55,0"/><path class="cls-9" d="M347.84,50.31a2.51,2.51,0,1,1,3.55,0,2.51,2.51,0,0,1-3.55,0"/><path class="cls-9" d="M346.08,59.19a2.51,2.51,0,1,1,3.55,0,2.51,2.51,0,0,1-3.55,0"/><path class="cls-10" d="M350.62,62.44a2.51,2.51,0,1,1,3.55,0,2.51,2.51,0,0,1-3.55,0"/><path class="cls-9" d="M355,53.87a2.51,2.51,0,1,1,3.55,0,2.51,2.51,0,0,1-3.55,0"/><path class="cls-10" d="M325.56,76.36a2.51,2.51,0,1,1,2.51,2.51,2.51,2.51,0,0,1-2.51-2.51"/><path class="cls-10" d="M314.68,73.85a2.51,2.51,0,1,1,2.51,2.51,2.51,2.51,0,0,1-2.51-2.51"/><path class="cls-10" d="M314.68,81.37a2.51,2.51,0,1,1,2.51,2.51,2.5,2.5,0,0,1-2.51-2.51"/><path class="cls-9" d="M320.12,68.83a2.51,2.51,0,1,1,2.51,2.51,2.5,2.5,0,0,1-2.51-2.51"/><path class="cls-10" d="M327.64,71.32a2.51,2.51,0,1,1,2.51,2.51,2.52,2.52,0,0,1-2.51-2.51"/><path class="cls-9" d="M320.12,76.36a2.51,2.51,0,1,1,2.51,2.51,2.51,2.51,0,0,1-2.51-2.51"/><path class="cls-9" d="M323.05,83.88a2.51,2.51,0,1,1,2.51,2.51,2.52,2.52,0,0,1-2.51-2.51"/><path class="cls-9" d="M330.15,78.87a2.51,2.51,0,1,1,2.51,2.5,2.51,2.51,0,0,1-2.51-2.5"/><path class="cls-9" d="M333.39,73.85a2.51,2.51,0,1,1,2.51,2.51,2.51,2.51,0,0,1-2.51-2.51"/><path class="cls-9" d="M304.08,95.87a2.51,2.51,0,1,1,3.54,0,2.51,2.51,0,0,1-3.54,0"/><path class="cls-10" d="M294.61,101.79a2.51,2.51,0,1,1,3.54,0,2.51,2.51,0,0,1-3.54,0"/><path class="cls-9" d="M299.93,107.11a2.51,2.51,0,1,1,3.55,0,2.5,2.5,0,0,1-3.55,0"/><path class="cls-10" d="M294.91,94.4a2.51,2.51,0,1,1,3.55,0,2.51,2.51,0,0,1-3.55,0"/><path class="cls-9" d="M300.23,99.72a2.51,2.51,0,1,1,3.55,0,2.51,2.51,0,0,1-3.55,0"/><path class="cls-9" d="M307.62,103a2.51,2.51,0,1,1,3.55,0,2.52,2.52,0,0,1-3.55,0"/><path class="cls-9" d="M309.1,94.4a2.51,2.51,0,1,1,3.54,0,2.51,2.51,0,0,1-3.54,0"/><path class="cls-10" d="M328.8,108.29a2.51,2.51,0,1,1,3.55,0,2.53,2.53,0,0,1-3.55,0"/><path class="cls-10" d="M334.13,113.61a2.51,2.51,0,1,1,3.54,0,2.51,2.51,0,0,1-3.54,0"/><path class="cls-10" d="M329.11,100.89a2.5,2.5,0,1,1,3.54,0,2.5,2.5,0,0,1-3.54,0"/><path class="cls-10" d="M336.19,97.33a2.5,2.5,0,1,1,3.54,0,2.5,2.5,0,0,1-3.54,0"/><path class="cls-10" d="M334.43,106.22a2.51,2.51,0,1,1,3.54,0,2.51,2.51,0,0,1-3.54,0"/><path class="cls-10" d="M341.82,109.46a2.51,2.51,0,1,1,3.55,0,2.5,2.5,0,0,1-3.55,0"/><path class="cls-11" d="M340.54,76.24a15,15,0,1,1-15-15A15,15,0,0,1,340.54,76.24Z"/><polygon class="cls-7" points="475 74.92 480.54 74.92 479.93 73.48 485 75.62 479.93 77.76 480.54 76.31 475 76.31 475 74.92"/><text class="cls-4" transform="translate(379.01 16.15)">Perform di<tspan class="cls-2" x="46.12" y="0">f</tspan><tspan x="48.72" y="0">ferential k-mer expression and query for functional annotation</tspan></text><line class="cls-12" x1="505.16" y1="67.92" x2="509.2" y2="67.92"/><line class="cls-12" x1="503.14" y1="72.03" x2="507.18" y2="72.03"/><line class="cls-12" x1="509.74" y1="70.89" x2="513.78" y2="70.89"/><line class="cls-12" x1="501.95" y1="74.8" x2="505.99" y2="74.8"/><line class="cls-12" x1="509.34" y1="74.8" x2="513.38" y2="74.8"/><line class="cls-12" x1="509.34" y1="77.61" x2="513.38" y2="77.61"/><line class="cls-12" x1="503.49" y1="79.04" x2="507.54" y2="79.04"/><text class="cls-1" transform="translate(493.18 90.97)">Cluster-<tspan x="-2.45" y="9.6">enriched </tspan><tspan x="-5.49" y="19.2">di</tspan><tspan class="cls-2" x="0.73" y="19.2">f</tspan><tspan x="2.81" y="19.2">ferential </tspan><tspan class="cls-5"><tspan x="1.78" y="28.8">k</tspan><tspan class="cls-6" x="5.78" y="28.8">-mers</tspan></tspan></text><rect class="cls-13" x="582.43" y="31.88" width="64.38" height="22" rx="5"/><text class="cls-1" transform="translate(586.16 40.21)">Not in reference <tspan x="12.45" y="9.6">genome*</tspan></text><text class="cls-14" transform="translate(542.31 68.64)">In reference <tspan x="6.89" y="9.6">genome</tspan></text><rect class="cls-13" x="582.43" y="72.22" width="61.63" height="22" rx="5"/><text class="cls-1" transform="translate(597.23 80.05)">Not in an <tspan x="-13.35" y="9.6">annotated gene*</tspan></text><text class="cls-14" transform="translate(541.75 108.98)">In annotated <tspan x="14.46" y="9.6">gene</tspan></text><rect class="cls-13" x="582.43" y="113.02" width="41.35" height="22" rx="5"/><text class="cls-14" transform="translate(585.31 121.36)">Unknown <tspan x="0.89" y="9.6">homolog*</tspan></text><text class="cls-1" transform="translate(548.16 149.79)">Known <tspan x="-2" y="9.6">homolog</tspan></text><rect class="cls-13" x="637.35" y="123.79" width="75.8" height="30.17" rx="5"/><text class="cls-1" transform="translate(640.11 131.63)">*Putative homologs <tspan x="0" y="9.6">not identifiable by </tspan><tspan x="0" y="19.2">traditional methods</tspan></text><line class="cls-15" x1="648.76" y1="49.88" x2="660.69" y2="49.88"/><path d="M659.79,49.88l-1.1-1.8.06,0,2.94,1.16,3.07.68-3.07.67-2.94,1.17-.06,0Z"/><polygon class="cls-7" points="529.71 74.92 535.26 74.92 534.65 73.48 539.71 75.62 534.65 77.76 535.26 76.31 529.71 76.31 529.71 74.92"/><path class="cls-16" d="M696.42,60.37c0,.94-4.28,1.7-9.57,1.7s-9.58-.76-9.58-1.7,4.29-1.71,9.58-1.71,9.57.76,9.57,1.71"/><rect class="cls-16" x="677.27" y="39.39" width="19.16" height="20.98"/><path class="cls-17" d="M696.42,39.39c0,.94-4.28,1.71-9.57,1.71s-9.58-.77-9.58-1.71,4.29-1.7,9.58-1.7,9.57.76,9.57,1.7"/><text class="cls-14" transform="translate(659.73 84.76)">Query mystery <tspan x="6.89" y="9.6" xml:space="preserve">k-mers  for </tspan><tspan x="8.88" y="19.2">functional </tspan><tspan x="8.43" y="28.8">annotation</tspan></text><text class="cls-14" transform="translate(673.5 70.39)">RefSeq</text><rect class="cls-11" x="394.37" y="45.11" width="34.48" height="84.49" rx="4"/><rect class="cls-18" x="394.37" y="45.11" width="34.48" height="85.13" rx="4"/><line class="cls-19" x1="390.36" y1="45.11" x2="390.36" y2="116.13"/><line class="cls-19" x1="464.35" y1="116.13" x2="390.53" y2="116.13"/><rect class="cls-20" x="412.87" y="60.26" width="12.85" height="55.87"/><rect class="cls-21" x="397.02" y="50.52" width="12.85" height="65.61"/><rect class="cls-21" x="432.82" y="101.93" width="12.85" height="13.97"/><rect class="cls-20" x="448.66" y="96.92" width="12.85" height="19.2"/><line class="cls-15" x1="403.44" y1="46.48" x2="403.44" y2="54.41"/><line class="cls-15" x1="419.29" y1="55.84" x2="419.29" y2="63.77"/><line class="cls-15" x1="439.24" y1="97.97" x2="439.24" y2="105.9"/><line class="cls-15" x1="455.09" y1="92.96" x2="455.09" y2="100.88"/><text class="cls-1" transform="translate(398.88 127.22)">Cluster</text><text class="cls-1" transform="translate(435.93 127.22)">Rest</text><text class="cls-22" transform="translate(387.76 110.87) rotate(-90)">k<tspan class="cls-6" x="4" y="0">-mer abundance</tspan></text><line class="cls-15" x1="651.11" y1="77.8" x2="659.54" y2="69.36"/><path d="M658.9,70l-2-.5,0-.07,2.9-1.25,2.65-1.7c-.57.88-1.13,1.77-1.69,2.65L659.47,72l-.06,0Z"/><polyline class="cls-15" points="577.08 83.22 565.11 83.22 565.11 95.2"/><path d="M576.19,83.22l-1.1,1.8.06,0,2.94-1.16,3.07-.68-3.07-.68-2.94-1.16-.06,0Z"/><path d="M565.1,94.3l1.81-1.09,0,.06-1.17,2.93c-.22,1-.45,2-.68,3.07-.22-1-.45-2-.67-3.07l-1.17-2.93,0-.06Z"/><polyline class="cls-15" points="577.08 124.02 565.11 124.02 565.11 136"/><path d="M576.19,124l-1.1,1.8.06,0,2.94-1.16,3.07-.68-3.07-.67-2.94-1.17-.06,0Z"/><path d="M565.1,135.1l1.81-1.09,0,.06L565.78,137c-.22,1-.45,2-.68,3.07-.22-1-.45-2.05-.67-3.07l-1.17-2.94,0-.06Z"/><line class="cls-15" x1="558.87" y1="37.13" x2="564.86" y2="43.12"/><polyline class="cls-15" points="577.08 42.88 565.11 42.88 565.11 54.86"/><path d="M576.19,42.88l-1.1,1.8.06,0,2.94-1.17,3.07-.67-3.07-.68L575.15,41l-.06,0Z"/><path d="M565.1,54l1.81-1.1,0,.07-1.17,2.93c-.22,1-.45,2-.68,3.07-.22-1-.45-2-.67-3.07l-1.17-2.93,0-.07Z"/><text class="cls-1" transform="translate(301.56 128.36)">Manual</text><line class="cls-12" x1="548.58" y1="26.32" x2="552.62" y2="26.32"/><line class="cls-12" x1="546.56" y1="30.43" x2="550.6" y2="30.43"/><line class="cls-12" x1="553.16" y1="29.28" x2="557.21" y2="29.28"/><line class="cls-12" x1="545.37" y1="33.19" x2="549.41" y2="33.19"/><line class="cls-12" x1="552.76" y1="33.19" x2="556.8" y2="33.19"/><line class="cls-12" x1="552.76" y1="36.01" x2="556.8" y2="36.01"/><line class="cls-12" x1="546.92" y1="37.44" x2="550.96" y2="37.44"/><text class="cls-23" transform="translate(8.94 42.25)">Species<tspan class="cls-24" x="35.58" y="0"> </tspan><tspan x="37.81" y="0">A </tspan><tspan x="-9.16" y="12">transcriptomes</tspan></text><path class="cls-25" d="M34.66,66.49A2.51,2.51,0,1,1,32.15,64a2.51,2.51,0,0,1,2.51,2.51"/><path class="cls-25" d="M40.1,74a2.51,2.51,0,1,1-2.51-2.51A2.51,2.51,0,0,1,40.1,74"/><path class="cls-25" d="M32.57,71.53A2.51,2.51,0,1,1,30.06,69a2.5,2.5,0,0,1,2.51,2.51"/><path class="cls-25" d="M40.1,66.49A2.51,2.51,0,1,1,37.59,64a2.51,2.51,0,0,1,2.51,2.51"/><path class="cls-25" d="M37.16,60.09a2.51,2.51,0,1,1-2.5-2.51,2.5,2.5,0,0,1,2.5,2.51"/><path class="cls-25" d="M30.06,64a2.51,2.51,0,1,1-2.5-2.51A2.5,2.5,0,0,1,30.06,64"/><path class="cls-26" d="M26.36,132a2.51,2.51,0,1,1,3.54,0,2.51,2.51,0,0,1-3.54,0"/><path class="cls-26" d="M31.68,137.34a2.51,2.51,0,1,1,3.54,0,2.51,2.51,0,0,1-3.54,0"/><path class="cls-26" d="M32,129.94a2.5,2.5,0,1,1,3.54,0,2.5,2.5,0,0,1-3.54,0"/><path class="cls-26" d="M39.37,133.19a2.51,2.51,0,1,1,3.55,0,2.51,2.51,0,0,1-3.55,0"/><text class="cls-4" transform="translate(1.5 14.91)">Subsample amino acid k-mers from each transcriptome</text><circle class="cls-27" cx="264.17" cy="34.9" r="5.21" transform="translate(169.52 283.99) rotate(-76.72)"/><line class="cls-28" x1="261.37" y1="34.16" x2="263.46" y2="34.16"/><line class="cls-28" x1="264.89" y1="34.93" x2="266.98" y2="34.93"/><line class="cls-28" x1="261.37" y1="35.98" x2="263.46" y2="35.98"/><line class="cls-28" x1="264.47" y1="37.23" x2="266.57" y2="37.23"/><line class="cls-28" x1="263.43" y1="32.56" x2="265.52" y2="32.56"/><circle class="cls-27" cx="258.96" cy="50.53" r="5.21" transform="matrix(0.23, -0.97, 0.97, 0.23, 150.29, 290.96)"/><line class="cls-28" x1="258.32" y1="53.31" x2="260.41" y2="53.31"/><line class="cls-28" x1="257.1" y1="47.75" x2="259.19" y2="47.75"/><line class="cls-28" x1="256.22" y1="51.32" x2="258.32" y2="51.32"/><line class="cls-28" x1="259.94" y1="48.92" x2="262.03" y2="48.92"/><line class="cls-28" x1="255.89" y1="49.54" x2="257.99" y2="49.54"/><line class="cls-28" x1="259.94" y1="50.73" x2="262.03" y2="50.73"/><circle class="cls-27" cx="270.27" cy="50.53" r="5.21" transform="translate(159 301.96) rotate(-76.72)"/><line class="cls-28" x1="268.87" y1="47.65" x2="270.96" y2="47.65"/><line class="cls-28" x1="267.82" y1="49.78" x2="269.92" y2="49.78"/><line class="cls-28" x1="271.24" y1="49.19" x2="273.33" y2="49.19"/><line class="cls-28" x1="267.2" y1="51.21" x2="269.3" y2="51.21"/><line class="cls-28" x1="271.03" y1="51.21" x2="273.12" y2="51.21"/><line class="cls-28" x1="271.03" y1="52.67" x2="273.12" y2="52.67"/><line class="cls-28" x1="268.01" y1="53.41" x2="270.1" y2="53.41"/><circle class="cls-27" cx="249.42" cy="45.32" r="5.21" transform="translate(148.01 277.66) rotate(-76.72)"/><line class="cls-28" x1="248.49" y1="42.62" x2="250.58" y2="42.62"/><line class="cls-28" x1="246.25" y1="44.12" x2="248.34" y2="44.12"/><line class="cls-28" x1="250.51" y1="44.42" x2="252.6" y2="44.42"/><line class="cls-28" x1="246.6" y1="45.97" x2="248.69" y2="45.97"/><line class="cls-28" x1="250.3" y1="46.98" x2="252.39" y2="46.98"/><line class="cls-28" x1="247.44" y1="48.01" x2="249.53" y2="48.01"/><circle class="cls-27" cx="254.64" cy="60.99" r="5.21" transform="translate(136.77 294.8) rotate(-76.72)"/><line class="cls-28" x1="255.28" y1="58.21" x2="253.19" y2="58.21"/><line class="cls-28" x1="256.5" y1="63.77" x2="254.41" y2="63.77"/><line class="cls-28" x1="257.37" y1="60.2" x2="255.28" y2="60.2"/><line class="cls-28" x1="253.66" y1="62.6" x2="251.57" y2="62.6"/><line class="cls-28" x1="257.71" y1="61.98" x2="255.61" y2="61.98"/><line class="cls-28" x1="253.66" y1="60.79" x2="251.57" y2="60.79"/><circle class="cls-27" cx="270.27" cy="66.16" r="5.21" transform="translate(143.78 314) rotate(-76.72)"/><line class="cls-28" x1="270.91" y1="63.38" x2="268.82" y2="63.38"/><line class="cls-28" x1="272.13" y1="68.94" x2="270.04" y2="68.94"/><line class="cls-28" x1="273.01" y1="65.37" x2="270.91" y2="65.37"/><line class="cls-28" x1="269.29" y1="67.78" x2="267.2" y2="67.78"/><line class="cls-28" x1="273.34" y1="67.15" x2="271.25" y2="67.15"/><line class="cls-28" x1="269.29" y1="65.96" x2="267.2" y2="65.96"/><path class="cls-29" d="M254.32,119.09a5.21,5.21,0,1,1,7.37,0A5.2,5.2,0,0,1,254.32,119.09Z"/><line class="cls-28" x1="255.2" y1="114.67" x2="257.29" y2="114.67"/><line class="cls-28" x1="258.72" y1="115.44" x2="260.81" y2="115.44"/><line class="cls-28" x1="255.2" y1="116.48" x2="257.29" y2="116.48"/><line class="cls-28" x1="258.3" y1="117.74" x2="260.4" y2="117.74"/><line class="cls-28" x1="257.26" y1="113.06" x2="259.35" y2="113.06"/><path class="cls-29" d="M242.64,123.39a5.21,5.21,0,1,1,7.37,0A5.22,5.22,0,0,1,242.64,123.39Z"/><line class="cls-28" x1="245.39" y1="117.02" x2="247.48" y2="117.02"/><line class="cls-28" x1="243.15" y1="118.52" x2="245.24" y2="118.52"/><line class="cls-28" x1="247.41" y1="118.82" x2="249.5" y2="118.82"/><line class="cls-28" x1="243.5" y1="120.36" x2="245.59" y2="120.36"/><line class="cls-28" x1="247.2" y1="121.38" x2="249.29" y2="121.38"/><line class="cls-28" x1="244.34" y1="122.4" x2="246.43" y2="122.4"/><path class="cls-29" d="M253.69,134.45a5.21,5.21,0,1,1,7.37,0A5.22,5.22,0,0,1,253.69,134.45Z"/><line class="cls-28" x1="258.02" y1="127.98" x2="255.93" y2="127.98"/><line class="cls-28" x1="259.24" y1="133.55" x2="257.15" y2="133.55"/><line class="cls-28" x1="260.12" y1="129.97" x2="258.02" y2="129.97"/><line class="cls-28" x1="256.4" y1="132.38" x2="254.31" y2="132.38"/><line class="cls-28" x1="260.45" y1="131.75" x2="258.36" y2="131.75"/><line class="cls-28" x1="256.4" y1="130.56" x2="254.31" y2="130.56"/><path class="cls-29" d="M269.68,125.83a5.21,5.21,0,1,1,7.37,0A5.22,5.22,0,0,1,269.68,125.83Z"/><line class="cls-28" x1="274.01" y1="119.36" x2="271.92" y2="119.36"/><line class="cls-28" x1="275.23" y1="124.93" x2="273.14" y2="124.93"/><line class="cls-28" x1="276.11" y1="121.35" x2="274.01" y2="121.35"/><line class="cls-28" x1="272.39" y1="123.76" x2="270.3" y2="123.76"/><line class="cls-28" x1="276.44" y1="123.13" x2="274.35" y2="123.13"/><line class="cls-28" x1="272.39" y1="121.94" x2="270.3" y2="121.94"/><text class="cls-30" transform="translate(6.01 106.74)">Species<tspan class="cls-24" x="35.58" y="0"> </tspan><tspan x="37.81" y="0">B </tspan><tspan x="-9.16" y="12">transcriptomes</tspan></text><text class="cls-1" transform="translate(203.42 150.3)">Reduced amino acid <tspan x="17.8" y="9.6">alphabet </tspan><tspan class="cls-5" x="50.71" y="9.6">k</tspan><tspan x="54.71" y="9.6">-mers</tspan></text><text class="cls-1" transform="translate(103.37 74.66)">Protein-coding</text><text class="cls-1" transform="translate(166.16 91.97)">Convert to <tspan x="4" y="9.6">reduced </tspan><tspan x="3.11" y="19.2">alphabet</tspan></text><text class="cls-1" transform="translate(207.95 91.97)">Decompose <tspan x="4.68" y="9.6">to k-mers </tspan></text><text class="cls-1" transform="translate(68.87 115.98)">Input <tspan x="0" y="9.6">reads</tspan></text><line class="cls-31" x1="68.87" y1="90.88" x2="82.66" y2="90.88"/><line class="cls-31" x1="69.8" y1="94.24" x2="83.59" y2="94.24"/><line class="cls-31" x1="70.53" y1="98.13" x2="84.32" y2="98.13"/><line class="cls-31" x1="75.76" y1="102.02" x2="89.56" y2="102.02"/><line class="cls-31" x1="77.42" y1="88.35" x2="91.21" y2="88.35"/><path class="cls-32" d="M118,78.2c1.38,0,1.38,1.89,2.76,1.89s1.37-1.89,2.75-1.89,1.38,1.89,2.76,1.89,1.38-1.89,2.76-1.89,1.38,1.89,2.76,1.89"/><path class="cls-32" d="M119.65,85.45c1.38,0,1.38,1.89,2.75,1.89s1.38-1.89,2.76-1.89,1.38,1.89,2.76,1.89,1.38-1.89,2.76-1.89,1.38,1.89,2.76,1.89"/><path class="cls-32" d="M124.89,89.34c1.37,0,1.37,1.89,2.75,1.89s1.38-1.89,2.76-1.89,1.38,1.89,2.75,1.89,1.39-1.89,2.77-1.89,1.38,1.89,2.76,1.89"/><path class="cls-33" d="M173.44,65.48c1.91,0,1.91,2.62,3.82,2.62s1.92-2.62,3.83-2.62,1.91,2.62,3.82,2.62,1.92-2.62,3.83-2.62,1.92,2.62,3.83,2.62"/><path class="cls-33" d="M175.74,75.53c1.91,0,1.91,2.62,3.82,2.62s1.92-2.62,3.83-2.62,1.91,2.62,3.82,2.62,1.92-2.62,3.83-2.62,1.91,2.62,3.83,2.62"/><path class="cls-33" d="M183,80.93c1.91,0,1.91,2.62,3.82,2.62s1.91-2.62,3.82-2.62,1.91,2.62,3.82,2.62,1.92-2.62,3.83-2.62,1.92,2.62,3.83,2.62"/><path class="cls-34" d="M214.62,65.48a2,2,0,0,1,.35,0"/><path class="cls-35" d="M216.33,66.52c.56.73,1,1.58,2.11,1.58,1.91,0,1.91-2.62,3.83-2.62s1.91,2.62,3.82,2.62,1.91-2.62,3.83-2.62c1.44,0,1.8,1.49,2.71,2.22"/><path class="cls-34" d="M233.4,68.07a1.9,1.9,0,0,0,.35,0"/><path class="cls-34" d="M216.92,75.53a2,2,0,0,1,.35,0"/><path class="cls-35" d="M218.63,76.57c.55.73,1,1.58,2.11,1.58,1.91,0,1.91-2.62,3.82-2.62s1.92,2.62,3.83,2.62,1.91-2.62,3.83-2.62c1.44,0,1.8,1.49,2.71,2.22"/><path class="cls-34" d="M235.7,78.12a1.9,1.9,0,0,0,.35,0"/><path class="cls-34" d="M224.18,80.93a1.9,1.9,0,0,1,.35,0"/><path class="cls-35" d="M225.89,82c.56.73,1,1.58,2.12,1.58,1.91,0,1.91-2.62,3.82-2.62s1.91,2.62,3.82,2.62,1.92-2.62,3.83-2.62c1.45,0,1.8,1.49,2.71,2.22"/><path class="cls-34" d="M243,83.52a2,2,0,0,0,.35,0"/><polygon class="cls-7" points="162.12 75.41 165.01 75.41 164.69 74.66 167.33 75.77 164.69 76.89 165.01 76.13 162.12 76.13 162.12 75.41"/><polygon class="cls-7" points="201.9 75.41 204.79 75.41 204.47 74.66 207.12 75.77 204.47 76.89 204.79 76.13 201.9 76.13 201.9 75.41"/><polygon class="cls-7" points="54.1 60.96 58.02 64.88 58.6 63.43 60.68 68.52 55.58 66.45 57.03 65.86 53.11 61.94 54.1 60.96"/><polygon class="cls-7" points="53.11 95.93 57.04 92.01 55.58 91.42 60.68 89.35 58.61 94.45 58.02 92.99 54.1 96.92 53.11 95.93"/><polygon class="cls-7" points="233.61 106.41 237.53 110.33 238.12 108.88 240.19 113.97 235.09 111.9 236.55 111.31 232.63 107.39 233.61 106.41"/><polygon class="cls-7" points="232.43 62.05 236.35 58.13 234.9 57.54 240 55.47 237.93 60.57 237.34 59.11 233.41 63.03 232.43 62.05"/><text class="cls-1" transform="translate(105.63 110.19)">Noncoding</text><polygon class="cls-7" points="96.5 82.94 98.55 80.9 97.79 80.59 100.44 79.51 99.36 82.17 99.06 81.41 97.01 83.45 96.5 82.94"/><polygon class="cls-7" points="95.45 106.92 97.5 108.97 97.8 108.21 98.88 110.87 96.23 109.79 96.98 109.48 94.94 107.44 95.45 106.92"/><line class="cls-31" x1="96.83" y1="30.12" x2="110.63" y2="30.12"/><text class="cls-1" transform="translate(114.15 33.53)">Nucleotide</text><path class="cls-32" d="M96.83,37.54c1.38,0,1.38,1.89,2.76,1.89s1.38-1.89,2.76-1.89,1.38,1.89,2.75,1.89,1.38-1.89,2.77-1.89,1.38,1.89,2.76,1.89"/><text class="cls-1" transform="translate(113.66 41.83)">Protein</text><line class="cls-31" x1="114.51" y1="122.18" x2="128.31" y2="122.18"/><line class="cls-31" x1="122.13" y1="116.3" x2="135.93" y2="116.3"/></svg>