<svg id="Layer_1" data-name="Layer 1" xmlns="http://www.w3.org/2000/svg" viewBox="0 0 675.91 388.15"><defs><style>.cls-1{fill:#e6e6e6;}.cls-17,.cls-2,.cls-21{font-size:6px;}.cls-11,.cls-12,.cls-13,.cls-14,.cls-18,.cls-2,.cls-3,.cls-7{fill:#231f20;}.cls-14,.cls-18,.cls-2,.cls-21,.cls-7{font-family:ArialMT, Arial;}.cls-3{font-size:3px;font-family:Courier;}.cls-10,.cls-19,.cls-20,.cls-23,.cls-24,.cls-25,.cls-26,.cls-27,.cls-4,.cls-5,.cls-6,.cls-8{fill:none;}.cls-26,.cls-27,.cls-4,.cls-5,.cls-6{stroke:#231f20;}.cls-10,.cls-19,.cls-20,.cls-23,.cls-25,.cls-26,.cls-27,.cls-4,.cls-5,.cls-6,.cls-8{stroke-miterlimit:10;}.cls-19,.cls-20,.cls-26,.cls-27,.cls-4,.cls-5,.cls-6{stroke-width:0.25px;}.cls-5{stroke-dasharray:2 2;}.cls-6{stroke-dasharray:2.02 2.02;}.cls-7{font-size:10px;}.cls-23,.cls-8{stroke:#00addc;}.cls-24,.cls-25,.cls-8{stroke-linecap:round;}.cls-25,.cls-8{stroke-width:2px;}.cls-9{fill:#662f90;}.cls-10{stroke:#fff;stroke-width:0.5px;}.cls-12,.cls-18{font-size:12px;}.cls-12{font-family:Arial-BoldMT, Arial;font-weight:700;}.cls-13,.cls-14,.cls-16{font-size:8px;}.cls-13,.cls-16,.cls-17{font-family:FantasqueSansMonoNerdFontComplete-Regular, FantasqueSansMono Nerd Font;}.cls-15,.cls-21{fill:gray;}.cls-16,.cls-17{fill:#fff;}.cls-19{stroke:#191919;}.cls-20{stroke:gray;}.cls-22{font-family:Arial-ItalicMT, Arial;font-style:italic;}.cls-24{stroke:#662d91;stroke-linejoin:round;stroke-width:0.75px;}.cls-25{stroke:#29aae2;}.cls-26{stroke-dasharray:2.01 2.01;}.cls-27{stroke-dasharray:2 2;}</style></defs><title>figure1</title><rect class="cls-1" x="273.88" y="235.26" width="60" height="90"/><rect class="cls-1" x="169.8" y="235.26" width="60" height="90"/><rect class="cls-1" x="64.48" y="235.26" width="57.47" height="90"/><rect class="cls-1" x="69.54" y="54.82" width="39.91" height="50.94"/><text class="cls-2" transform="translate(71.72 66.3)">Cell1</text><text class="cls-2" transform="translate(71.72 78.4)">Cell2</text><text class="cls-2" transform="translate(71.72 90.49)">Cell3</text><text class="cls-2" transform="translate(76.06 102.59)">...</text><text class="cls-3" transform="translate(89.22 61.67)">CTG..CTG<tspan x="0" y="3.6">GTA..CTG</tspan><tspan x="4.5" y="7.2">...</tspan></text><text class="cls-3" transform="translate(89.22 73.77)">CTG..CTG<tspan x="0" y="3.6">GTA..CTG</tspan><tspan x="4.5" y="7.2">...</tspan></text><text class="cls-3" transform="translate(89.22 85.86)">CTG..CTG<tspan x="0" y="3.6">GTA..CTG</tspan><tspan x="4.5" y="7.2">...</tspan></text><rect class="cls-1" x="131.73" y="47.67" width="60" height="90"/><rect class="cls-1" x="434.28" y="47.4" width="60" height="90"/><rect class="cls-1" x="522.09" y="47.4" width="60" height="90"/><rect class="cls-1" x="609.9" y="47.4" width="60" height="90"/><rect class="cls-1" x="247.34" y="47.24" width="163.2" height="90.32"/><polyline class="cls-4" points="673.88 200.25 673.88 201.25 672.88 201.25"/><line class="cls-5" x1="670.87" y1="201.25" x2="50.45" y2="201.25"/><polyline class="cls-4" points="49.44 201.25 48.44 201.25 48.44 200.25"/><line class="cls-6" x1="48.44" y1="198.23" x2="48.44" y2="45.47"/><polyline class="cls-4" points="48.44 44.46 48.44 43.46 49.44 43.46"/><line class="cls-5" x1="51.45" y1="43.46" x2="671.88" y2="43.46"/><polyline class="cls-4" points="672.88 43.46 673.88 43.46 673.88 44.46"/><line class="cls-6" x1="673.88" y1="46.48" x2="673.88" y2="199.24"/><text class="cls-7" transform="translate(6.42 98.18)">Droplet <tspan x="-6.11" y="12">single-cell </tspan><tspan x="7.78" y="24">bam</tspan></text><text class="cls-7" transform="translate(619.89 106.3)">Visualize <tspan x="11.12" y="12">with </tspan><tspan x="5.56" y="24">UMAP</tspan></text><path d="M632.52,63.29a.88.88,0,1,1-1.76,0,.88.88,0,1,1,1.76,0"/><path d="M636.33,64.17a.88.88,0,0,1-1.76,0,.88.88,0,0,1,1.76,0"/><path d="M636.33,61.53a.88.88,0,1,1-.88-.88.88.88,0,0,1,.88.88"/><path d="M634.42,65.93a.88.88,0,1,1-.88-.88.87.87,0,0,1,.88.88"/><path d="M631.79,65.05a.88.88,0,1,1-.88-.88.88.88,0,0,1,.88.88"/><path d="M634.42,63.29a.88.88,0,1,1-.88-.88.88.88,0,0,1,.88.88"/><path d="M633.39,60.65a.88.88,0,1,1-.87-.88.87.87,0,0,1,.87.88"/><path d="M630.91,62.41a.88.88,0,1,1-.88-.88.88.88,0,0,1,.88.88"/><path d="M647.13,63.81a.88.88,0,0,1,1.24-1.25.89.89,0,0,1,0,1.25.88.88,0,0,1-1.24,0"/><path d="M643.81,65.88a.88.88,0,1,1,1.24-1.24.86.86,0,0,1,0,1.24.88.88,0,0,1-1.24,0"/><path d="M645.67,67.75a.88.88,0,1,1,1.25,0,.89.89,0,0,1-1.25,0"/><path d="M643.91,63.29a.88.88,0,0,1,0-1.24.89.89,0,0,1,1.25,0,.88.88,0,0,1,0,1.24.89.89,0,0,1-1.25,0"/><path d="M646.4,62a.86.86,0,0,1,0-1.24A.88.88,0,0,1,647.64,62a.86.86,0,0,1-1.24,0"/><path d="M645.78,65.16a.89.89,0,0,1,0-1.25.88.88,0,1,1,0,1.25"/><path d="M647.37,66.29a.88.88,0,0,1,1.24-1.24.88.88,0,0,1-1.24,1.24"/><path d="M648.89,63.29a.86.86,0,0,1,0-1.24.88.88,0,1,1,0,1.24"/><path d="M638.59,71.17a.88.88,0,1,1,.88.88.88.88,0,0,1-.88-.88"/><path d="M634.78,70.29a.88.88,0,1,1,.88.88.88.88,0,0,1-.88-.88"/><path d="M634.78,72.93a.88.88,0,1,1,1.76,0,.88.88,0,1,1-1.76,0"/><path d="M636.69,68.53a.88.88,0,1,1,.87.88.87.87,0,0,1-.87-.88"/><path d="M639.32,69.41a.88.88,0,1,1,.88.87.88.88,0,0,1-.88-.87"/><path d="M636.69,71.17a.88.88,0,1,1,.87.88.87.87,0,0,1-.87-.88"/><path d="M637.71,73.81a.88.88,0,1,1,.88.87.88.88,0,0,1-.88-.87"/><path d="M640.2,72.05a.88.88,0,1,1,1.76,0,.88.88,0,1,1-1.76,0"/><path d="M641.33,70.29a.88.88,0,0,1,1.76,0,.88.88,0,0,1-1.76,0"/><path d="M631.07,78a.86.86,0,0,1,0-1.24A.88.88,0,1,1,632.31,78a.86.86,0,0,1-1.24,0"/><path d="M627.75,80.08a.88.88,0,0,1,0-1.24.86.86,0,0,1,1.24,0,.88.88,0,1,1-1.24,1.24"/><path d="M629.61,81.94a.88.88,0,1,1,1.24-1.24.88.88,0,0,1-1.24,1.24"/><path d="M627.85,77.49a.88.88,0,1,1,1.25,0,.89.89,0,0,1-1.25,0"/><path d="M629.72,79.35a.86.86,0,0,1,0-1.24A.88.88,0,1,1,631,79.35a.86.86,0,0,1-1.24,0"/><path d="M632.31,80.49a.88.88,0,0,1,0-1.24.86.86,0,0,1,1.24,0,.88.88,0,1,1-1.24,1.24"/><path d="M632.82,77.49a.88.88,0,1,1,1.25,0,.89.89,0,0,1-1.25,0"/><path d="M639.73,82.36A.88.88,0,0,1,641,81.11a.89.89,0,0,1,0,1.25.88.88,0,0,1-1.24,0"/><path d="M641.59,84.22a.88.88,0,0,1,0-1.24.88.88,0,1,1,1.24,1.24.88.88,0,0,1-1.24,0"/><path d="M639.83,79.76a.88.88,0,0,1,0-1.24.89.89,0,0,1,1.25,0,.88.88,0,0,1-1.25,1.24"/><path d="M642.31,78.52a.88.88,0,1,1,1.25,0,.89.89,0,0,1-1.25,0"/><path d="M641.7,81.63a.88.88,0,1,1,1.24-1.24.88.88,0,0,1-1.24,1.24"/><path d="M644.29,82.77a.88.88,0,0,1,1.24-1.25.89.89,0,0,1,0,1.25.88.88,0,0,1-1.24,0"/><path d="M644.8,79.76a.88.88,0,0,1,0-1.24.89.89,0,0,1,1.25,0,.88.88,0,0,1-1.25,1.24"/><text class="cls-7" transform="translate(67.65 286.59)">Get cluster <tspan x="5" y="12">enriched </tspan><tspan x="9.44" y="24">hashes</tspan></text><line class="cls-8" x1="86.71" y1="273.02" x2="92.71" y2="273.02"/><line class="cls-8" x1="83.71" y1="264.24" x2="89.71" y2="264.24"/><line class="cls-8" x1="95.71" y1="246.69" x2="101.71" y2="246.69"/><line class="cls-8" x1="96.71" y1="261.32" x2="102.71" y2="261.32"/><text class="cls-7" transform="translate(288.87 280.11)">Query <tspan x="-6.96" y="12">database </tspan><tspan x="-11.12" y="24">for putative </tspan><tspan x="-5.56" y="36">orthologs</tspan></text><rect class="cls-9" x="294.3" y="242.87" width="19.16" height="20.98"/><path class="cls-9" d="M313.45,242.87c0,.95-4.28,1.71-9.57,1.71s-9.58-.76-9.58-1.71,4.29-1.7,9.58-1.7,9.57.76,9.57,1.7"/><path class="cls-9" d="M313.45,263.85c0,.94-4.28,1.7-9.57,1.7s-9.58-.76-9.58-1.7,4.29-1.71,9.58-1.71,9.57.77,9.57,1.71"/><path class="cls-10" d="M313.45,242.87c0,.95-4.28,1.71-9.57,1.71s-9.58-.76-9.58-1.71,4.29-1.7,9.58-1.7S313.45,241.93,313.45,242.87Z"/><polygon class="cls-11" points="36.14 69.63 41.68 69.63 41.07 68.18 46.14 70.32 41.07 72.46 41.68 71.02 36.14 71.02 36.14 69.63"/><polygon class="cls-11" points="503.23 69.63 508.78 69.63 508.17 68.18 513.23 70.32 508.17 72.46 508.78 71.02 503.23 71.02 503.23 69.63"/><polygon class="cls-11" points="41.86 246.88 47.41 246.88 46.8 245.44 51.86 247.57 46.8 249.71 47.41 248.27 41.86 248.27 41.86 246.88"/><polygon class="cls-11" points="134.45 266.88 140 266.88 139.38 265.44 144.45 267.57 139.38 269.71 140 268.27 134.45 268.27 134.45 266.88"/><polygon class="cls-11" points="246.48 266.88 252.03 266.88 251.41 265.44 256.48 267.57 251.41 269.71 252.03 268.27 246.48 268.27 246.48 266.88"/><text class="cls-12" transform="translate(1.25 52.18)">A</text><text class="cls-13" transform="translate(607.31 39.35)">nf-core/kmermaid</text><text class="cls-13" transform="translate(221.94 219.15)">czbiohub/nf-predictorthologs</text><text class="cls-14" transform="translate(8.63 351.41)">Manual</text><rect class="cls-15" x="10.21" y="66.93" width="21.3" height="9" rx="4.02"/><text class="cls-16" transform="translate(11.26 73.63)">.bam</text><text class="cls-16" transform="translate(11.26 73.63)">.bam</text><rect class="cls-15" x="102.73" y="33.85" width="21.3" height="9" rx="4.02"/><text class="cls-17" transform="translate(104.06 40.18)">.fq.gz</text><polygon class="cls-11" points="415.07 69.63 420.62 69.63 420.01 68.18 425.07 70.32 420.01 72.46 420.62 71.02 415.07 71.02 415.07 69.63"/><text class="cls-7" transform="translate(451.77 108.18)">Build <tspan x="-10.57" y="12">sequence </tspan><tspan x="-11.12" y="24">bloom tree</tspan></text><text class="cls-18" transform="translate(4.43 15.17)">Figure 1</text><text class="cls-2" transform="translate(438.17 88.3)">Cell1</text><text class="cls-2" transform="translate(453.24 88.3)">Cell2</text><text class="cls-2" transform="translate(468.32 88.3)">Cell3</text><text class="cls-2" transform="translate(484.39 85.3)">...</text><polyline class="cls-19" points="477.62 68.17 466.27 56.82 454.92 68.17"/><polyline class="cls-19" points="470.21 83 478.24 69.1 486.27 83"/><polyline class="cls-19" points="446.27 83 454.3 69.1 462.32 83"/><polyline class="cls-20" points="480.91 56.21 473.78 52.09 466.65 56.21"/><text class="cls-21" transform="translate(479.43 58.64)">...</text><text class="cls-2" transform="translate(530.42 79.65)">Cell1</text><text class="cls-2" transform="translate(528.1 65.51)">Cell2</text><text class="cls-2" transform="translate(549.64 68.62)">Cell3</text><text class="cls-2" transform="translate(571.13 75.08)">...</text><text class="cls-2" transform="translate(554.41 80.34)">...</text><line class="cls-19" x1="534.37" y1="66.38" x2="537.16" y2="74.37"/><line class="cls-19" x1="542.74" y1="63.35" x2="549.64" y2="65.62"/><line class="cls-19" x1="544.69" y1="76.81" x2="552.78" y2="79.65"/><line class="cls-19" x1="562.27" y1="70.02" x2="570.23" y2="74.37"/><line class="cls-19" x1="541.48" y1="73.27" x2="548.74" y2="69.22"/><text class="cls-7" transform="translate(539.58 106.3)">Build <tspan x="-8.34" y="12">neighbor </tspan><tspan x="-0.28" y="24">graph</tspan></text><polygon class="cls-11" points="591.88 69.63 597.42 69.63 596.81 68.18 601.88 70.32 596.81 72.46 597.42 71.02 591.88 71.02 591.88 69.63"/><text class="cls-2" transform="translate(134.33 59.75)">Cell1</text><text class="cls-2" transform="translate(134.33 71.85)">Cell2</text><text class="cls-2" transform="translate(134.33 83.94)">Cell3</text><text class="cls-2" transform="translate(138.67 96.04)">...</text><text class="cls-7" transform="translate(55.88 195.98)">Per-cell Reads</text><text class="cls-7" transform="translate(125.26 176.22)">Per-cell translated <tspan x="1.93" y="12">protein sequence </tspan></text><text class="cls-2" transform="translate(341.08 58.64)">Cell1</text><text class="cls-2" transform="translate(341.08 70.73)">Cell2</text><text class="cls-2" transform="translate(341.08 82.83)">Cell3</text><text class="cls-2" transform="translate(345.42 94.93)">...</text><text class="cls-7" transform="translate(326.11 112.53)">MinHash-selected <tspan x="6.4" y="12">random </tspan><tspan class="cls-22" x="43.08" y="12">k</tspan><tspan x="48.08" y="12">-mers</tspan></text><text class="cls-7" transform="translate(254.72 111.97)">Reduced <tspan x="4.73" y="12">protein </tspan><tspan x="2.22" y="24">alphabet</tspan></text><text class="cls-2" transform="translate(249.48 56.54)">Cell1</text><text class="cls-2" transform="translate(249.48 68.63)">Cell2</text><text class="cls-2" transform="translate(249.48 80.73)">Cell3</text><text class="cls-2" transform="translate(253.82 92.83)">...</text><text class="cls-13" transform="translate(292.67 148.29)">sourmash compute</text><text class="cls-13" transform="translate(439.74 148.29)">sourmash index</text><text class="cls-13" transform="translate(527.26 148.29)">sourmash knn</text><text class="cls-13" transform="translate(611.81 148.29)">sourmash umap</text><text class="cls-13" transform="translate(131.14 148.29)">sencha translate</text><text class="cls-13" transform="translate(51.21 184.63)">bam2fasta percell</text><polygon class="cls-11" points="117.36 43.46 121.28 47.38 121.87 45.93 123.94 51.02 118.85 48.95 120.3 48.36 116.38 44.44 117.36 43.46"/><text class="cls-7" transform="translate(17.04 40.85)">Per-sample Reads</text><polygon class="cls-11" points="113.77 69.63 119.32 69.63 118.7 68.18 123.77 70.32 118.7 72.46 119.32 71.02 113.77 71.02 113.77 69.63"/><polygon class="cls-11" points="232.52 69.63 238.06 69.63 237.45 68.18 242.52 70.32 237.45 72.46 238.06 71.02 232.52 71.02 232.52 69.63"/><polygon class="cls-11" points="313.45 69.63 319 69.63 318.39 68.18 323.45 70.32 318.39 72.46 319 71.02 313.45 71.02 313.45 69.63"/><rect class="cls-15" x="124.92" y="33.85" width="21.3" height="9" rx="4.02"/><text class="cls-17" transform="translate(125.25 40.18)">.fasta</text><rect class="cls-15" x="146.99" y="33.85" width="21.3" height="9" rx="4.02"/><text class="cls-17" transform="translate(147.32 40.18)">.fastq</text><text class="cls-7" transform="translate(69.72 52.18)">Aligned</text><text class="cls-7" transform="translate(67.36 119.83) scale(1.04 1)">Unaligned</text><rect class="cls-1" x="69.54" y="123.39" width="39.91" height="50.94"/><text class="cls-2" transform="translate(71.72 134.87)">Cell1</text><text class="cls-2" transform="translate(71.72 146.97)">Cell2</text><text class="cls-2" transform="translate(71.72 159.07)">Cell3</text><text class="cls-2" transform="translate(76.06 171.16)">...</text><text class="cls-3" transform="translate(89.22 130.24)">CTG..CTG<tspan x="0" y="3.6">GTA..CTG</tspan><tspan x="4.5" y="7.2">...</tspan></text><text class="cls-3" transform="translate(89.22 142.34)">CTG..CTG<tspan x="0" y="3.6">GTA..CTG</tspan><tspan x="4.5" y="7.2">...</tspan></text><text class="cls-3" transform="translate(89.22 154.44)">CTG..CTG<tspan x="0" y="3.6">GTA..CTG</tspan><tspan x="4.5" y="7.2">...</tspan></text><polygon class="cls-11" points="114.99 137.67 118.91 133.75 117.46 133.16 122.55 131.09 120.48 136.19 119.89 134.73 115.97 138.65 114.99 137.67"/><path d="M16.55,238.58a.88.88,0,1,1-.88-.87.88.88,0,0,1,.88.87"/><path d="M20.36,239.46a.88.88,0,1,1-.88-.87.87.87,0,0,1,.88.87"/><path d="M20.36,236.83a.88.88,0,1,1-.88-.88.88.88,0,0,1,.88.88"/><path d="M18.45,241.22a.88.88,0,1,1-.87-.88.87.87,0,0,1,.87.88"/><path d="M15.82,240.35a.88.88,0,0,1-1.76,0,.88.88,0,0,1,1.76,0"/><path d="M18.45,238.58a.88.88,0,1,1-.87-.87.87.87,0,0,1,.87.87"/><path d="M17.43,236a.88.88,0,1,1-1.76,0,.88.88,0,0,1,1.76,0"/><path d="M14.94,237.71a.88.88,0,1,1-.88-.88.87.87,0,0,1,.88.88"/><path d="M31.16,239.1a.88.88,0,1,1,1.24,0,.86.86,0,0,1-1.24,0"/><path d="M27.84,241.18a.88.88,0,1,1,1.25,0,.89.89,0,0,1-1.25,0"/><path d="M29.71,243a.86.86,0,0,1,0-1.24.88.88,0,1,1,0,1.24"/><path d="M28,238.59a.88.88,0,0,1,1.24-1.25.89.89,0,0,1,0,1.25.88.88,0,0,1-1.24,0"/><path d="M30.43,237.34a.88.88,0,0,1,1.24-1.24.88.88,0,1,1-1.24,1.24"/><path d="M29.81,240.45a.88.88,0,0,1,0-1.24.88.88,0,1,1,1.24,1.24.88.88,0,0,1-1.24,0"/><path d="M31.4,241.59a.88.88,0,0,1,0-1.24.88.88,0,0,1,1.24,1.24.88.88,0,0,1-1.24,0"/><path d="M32.92,238.59a.88.88,0,0,1,1.24-1.25.89.89,0,0,1,0,1.25.88.88,0,0,1-1.24,0"/><path d="M22.62,246.47a.88.88,0,1,1,.88.87.88.88,0,0,1-.88-.87"/><path d="M18.81,245.59a.88.88,0,1,1,1.76,0,.88.88,0,1,1-1.76,0"/><path d="M18.81,248.22a.88.88,0,1,1,.88.88.88.88,0,0,1-.88-.88"/><path d="M20.72,243.83a.88.88,0,1,1,.88.88.87.87,0,0,1-.88-.88"/><path d="M23.35,244.7a.88.88,0,0,1,1.76,0,.88.88,0,0,1-1.76,0"/><path d="M20.72,246.47a.88.88,0,1,1,.88.87.87.87,0,0,1-.88-.87"/><path d="M21.74,249.1a.88.88,0,1,1,1.76,0,.88.88,0,1,1-1.76,0"/><path d="M24.23,247.34a.88.88,0,0,1,1.76,0,.88.88,0,0,1-1.76,0"/><path d="M25.37,245.59a.88.88,0,1,1,.87.88.87.87,0,0,1-.87-.88"/><path d="M15.1,253.3a.88.88,0,1,1,1.24-1.24.88.88,0,0,1-1.24,1.24"/><path d="M11.78,255.37A.88.88,0,1,1,13,254.13a.88.88,0,0,1-1.24,1.24"/><path d="M13.64,257.24a.88.88,0,1,1,1.25,0,.89.89,0,0,1-1.25,0"/><path d="M11.89,252.78a.86.86,0,0,1,0-1.24.88.88,0,1,1,1.24,1.24.86.86,0,0,1-1.24,0"/><path d="M13.75,254.65a.88.88,0,0,1,0-1.24A.88.88,0,1,1,15,254.65a.88.88,0,0,1-1.24,0"/><path d="M16.34,255.79a.89.89,0,0,1,0-1.25.88.88,0,1,1,0,1.25"/><path d="M16.86,252.78a.86.86,0,0,1,0-1.24.88.88,0,1,1,1.24,1.24.86.86,0,0,1-1.24,0"/><path d="M23.76,257.65A.88.88,0,1,1,25,256.41a.86.86,0,0,1,0,1.24.88.88,0,0,1-1.24,0"/><path d="M25.62,259.51a.88.88,0,0,1,0-1.24.89.89,0,0,1,1.25,0,.88.88,0,0,1-1.25,1.24"/><path d="M23.87,255.06a.88.88,0,0,1,1.24-1.24.88.88,0,1,1-1.24,1.24"/><path d="M26.35,253.81a.86.86,0,0,1,0-1.24.88.88,0,0,1,1.24,1.24.86.86,0,0,1-1.24,0"/><path d="M25.73,256.92a.88.88,0,1,1,1.24,0,.86.86,0,0,1-1.24,0"/><path d="M28.32,258.06a.88.88,0,1,1,1.24-1.24.86.86,0,0,1,0,1.24.88.88,0,0,1-1.24,0"/><path d="M28.84,255.06a.88.88,0,0,1,1.24-1.24.88.88,0,1,1-1.24,1.24"/><circle class="cls-23" cx="30.47" cy="239.55" r="5.87" transform="translate(-209.67 214.17) rotate(-76.72)"/><text class="cls-7" transform="translate(6.7 274.32)">Choose <tspan x="-3.32" y="12">cluster(s) </tspan><tspan x="-4.72" y="24">of interest</tspan></text><text class="cls-13" transform="translate(160.29 338.58)">sourmash hash2kmer</text><text class="cls-13" transform="translate(269.8 338.58)">diamond blastp</text><text class="cls-13" transform="translate(69.72 338.58)">sourmash dke</text><line class="cls-24" x1="190.13" y1="267.01" x2="209.46" y2="267.01"/><line class="cls-24" x1="190.13" y1="258.24" x2="209.46" y2="258.24"/><line class="cls-24" x1="190.13" y1="252.38" x2="209.46" y2="252.38"/><line class="cls-24" x1="190.13" y1="249.46" x2="209.46" y2="249.46"/><line class="cls-24" x1="190.13" y1="246.53" x2="209.46" y2="246.53"/><line class="cls-24" x1="190.13" y1="243.61" x2="209.46" y2="243.61"/><line class="cls-24" x1="190.13" y1="240.68" x2="209.46" y2="240.68"/><line class="cls-24" x1="190.13" y1="261.16" x2="209.46" y2="261.16"/><line class="cls-24" x1="190.13" y1="264.09" x2="209.46" y2="264.09"/><line class="cls-24" x1="190.13" y1="255.31" x2="209.46" y2="255.31"/><line class="cls-25" x1="193.13" y1="267.01" x2="199.13" y2="267.01"/><line class="cls-25" x1="190.13" y1="258.24" x2="196.13" y2="258.24"/><line class="cls-25" x1="202.13" y1="240.68" x2="208.13" y2="240.68"/><line class="cls-25" x1="203.13" y1="255.31" x2="209.13" y2="255.31"/><text class="cls-7" transform="translate(173.67 280.59)">Get protein <tspan x="-2.51" y="12">sequence of </tspan><tspan x="5.56" y="24">enriched </tspan><tspan x="10" y="36">hashes</tspan></text><polyline class="cls-4" points="341.08 343.18 341.08 344.18 340.08 344.18"/><line class="cls-26" x1="338.07" y1="344.18" x2="57.49" y2="344.18"/><polyline class="cls-4" points="56.49 344.18 55.49 344.18 55.49 343.18"/><line class="cls-27" x1="55.49" y1="341.18" x2="55.49" y2="226"/><polyline class="cls-4" points="55.49 225 55.49 224 56.49 224"/><line class="cls-26" x1="58.5" y1="224" x2="339.07" y2="224"/><polyline class="cls-4" points="340.08 224 341.08 224 341.08 225"/><line class="cls-27" x1="341.08" y1="227" x2="341.08" y2="342.18"/></svg>