<svg id="Layer_1" data-name="Layer 1" xmlns="http://www.w3.org/2000/svg" xmlns:xlink="http://www.w3.org/1999/xlink" viewBox="0 0 551.54 311.98"><defs><style>.cls-1,.cls-11,.cls-12,.cls-13,.cls-14,.cls-16,.cls-26,.cls-27,.cls-28,.cls-29,.cls-30,.cls-31,.cls-4,.cls-7,.cls-8,.cls-9{fill:none;}.cls-2,.cls-21,.cls-23,.cls-3,.cls-6{font-size:10px;}.cls-18,.cls-2,.cls-5{fill:gray;}.cls-2,.cls-21,.cls-23,.cls-3,.cls-5{font-family:ArialMT, Arial;}.cls-17,.cls-20,.cls-3,.cls-6{fill:#231f20;}.cls-4{stroke:#080505;}.cls-12,.cls-13,.cls-14,.cls-27,.cls-29,.cls-30,.cls-31,.cls-4,.cls-7,.cls-9{stroke-linecap:round;}.cls-13,.cls-30,.cls-31,.cls-4,.cls-7,.cls-9{stroke-linejoin:round;}.cls-4,.cls-8{stroke-width:0.25px;}.cls-5{font-size:8px;}.cls-6{font-family:Arial-ItalicMT, Arial;font-style:italic;}.cls-13,.cls-7{stroke:#662d91;}.cls-8{stroke:#000;}.cls-11,.cls-12,.cls-14,.cls-16,.cls-26,.cls-27,.cls-28,.cls-29,.cls-8{stroke-miterlimit:10;}.cls-9{stroke:#9574b4;}.cls-10{clip-path:url(#clip-path);}.cls-11,.cls-12{stroke:#00addc;}.cls-12,.cls-14{stroke-width:2px;}.cls-13,.cls-30,.cls-31{stroke-width:0.75px;}.cls-14{stroke:#29aae2;}.cls-15{fill:#662f90;}.cls-16{stroke:#fff;stroke-width:0.5px;}.cls-19{fill:#fff;}.cls-20{font-size:12px;font-family:Arial-BoldMT, Arial;font-weight:700;}.cls-21,.cls-24{fill:#21b573;}.cls-22{letter-spacing:-0.05em;}.cls-23,.cls-25{fill:#f79420;}.cls-26,.cls-27,.cls-31{stroke:#21b573;}.cls-28,.cls-29,.cls-30{stroke:#f79420;}</style><clipPath id="clip-path"><rect class="cls-1" width="551.54" height="311.98"/></clipPath></defs><title>figure1</title><text class="cls-2" transform="translate(3.7 56.3)">Aligned </text><text class="cls-2" transform="translate(3.7 68.3)">single-cell </text><text class="cls-2" transform="translate(3.7 80.3)">reads</text><text class="cls-3" transform="translate(60.34 56.3)">RNA-seq </text><text class="cls-3" transform="translate(60.34 68.3)">reads</text><line class="cls-4" x1="73.36" y1="42.72" x2="92.7" y2="42.72"/><line class="cls-4" x1="73.36" y1="33.94" x2="92.7" y2="33.94"/><line class="cls-4" x1="73.36" y1="28.09" x2="92.7" y2="28.09"/><line class="cls-4" x1="73.36" y1="25.16" x2="92.7" y2="25.16"/><line class="cls-4" x1="73.36" y1="22.24" x2="92.7" y2="22.24"/><line class="cls-4" x1="73.36" y1="19.31" x2="92.7" y2="19.31"/><line class="cls-4" x1="73.36" y1="16.38" x2="92.7" y2="16.38"/><line class="cls-4" x1="73.36" y1="36.87" x2="92.7" y2="36.87"/><line class="cls-4" x1="73.36" y1="39.79" x2="92.7" y2="39.79"/><line class="cls-4" x1="73.36" y1="31.01" x2="92.7" y2="31.01"/><text class="cls-5" transform="translate(3.52 92.43)">(droplet-based </text><text class="cls-5" transform="translate(11.53 102.03)">single-cell </text><text class="cls-5" transform="translate(3.31 111.63)">RNA-seq only)</text><text class="cls-3" transform="translate(120.88 56.3)">Predicted </text><text class="cls-3" transform="translate(120.88 68.3)">amino acid</text><text class="cls-3" transform="translate(120.88 80.3)">sequence</text><text class="cls-3" transform="translate(243.55 56.3)">Random </text><text class="cls-3" transform="translate(243.55 68.3)">amino acid </text><text class="cls-6" transform="translate(243.55 80.3)">k</text><text class="cls-3" transform="translate(248.55 80.3)">-mers</text><line class="cls-7" x1="135.4" y1="42.72" x2="154.73" y2="42.72"/><line class="cls-7" x1="135.4" y1="33.94" x2="154.73" y2="33.94"/><line class="cls-7" x1="135.4" y1="28.09" x2="154.73" y2="28.09"/><line class="cls-7" x1="135.4" y1="25.16" x2="154.73" y2="25.16"/><line class="cls-7" x1="135.4" y1="22.24" x2="154.73" y2="22.24"/><line class="cls-7" x1="135.4" y1="19.31" x2="154.73" y2="19.31"/><line class="cls-7" x1="135.4" y1="16.38" x2="154.73" y2="16.38"/><line class="cls-7" x1="135.4" y1="36.87" x2="154.73" y2="36.87"/><line class="cls-7" x1="135.4" y1="39.79" x2="154.73" y2="39.79"/><line class="cls-7" x1="135.4" y1="31.01" x2="154.73" y2="31.01"/><line class="cls-8" x1="259.46" y1="42.72" x2="278.79" y2="42.72"/><line class="cls-8" x1="259.46" y1="33.94" x2="278.79" y2="33.94"/><line class="cls-8" x1="259.46" y1="28.09" x2="278.79" y2="28.09"/><line class="cls-8" x1="259.46" y1="25.16" x2="278.79" y2="25.16"/><line class="cls-8" x1="259.46" y1="22.24" x2="278.79" y2="22.24"/><line class="cls-8" x1="259.46" y1="19.31" x2="278.79" y2="19.31"/><line class="cls-8" x1="259.46" y1="16.38" x2="278.79" y2="16.38"/><line class="cls-8" x1="259.46" y1="36.87" x2="278.79" y2="36.87"/><line class="cls-8" x1="259.46" y1="39.79" x2="278.79" y2="39.79"/><line class="cls-8" x1="259.46" y1="31.01" x2="278.79" y2="31.01"/><line class="cls-9" x1="262.46" y1="42.72" x2="268.46" y2="42.72"/><line class="cls-9" x1="259.46" y1="33.94" x2="265.46" y2="33.94"/><line class="cls-9" x1="269.46" y1="28.09" x2="275.46" y2="28.09"/><line class="cls-9" x1="262.46" y1="25.16" x2="268.46" y2="25.16"/><line class="cls-9" x1="265.46" y1="22.24" x2="271.46" y2="22.24"/><line class="cls-9" x1="261.46" y1="19.31" x2="267.46" y2="19.31"/><line class="cls-9" x1="271.46" y1="16.38" x2="277.46" y2="16.38"/><line class="cls-9" x1="265.46" y1="36.87" x2="271.46" y2="36.87"/><line class="cls-9" x1="270.46" y1="39.79" x2="276.46" y2="39.79"/><line class="cls-9" x1="272.46" y1="31.01" x2="278.46" y2="31.01"/><line class="cls-9" x1="269.09" y1="33.94" x2="275.09" y2="33.94"/><line class="cls-9" x1="262.97" y1="31.01" x2="268.97" y2="31.01"/><text class="cls-3" transform="translate(309.72 56.3)">Cluster on </text><text class="cls-6" transform="translate(309.72 68.3)">k</text><text class="cls-3" transform="translate(314.72 68.3)">-mer </text><text class="cls-3" transform="translate(309.72 80.3)">similarit</text><text class="cls-3" transform="translate(343.61 80.3)">y</text><g class="cls-10"><path d="M326.51,21.41a.88.88,0,1,1-.87-.88.88.88,0,0,1,.87.88"/><path d="M330.33,22.29a.88.88,0,1,1-1.76,0,.88.88,0,0,1,1.76,0"/><path d="M330.33,19.65a.88.88,0,1,1-.88-.88.88.88,0,0,1,.88.88"/><path d="M328.42,24a.88.88,0,1,1-.88-.87.87.87,0,0,1,.88.87"/><path d="M325.79,23.17a.88.88,0,1,1-.88-.88.88.88,0,0,1,.88.88"/><path d="M328.42,21.41a.88.88,0,1,1-.88-.88.88.88,0,0,1,.88.88"/><path d="M327.39,18.77a.88.88,0,1,1-.88-.88.87.87,0,0,1,.88.88"/><path d="M324.91,20.53a.88.88,0,0,1-1.76,0,.88.88,0,0,1,1.76,0"/><path d="M341.13,21.93a.88.88,0,0,1,1.24-1.25.89.89,0,0,1,0,1.25.88.88,0,0,1-1.24,0"/><path d="M337.81,24a.88.88,0,1,1,1.24,0,.88.88,0,0,1-1.24,0"/><path d="M339.67,25.87a.88.88,0,1,1,1.25,0,.89.89,0,0,1-1.25,0"/><path d="M337.91,21.41a.88.88,0,0,1,0-1.24.89.89,0,0,1,1.25,0,.88.88,0,0,1,0,1.24.89.89,0,0,1-1.25,0"/><path d="M340.4,20.16a.86.86,0,0,1,0-1.24.88.88,0,1,1,1.24,1.24.86.86,0,0,1-1.24,0"/><path d="M339.78,23.27a.88.88,0,1,1,1.24,0,.86.86,0,0,1-1.24,0"/><path d="M341.37,24.41a.88.88,0,1,1,1.24,0,.88.88,0,0,1-1.24,0"/><path d="M342.88,21.41a.88.88,0,0,1,0-1.24.89.89,0,0,1,1.25,0,.88.88,0,0,1,0,1.24.89.89,0,0,1-1.25,0"/><path d="M332.59,29.29a.88.88,0,1,1,1.76,0,.88.88,0,1,1-1.76,0"/><path d="M328.78,28.41a.88.88,0,1,1,1.76,0,.88.88,0,1,1-1.76,0"/><path d="M328.78,31.05a.88.88,0,1,1,.88.87.87.87,0,0,1-.88-.87"/><path d="M330.68,26.65a.88.88,0,1,1,1.76,0,.88.88,0,0,1-1.76,0"/><path d="M333.32,27.52a.88.88,0,1,1,.88.88.87.87,0,0,1-.88-.88"/><path d="M330.68,29.29a.88.88,0,1,1,.88.88.88.88,0,0,1-.88-.88"/><path d="M331.71,31.92a.88.88,0,1,1,.88.88.88.88,0,0,1-.88-.88"/><path d="M334.2,30.17a.88.88,0,0,1,1.76,0,.88.88,0,1,1-1.76,0"/><path d="M335.33,28.41a.88.88,0,1,1,.88.88.88.88,0,0,1-.88-.88"/><path d="M325.06,36.12a.88.88,0,0,1,0-1.24.89.89,0,0,1,1.25,0,.88.88,0,1,1-1.25,1.24"/><path d="M321.75,38.2A.88.88,0,1,1,323,37a.88.88,0,0,1-1.24,1.24"/><path d="M323.61,40.06a.88.88,0,1,1,1.24-1.24.88.88,0,0,1-1.24,1.24"/><path d="M321.85,35.61a.88.88,0,1,1,1.25,0,.89.89,0,0,1-1.25,0"/><path d="M323.72,37.47a.86.86,0,0,1,0-1.24.88.88,0,1,1,0,1.24"/><path d="M326.31,38.61a.88.88,0,1,1,1.24-1.24.88.88,0,0,1-1.24,1.24"/><path d="M326.82,35.61a.88.88,0,1,1,1.25,0,.89.89,0,0,1-1.25,0"/><path d="M333.73,40.47a.86.86,0,0,1,0-1.24A.88.88,0,1,1,335,40.47a.86.86,0,0,1-1.24,0"/><path d="M335.59,42.34a.88.88,0,0,1,0-1.24.88.88,0,1,1,1.24,1.24.88.88,0,0,1-1.24,0"/><path d="M333.83,37.88a.88.88,0,0,1,0-1.24.89.89,0,0,1,1.25,0,.88.88,0,1,1-1.25,1.24"/><path d="M336.31,36.64a.88.88,0,1,1,1.25,0,.89.89,0,0,1-1.25,0"/><path d="M335.7,39.75a.88.88,0,1,1,1.24-1.24.88.88,0,0,1-1.24,1.24"/><path d="M338.29,40.89a.88.88,0,1,1,1.24-1.25.89.89,0,0,1,0,1.25.88.88,0,0,1-1.24,0"/><path d="M338.8,37.88a.88.88,0,0,1,0-1.24.89.89,0,0,1,1.25,0,.88.88,0,1,1-1.25,1.24"/><circle class="cls-11" cx="340.44" cy="22.37" r="5.87" transform="translate(240.45 348.56) rotate(-76.72)"/></g><text class="cls-3" transform="translate(376.44 56.3)">k-mers </text><text class="cls-3" transform="translate(376.44 68.3)">enriched </text><text class="cls-3" transform="translate(376.44 80.3)">in clusters</text><g class="cls-10"><line class="cls-12" x1="392" y1="42.73" x2="398" y2="42.73"/><line class="cls-12" x1="389" y1="33.96" x2="395" y2="33.96"/><line class="cls-12" x1="401" y1="16.4" x2="407" y2="16.4"/><line class="cls-12" x1="402" y1="31.03" x2="408" y2="31.03"/><line class="cls-13" x1="451.59" y1="42.72" x2="470.92" y2="42.72"/><line class="cls-13" x1="451.59" y1="33.94" x2="470.92" y2="33.94"/><line class="cls-13" x1="451.59" y1="28.09" x2="470.92" y2="28.09"/><line class="cls-13" x1="451.59" y1="25.16" x2="470.92" y2="25.16"/><line class="cls-13" x1="451.59" y1="22.24" x2="470.92" y2="22.24"/><line class="cls-13" x1="451.59" y1="19.31" x2="470.92" y2="19.31"/><line class="cls-13" x1="451.59" y1="16.38" x2="470.92" y2="16.38"/><line class="cls-13" x1="451.59" y1="36.87" x2="470.92" y2="36.87"/><line class="cls-13" x1="451.59" y1="39.79" x2="470.92" y2="39.79"/><line class="cls-13" x1="451.59" y1="31.01" x2="470.92" y2="31.01"/><line class="cls-14" x1="454.59" y1="42.72" x2="460.59" y2="42.72"/><line class="cls-14" x1="451.59" y1="33.94" x2="457.59" y2="33.94"/><line class="cls-14" x1="463.59" y1="16.38" x2="469.59" y2="16.38"/><line class="cls-14" x1="464.59" y1="31.01" x2="470.59" y2="31.01"/></g><text class="cls-3" transform="translate(427.52 56.3)">Get amino </text><text class="cls-3" transform="translate(427.52 68.3)">acid</text><text class="cls-3" transform="translate(445.86 68.3)"> </text><text class="cls-3" transform="translate(448.84 68.3)">sequence </text><text class="cls-3" transform="translate(427.52 80.3)">from reads </text><text class="cls-3" transform="translate(427.52 92.3)">with enriched </text><text class="cls-3" transform="translate(427.52 104.3)">k-mers</text><g class="cls-10"><text class="cls-3" transform="translate(494.86 56.3)">Query NCBI </text></g><text class="cls-3" transform="translate(494.86 68.3)">RefSeq NR </text><text class="cls-3" transform="translate(494.86 80.3)">for putative </text><text class="cls-3" transform="translate(494.86 92.3)">orthologous </text><text class="cls-3" transform="translate(494.86 104.3)">genes</text><g class="cls-10"><rect class="cls-15" x="513.62" y="19.06" width="19.16" height="20.98"/><path class="cls-15" d="M532.78,19.06c0,1-4.29,1.71-9.58,1.71s-9.58-.76-9.58-1.71,4.29-1.7,9.58-1.7,9.58.76,9.58,1.7"/><path class="cls-15" d="M532.78,40c0,.94-4.29,1.7-9.58,1.7s-9.58-.76-9.58-1.7,4.29-1.71,9.58-1.71,9.58.77,9.58,1.71"/><path class="cls-16" d="M532.78,19.06c0,1-4.29,1.71-9.58,1.71s-9.58-.76-9.58-1.71,4.29-1.7,9.58-1.7S532.78,18.12,532.78,19.06Z"/><polygon class="cls-17" points="109.05 28.86 114.59 28.86 113.98 27.41 119.05 29.55 113.98 31.69 114.59 30.25 109.05 30.25 109.05 28.86"/><polygon class="cls-18" points="47.02 28.86 52.56 28.86 51.95 27.41 57.02 29.55 51.95 31.69 52.56 30.25 47.02 30.25 47.02 28.86"/><polygon class="cls-17" points="233.11 28.86 238.66 28.86 238.04 27.41 243.11 29.55 238.04 31.69 238.66 30.25 233.11 30.25 233.11 28.86"/><polygon class="cls-17" points="295.14 28.86 300.69 28.86 300.07 27.41 305.14 29.55 300.07 31.69 300.69 30.25 295.14 30.25 295.14 28.86"/><polygon class="cls-17" points="362.65 28.86 368.2 28.86 367.59 27.41 372.65 29.55 367.59 31.69 368.2 30.25 362.65 30.25 362.65 28.86"/><polygon class="cls-17" points="425.24 28.86 430.79 28.86 430.17 27.41 435.24 29.55 430.17 31.69 430.79 30.25 425.24 30.25 425.24 28.86"/><polygon class="cls-17" points="487.27 28.86 492.82 28.86 492.2 27.41 497.27 29.55 492.2 31.69 492.82 30.25 487.27 30.25 487.27 28.86"/><path class="cls-18" d="M26.67,42.72H13.36a4,4,0,0,1-4-4V20.38a4,4,0,0,1,4-4H26.67a4,4,0,0,1,4,4V38.72a4,4,0,0,1-4,4"/><rect class="cls-19" x="10.71" y="30.63" width="1.23" height="1.31"/><path class="cls-19" d="M18.38,29.71a3.58,3.58,0,0,1-.11.9,2.36,2.36,0,0,1-.32.72,1.43,1.43,0,0,1-.58.48,1.94,1.94,0,0,1-.86.17,1.85,1.85,0,0,1-1.25-.44,4.43,4.43,0,0,1,0,.47l-.8-.1a7.83,7.83,0,0,0,.09-1.15V28.53c0-1,0-1.76,0-2.23a11.45,11.45,0,0,0-.07-1.2l.78-.05a12,12,0,0,1,.06,1.27v1l.25-.17a.78.78,0,0,1,.27-.11A1.37,1.37,0,0,1,16.2,27c1.45,0,2.18.91,2.18,2.74m-.77-.1c0-1.26-.45-1.89-1.34-1.89l-.17,0-.14,0a.37.37,0,0,0-.14.07l-.12.07-.13.1-.1.09-.11.11-.1.09v2.14a2,2,0,0,0,.53.61,1.27,1.27,0,0,0,.72.17.93.93,0,0,0,.85-.41,2.45,2.45,0,0,0,.25-1.21"/><path class="cls-19" d="M23.43,30.39a2,2,0,0,0,.06.71l.09.09.16.12.14.1-.41.59-.15-.11-.16-.13L23,31.63a.76.76,0,0,1-.12-.19,1,1,0,0,1-.07-.25l-.32.28a4.41,4.41,0,0,1-.38.24,1.65,1.65,0,0,1-.51.2A3,3,0,0,1,21,32a1.5,1.5,0,0,1-1.49-1.5,1.8,1.8,0,0,1,.11-.59,1.46,1.46,0,0,1,.32-.52,1.89,1.89,0,0,1,.7-.46,2.65,2.65,0,0,1,.84-.13,2.33,2.33,0,0,1,1.18.25,1.61,1.61,0,0,0-.27-1,1.11,1.11,0,0,0-.89-.34,1.63,1.63,0,0,0-.81.17,1.77,1.77,0,0,0-.57.68l-.63-.4a2.1,2.1,0,0,1,.82-.91,2.39,2.39,0,0,1,1.18-.27,2,2,0,0,1,1.41.51,1.79,1.79,0,0,1,.53,1.34Zm-3.16,0a.84.84,0,0,0,.19.59.7.7,0,0,0,.54.21,1.7,1.7,0,0,0,.55-.08A1.81,1.81,0,0,0,22,31a2.5,2.5,0,0,0,.33-.26l.22-.24.12-.19V29.8a2.13,2.13,0,0,0-1.15-.31,1.52,1.52,0,0,0-.88.26.8.8,0,0,0-.36.68"/><path class="cls-19" d="M28,26.94a.62.62,0,0,1,.42.15.79.79,0,0,1,.26.38,3,3,0,0,1,.12.45,3,3,0,0,1,0,.42v2.55a.42.42,0,0,0,.13.31,1.07,1.07,0,0,0,.32.2l-.3.65a.94.94,0,0,1-.28-.1,1.41,1.41,0,0,1-.27-.18,1.11,1.11,0,0,1-.21-.32,1.19,1.19,0,0,1-.08-.44h0V28.17c0-.32-.1-.49-.31-.49s-.52.3-.79.89V32h-.69V28a.66.66,0,0,0,0-.15.23.23,0,0,0-.06-.12.21.21,0,0,0-.16-.06.66.66,0,0,0-.43.22,2,2,0,0,0-.45.67V32H24.6l0-4a2.77,2.77,0,0,0-.15-.94l.74-.2a2.13,2.13,0,0,1,.09.38c0,.18,0,.33.06.46a1.53,1.53,0,0,1,.46-.52.92.92,0,0,1,.54-.21.71.71,0,0,1,.55.22.73.73,0,0,1,.21.51,1.12,1.12,0,0,1,1-.73"/><text class="cls-20" transform="translate(6.16 10.29)">A</text></g><text class="cls-20" transform="translate(6.16 138.77)">B</text><text class="cls-21" transform="translate(28.66 147.36)">Model</text><text class="cls-21" transform="translate(20.32 159.36)">Species<tspan class="cls-22" x="35.58" y="0"> </tspan><tspan x="37.81" y="0">A</tspan></text><text class="cls-21" transform="translate(9.49 171.36)">transcriptomes</text><text class="cls-23" transform="translate(17.82 218.58)">Non-model</text><text class="cls-23" transform="translate(19.76 230.58)">Species B</text><text class="cls-23" transform="translate(9.48 242.58)">transcriptomes</text><text class="cls-3" transform="translate(181.51 55.09)">Reduced </text><text class="cls-3" transform="translate(181.51 67.09)">amino acid </text><text class="cls-3" transform="translate(181.51 79.09)">alphabet</text><g class="cls-10"><polygon class="cls-17" points="171.08 28.59 176.62 28.59 176.01 27.15 181.08 29.29 176.01 31.43 176.62 29.98 171.08 29.98 171.08 28.59"/><path class="cls-24" d="M205.57,169.62a2.51,2.51,0,1,1-2.51-2.51,2.5,2.5,0,0,1,2.51,2.51"/><path class="cls-24" d="M216.46,172.12a2.51,2.51,0,1,1-2.51-2.5,2.51,2.51,0,0,1,2.51,2.5"/><path class="cls-24" d="M216.46,164.6a2.51,2.51,0,1,1-2.51-2.51,2.52,2.52,0,0,1,2.51,2.51"/><path class="cls-24" d="M211,177.14a2.51,2.51,0,1,1-2.5-2.51,2.5,2.5,0,0,1,2.5,2.51"/><path class="cls-24" d="M203.49,174.65a2.51,2.51,0,1,1-2.51-2.51,2.51,2.51,0,0,1,2.51,2.51"/><path class="cls-24" d="M211,169.62a2.51,2.51,0,1,1-2.5-2.51,2.5,2.5,0,0,1,2.5,2.51"/><path class="cls-24" d="M208.08,162.09a2.51,2.51,0,1,1-2.51-2.51,2.51,2.51,0,0,1,2.51,2.51"/><path class="cls-24" d="M201,167.11a2.51,2.51,0,1,1-2.51-2.51,2.51,2.51,0,0,1,2.51,2.51"/><path class="cls-24" d="M247.28,171.1a2.51,2.51,0,1,1,3.55,0,2.51,2.51,0,0,1-3.55,0"/><path class="cls-24" d="M237.81,177a2.51,2.51,0,1,1,3.55,0,2.51,2.51,0,0,1-3.55,0"/><path class="cls-24" d="M243.13,182.34a2.51,2.51,0,1,1,3.55,0,2.51,2.51,0,0,1-3.55,0"/><path class="cls-25" d="M238.11,169.62a2.51,2.51,0,1,1,3.55,0,2.5,2.5,0,0,1-3.55,0"/><path class="cls-24" d="M245.19,166.06a2.51,2.51,0,1,1,3.55,0,2.53,2.53,0,0,1-3.55,0"/><path class="cls-24" d="M243.43,174.94a2.51,2.51,0,1,1,3.55,0,2.52,2.52,0,0,1-3.55,0"/><path class="cls-25" d="M248,178.19a2.51,2.51,0,1,1,3.55,0,2.53,2.53,0,0,1-3.55,0"/><path class="cls-24" d="M252.3,169.62a2.51,2.51,0,1,1,3.55,0,2.5,2.5,0,0,1-3.55,0"/><path class="cls-25" d="M222.92,192.11a2.51,2.51,0,1,1,2.5,2.51,2.51,2.51,0,0,1-2.5-2.51"/><path class="cls-25" d="M212,189.6a2.51,2.51,0,1,1,2.51,2.51A2.5,2.5,0,0,1,212,189.6"/><path class="cls-25" d="M212,197.13a2.51,2.51,0,1,1,2.51,2.51,2.51,2.51,0,0,1-2.51-2.51"/><path class="cls-24" d="M217.47,184.59a2.51,2.51,0,1,1,2.51,2.5,2.51,2.51,0,0,1-2.51-2.5"/><path class="cls-25" d="M225,187.08a2.51,2.51,0,1,1,2.51,2.5,2.51,2.51,0,0,1-2.51-2.5"/><path class="cls-24" d="M217.47,192.11a2.51,2.51,0,1,1,2.51,2.51,2.52,2.52,0,0,1-2.51-2.51"/><path class="cls-24" d="M220.41,199.64a2.51,2.51,0,1,1,2.51,2.5,2.51,2.51,0,0,1-2.51-2.5"/><path class="cls-24" d="M227.51,194.62a2.51,2.51,0,1,1,2.51,2.51,2.51,2.51,0,0,1-2.51-2.51"/><path class="cls-24" d="M230.75,189.6a2.51,2.51,0,1,1,2.5,2.51,2.5,2.5,0,0,1-2.5-2.51"/><path class="cls-24" d="M201.43,211.62a2.51,2.51,0,1,1,3.55,0,2.5,2.5,0,0,1-3.55,0"/><path class="cls-25" d="M192,217.54a2.51,2.51,0,1,1,3.55,0,2.5,2.5,0,0,1-3.55,0"/><path class="cls-24" d="M197.28,222.87a2.51,2.51,0,1,1,3.55,0,2.51,2.51,0,0,1-3.55,0"/><path class="cls-25" d="M192.26,210.15a2.51,2.51,0,1,1,3.55,0,2.51,2.51,0,0,1-3.55,0"/><path class="cls-24" d="M197.58,215.47a2.51,2.51,0,1,1,3.55,0,2.51,2.51,0,0,1-3.55,0"/><path class="cls-24" d="M205,218.72a2.51,2.51,0,1,1,3.55,0,2.51,2.51,0,0,1-3.55,0"/><path class="cls-24" d="M206.45,210.15a2.51,2.51,0,1,1,3.55,0,2.51,2.51,0,0,1-3.55,0"/><path class="cls-25" d="M226.16,224a2.51,2.51,0,1,1,3.55,0,2.5,2.5,0,0,1-3.55,0"/><path class="cls-25" d="M231.48,229.36a2.51,2.51,0,1,1,3.55,0,2.5,2.5,0,0,1-3.55,0"/><path class="cls-25" d="M226.46,216.65a2.51,2.51,0,1,1,3.55,0,2.51,2.51,0,0,1-3.55,0"/><path class="cls-25" d="M233.54,213.09a2.51,2.51,0,1,1,3.55,0,2.51,2.51,0,0,1-3.55,0"/><path class="cls-25" d="M231.78,222a2.51,2.51,0,1,1,3.55,0,2.51,2.51,0,0,1-3.55,0"/><path class="cls-25" d="M239.18,225.22a2.51,2.51,0,1,1,3.54,0,2.51,2.51,0,0,1-3.54,0"/><path class="cls-11" d="M237.53,192a15,15,0,1,1-15-15A15,15,0,0,1,237.53,192Z"/><path class="cls-24" d="M93.3,157a2.51,2.51,0,1,1-2.51-2.51A2.5,2.5,0,0,1,93.3,157"/><path class="cls-24" d="M98.74,164.49a2.51,2.51,0,1,1-2.5-2.51,2.5,2.5,0,0,1,2.5,2.51"/><path class="cls-24" d="M91.22,162a2.51,2.51,0,1,1-2.51-2.51A2.51,2.51,0,0,1,91.22,162"/><path class="cls-24" d="M98.74,157a2.51,2.51,0,1,1-2.5-2.51,2.5,2.5,0,0,1,2.5,2.51"/><path class="cls-24" d="M95.81,150.56a2.51,2.51,0,1,1-2.51-2.51,2.51,2.51,0,0,1,2.51,2.51"/><path class="cls-24" d="M88.71,154.46A2.51,2.51,0,1,1,86.2,152a2.51,2.51,0,0,1,2.51,2.51"/><path class="cls-25" d="M82.94,233.17a2.5,2.5,0,1,1,3.54,0,2.5,2.5,0,0,1-3.54,0"/><path class="cls-25" d="M88.26,238.49a2.51,2.51,0,1,1,3.55,0,2.5,2.5,0,0,1-3.55,0"/><path class="cls-25" d="M88.56,231.1a2.51,2.51,0,1,1,3.55,0,2.51,2.51,0,0,1-3.55,0"/><path class="cls-25" d="M96,234.35a2.51,2.51,0,1,1,3.55,0,2.53,2.53,0,0,1-3.55,0"/></g><text class="cls-3" transform="translate(85.58 258.13)">Represent each </text><text class="cls-3" transform="translate(85.58 270.13)">transcriptome as sets </text><text class="cls-3" transform="translate(85.58 282.13)">of amino acid k-mers</text><text class="cls-3" transform="translate(199.99 259.31)">Cluster on </text><text class="cls-3" transform="translate(199.99 271.31)">k-mer </text><text class="cls-3" transform="translate(199.99 283.31)">similarity</text><g class="cls-10"><circle class="cls-26" cx="149.18" cy="157.52" r="5.21" transform="translate(-38.41 266.52) rotate(-76.72)"/><circle class="cls-26" cx="160.48" cy="173.16" r="5.21" transform="translate(-44.92 289.56) rotate(-76.72)"/><circle class="cls-26" cx="144.85" cy="167.99" r="5.21" transform="translate(-51.92 270.36) rotate(-76.72)"/><circle class="cls-26" cx="160.48" cy="157.52" r="5.21" transform="translate(-29.7 277.52) rotate(-76.72)"/><circle class="cls-26" cx="154.39" cy="141.89" r="5.21" transform="translate(-19.18 259.55) rotate(-76.72)"/><circle class="cls-26" cx="139.64" cy="152.31" r="5.21" transform="translate(-40.68 253.22) rotate(-76.72)"/><line class="cls-27" x1="151.58" y1="141.16" x2="153.68" y2="141.16"/><line class="cls-27" x1="155.1" y1="141.93" x2="157.19" y2="141.93"/><line class="cls-27" x1="151.58" y1="142.97" x2="153.68" y2="142.97"/><line class="cls-27" x1="154.69" y1="144.23" x2="156.78" y2="144.23"/><line class="cls-27" x1="153.64" y1="139.55" x2="155.73" y2="139.55"/><line class="cls-27" x1="148.53" y1="160.31" x2="150.62" y2="160.31"/><line class="cls-27" x1="147.31" y1="154.74" x2="149.4" y2="154.74"/><line class="cls-27" x1="146.44" y1="158.32" x2="148.53" y2="158.32"/><line class="cls-27" x1="150.15" y1="155.91" x2="152.25" y2="155.91"/><line class="cls-27" x1="146.11" y1="156.54" x2="148.2" y2="156.54"/><line class="cls-27" x1="150.15" y1="157.73" x2="152.25" y2="157.73"/><line class="cls-27" x1="159.08" y1="154.65" x2="161.17" y2="154.65"/><line class="cls-27" x1="158.03" y1="156.77" x2="160.13" y2="156.77"/><line class="cls-27" x1="161.45" y1="156.18" x2="163.55" y2="156.18"/><line class="cls-27" x1="157.42" y1="158.21" x2="159.51" y2="158.21"/><line class="cls-27" x1="161.24" y1="158.21" x2="163.34" y2="158.21"/><line class="cls-27" x1="161.24" y1="159.66" x2="163.34" y2="159.66"/><line class="cls-27" x1="158.22" y1="160.4" x2="160.31" y2="160.4"/><line class="cls-27" x1="138.7" y1="149.62" x2="140.79" y2="149.62"/><line class="cls-27" x1="136.46" y1="151.12" x2="138.56" y2="151.12"/><line class="cls-27" x1="140.72" y1="151.42" x2="142.81" y2="151.42"/><line class="cls-27" x1="136.81" y1="152.97" x2="138.9" y2="152.97"/><line class="cls-27" x1="140.51" y1="153.98" x2="142.6" y2="153.98"/><line class="cls-27" x1="137.65" y1="155.01" x2="139.75" y2="155.01"/><line class="cls-27" x1="145.49" y1="165.2" x2="143.4" y2="165.2"/><line class="cls-27" x1="146.71" y1="170.77" x2="144.62" y2="170.77"/><line class="cls-27" x1="147.59" y1="167.19" x2="145.49" y2="167.19"/><line class="cls-27" x1="143.87" y1="169.6" x2="141.78" y2="169.6"/><line class="cls-27" x1="147.92" y1="168.97" x2="145.82" y2="168.97"/><line class="cls-27" x1="143.87" y1="167.79" x2="141.78" y2="167.79"/><line class="cls-27" x1="161.13" y1="170.38" x2="159.03" y2="170.38"/><line class="cls-27" x1="162.35" y1="175.94" x2="160.25" y2="175.94"/><line class="cls-27" x1="163.22" y1="172.36" x2="161.13" y2="172.36"/><line class="cls-27" x1="159.51" y1="174.77" x2="157.41" y2="174.77"/><line class="cls-27" x1="163.55" y1="174.14" x2="161.46" y2="174.14"/><line class="cls-27" x1="159.51" y1="172.96" x2="157.41" y2="172.96"/><path class="cls-28" d="M132.85,233.34a5.21,5.21,0,1,1,7.37,0A5.22,5.22,0,0,1,132.85,233.34Z"/><path class="cls-28" d="M143.91,244.39a5.21,5.21,0,1,1,7.37,0A5.2,5.2,0,0,1,143.91,244.39Z"/><path class="cls-28" d="M144.53,229a5.21,5.21,0,1,1,7.37,0A5.22,5.22,0,0,1,144.53,229Z"/><path class="cls-28" d="M159.9,235.77a5.21,5.21,0,1,1,7.37,0A5.2,5.2,0,0,1,159.9,235.77Z"/><line class="cls-29" x1="145.41" y1="224.61" x2="147.51" y2="224.61"/><line class="cls-29" x1="148.93" y1="225.38" x2="151.02" y2="225.38"/><line class="cls-29" x1="145.41" y1="226.42" x2="147.51" y2="226.42"/><line class="cls-29" x1="148.52" y1="227.68" x2="150.61" y2="227.68"/><line class="cls-29" x1="147.47" y1="223" x2="149.56" y2="223"/><line class="cls-29" x1="135.6" y1="226.96" x2="137.69" y2="226.96"/><line class="cls-29" x1="133.36" y1="228.46" x2="135.46" y2="228.46"/><line class="cls-29" x1="137.62" y1="228.76" x2="139.71" y2="228.76"/><line class="cls-29" x1="133.71" y1="230.3" x2="135.81" y2="230.3"/><line class="cls-29" x1="137.41" y1="231.32" x2="139.5" y2="231.32"/><line class="cls-29" x1="134.55" y1="232.35" x2="136.65" y2="232.35"/><line class="cls-29" x1="148.24" y1="237.92" x2="146.14" y2="237.92"/><line class="cls-29" x1="149.46" y1="243.49" x2="147.36" y2="243.49"/><line class="cls-29" x1="150.33" y1="239.91" x2="148.24" y2="239.91"/><line class="cls-29" x1="146.62" y1="242.32" x2="144.52" y2="242.32"/><line class="cls-29" x1="150.66" y1="241.69" x2="148.57" y2="241.69"/><line class="cls-29" x1="146.62" y1="240.5" x2="144.52" y2="240.5"/><line class="cls-29" x1="164.23" y1="229.3" x2="162.13" y2="229.3"/><line class="cls-29" x1="165.45" y1="234.87" x2="163.35" y2="234.87"/><line class="cls-29" x1="166.32" y1="231.29" x2="164.23" y2="231.29"/><line class="cls-29" x1="162.6" y1="233.7" x2="160.51" y2="233.7"/><line class="cls-29" x1="166.65" y1="233.07" x2="164.56" y2="233.07"/><line class="cls-29" x1="162.6" y1="231.89" x2="160.51" y2="231.89"/><polygon class="cls-17" points="111.18 156.83 116.73 156.83 116.12 155.39 121.18 157.52 116.12 159.66 116.73 158.22 111.18 158.22 111.18 156.83"/><polygon class="cls-17" points="111.18 232.33 116.73 232.33 116.12 230.88 121.18 233.02 116.12 235.16 116.73 233.72 111.18 233.72 111.18 232.33"/><polygon class="cls-17" points="176.29 162.47 180.22 166.39 180.8 164.94 182.88 170.03 177.78 167.96 179.23 167.37 175.31 163.45 176.29 162.47"/><polygon class="cls-17" points="175.31 226.65 179.23 222.72 177.78 222.14 182.87 220.06 180.8 225.16 180.22 223.71 176.29 227.63 175.31 226.65"/></g><text class="cls-3" transform="translate(279.69 260.73)">k-mers </text><text class="cls-3" transform="translate(279.69 272.73)">enriched </text><text class="cls-3" transform="translate(279.69 284.73)">in clusters</text><g class="cls-10"><line class="cls-30" x1="330.77" y1="178.37" x2="350.1" y2="178.37"/><line class="cls-30" x1="330.77" y1="169.59" x2="350.1" y2="169.59"/><line class="cls-30" x1="330.77" y1="163.74" x2="350.1" y2="163.74"/><line class="cls-30" x1="330.77" y1="160.82" x2="350.1" y2="160.82"/><line class="cls-30" x1="330.77" y1="157.89" x2="350.1" y2="157.89"/><line class="cls-30" x1="330.77" y1="154.96" x2="350.1" y2="154.96"/><line class="cls-30" x1="330.77" y1="152.04" x2="350.1" y2="152.04"/><line class="cls-30" x1="330.77" y1="172.52" x2="350.1" y2="172.52"/><line class="cls-30" x1="330.77" y1="175.45" x2="350.1" y2="175.45"/><line class="cls-30" x1="330.77" y1="166.67" x2="350.1" y2="166.67"/><line class="cls-14" x1="333.77" y1="178.37" x2="339.77" y2="178.37"/><line class="cls-14" x1="330.77" y1="169.59" x2="336.77" y2="169.59"/><line class="cls-14" x1="342.77" y1="152.04" x2="348.77" y2="152.04"/><line class="cls-14" x1="343.77" y1="166.67" x2="349.77" y2="166.67"/></g><text class="cls-3" transform="translate(330.77 260.73)">Get amino </text><text class="cls-3" transform="translate(330.77 272.73)">acid</text><text class="cls-3" transform="translate(349.11 272.73)"> </text><text class="cls-3" transform="translate(352.09 272.73)">sequence </text><text class="cls-3" transform="translate(330.77 284.73)">from reads </text><text class="cls-3" transform="translate(330.77 296.73)">with enriched </text><g class="cls-10"><text class="cls-3" transform="translate(330.77 308.73)">k-mers</text><polygon class="cls-17" points="362.33 162.89 367.88 162.89 367.26 161.44 372.33 163.58 367.26 165.72 367.88 164.28 362.33 164.28 362.33 162.89"/><polygon class="cls-17" points="306.68 223.11 310.6 227.03 311.19 225.58 313.26 230.67 308.16 228.6 309.62 228.01 305.69 224.09 306.68 223.11"/><polygon class="cls-17" points="310.05 177.19 313.97 173.27 312.51 172.68 317.61 170.61 315.54 175.7 314.95 174.25 311.03 178.17 310.05 177.19"/><line class="cls-12" x1="279.99" y1="207.8" x2="285.99" y2="207.8"/><line class="cls-12" x1="276.99" y1="199.02" x2="282.99" y2="199.02"/><line class="cls-12" x1="288.99" y1="181.47" x2="294.99" y2="181.47"/><line class="cls-12" x1="289.99" y1="196.1" x2="295.99" y2="196.1"/><line class="cls-31" x1="331.99" y1="244.48" x2="351.32" y2="244.48"/><line class="cls-31" x1="331.99" y1="235.71" x2="351.32" y2="235.71"/><line class="cls-31" x1="331.99" y1="229.85" x2="351.32" y2="229.85"/><line class="cls-31" x1="331.99" y1="226.93" x2="351.32" y2="226.93"/><line class="cls-31" x1="331.99" y1="224" x2="351.32" y2="224"/><line class="cls-31" x1="331.99" y1="221.08" x2="351.32" y2="221.08"/><line class="cls-31" x1="331.99" y1="218.15" x2="351.32" y2="218.15"/><line class="cls-31" x1="331.99" y1="238.63" x2="351.32" y2="238.63"/><line class="cls-31" x1="331.99" y1="241.56" x2="351.32" y2="241.56"/><line class="cls-31" x1="331.99" y1="232.78" x2="351.32" y2="232.78"/><line class="cls-14" x1="347.99" y1="218.15" x2="341.99" y2="218.15"/><line class="cls-14" x1="350.99" y1="226.93" x2="344.99" y2="226.93"/><line class="cls-14" x1="338.99" y1="244.48" x2="332.99" y2="244.48"/><line class="cls-14" x1="337.99" y1="229.85" x2="331.99" y2="229.85"/><polygon class="cls-17" points="257.46 198.3 263 198.3 262.39 196.86 267.46 198.99 262.39 201.13 263 199.69 257.46 199.69 257.46 198.3"/><polygon class="cls-17" points="362.33 229.61 367.88 229.61 367.26 228.17 372.33 230.3 367.26 232.44 367.88 231 362.33 231 362.33 229.61"/></g><text class="cls-3" transform="translate(411.57 260.73)">Putative orthologous </text><text class="cls-3" transform="translate(411.57 272.73)">protein-coding genes</text><g class="cls-10"><line class="cls-30" x1="426.11" y1="190.22" x2="445.44" y2="190.22"/><line class="cls-31" x1="426.11" y1="191.89" x2="445.44" y2="191.89"/><line class="cls-30" x1="426.11" y1="210.87" x2="445.44" y2="210.87"/><line class="cls-31" x1="426.11" y1="212.54" x2="445.44" y2="212.54"/><line class="cls-9" x1="197.47" y1="42.24" x2="216.8" y2="42.24"/><line class="cls-9" x1="197.47" y1="33.46" x2="216.8" y2="33.46"/><line class="cls-9" x1="197.47" y1="27.61" x2="216.8" y2="27.61"/><line class="cls-9" x1="197.47" y1="24.68" x2="216.8" y2="24.68"/><line class="cls-9" x1="197.47" y1="21.76" x2="216.8" y2="21.76"/><line class="cls-9" x1="197.47" y1="18.83" x2="216.8" y2="18.83"/><line class="cls-9" x1="197.47" y1="15.9" x2="216.8" y2="15.9"/><line class="cls-9" x1="197.47" y1="36.39" x2="216.8" y2="36.39"/><line class="cls-9" x1="197.47" y1="39.31" x2="216.8" y2="39.31"/><line class="cls-9" x1="197.47" y1="30.53" x2="216.8" y2="30.53"/></g></svg>