<svg id="Layer_1" data-name="Layer 1" xmlns="http://www.w3.org/2000/svg" xmlns:xlink="http://www.w3.org/1999/xlink" viewBox="0 0 547.33 122.49"><defs><style>.cls-1,.cls-16,.cls-3,.cls-4,.cls-8{fill:none;}.cls-2{font-size:10px;}.cls-12,.cls-15,.cls-2,.cls-5,.cls-9{fill:#231f20;}.cls-2,.cls-5{font-family:ArialMT, Arial;}.cls-3{stroke:#080505;stroke-width:0.25px;}.cls-3,.cls-4{stroke-linecap:round;stroke-linejoin:round;}.cls-4{stroke:#662d91;}.cls-12,.cls-5{font-size:8px;}.cls-6{letter-spacing:-0.02em;}.cls-7{fill:#662f90;}.cls-8{stroke:#fff;}.cls-16,.cls-8{stroke-miterlimit:10;stroke-width:0.5px;}.cls-10{fill:#4d4d4e;}.cls-11{fill:#fff;}.cls-12{font-family:FantasqueSansMonoNerdFontComplete-Regular, FantasqueSansMono Nerd Font;}.cls-13{fill:#29aae2;}.cls-14{clip-path:url(#clip-path);}.cls-15{font-size:4.39px;font-family:FantasqueSansMonoNerdFontCompleteM-Regular, FantasqueSansMono Nerd Font Mono;}.cls-16{stroke:#000;}</style><clipPath id="clip-path"><rect class="cls-1" x="478.59" width="52.43" height="26.22"/></clipPath></defs><title>figure1_predictorthologs</title><text class="cls-2" transform="translate(1.03 42.05)">uTARs</text><text class="cls-2" transform="translate(119.27 44.61)">FASTQs</text><line class="cls-3" x1="128.77" y1="28.42" x2="148.1" y2="28.42"/><line class="cls-3" x1="128.77" y1="19.64" x2="148.1" y2="19.64"/><line class="cls-3" x1="128.77" y1="13.79" x2="148.1" y2="13.79"/><line class="cls-3" x1="128.77" y1="10.86" x2="148.1" y2="10.86"/><line class="cls-3" x1="128.77" y1="7.94" x2="148.1" y2="7.94"/><line class="cls-3" x1="128.77" y1="5.01" x2="148.1" y2="5.01"/><line class="cls-3" x1="128.77" y1="2.08" x2="148.1" y2="2.08"/><line class="cls-3" x1="128.77" y1="22.57" x2="148.1" y2="22.57"/><line class="cls-3" x1="128.77" y1="25.49" x2="148.1" y2="25.49"/><line class="cls-3" x1="128.77" y1="16.71" x2="148.1" y2="16.71"/><text class="cls-2" transform="translate(358.5 42.05)">Predicted<tspan x="0" y="12">amino acid</tspan><tspan x="0" y="24">sequence</tspan></text><line class="cls-4" x1="373.01" y1="28.42" x2="392.35" y2="28.42"/><line class="cls-4" x1="373.01" y1="19.64" x2="392.35" y2="19.64"/><line class="cls-4" x1="373.01" y1="13.79" x2="392.35" y2="13.79"/><line class="cls-4" x1="373.01" y1="10.86" x2="392.35" y2="10.86"/><line class="cls-4" x1="373.01" y1="7.94" x2="392.35" y2="7.94"/><line class="cls-4" x1="373.01" y1="5.01" x2="392.35" y2="5.01"/><line class="cls-4" x1="373.01" y1="2.08" x2="392.35" y2="2.08"/><line class="cls-4" x1="373.01" y1="22.57" x2="392.35" y2="22.57"/><line class="cls-4" x1="373.01" y1="25.49" x2="392.35" y2="25.49"/><line class="cls-4" x1="373.01" y1="16.71" x2="392.35" y2="16.71"/><text class="cls-5" transform="translate(404.46 100.69)">NCBI RefSeq <tspan x="0" y="9.6">non-redundant prot</tspan><tspan class="cls-6" x="68.05" y="9.6">e</tspan><tspan x="72.34" y="9.6">in</tspan></text><rect class="cls-7" x="434.16" y="67.56" width="19.16" height="20.98"/><path class="cls-7" d="M453.32,67.56c0,1-4.29,1.71-9.58,1.71s-9.58-.76-9.58-1.71,4.29-1.7,9.58-1.7,9.58.76,9.58,1.7"/><path class="cls-7" d="M453.32,88.54c0,.94-4.29,1.7-9.58,1.7s-9.58-.76-9.58-1.7,4.29-1.71,9.58-1.71,9.58.77,9.58,1.71"/><path class="cls-8" d="M453.32,67.56c0,1-4.29,1.71-9.58,1.71s-9.58-.76-9.58-1.71,4.29-1.7,9.58-1.7S453.32,66.62,453.32,67.56Z"/><polygon class="cls-9" points="316.62 14.55 322.17 14.55 321.55 13.11 326.62 15.25 321.55 17.39 322.17 15.94 316.62 15.94 316.62 14.55"/><polygon class="cls-9" points="72.37 14.55 77.92 14.55 77.31 13.11 82.37 15.25 77.31 17.39 77.92 15.94 72.37 15.94 72.37 14.55"/><polygon class="cls-9" points="194.5 14.55 200.04 14.55 199.43 13.11 204.5 15.25 199.43 17.39 200.04 15.94 194.5 15.94 194.5 14.55"/><path class="cls-10" d="M23,28.42H9.66a4,4,0,0,1-4-4V6.08a4,4,0,0,1,4-4H23a4,4,0,0,1,4,4V24.42a4,4,0,0,1-4,4"/><rect class="cls-11" x="7.01" y="16.33" width="1.23" height="1.31"/><path class="cls-11" d="M14.67,15.41a3.59,3.59,0,0,1-.1.9,2.16,2.16,0,0,1-.33.72,1.31,1.31,0,0,1-.58.48,2,2,0,0,1-.85.17,1.83,1.83,0,0,1-1.25-.44,4.43,4.43,0,0,1-.05.47l-.81-.1a7.89,7.89,0,0,0,.1-1.15v-.12c0-.39,0-1.1,0-2.11V12a11.45,11.45,0,0,0-.07-1.2l.77-.05A9.71,9.71,0,0,1,11.56,12v1a2.24,2.24,0,0,1,.25-.17.87.87,0,0,1,.27-.12,1.7,1.7,0,0,1,.41-.05c1.46,0,2.18.91,2.18,2.74m-.76-.1q0-1.89-1.35-1.89l-.16,0-.14,0a.48.48,0,0,0-.15.07l-.12.07-.12.1-.11.09-.11.11-.09.09v2.14a2.1,2.1,0,0,0,.52.61,1.33,1.33,0,0,0,.73.17.91.91,0,0,0,.84-.41,2.34,2.34,0,0,0,.26-1.21"/><path class="cls-11" d="M19.73,16.09a2,2,0,0,0,.06.71l.09.09L20,17l.13.1-.4.58-.15-.1a.86.86,0,0,1-.16-.13.79.79,0,0,1-.13-.13.76.76,0,0,1-.12-.19,1,1,0,0,1-.08-.26,3.85,3.85,0,0,1-.31.29l-.38.24a1.61,1.61,0,0,1-.52.2,3,3,0,0,1-.63.07,1.41,1.41,0,0,1-1.05-.45,1.44,1.44,0,0,1-.44-1.05,1.56,1.56,0,0,1,.12-.59,1.46,1.46,0,0,1,.32-.52,1.94,1.94,0,0,1,.69-.46,2.47,2.47,0,0,1,.84-.13,2.37,2.37,0,0,1,1.19.25,1.55,1.55,0,0,0-.28-1,1.06,1.06,0,0,0-.89-.34,1.59,1.59,0,0,0-.8.17,1.77,1.77,0,0,0-.57.68l-.63-.4a2,2,0,0,1,.82-.91,2.35,2.35,0,0,1,1.17-.27,1.94,1.94,0,0,1,1.41.51,1.76,1.76,0,0,1,.54,1.34Zm-3.16,0a.84.84,0,0,0,.19.59.69.69,0,0,0,.53.21,2,2,0,0,0,.56-.08,1.81,1.81,0,0,0,.44-.2,1.92,1.92,0,0,0,.32-.26l.23-.25A1.4,1.4,0,0,0,19,16V15.5a2.13,2.13,0,0,0-1.15-.31,1.5,1.5,0,0,0-.88.26.8.8,0,0,0-.36.68"/><path class="cls-11" d="M24.34,12.64a.64.64,0,0,1,.42.15.81.81,0,0,1,.26.38,2.93,2.93,0,0,1,.11.45,3,3,0,0,1,0,.42v2.55a.42.42,0,0,0,.13.31,1,1,0,0,0,.31.2l-.29.65a.94.94,0,0,1-.28-.1,1.41,1.41,0,0,1-.27-.18,1.11,1.11,0,0,1-.21-.32,1.19,1.19,0,0,1-.08-.44h0V13.87c0-.32-.1-.49-.31-.49s-.52.3-.79.89v3.38h-.69V13.71a.66.66,0,0,0,0-.15.25.25,0,0,0-.07-.12.19.19,0,0,0-.15-.06.71.71,0,0,0-.44.22,2.21,2.21,0,0,0-.44.67v3.38h-.69v-4a2.77,2.77,0,0,0-.15-.94l.73-.2a1.43,1.43,0,0,1,.1.38q0,.27.06.45a1.6,1.6,0,0,1,.46-.51.92.92,0,0,1,.54-.21.71.71,0,0,1,.55.22.76.76,0,0,1,.2.5,1.15,1.15,0,0,1,1-.72"/><polygon class="cls-9" points="438.74 14.55 444.29 14.55 443.68 13.11 448.74 15.25 443.68 17.39 444.29 15.95 438.74 15.95 438.74 14.55"/><text class="cls-2" transform="translate(240.27 42.1)">Adapter, <tspan x="0" y="12">poly-A, </tspan><tspan x="0" y="24">trimmed</tspan></text><line class="cls-3" x1="250.89" y1="28.42" x2="270.22" y2="28.42"/><line class="cls-3" x1="250.89" y1="19.64" x2="270.22" y2="19.64"/><line class="cls-3" x1="250.89" y1="13.79" x2="270.22" y2="13.79"/><line class="cls-3" x1="250.89" y1="10.86" x2="270.22" y2="10.86"/><line class="cls-3" x1="250.89" y1="7.94" x2="270.22" y2="7.94"/><line class="cls-3" x1="250.89" y1="5.01" x2="270.22" y2="5.01"/><line class="cls-3" x1="250.89" y1="2.08" x2="270.22" y2="2.08"/><line class="cls-3" x1="250.89" y1="22.57" x2="270.22" y2="22.57"/><line class="cls-3" x1="250.89" y1="25.49" x2="270.22" y2="25.49"/><line class="cls-3" x1="250.89" y1="16.71" x2="270.22" y2="16.71"/><text class="cls-12" transform="translate(35.97 25.49)">bedtools intersect \<tspan x="0" y="9.6" xml:space="preserve"> | samtools fastq</tspan></text><text class="cls-12" transform="translate(189.14 25.49)">fastp</text><text class="cls-12" transform="translate(276.07 25.49)">khtools extract_coding</text><text class="cls-12" transform="translate(414.76 28.42)">diamond blastp</text><rect class="cls-13" x="312.04" y="62.33" width="19.16" height="20.98"/><path class="cls-13" d="M331.2,62.33c0,.94-4.29,1.7-9.58,1.7s-9.58-.76-9.58-1.7,4.29-1.71,9.58-1.71,9.58.76,9.58,1.71"/><path class="cls-13" d="M331.2,83.3c0,.94-4.29,1.71-9.58,1.71S312,84.24,312,83.3s4.29-1.71,9.58-1.71,9.58.77,9.58,1.71"/><path class="cls-8" d="M331.2,62.33c0,.94-4.29,1.7-9.58,1.7s-9.58-.76-9.58-1.7,4.29-1.71,9.58-1.71S331.2,61.38,331.2,62.33Z"/><text class="cls-5" transform="translate(270.7 100.69)">UNIPROT/SwissProt <tspan x="0" y="9.6">manually curated eukaryotic </tspan><tspan x="0" y="19.2">protein sequences</tspan></text><g class="cls-14"><text class="cls-15" transform="translate(478.59 3.46)">XP_008705901.1 PREDICTED: phospholipase A2 [Ursus maritimus]<tspan x="0" y="5.26">XP_026370896.1 phospholipase A2 [Ursus arctos horribilis]</tspan><tspan x="0" y="10.53">XP_011803952.1 PREDICTED: phospholipase A2 [Colobus angolensis palliatus]</tspan><tspan x="0" y="15.79">NP_001177150.1 cytochrome c oxidase subunit VIa polypeptide 1 [Sus scrofa]</tspan><tspan x="0" y="21.06">XP_003419308.1 cytochrome c oxidase subunit 6A1, mitochondrial isoform X1 [Loxodonta africana]</tspan></text></g><text class="cls-2" transform="translate(462.28 44.61)">Putatitve homologs</text><line class="cls-16" x1="321.62" y1="57.22" x2="321.62" y2="28.42"/><rect class="cls-1" x="320.13" y="26.93" width="2.97" height="3.52"/><polygon class="cls-9" points="323.1 30.44 321.62 29.81 320.13 30.44 321.62 26.93 323.1 30.44"/><line class="cls-16" x1="443.74" y1="60.73" x2="443.74" y2="31.94"/><rect class="cls-1" x="442.26" y="30.44" width="2.97" height="3.52"/><polygon class="cls-9" points="445.23 33.96 443.74 33.33 442.26 33.96 443.74 30.44 445.23 33.96"/></svg>