<svg id="Layer_1" data-name="Layer 1" xmlns="http://www.w3.org/2000/svg" viewBox="0 0 551.54 311.98"><defs><style>.cls-1,.cls-2,.cls-23,.cls-25{font-size:10px;}.cls-1,.cls-20,.cls-4{fill:gray;}.cls-1,.cls-2,.cls-23,.cls-25,.cls-4,.cls-6{font-family:ArialMT, Arial;}.cls-19,.cls-2,.cls-22{fill:#231f20;}.cls-11,.cls-12,.cls-13,.cls-14,.cls-17,.cls-18,.cls-28,.cls-29,.cls-3,.cls-30,.cls-31,.cls-32,.cls-33,.cls-7,.cls-8,.cls-9{fill:none;}.cls-3{stroke:#080504;}.cls-12,.cls-13,.cls-14,.cls-29,.cls-3,.cls-31,.cls-32,.cls-33,.cls-7,.cls-9{stroke-linecap:round;}.cls-13,.cls-3,.cls-32,.cls-33,.cls-7,.cls-9{stroke-linejoin:round;}.cls-3,.cls-8{stroke-width:0.25px;}.cls-4{font-size:8px;}.cls-5{font-family:Arial-ItalicMT, Arial;font-style:italic;}.cls-6{font-style:normal;}.cls-13,.cls-7{stroke:#662d91;}.cls-8{stroke:#000;}.cls-11,.cls-12,.cls-14,.cls-17,.cls-28,.cls-29,.cls-30,.cls-31,.cls-8{stroke-miterlimit:10;}.cls-9{stroke:#524fa1;}.cls-10{letter-spacing:-0.06em;}.cls-11,.cls-12{stroke:#00addc;}.cls-12,.cls-14{stroke-width:2px;}.cls-13,.cls-32,.cls-33{stroke-width:0.75px;}.cls-14{stroke:#29aae2;}.cls-15{letter-spacing:0.02em;}.cls-16{fill:#662f90;}.cls-17{stroke:#fff;stroke-width:0.5px;}.cls-21{fill:#fff;}.cls-22{font-size:12px;font-family:Arial-BoldMT, Arial;font-weight:700;}.cls-23,.cls-26{fill:#20b573;}.cls-24{letter-spacing:-0.06em;}.cls-25,.cls-27{fill:#f79420;}.cls-28,.cls-29,.cls-33{stroke:#20b573;}.cls-30,.cls-31,.cls-32{stroke:#f79420;}</style></defs><title>figure1</title><text class="cls-1" transform="translate(3.7 56.3)">Aligned <tspan x="0" y="12">single-cell </tspan><tspan x="0" y="24">reads</tspan></text><text class="cls-2" transform="translate(60.34 56.3)">RNA-seq <tspan x="0" y="12">reads</tspan></text><line class="cls-3" x1="73.36" y1="42.72" x2="92.7" y2="42.72"/><line class="cls-3" x1="73.36" y1="33.94" x2="92.7" y2="33.94"/><line class="cls-3" x1="73.36" y1="28.09" x2="92.7" y2="28.09"/><line class="cls-3" x1="73.36" y1="25.16" x2="92.7" y2="25.16"/><line class="cls-3" x1="73.36" y1="22.24" x2="92.7" y2="22.24"/><line class="cls-3" x1="73.36" y1="19.31" x2="92.7" y2="19.31"/><line class="cls-3" x1="73.36" y1="16.38" x2="92.7" y2="16.38"/><line class="cls-3" x1="73.36" y1="36.87" x2="92.7" y2="36.87"/><line class="cls-3" x1="73.36" y1="39.79" x2="92.7" y2="39.79"/><line class="cls-3" x1="73.36" y1="31.01" x2="92.7" y2="31.01"/><text class="cls-4" transform="translate(3.52 92.43)">(droplet-based <tspan x="8.01" y="9.6">single-cell </tspan><tspan x="-0.21" y="19.2">RNA-seq only)</tspan></text><text class="cls-2" transform="translate(120.88 56.3)">Predicted <tspan x="0" y="12">amino acid</tspan><tspan x="0" y="24">sequence</tspan></text><text class="cls-2" transform="translate(243.56 56.3)">Random <tspan x="0" y="12">amino acid </tspan><tspan class="cls-5"><tspan x="0" y="24">k</tspan><tspan class="cls-6" x="5" y="24">-mers</tspan></tspan></text><line class="cls-7" x1="135.4" y1="42.72" x2="154.73" y2="42.72"/><line class="cls-7" x1="135.4" y1="33.94" x2="154.73" y2="33.94"/><line class="cls-7" x1="135.4" y1="28.09" x2="154.73" y2="28.09"/><line class="cls-7" x1="135.4" y1="25.16" x2="154.73" y2="25.16"/><line class="cls-7" x1="135.4" y1="22.24" x2="154.73" y2="22.24"/><line class="cls-7" x1="135.4" y1="19.31" x2="154.73" y2="19.31"/><line class="cls-7" x1="135.4" y1="16.38" x2="154.73" y2="16.38"/><line class="cls-7" x1="135.4" y1="36.87" x2="154.73" y2="36.87"/><line class="cls-7" x1="135.4" y1="39.79" x2="154.73" y2="39.79"/><line class="cls-7" x1="135.4" y1="31.01" x2="154.73" y2="31.01"/><line class="cls-8" x1="259.46" y1="42.72" x2="278.79" y2="42.72"/><line class="cls-8" x1="259.46" y1="33.94" x2="278.79" y2="33.94"/><line class="cls-8" x1="259.46" y1="28.09" x2="278.79" y2="28.09"/><line class="cls-8" x1="259.46" y1="25.16" x2="278.79" y2="25.16"/><line class="cls-8" x1="259.46" y1="22.24" x2="278.79" y2="22.24"/><line class="cls-8" x1="259.46" y1="19.31" x2="278.79" y2="19.31"/><line class="cls-8" x1="259.46" y1="16.38" x2="278.79" y2="16.38"/><line class="cls-8" x1="259.46" y1="36.87" x2="278.79" y2="36.87"/><line class="cls-8" x1="259.46" y1="39.79" x2="278.79" y2="39.79"/><line class="cls-8" x1="259.46" y1="31.01" x2="278.79" y2="31.01"/><line class="cls-9" x1="262.46" y1="42.72" x2="268.46" y2="42.72"/><line class="cls-9" x1="259.46" y1="33.94" x2="265.46" y2="33.94"/><line class="cls-9" x1="269.46" y1="28.09" x2="275.46" y2="28.09"/><line class="cls-9" x1="262.46" y1="25.16" x2="268.46" y2="25.16"/><line class="cls-9" x1="265.46" y1="22.24" x2="271.46" y2="22.24"/><line class="cls-9" x1="261.46" y1="19.31" x2="267.46" y2="19.31"/><line class="cls-9" x1="271.46" y1="16.38" x2="277.46" y2="16.38"/><line class="cls-9" x1="265.46" y1="36.87" x2="271.46" y2="36.87"/><line class="cls-9" x1="270.46" y1="39.79" x2="276.46" y2="39.79"/><line class="cls-9" x1="272.46" y1="31.01" x2="278.46" y2="31.01"/><line class="cls-9" x1="269.09" y1="33.94" x2="275.09" y2="33.94"/><line class="cls-9" x1="262.97" y1="31.01" x2="268.97" y2="31.01"/><text class="cls-2" transform="translate(309.72 56.3)">Cluster on <tspan class="cls-5"><tspan x="0" y="12">k</tspan><tspan class="cls-6" x="5" y="12">-mer </tspan></tspan><tspan x="0" y="24">similarit</tspan><tspan class="cls-10" x="33.89" y="24">y</tspan></text><circle cx="325.64" cy="21.41" r="0.88"/><circle cx="329.45" cy="22.29" r="0.88"/><circle cx="329.45" cy="19.65" r="0.88"/><circle cx="327.54" cy="24.04" r="0.88"/><circle cx="324.91" cy="23.17" r="0.88"/><circle cx="327.54" cy="21.41" r="0.88"/><circle cx="326.52" cy="18.77" r="0.88"/><circle cx="324.03" cy="20.53" r="0.88"/><circle cx="341.75" cy="21.31" r="0.88"/><circle cx="338.43" cy="23.38" r="0.88"/><circle cx="340.29" cy="25.24" r="0.88"/><circle cx="338.54" cy="20.79" r="0.88"/><circle cx="341.02" cy="19.54" r="0.88"/><circle cx="340.4" cy="22.65" r="0.88"/><circle cx="341.99" cy="23.79" r="0.88"/><circle cx="343.51" cy="20.79" r="0.88"/><circle cx="333.47" cy="29.29" r="0.88"/><circle cx="329.66" cy="28.41" r="0.88"/><circle cx="329.66" cy="31.05" r="0.88"/><circle cx="331.56" cy="26.65" r="0.88"/><circle cx="334.2" cy="27.52" r="0.88"/><circle cx="331.56" cy="29.29" r="0.88"/><circle cx="332.59" cy="31.92" r="0.88"/><circle cx="335.08" cy="30.17" r="0.88"/><circle cx="336.21" cy="28.41" r="0.88"/><circle cx="325.69" cy="35.5" r="0.88"/><circle cx="322.37" cy="37.58" r="0.88"/><circle cx="324.23" cy="39.44" r="0.88"/><circle cx="322.47" cy="34.99" r="0.88"/><circle cx="324.34" cy="36.85" r="0.88"/><circle cx="326.93" cy="37.99" r="0.88"/><circle cx="327.44" cy="34.99" r="0.88"/><circle cx="334.35" cy="39.85" r="0.88"/><circle cx="336.21" cy="41.72" r="0.88"/><circle cx="334.45" cy="37.26" r="0.88"/><circle cx="336.93" cy="36.02" r="0.88"/><circle cx="336.32" cy="39.13" r="0.88"/><circle cx="338.91" cy="40.26" r="0.88"/><circle cx="339.42" cy="37.26" r="0.88"/><circle class="cls-11" cx="340.44" cy="22.37" r="5.87"/><text class="cls-2" transform="translate(376.44 56.3)">k-mers <tspan x="0" y="12">enriched </tspan><tspan x="0" y="24">in clusters</tspan></text><line class="cls-12" x1="392" y1="42.73" x2="398" y2="42.73"/><line class="cls-12" x1="389" y1="33.96" x2="395" y2="33.96"/><line class="cls-12" x1="401" y1="16.4" x2="407" y2="16.4"/><line class="cls-12" x1="402" y1="31.03" x2="408" y2="31.03"/><line class="cls-13" x1="451.59" y1="42.72" x2="470.92" y2="42.72"/><line class="cls-13" x1="451.59" y1="33.94" x2="470.92" y2="33.94"/><line class="cls-13" x1="451.59" y1="28.09" x2="470.92" y2="28.09"/><line class="cls-13" x1="451.59" y1="25.16" x2="470.92" y2="25.16"/><line class="cls-13" x1="451.59" y1="22.24" x2="470.92" y2="22.24"/><line class="cls-13" x1="451.59" y1="19.31" x2="470.92" y2="19.31"/><line class="cls-13" x1="451.59" y1="16.38" x2="470.92" y2="16.38"/><line class="cls-13" x1="451.59" y1="36.87" x2="470.92" y2="36.87"/><line class="cls-13" x1="451.59" y1="39.79" x2="470.92" y2="39.79"/><line class="cls-13" x1="451.59" y1="31.01" x2="470.92" y2="31.01"/><line class="cls-14" x1="454.59" y1="42.72" x2="460.59" y2="42.72"/><line class="cls-14" x1="451.59" y1="33.94" x2="457.59" y2="33.94"/><line class="cls-14" x1="463.59" y1="16.38" x2="469.59" y2="16.38"/><line class="cls-14" x1="464.59" y1="31.01" x2="470.59" y2="31.01"/><text class="cls-2" transform="translate(427.52 56.3)">Get amino <tspan x="0" y="12">acid</tspan><tspan class="cls-15" x="18.34" y="12"> </tspan><tspan x="21.32" y="12">sequence </tspan><tspan x="0" y="24">from reads </tspan><tspan x="0" y="36">with enriched </tspan><tspan x="0" y="48">k-mers</tspan></text><text class="cls-2" transform="translate(494.86 56.3)">Query NCBI <tspan x="0" y="12">RefSeq NR </tspan><tspan x="0" y="24">protein </tspan><tspan x="0" y="36">sequences</tspan></text><rect class="cls-16" x="513.62" y="19.06" width="19.16" height="20.97"/><ellipse class="cls-16" cx="523.2" cy="19.06" rx="9.58" ry="1.71"/><ellipse class="cls-16" cx="523.2" cy="40.04" rx="9.58" ry="1.71"/><ellipse class="cls-17" cx="523.2" cy="19.06" rx="9.58" ry="1.71"/><rect class="cls-18" x="109.05" y="27.41" width="10" height="4.28"/><polygon class="cls-19" points="109.05 28.86 114.59 28.86 113.98 27.41 119.05 29.55 113.98 31.69 114.59 30.25 109.05 30.25 109.05 28.86"/><rect class="cls-18" x="47.02" y="27.41" width="10" height="4.28"/><polygon class="cls-20" points="47.02 28.86 52.56 28.86 51.95 27.41 57.02 29.55 51.95 31.69 52.56 30.25 47.02 30.25 47.02 28.86"/><rect class="cls-18" x="233.11" y="27.41" width="10" height="4.28"/><polygon class="cls-19" points="233.11 28.86 238.66 28.86 238.04 27.41 243.11 29.55 238.04 31.69 238.66 30.25 233.11 30.25 233.11 28.86"/><rect class="cls-18" x="295.14" y="27.41" width="10" height="4.28"/><polygon class="cls-19" points="295.14 28.86 300.69 28.86 300.07 27.41 305.14 29.55 300.07 31.69 300.69 30.25 295.14 30.25 295.14 28.86"/><rect class="cls-18" x="362.65" y="27.41" width="10" height="4.28"/><polygon class="cls-19" points="362.65 28.86 368.2 28.86 367.59 27.41 372.65 29.55 367.59 31.69 368.2 30.25 362.65 30.25 362.65 28.86"/><rect class="cls-18" x="425.24" y="27.41" width="10" height="4.28"/><polygon class="cls-19" points="425.24 28.86 430.79 28.86 430.17 27.41 435.24 29.55 430.17 31.69 430.79 30.25 425.24 30.25 425.24 28.86"/><rect class="cls-18" x="487.27" y="27.41" width="10" height="4.28"/><polygon class="cls-19" points="487.27 28.86 492.82 28.86 492.2 27.41 497.27 29.55 492.2 31.69 492.82 30.25 487.27 30.25 487.27 28.86"/><rect class="cls-20" x="9.36" y="16.38" width="21.3" height="26.33" rx="4"/><path class="cls-21" d="M10.71,30.63h1.23V32H10.71Z"/><path class="cls-21" d="M18.37,29.71a3.59,3.59,0,0,1-.1.9,2.36,2.36,0,0,1-.32.72,1.43,1.43,0,0,1-.58.48,1.94,1.94,0,0,1-.86.17,1.85,1.85,0,0,1-1.25-.44,4.43,4.43,0,0,1,0,.47l-.8-.1a7.83,7.83,0,0,0,.09-1.15V28.53c0-1,0-1.76,0-2.23a11.45,11.45,0,0,0-.07-1.2l.78-.05a12,12,0,0,1,.06,1.27v1l.25-.17a.7.7,0,0,1,.27-.11A1.37,1.37,0,0,1,16.2,27C17.65,27,18.37,27.88,18.37,29.71Zm-.76-.1c0-1.26-.45-1.89-1.34-1.89l-.17,0-.14,0a.37.37,0,0,0-.14.07l-.12.07-.13.1-.1.09-.11.11-.1.09v2.14a2,2,0,0,0,.53.61,1.27,1.27,0,0,0,.72.17.93.93,0,0,0,.85-.41A2.45,2.45,0,0,0,17.61,29.61Z"/><path class="cls-21" d="M23.43,30.39a2,2,0,0,0,.06.71l.09.09.16.12.14.1-.41.59-.15-.11-.16-.13L23,31.63a.62.62,0,0,1-.12-.19,1,1,0,0,1-.07-.25l-.32.28a4.41,4.41,0,0,1-.38.24,1.65,1.65,0,0,1-.51.2A3.2,3.2,0,0,1,21,32a1.5,1.5,0,0,1-1.49-1.5,1.8,1.8,0,0,1,.11-.59,1.46,1.46,0,0,1,.32-.52,1.89,1.89,0,0,1,.7-.46,2.65,2.65,0,0,1,.84-.13,2.33,2.33,0,0,1,1.18.25,1.61,1.61,0,0,0-.27-1,1.11,1.11,0,0,0-.89-.34,1.63,1.63,0,0,0-.81.17,1.77,1.77,0,0,0-.57.68l-.63-.4a2.1,2.1,0,0,1,.82-.91,2.39,2.39,0,0,1,1.18-.27,2,2,0,0,1,1.41.51,1.79,1.79,0,0,1,.53,1.34Zm-3.16,0a.84.84,0,0,0,.19.59.7.7,0,0,0,.54.21,1.7,1.7,0,0,0,.55-.08A1.81,1.81,0,0,0,22,31a2.5,2.5,0,0,0,.33-.26l.22-.24.12-.19V29.8a2.13,2.13,0,0,0-1.15-.31,1.52,1.52,0,0,0-.88.26A.8.8,0,0,0,20.27,30.43Z"/><path class="cls-21" d="M28,26.94a.62.62,0,0,1,.42.15.79.79,0,0,1,.26.38,2.16,2.16,0,0,1,.12.45,3,3,0,0,1,0,.42v2.55a.42.42,0,0,0,.13.31,1.07,1.07,0,0,0,.32.2l-.3.65a1,1,0,0,1-.28-.1,1.41,1.41,0,0,1-.27-.18.92.92,0,0,1-.2-.32,1,1,0,0,1-.09-.44h0V28.17c0-.32-.1-.49-.31-.49s-.52.3-.79.89V32h-.69V28a.66.66,0,0,0,0-.15.23.23,0,0,0-.06-.12.21.21,0,0,0-.16-.06.66.66,0,0,0-.43.22,2,2,0,0,0-.45.67V32H24.6l0-4a2.77,2.77,0,0,0-.15-.94l.74-.2a1.51,1.51,0,0,1,.09.38q0,.27.06.45a1.72,1.72,0,0,1,.46-.51.92.92,0,0,1,.54-.21.71.71,0,0,1,.55.22.72.72,0,0,1,.21.5A1.13,1.13,0,0,1,28,26.94Z"/><text class="cls-22" transform="translate(6.16 10.29)">A</text><text class="cls-22" transform="translate(6.16 138.76)">B</text><text class="cls-23" transform="translate(28.66 147.36)">Model<tspan x="-8.34" y="12">Species</tspan><tspan class="cls-24" x="27.23" y="12" xml:space="preserve"> A</tspan><tspan x="-19.17" y="24">transcriptomes</tspan></text><text class="cls-25" transform="translate(17.83 218.58)">Non-model<tspan x="1.94" y="12">Species B</tspan><tspan x="-8.33" y="24">transcriptomes</tspan></text><text class="cls-2" transform="translate(181.53 55.09)">Reduced <tspan x="0" y="12">amino acid </tspan><tspan x="0" y="24">alphabet</tspan></text><line class="cls-9" x1="197.43" y1="42.61" x2="216.76" y2="42.61"/><line class="cls-9" x1="197.43" y1="33.83" x2="216.76" y2="33.83"/><line class="cls-9" x1="197.43" y1="27.98" x2="216.76" y2="27.98"/><line class="cls-9" x1="197.43" y1="25.05" x2="216.76" y2="25.05"/><line class="cls-9" x1="197.43" y1="22.13" x2="216.76" y2="22.13"/><line class="cls-9" x1="197.43" y1="19.2" x2="216.76" y2="19.2"/><line class="cls-9" x1="197.43" y1="16.28" x2="216.76" y2="16.28"/><line class="cls-9" x1="197.43" y1="36.76" x2="216.76" y2="36.76"/><line class="cls-9" x1="197.43" y1="39.68" x2="216.76" y2="39.68"/><line class="cls-9" x1="197.43" y1="30.91" x2="216.76" y2="30.91"/><rect class="cls-18" x="171.08" y="27.15" width="10" height="4.28"/><polygon class="cls-19" points="171.08 28.59 176.63 28.59 176.01 27.15 181.08 29.29 176.01 31.43 176.63 29.98 171.08 29.98 171.08 28.59"/><circle class="cls-26" cx="203.06" cy="169.62" r="2.51"/><circle class="cls-26" cx="213.95" cy="172.12" r="2.51"/><circle class="cls-26" cx="213.95" cy="164.6" r="2.51"/><circle class="cls-26" cx="208.51" cy="177.14" r="2.51"/><circle class="cls-26" cx="200.98" cy="174.65" r="2.51"/><circle class="cls-26" cx="208.51" cy="169.62" r="2.51"/><circle class="cls-26" cx="205.57" cy="162.09" r="2.51"/><circle class="cls-26" cx="198.47" cy="167.11" r="2.51"/><circle class="cls-26" cx="249.06" cy="169.32" r="2.51"/><circle class="cls-26" cx="239.59" cy="175.24" r="2.51"/><circle class="cls-26" cx="244.91" cy="180.56" r="2.51"/><circle class="cls-27" cx="239.89" cy="167.85" r="2.51"/><circle class="cls-26" cx="246.97" cy="164.29" r="2.51"/><circle class="cls-26" cx="245.21" cy="173.17" r="2.51"/><circle class="cls-27" cx="249.75" cy="176.42" r="2.51"/><circle class="cls-26" cx="254.08" cy="167.85" r="2.51"/><circle class="cls-27" cx="225.42" cy="192.11" r="2.51"/><circle class="cls-27" cx="214.54" cy="189.6" r="2.51"/><circle class="cls-27" cx="214.54" cy="197.13" r="2.51"/><circle class="cls-26" cx="219.98" cy="184.59" r="2.51"/><circle class="cls-27" cx="227.51" cy="187.08" r="2.51"/><circle class="cls-26" cx="219.98" cy="192.11" r="2.51"/><circle class="cls-26" cx="222.92" cy="199.64" r="2.51"/><circle class="cls-26" cx="230.02" cy="194.62" r="2.51"/><circle class="cls-26" cx="233.25" cy="189.6" r="2.51"/><circle class="cls-26" cx="203.21" cy="209.85" r="2.51"/><circle class="cls-27" cx="193.74" cy="215.77" r="2.51"/><circle class="cls-26" cx="199.06" cy="221.09" r="2.51"/><circle class="cls-27" cx="194.04" cy="208.38" r="2.51"/><circle class="cls-26" cx="199.36" cy="213.7" r="2.51"/><circle class="cls-26" cx="206.75" cy="216.94" r="2.51"/><circle class="cls-26" cx="208.23" cy="208.38" r="2.51"/><circle class="cls-27" cx="227.93" cy="222.27" r="2.51"/><circle class="cls-27" cx="233.25" cy="227.59" r="2.51"/><circle class="cls-27" cx="228.23" cy="214.87" r="2.51"/><circle class="cls-27" cx="235.31" cy="211.31" r="2.51"/><circle class="cls-27" cx="233.55" cy="220.2" r="2.51"/><circle class="cls-27" cx="240.95" cy="223.44" r="2.51"/><circle class="cls-11" cx="222.55" cy="192" r="14.98"/><circle class="cls-26" cx="90.79" cy="156.97" r="2.51"/><circle class="cls-26" cx="96.24" cy="164.49" r="2.51"/><circle class="cls-26" cx="88.71" cy="162" r="2.51"/><circle class="cls-26" cx="96.24" cy="156.97" r="2.51"/><circle class="cls-26" cx="93.3" cy="150.56" r="2.51"/><circle class="cls-26" cx="86.2" cy="154.46" r="2.51"/><circle class="cls-27" cx="84.71" cy="231.4" r="2.51"/><circle class="cls-27" cx="90.03" cy="236.72" r="2.51"/><circle class="cls-27" cx="90.33" cy="229.33" r="2.51"/><circle class="cls-27" cx="97.73" cy="232.57" r="2.51"/><text class="cls-2" transform="translate(85.58 258.13)">Represent each <tspan x="0" y="12">transcriptome as sets </tspan><tspan x="0" y="24">of amino acid k-mers</tspan></text><text class="cls-2" transform="translate(199.99 259.31)">Cluster on <tspan x="0" y="12">k-mer </tspan><tspan x="0" y="24">similarity</tspan></text><circle class="cls-28" cx="149.18" cy="157.52" r="5.21"/><circle class="cls-28" cx="160.48" cy="173.16" r="5.21"/><circle class="cls-28" cx="144.85" cy="167.99" r="5.21"/><circle class="cls-28" cx="160.48" cy="157.52" r="5.21"/><circle class="cls-28" cx="154.39" cy="141.89" r="5.21"/><circle class="cls-28" cx="139.64" cy="152.31" r="5.21"/><line class="cls-29" x1="151.58" y1="141.16" x2="153.68" y2="141.16"/><line class="cls-29" x1="155.1" y1="141.93" x2="157.19" y2="141.93"/><line class="cls-29" x1="151.58" y1="142.97" x2="153.68" y2="142.97"/><line class="cls-29" x1="154.69" y1="144.23" x2="156.78" y2="144.23"/><line class="cls-29" x1="153.64" y1="139.55" x2="155.73" y2="139.55"/><line class="cls-29" x1="148.53" y1="160.31" x2="150.62" y2="160.31"/><line class="cls-29" x1="147.31" y1="154.74" x2="149.4" y2="154.74"/><line class="cls-29" x1="146.44" y1="158.32" x2="148.53" y2="158.32"/><line class="cls-29" x1="150.15" y1="155.91" x2="152.25" y2="155.91"/><line class="cls-29" x1="146.11" y1="156.54" x2="148.2" y2="156.54"/><line class="cls-29" x1="150.15" y1="157.73" x2="152.25" y2="157.73"/><line class="cls-29" x1="159.08" y1="154.65" x2="161.17" y2="154.65"/><line class="cls-29" x1="158.03" y1="156.77" x2="160.13" y2="156.77"/><line class="cls-29" x1="161.45" y1="156.18" x2="163.55" y2="156.18"/><line class="cls-29" x1="157.42" y1="158.21" x2="159.51" y2="158.21"/><line class="cls-29" x1="161.24" y1="158.21" x2="163.34" y2="158.21"/><line class="cls-29" x1="161.24" y1="159.66" x2="163.34" y2="159.66"/><line class="cls-29" x1="158.22" y1="160.4" x2="160.31" y2="160.4"/><line class="cls-29" x1="138.7" y1="149.62" x2="140.79" y2="149.62"/><line class="cls-29" x1="136.46" y1="151.12" x2="138.56" y2="151.12"/><line class="cls-29" x1="140.72" y1="151.42" x2="142.81" y2="151.42"/><line class="cls-29" x1="136.81" y1="152.97" x2="138.9" y2="152.97"/><line class="cls-29" x1="140.51" y1="153.98" x2="142.6" y2="153.98"/><line class="cls-29" x1="137.65" y1="155.01" x2="139.75" y2="155.01"/><line class="cls-29" x1="145.49" y1="165.2" x2="143.4" y2="165.2"/><line class="cls-29" x1="146.71" y1="170.77" x2="144.62" y2="170.77"/><line class="cls-29" x1="147.59" y1="167.19" x2="145.49" y2="167.19"/><line class="cls-29" x1="143.87" y1="169.6" x2="141.78" y2="169.6"/><line class="cls-29" x1="147.92" y1="168.97" x2="145.82" y2="168.97"/><line class="cls-29" x1="143.87" y1="167.79" x2="141.78" y2="167.79"/><line class="cls-29" x1="161.13" y1="170.38" x2="159.03" y2="170.38"/><line class="cls-29" x1="162.35" y1="175.94" x2="160.25" y2="175.94"/><line class="cls-29" x1="163.22" y1="172.36" x2="161.13" y2="172.36"/><line class="cls-29" x1="159.5" y1="174.77" x2="157.41" y2="174.77"/><line class="cls-29" x1="163.55" y1="174.14" x2="161.46" y2="174.14"/><line class="cls-29" x1="159.5" y1="172.96" x2="157.41" y2="172.96"/><circle class="cls-30" cx="136.54" cy="229.65" r="5.21"/><circle class="cls-30" cx="147.59" cy="240.71" r="5.21"/><circle class="cls-30" cx="148.22" cy="225.34" r="5.21"/><circle class="cls-30" cx="163.58" cy="232.09" r="5.21"/><line class="cls-31" x1="145.41" y1="224.61" x2="147.51" y2="224.61"/><line class="cls-31" x1="148.93" y1="225.38" x2="151.02" y2="225.38"/><line class="cls-31" x1="145.41" y1="226.42" x2="147.51" y2="226.42"/><line class="cls-31" x1="148.52" y1="227.68" x2="150.61" y2="227.68"/><line class="cls-31" x1="147.47" y1="223" x2="149.56" y2="223"/><line class="cls-31" x1="135.6" y1="226.96" x2="137.69" y2="226.96"/><line class="cls-31" x1="133.36" y1="228.46" x2="135.46" y2="228.46"/><line class="cls-31" x1="137.62" y1="228.76" x2="139.71" y2="228.76"/><line class="cls-31" x1="133.71" y1="230.3" x2="135.8" y2="230.3"/><line class="cls-31" x1="137.41" y1="231.32" x2="139.5" y2="231.32"/><line class="cls-31" x1="134.55" y1="232.35" x2="136.65" y2="232.35"/><line class="cls-31" x1="148.24" y1="237.92" x2="146.14" y2="237.92"/><line class="cls-31" x1="149.46" y1="243.49" x2="147.36" y2="243.49"/><line class="cls-31" x1="150.33" y1="239.91" x2="148.24" y2="239.91"/><line class="cls-31" x1="146.62" y1="242.32" x2="144.52" y2="242.32"/><line class="cls-31" x1="150.66" y1="241.69" x2="148.57" y2="241.69"/><line class="cls-31" x1="146.62" y1="240.5" x2="144.52" y2="240.5"/><line class="cls-31" x1="164.23" y1="229.3" x2="162.13" y2="229.3"/><line class="cls-31" x1="165.44" y1="234.87" x2="163.35" y2="234.87"/><line class="cls-31" x1="166.32" y1="231.29" x2="164.23" y2="231.29"/><line class="cls-31" x1="162.6" y1="233.7" x2="160.51" y2="233.7"/><line class="cls-31" x1="166.65" y1="233.07" x2="164.56" y2="233.07"/><line class="cls-31" x1="162.6" y1="231.89" x2="160.51" y2="231.89"/><rect class="cls-18" x="111.18" y="155.39" width="10" height="4.28"/><polygon class="cls-19" points="111.18 156.83 116.73 156.83 116.12 155.39 121.18 157.53 116.12 159.66 116.73 158.22 111.18 158.22 111.18 156.83"/><rect class="cls-18" x="111.18" y="230.88" width="10" height="4.28"/><polygon class="cls-19" points="111.18 232.33 116.73 232.33 116.12 230.88 121.18 233.02 116.12 235.16 116.73 233.72 111.18 233.72 111.18 232.33"/><rect class="cls-18" x="177.2" y="161.5" width="4.28" height="10" transform="translate(-65.2 175.58) rotate(-45)"/><polygon class="cls-19" points="176.29 162.47 180.22 166.39 180.8 164.94 182.88 170.03 177.78 167.96 179.23 167.37 175.31 163.45 176.29 162.47"/><rect class="cls-18" x="174.34" y="221.46" width="10" height="4.28" transform="translate(-105.58 192.3) rotate(-45)"/><polygon class="cls-19" points="175.31 226.65 179.23 222.72 177.78 222.14 182.87 220.06 180.8 225.16 180.22 223.71 176.29 227.63 175.31 226.65"/><text class="cls-2" transform="translate(279.69 260.73)">k-mers <tspan x="0" y="12">enriched </tspan><tspan x="0" y="24">in clusters</tspan></text><line class="cls-32" x1="330.77" y1="178.37" x2="350.1" y2="178.37"/><line class="cls-32" x1="330.77" y1="169.59" x2="350.1" y2="169.59"/><line class="cls-32" x1="330.77" y1="163.74" x2="350.1" y2="163.74"/><line class="cls-32" x1="330.77" y1="160.82" x2="350.1" y2="160.82"/><line class="cls-32" x1="330.77" y1="157.89" x2="350.1" y2="157.89"/><line class="cls-32" x1="330.77" y1="154.96" x2="350.1" y2="154.96"/><line class="cls-32" x1="330.77" y1="152.04" x2="350.1" y2="152.04"/><line class="cls-32" x1="330.77" y1="172.52" x2="350.1" y2="172.52"/><line class="cls-32" x1="330.77" y1="175.45" x2="350.1" y2="175.45"/><line class="cls-32" x1="330.77" y1="166.67" x2="350.1" y2="166.67"/><line class="cls-14" x1="333.77" y1="178.37" x2="339.77" y2="178.37"/><line class="cls-14" x1="330.77" y1="169.59" x2="336.77" y2="169.59"/><line class="cls-14" x1="342.77" y1="152.04" x2="348.77" y2="152.04"/><line class="cls-14" x1="343.77" y1="166.67" x2="349.77" y2="166.67"/><text class="cls-2" transform="translate(330.77 260.73)">Get amino <tspan x="0" y="12">acid</tspan><tspan class="cls-15" x="18.34" y="12"> </tspan><tspan x="21.32" y="12">sequence </tspan><tspan x="0" y="24">from reads </tspan><tspan x="0" y="36">with enriched </tspan><tspan x="0" y="48">k-mers</tspan></text><rect class="cls-18" x="362.33" y="161.44" width="10" height="4.28"/><polygon class="cls-19" points="362.33 162.89 367.88 162.89 367.26 161.44 372.33 163.58 367.26 165.72 367.88 164.28 362.33 164.28 362.33 162.89"/><rect class="cls-18" x="307.58" y="222.14" width="4.28" height="10" transform="translate(-69.89 285.53) rotate(-45)"/><polygon class="cls-19" points="306.68 223.11 310.6 227.03 311.19 225.58 313.26 230.67 308.16 228.6 309.62 228.01 305.69 224.09 306.68 223.11"/><rect class="cls-18" x="309.07" y="172.01" width="10" height="4.28" transform="translate(-31.15 273.09) rotate(-45)"/><polygon class="cls-19" points="310.05 177.19 313.97 173.27 312.51 172.68 317.61 170.61 315.54 175.7 314.95 174.25 311.03 178.17 310.05 177.19"/><line class="cls-12" x1="279.99" y1="207.8" x2="285.99" y2="207.8"/><line class="cls-12" x1="276.99" y1="199.02" x2="282.99" y2="199.02"/><line class="cls-12" x1="288.99" y1="181.47" x2="294.99" y2="181.47"/><line class="cls-12" x1="289.99" y1="196.1" x2="295.99" y2="196.1"/><line class="cls-33" x1="331.99" y1="244.48" x2="351.32" y2="244.48"/><line class="cls-33" x1="331.99" y1="235.71" x2="351.32" y2="235.71"/><line class="cls-33" x1="331.99" y1="229.85" x2="351.32" y2="229.85"/><line class="cls-33" x1="331.99" y1="226.93" x2="351.32" y2="226.93"/><line class="cls-33" x1="331.99" y1="224" x2="351.32" y2="224"/><line class="cls-33" x1="331.99" y1="221.08" x2="351.32" y2="221.08"/><line class="cls-33" x1="331.99" y1="218.15" x2="351.32" y2="218.15"/><line class="cls-33" x1="331.99" y1="238.63" x2="351.32" y2="238.63"/><line class="cls-33" x1="331.99" y1="241.56" x2="351.32" y2="241.56"/><line class="cls-33" x1="331.99" y1="232.78" x2="351.32" y2="232.78"/><line class="cls-14" x1="347.99" y1="218.15" x2="341.99" y2="218.15"/><line class="cls-14" x1="350.99" y1="226.93" x2="344.99" y2="226.93"/><line class="cls-14" x1="338.99" y1="244.48" x2="332.99" y2="244.48"/><line class="cls-14" x1="337.99" y1="229.85" x2="331.99" y2="229.85"/><rect class="cls-18" x="257.46" y="196.86" width="10" height="4.28"/><polygon class="cls-19" points="257.46 198.3 263 198.3 262.39 196.85 267.46 198.99 262.39 201.13 263 199.69 257.46 199.69 257.46 198.3"/><rect class="cls-18" x="362.33" y="228.17" width="10" height="4.28"/><polygon class="cls-19" points="362.33 229.61 367.88 229.61 367.26 228.17 372.33 230.3 367.26 232.44 367.88 231 362.33 231 362.33 229.61"/><text class="cls-2" transform="translate(411.57 260.73)">Putative orthologous <tspan x="0" y="12">protein-coding genes</tspan></text><line class="cls-32" x1="426.11" y1="190.22" x2="445.44" y2="190.22"/><line class="cls-33" x1="426.11" y1="191.89" x2="445.44" y2="191.89"/><line class="cls-32" x1="426.11" y1="210.87" x2="445.44" y2="210.87"/><line class="cls-33" x1="426.11" y1="212.54" x2="445.44" y2="212.54"/></svg>