<svg id="Layer_1" data-name="Layer 1" xmlns="http://www.w3.org/2000/svg" xmlns:xlink="http://www.w3.org/1999/xlink" viewBox="0 0 850.19 388.15"><defs><style>.cls-1,.cls-15,.cls-16,.cls-19,.cls-26,.cls-27,.cls-28,.cls-4,.cls-5,.cls-6,.cls-90{fill:none;}.cls-2{fill:#e0e0df;}.cls-3{font-size:4px;}.cls-10,.cls-11,.cls-12,.cls-13,.cls-14,.cls-3,.cls-7,.cls-9{fill:#1a1818;}.cls-11,.cls-3{font-family:FantasqueSansMonoNerdFontComplete-Regular, FantasqueSansMono Nerd Font;}.cls-4,.cls-5,.cls-6{stroke:#1a1818;}.cls-15,.cls-16,.cls-19,.cls-23,.cls-28,.cls-4,.cls-5,.cls-6,.cls-90{stroke-miterlimit:10;}.cls-15,.cls-16,.cls-4,.cls-5,.cls-6{stroke-width:0.25px;}.cls-5{stroke-dasharray:2 2;}.cls-6{stroke-dasharray:1.99 1.99;}.cls-7{font-size:10px;}.cls-12,.cls-13,.cls-14,.cls-17,.cls-20,.cls-22,.cls-7,.cls-91{font-family:ArialMT, Arial;}.cls-22,.cls-8{fill:#010101;}.cls-10,.cls-13{font-size:12px;}.cls-10{font-family:Arial-BoldMT, Arial;font-weight:700;}.cls-11,.cls-12,.cls-20,.cls-22{font-size:8px;}.cls-14,.cls-17{font-size:6px;}.cls-15{stroke:#141414;}.cls-16{stroke:#6d6d6d;}.cls-17{fill:#6d6d6d;}.cls-18{font-family:Arial-ItalicMT, Arial;font-style:italic;}.cls-19{stroke:#009dd4;}.cls-20{fill:#535454;}.cls-21{letter-spacing:-0.06em;}.cls-23{fill:#f4eb13;stroke:#010101;}.cls-24{fill:#fff;}.cls-25{clip-path:url(#clip-path);}.cls-26{stroke:#e6001c;stroke-width:1px;}.cls-26,.cls-27,.cls-28{stroke-linecap:square;}.cls-26,.cls-27{stroke-linejoin:round;}.cls-27{stroke:gray;stroke-width:0.5px;}.cls-28{stroke:#000;stroke-width:0.27px;}.cls-29{clip-path:url(#clip-path-5);}.cls-30{clip-path:url(#clip-path-6);}.cls-31{clip-path:url(#clip-path-7);}.cls-32{clip-path:url(#clip-path-8);}.cls-33{clip-path:url(#clip-path-9);}.cls-34{clip-path:url(#clip-path-10);}.cls-35{clip-path:url(#clip-path-11);}.cls-36{clip-path:url(#clip-path-13);}.cls-37{clip-path:url(#clip-path-14);}.cls-38{clip-path:url(#clip-path-15);}.cls-39{clip-path:url(#clip-path-16);}.cls-40{clip-path:url(#clip-path-17);}.cls-41{clip-path:url(#clip-path-18);}.cls-42{clip-path:url(#clip-path-19);}.cls-43{clip-path:url(#clip-path-20);}.cls-44{clip-path:url(#clip-path-21);}.cls-45{clip-path:url(#clip-path-23);}.cls-46{clip-path:url(#clip-path-26);}.cls-47{clip-path:url(#clip-path-27);}.cls-48{clip-path:url(#clip-path-29);}.cls-49{clip-path:url(#clip-path-31);}.cls-50{clip-path:url(#clip-path-32);}.cls-51{clip-path:url(#clip-path-33);}.cls-52{clip-path:url(#clip-path-34);}.cls-53{clip-path:url(#clip-path-35);}.cls-54{clip-path:url(#clip-path-36);}.cls-55{clip-path:url(#clip-path-40);}.cls-56{clip-path:url(#clip-path-41);}.cls-57{clip-path:url(#clip-path-42);}.cls-58{clip-path:url(#clip-path-48);}.cls-59{clip-path:url(#clip-path-49);}.cls-60{clip-path:url(#clip-path-52);}.cls-61{clip-path:url(#clip-path-56);}.cls-62{clip-path:url(#clip-path-60);}.cls-63{clip-path:url(#clip-path-61);}.cls-64{clip-path:url(#clip-path-62);}.cls-65{clip-path:url(#clip-path-66);}.cls-66{clip-path:url(#clip-path-69);}.cls-67{clip-path:url(#clip-path-72);}.cls-68{clip-path:url(#clip-path-74);}.cls-69{clip-path:url(#clip-path-75);}.cls-70{clip-path:url(#clip-path-76);}.cls-71{clip-path:url(#clip-path-77);}.cls-72{clip-path:url(#clip-path-79);}.cls-73{clip-path:url(#clip-path-84);}.cls-74{clip-path:url(#clip-path-86);}.cls-75{clip-path:url(#clip-path-87);}.cls-76{clip-path:url(#clip-path-89);}.cls-77{clip-path:url(#clip-path-90);}.cls-78{clip-path:url(#clip-path-91);}.cls-79{clip-path:url(#clip-path-94);}.cls-80{clip-path:url(#clip-path-96);}.cls-81{clip-path:url(#clip-path-97);}.cls-82{clip-path:url(#clip-path-98);}.cls-83{clip-path:url(#clip-path-99);}.cls-84{clip-path:url(#clip-path-100);}.cls-85{clip-path:url(#clip-path-101);}.cls-86{clip-path:url(#clip-path-102);}.cls-87{clip-path:url(#clip-path-103);}.cls-88{clip-path:url(#clip-path-104);}.cls-89{fill:#521b7d;}.cls-90{stroke:#fff;stroke-width:0.5px;}.cls-91{font-style:normal;}.cls-92{letter-spacing:-0.02em;}</style><clipPath id="clip-path"><rect class="cls-1" x="191.07" y="242.68" width="39.45" height="27.51"/></clipPath><clipPath id="clip-path-5"><rect class="cls-1" x="221.71" y="242.93" width="1.99" height="1.99"/></clipPath><clipPath id="clip-path-6"><rect class="cls-1" x="200.58" y="242.93" width="1.99" height="1.99"/></clipPath><clipPath id="clip-path-7"><rect class="cls-1" x="208.27" y="242.93" width="1.99" height="1.99"/></clipPath><clipPath id="clip-path-8"><rect class="cls-1" x="227.07" y="242.93" width="1.99" height="1.99"/></clipPath><clipPath id="clip-path-9"><rect class="cls-1" x="220.05" y="242.93" width="1.99" height="1.99"/></clipPath><clipPath id="clip-path-10"><rect class="cls-1" x="196.65" y="267.94" width="1.99" height="1.99"/></clipPath><clipPath id="clip-path-11"><rect class="cls-1" x="208.74" y="242.93" width="1.99" height="1.99"/></clipPath><clipPath id="clip-path-13"><rect class="cls-1" x="198.21" y="267.94" width="1.99" height="1.99"/></clipPath><clipPath id="clip-path-14"><rect class="cls-1" x="203.51" y="242.93" width="1.99" height="1.99"/></clipPath><clipPath id="clip-path-15"><rect class="cls-1" x="200.39" y="242.93" width="1.99" height="1.99"/></clipPath><clipPath id="clip-path-16"><rect class="cls-1" x="216.67" y="242.93" width="1.99" height="1.99"/></clipPath><clipPath id="clip-path-17"><rect class="cls-1" x="205.81" y="242.93" width="1.99" height="1.99"/></clipPath><clipPath id="clip-path-18"><rect class="cls-1" x="200.13" y="242.93" width="1.99" height="1.99"/></clipPath><clipPath id="clip-path-19"><rect class="cls-1" x="202.22" y="242.93" width="1.99" height="1.99"/></clipPath><clipPath id="clip-path-20"><rect class="cls-1" x="201.83" y="242.93" width="1.99" height="1.99"/></clipPath><clipPath id="clip-path-21"><rect class="cls-1" x="217.23" y="242.93" width="1.99" height="1.99"/></clipPath><clipPath id="clip-path-23"><rect class="cls-1" x="201.37" y="242.93" width="1.99" height="1.99"/></clipPath><clipPath id="clip-path-26"><rect class="cls-1" x="204.16" y="242.93" width="1.99" height="1.99"/></clipPath><clipPath id="clip-path-27"><rect class="cls-1" x="208.31" y="242.93" width="1.99" height="1.99"/></clipPath><clipPath id="clip-path-29"><rect class="cls-1" x="225.81" y="242.93" width="1.99" height="1.99"/></clipPath><clipPath id="clip-path-31"><rect class="cls-1" x="196.82" y="242.93" width="1.99" height="1.99"/></clipPath><clipPath id="clip-path-32"><rect class="cls-1" x="197.86" y="267.94" width="1.99" height="1.99"/></clipPath><clipPath id="clip-path-33"><rect class="cls-1" x="217.47" y="242.93" width="1.99" height="1.99"/></clipPath><clipPath id="clip-path-34"><rect class="cls-1" x="216.37" y="242.93" width="1.99" height="1.99"/></clipPath><clipPath id="clip-path-35"><rect class="cls-1" x="197.93" y="242.93" width="1.99" height="1.99"/></clipPath><clipPath id="clip-path-36"><rect class="cls-1" x="202.15" y="242.93" width="1.99" height="1.99"/></clipPath><clipPath id="clip-path-40"><rect class="cls-1" x="199.37" y="242.93" width="1.99" height="1.99"/></clipPath><clipPath id="clip-path-41"><rect class="cls-1" x="213.4" y="242.93" width="1.99" height="1.99"/></clipPath><clipPath id="clip-path-42"><rect class="cls-1" x="212.26" y="242.93" width="1.99" height="1.99"/></clipPath><clipPath id="clip-path-48"><rect class="cls-1" x="222.93" y="242.93" width="1.99" height="1.99"/></clipPath><clipPath id="clip-path-49"><rect class="cls-1" x="197.32" y="267.94" width="1.99" height="1.99"/></clipPath><clipPath id="clip-path-52"><rect class="cls-1" x="207.98" y="242.93" width="1.99" height="1.99"/></clipPath><clipPath id="clip-path-56"><rect class="cls-1" x="203.43" y="242.93" width="1.99" height="1.99"/></clipPath><clipPath id="clip-path-60"><rect class="cls-1" x="201.63" y="242.93" width="1.99" height="1.99"/></clipPath><clipPath id="clip-path-61"><rect class="cls-1" x="198.64" y="242.93" width="1.99" height="1.99"/></clipPath><clipPath id="clip-path-62"><rect class="cls-1" x="199.56" y="242.93" width="1.99" height="1.99"/></clipPath><clipPath id="clip-path-66"><rect class="cls-1" x="197.37" y="267.94" width="1.99" height="1.99"/></clipPath><clipPath id="clip-path-69"><rect class="cls-1" x="197.77" y="242.93" width="1.99" height="1.99"/></clipPath><clipPath id="clip-path-72"><rect class="cls-1" x="201.21" y="242.93" width="1.99" height="1.99"/></clipPath><clipPath id="clip-path-74"><rect class="cls-1" x="197.65" y="242.93" width="1.99" height="1.99"/></clipPath><clipPath id="clip-path-75"><rect class="cls-1" x="207.15" y="242.93" width="1.99" height="1.99"/></clipPath><clipPath id="clip-path-76"><rect class="cls-1" x="198.66" y="242.93" width="1.99" height="1.99"/></clipPath><clipPath id="clip-path-77"><rect class="cls-1" x="212.48" y="242.93" width="1.99" height="1.99"/></clipPath><clipPath id="clip-path-79"><rect class="cls-1" x="200.92" y="242.93" width="1.99" height="1.99"/></clipPath><clipPath id="clip-path-84"><rect class="cls-1" x="197.41" y="242.93" width="1.99" height="1.99"/></clipPath><clipPath id="clip-path-86"><rect class="cls-1" x="207.14" y="242.93" width="1.99" height="1.99"/></clipPath><clipPath id="clip-path-87"><rect class="cls-1" x="202.14" y="242.93" width="1.99" height="1.99"/></clipPath><clipPath id="clip-path-89"><rect class="cls-1" x="216.84" y="242.93" width="1.99" height="1.99"/></clipPath><clipPath id="clip-path-90"><rect class="cls-1" x="220" y="242.93" width="1.99" height="1.99"/></clipPath><clipPath id="clip-path-91"><rect class="cls-1" x="211.06" y="242.93" width="1.99" height="1.99"/></clipPath><clipPath id="clip-path-94"><rect class="cls-1" x="212.04" y="242.93" width="1.99" height="1.99"/></clipPath><clipPath id="clip-path-96"><rect class="cls-1" x="212.99" y="242.93" width="1.99" height="1.99"/></clipPath><clipPath id="clip-path-97"><rect class="cls-1" x="199.35" y="242.93" width="1.99" height="1.99"/></clipPath><clipPath id="clip-path-98"><rect class="cls-1" x="208.34" y="242.93" width="1.99" height="1.99"/></clipPath><clipPath id="clip-path-99"><rect class="cls-1" x="201.85" y="242.93" width="1.99" height="1.99"/></clipPath><clipPath id="clip-path-100"><rect class="cls-1" x="205.77" y="242.93" width="1.99" height="1.99"/></clipPath><clipPath id="clip-path-101"><rect class="cls-1" x="197.55" y="242.93" width="1.99" height="1.99"/></clipPath><clipPath id="clip-path-102"><rect class="cls-1" x="220.95" y="242.93" width="1.99" height="1.99"/></clipPath><clipPath id="clip-path-103"><rect class="cls-1" x="200.45" y="242.93" width="1.99" height="1.99"/></clipPath><clipPath id="clip-path-104"><rect class="cls-1" x="203.25" y="242.93" width="1.99" height="1.99"/></clipPath></defs><title>figure1 copy</title><rect class="cls-2" x="176.81" y="233.42" width="66.95" height="90"/><rect class="cls-2" x="247.34" y="47.24" width="151.82" height="111.11"/><text class="cls-3" transform="translate(261.31 90.64)">bfbedbddccbbcbbbebbbbbe<tspan x="1.04" y="4.8">ccebbbdaddbbedcfdcbded</tspan><tspan x="20.7" y="9.6">...</tspan></text><text class="cls-3" transform="translate(263.75 105.28)">ebdecbddedbdbedebebd<tspan x="-2.07" y="4.8">cbcbebbfefdbbdbbeddece</tspan><tspan x="17.6" y="9.6">...</tspan></text><rect class="cls-2" x="434.28" y="47.45" width="60" height="110.9"/><rect class="cls-2" x="522.09" y="47.45" width="60" height="110.9"/><rect class="cls-2" x="609.9" y="47.45" width="60" height="110.9"/><polyline class="cls-4" points="673.88 177.7 673.88 178.7 672.88 178.7"/><line class="cls-5" x1="670.88" y1="178.7" x2="408.37" y2="178.7"/><polyline class="cls-4" points="407.37 178.7 406.37 178.7 406.37 177.7"/><line class="cls-6" x1="406.37" y1="175.71" x2="406.37" y2="45.45"/><polyline class="cls-4" points="406.37 44.46 406.37 43.46 407.37 43.46"/><line class="cls-5" x1="409.37" y1="43.46" x2="671.88" y2="43.46"/><polyline class="cls-4" points="672.88 43.46 673.88 43.46 673.88 44.46"/><line class="cls-6" x1="673.88" y1="46.45" x2="673.88" y2="176.7"/><text class="cls-7" transform="translate(26.03 47.67)">Input reads</text><text class="cls-7" transform="translate(619.89 106.3)">Visualize <tspan x="11.12" y="12">with </tspan><tspan x="5.56" y="24">UMAP</tspan></text><path class="cls-8" d="M632.52,63.29a.88.88,0,1,1-1.76,0,.88.88,0,1,1,1.76,0"/><path class="cls-8" d="M636.33,64.17a.88.88,0,0,1-1.76,0,.88.88,0,0,1,1.76,0"/><path class="cls-8" d="M636.33,61.53a.88.88,0,1,1-.88-.88.88.88,0,0,1,.88.88"/><path class="cls-8" d="M634.42,65.93a.88.88,0,1,1-.88-.88.87.87,0,0,1,.88.88"/><path class="cls-8" d="M631.79,65.05a.88.88,0,1,1-.88-.88.88.88,0,0,1,.88.88"/><path class="cls-8" d="M634.42,63.29a.88.88,0,1,1-.88-.88.88.88,0,0,1,.88.88"/><path class="cls-8" d="M633.39,60.65a.88.88,0,1,1-.87-.88.87.87,0,0,1,.87.88"/><path class="cls-8" d="M630.91,62.41a.88.88,0,1,1-.88-.88.88.88,0,0,1,.88.88"/><path class="cls-8" d="M647.13,63.81a.88.88,0,0,1,1.24-1.25.89.89,0,0,1,0,1.25.88.88,0,0,1-1.24,0"/><path class="cls-8" d="M643.81,65.88a.88.88,0,1,1,1.24-1.24.86.86,0,0,1,0,1.24.88.88,0,0,1-1.24,0"/><path class="cls-8" d="M645.67,67.75a.88.88,0,1,1,1.25,0,.89.89,0,0,1-1.25,0"/><path class="cls-8" d="M643.91,63.29a.88.88,0,0,1,0-1.24.89.89,0,0,1,1.25,0,.88.88,0,0,1,0,1.24.89.89,0,0,1-1.25,0"/><path class="cls-8" d="M646.4,62a.86.86,0,0,1,0-1.24A.88.88,0,0,1,647.64,62a.86.86,0,0,1-1.24,0"/><path class="cls-8" d="M645.78,65.16a.89.89,0,0,1,0-1.25.88.88,0,1,1,0,1.25"/><path class="cls-8" d="M647.37,66.29a.88.88,0,0,1,1.24-1.24.88.88,0,0,1-1.24,1.24"/><path class="cls-8" d="M648.89,63.29a.86.86,0,0,1,0-1.24.88.88,0,1,1,0,1.24"/><path class="cls-8" d="M638.59,71.17a.88.88,0,1,1,.88.88.88.88,0,0,1-.88-.88"/><path class="cls-8" d="M634.78,70.29a.88.88,0,1,1,.88.88.88.88,0,0,1-.88-.88"/><path class="cls-8" d="M634.78,72.93a.88.88,0,1,1,1.76,0,.88.88,0,1,1-1.76,0"/><path class="cls-8" d="M636.69,68.53a.88.88,0,1,1,.87.88.87.87,0,0,1-.87-.88"/><path class="cls-8" d="M639.32,69.41a.88.88,0,1,1,.88.87.88.88,0,0,1-.88-.87"/><path class="cls-8" d="M636.69,71.17a.88.88,0,1,1,.87.88.87.87,0,0,1-.87-.88"/><path class="cls-8" d="M637.71,73.81a.88.88,0,1,1,.88.87.88.88,0,0,1-.88-.87"/><path class="cls-8" d="M640.2,72.05a.88.88,0,1,1,1.76,0,.88.88,0,1,1-1.76,0"/><path class="cls-8" d="M641.33,70.29a.88.88,0,0,1,1.76,0,.88.88,0,0,1-1.76,0"/><path class="cls-8" d="M631.07,78a.86.86,0,0,1,0-1.24A.88.88,0,1,1,632.31,78a.86.86,0,0,1-1.24,0"/><path class="cls-8" d="M627.75,80.08a.88.88,0,0,1,0-1.24.86.86,0,0,1,1.24,0,.88.88,0,1,1-1.24,1.24"/><path class="cls-8" d="M629.61,81.94a.88.88,0,1,1,1.24-1.24.88.88,0,0,1-1.24,1.24"/><path class="cls-8" d="M627.85,77.49a.88.88,0,1,1,1.25,0,.89.89,0,0,1-1.25,0"/><path class="cls-8" d="M629.72,79.35a.86.86,0,0,1,0-1.24A.88.88,0,1,1,631,79.35a.86.86,0,0,1-1.24,0"/><path class="cls-8" d="M632.31,80.49a.88.88,0,0,1,0-1.24.86.86,0,0,1,1.24,0,.88.88,0,1,1-1.24,1.24"/><path class="cls-8" d="M632.82,77.49a.88.88,0,1,1,1.25,0,.89.89,0,0,1-1.25,0"/><path class="cls-8" d="M639.73,82.36A.88.88,0,0,1,641,81.11a.89.89,0,0,1,0,1.25.88.88,0,0,1-1.24,0"/><path class="cls-8" d="M641.59,84.22a.88.88,0,0,1,0-1.24.88.88,0,1,1,1.24,1.24.88.88,0,0,1-1.24,0"/><path class="cls-8" d="M639.83,79.76a.88.88,0,0,1,0-1.24.89.89,0,0,1,1.25,0,.88.88,0,0,1-1.25,1.24"/><path class="cls-8" d="M642.31,78.52a.88.88,0,1,1,1.25,0,.89.89,0,0,1-1.25,0"/><path class="cls-8" d="M641.7,81.63a.88.88,0,1,1,1.24-1.24.88.88,0,0,1-1.24,1.24"/><path class="cls-8" d="M644.29,82.77a.88.88,0,0,1,1.24-1.25.89.89,0,0,1,0,1.25.88.88,0,0,1-1.24,0"/><path class="cls-8" d="M644.8,79.76a.88.88,0,0,1,0-1.24.89.89,0,0,1,1.25,0,.88.88,0,0,1-1.25,1.24"/><polygon class="cls-9" points="503.23 69.63 508.78 69.63 508.17 68.18 513.23 70.32 508.17 72.46 508.78 71.02 503.23 71.02 503.23 69.63"/><polygon class="cls-9" points="162.68 277.72 168.23 277.72 167.61 276.28 172.68 278.42 167.61 280.56 168.23 279.11 162.68 279.11 162.68 277.72"/><text class="cls-10" transform="translate(1.25 52.18)">A</text><text class="cls-11" transform="translate(607.31 39.35)">nf-core/kmermaid</text><text class="cls-11" transform="translate(331.94 219.15)">czbiohub/nf-predictorthologs</text><text class="cls-12" transform="translate(8.63 351.41)">Manual</text><polygon class="cls-9" points="415.07 69.63 420.62 69.63 420.01 68.18 425.07 70.32 420.01 72.46 420.62 71.02 415.07 71.02 415.07 69.63"/><text class="cls-7" transform="translate(453.16 108.18)">Build <tspan x="-8.34" y="12">localized </tspan><tspan x="-10.57" y="24">sequence </tspan><tspan x="-12.5" y="36">bloom tree</tspan></text><text class="cls-13" transform="translate(4.43 15.17)">Figure 1</text><text class="cls-14" transform="translate(438.17 88.3)">Cell1</text><text class="cls-14" transform="translate(453.24 88.3)">Cell2</text><text class="cls-14" transform="translate(468.32 88.3)">Cell3</text><text class="cls-14" transform="translate(484.39 85.3)">...</text><polyline class="cls-15" points="477.62 68.17 466.27 56.82 454.92 68.17"/><polyline class="cls-15" points="470.21 83 478.24 69.1 486.27 83"/><polyline class="cls-15" points="446.27 83 454.3 69.1 462.32 83"/><polyline class="cls-16" points="480.91 56.21 473.78 52.09 466.65 56.21"/><text class="cls-17" transform="translate(479.43 58.64)">...</text><text class="cls-14" transform="translate(530.42 79.65)">Cell1</text><text class="cls-14" transform="translate(528.1 65.51)">Cell2</text><text class="cls-14" transform="translate(549.64 68.62)">Cell3</text><text class="cls-14" transform="translate(571.13 75.08)">...</text><text class="cls-14" transform="translate(554.41 80.34)">...</text><line class="cls-15" x1="534.37" y1="66.38" x2="537.16" y2="74.37"/><line class="cls-15" x1="542.74" y1="63.35" x2="549.64" y2="65.62"/><line class="cls-15" x1="544.69" y1="76.81" x2="552.78" y2="79.65"/><line class="cls-15" x1="562.27" y1="70.02" x2="570.23" y2="74.37"/><line class="cls-15" x1="541.48" y1="73.27" x2="548.74" y2="69.22"/><text class="cls-7" transform="translate(539.58 106.3)">Build <tspan x="-8.34" y="12">neighbor </tspan><tspan x="-0.28" y="24">graph</tspan></text><polygon class="cls-9" points="591.88 69.63 597.42 69.63 596.81 68.18 601.88 70.32 596.81 72.46 597.42 71.02 591.88 71.02 591.88 69.63"/><text class="cls-14" transform="translate(165.06 93.38)">B1</text><text class="cls-14" transform="translate(165.06 108.39)">B2</text><text class="cls-14" transform="translate(166.23 116.39)">...</text><text class="cls-14" transform="translate(165.07 57.79)">A1</text><text class="cls-14" transform="translate(165.07 72.79)">A2</text><text class="cls-14" transform="translate(166.23 80.79)">...</text><text class="cls-7" transform="translate(167.41 130.33)">Translated <tspan x="8.33" y="12">protein </tspan><tspan x="0.83" y="24">sequences</tspan></text><text class="cls-7" transform="translate(339.7 131.92)">Randomly <tspan x="-1.67" y="12">subsample </tspan><tspan x="-10.56" y="24">hashed </tspan><tspan class="cls-18" x="25.03" y="24">k</tspan><tspan x="30.03" y="24">-mers</tspan></text><text class="cls-7" transform="translate(254.72 131.15)">Reduced <tspan x="4.73" y="12">protein </tspan><tspan x="2.22" y="24">alphabet</tspan></text><text class="cls-11" transform="translate(292.67 169.37)">sourmash sketch</text><text class="cls-11" transform="translate(428.74 168.29)">(sourmash index)</text><text class="cls-11" transform="translate(527.26 168.29)">(sourmash knn)</text><text class="cls-11" transform="translate(611.81 168.29)">(sourmash umap)</text><text class="cls-11" transform="translate(161.14 170.53)">sencha translate</text><polygon class="cls-9" points="73.77 90.55 79.32 90.55 78.7 89.11 83.77 91.25 78.7 93.38 79.32 91.94 73.77 91.94 73.77 90.55"/><polygon class="cls-9" points="230.71 90.75 236.26 90.75 235.65 89.31 240.71 91.44 235.65 93.58 236.26 92.14 230.71 92.14 230.71 90.75"/><polygon class="cls-9" points="313.45 89.94 319 89.94 318.39 88.5 323.45 90.64 318.39 92.78 319 91.33 313.45 91.33 313.45 89.94"/><path class="cls-8" d="M19.85,256.19a.88.88,0,1,1-.88-.88.88.88,0,0,1,.88.88"/><path class="cls-8" d="M23.66,257.06a.88.88,0,1,1-.88-.87.87.87,0,0,1,.88.87"/><path class="cls-8" d="M23.66,254.43a.88.88,0,1,1-.88-.88.88.88,0,0,1,.88.88"/><path class="cls-8" d="M21.75,258.82a.88.88,0,1,1-.88-.88.87.87,0,0,1,.88.88"/><path class="cls-8" d="M19.12,258a.88.88,0,0,1-1.76,0,.88.88,0,0,1,1.76,0"/><path class="cls-8" d="M21.75,256.19a.88.88,0,1,1-.88-.88.87.87,0,0,1,.88.88"/><path class="cls-8" d="M20.73,253.55a.88.88,0,1,1-1.76,0,.88.88,0,1,1,1.76,0"/><path class="cls-8" d="M18.24,255.31a.88.88,0,0,1-1.76,0,.88.88,0,0,1,1.76,0"/><path class="cls-8" d="M34.46,256.7a.88.88,0,1,1,1.24,0,.86.86,0,0,1-1.24,0"/><path class="cls-8" d="M31.14,258.78a.88.88,0,0,1,0-1.24.88.88,0,1,1,1.24,1.24.88.88,0,0,1-1.24,0"/><path class="cls-8" d="M33,260.64a.88.88,0,0,1,0-1.24.89.89,0,0,1,1.25,0A.88.88,0,0,1,33,260.64"/><path class="cls-8" d="M31.25,256.19A.88.88,0,0,1,32.49,255a.88.88,0,1,1-1.24,1.24"/><path class="cls-8" d="M33.73,254.94A.88.88,0,1,1,35,253.7a.88.88,0,0,1-1.24,1.24"/><path class="cls-8" d="M33.11,258.05a.88.88,0,0,1,1.24-1.24.88.88,0,1,1-1.24,1.24"/><path class="cls-8" d="M34.7,259.19a.88.88,0,0,1,0-1.24.88.88,0,0,1,1.24,1.24.88.88,0,0,1-1.24,0"/><path class="cls-8" d="M36.22,256.19A.88.88,0,0,1,37.46,255a.88.88,0,1,1-1.24,1.24"/><path class="cls-8" d="M25.92,264.07a.88.88,0,1,1,.88.88.88.88,0,0,1-.88-.88"/><path class="cls-8" d="M22.11,263.19a.88.88,0,0,1,1.76,0,.88.88,0,0,1-1.76,0"/><path class="cls-8" d="M22.11,265.82a.88.88,0,1,1,.88.88.87.87,0,0,1-.88-.88"/><path class="cls-8" d="M24,261.43a.88.88,0,1,1,.87.88.88.88,0,0,1-.87-.88"/><path class="cls-8" d="M26.65,262.3a.88.88,0,1,1,1.76,0,.88.88,0,1,1-1.76,0"/><path class="cls-8" d="M24,264.07a.88.88,0,1,1,.87.88.87.87,0,0,1-.87-.88"/><path class="cls-8" d="M25,266.7a.88.88,0,1,1,1.76,0,.88.88,0,1,1-1.76,0"/><path class="cls-8" d="M27.53,265a.88.88,0,1,1,.88.87.87.87,0,0,1-.88-.87"/><path class="cls-8" d="M28.66,263.19a.88.88,0,1,1,.88.88.88.88,0,0,1-.88-.88"/><path class="cls-8" d="M18.4,270.9a.86.86,0,0,1,0-1.24.88.88,0,1,1,0,1.24"/><path class="cls-8" d="M15.08,273a.89.89,0,0,1,0-1.25.88.88,0,0,1,1.24,0,.89.89,0,0,1,0,1.25.88.88,0,0,1-1.24,0"/><path class="cls-8" d="M16.94,274.84a.88.88,0,1,1,1.25,0,.89.89,0,0,1-1.25,0"/><path class="cls-8" d="M15.18,270.39a.88.88,0,1,1,1.25,0,.89.89,0,0,1-1.25,0"/><path class="cls-8" d="M17.05,272.25a.88.88,0,0,1,0-1.24.86.86,0,0,1,1.24,0,.88.88,0,1,1-1.24,1.24"/><path class="cls-8" d="M19.64,273.39a.89.89,0,0,1,0-1.25.88.88,0,0,1,1.24,0,.89.89,0,0,1,0,1.25.88.88,0,0,1-1.24,0"/><path class="cls-8" d="M20.15,270.39a.88.88,0,1,1,1.25,0,.89.89,0,0,1-1.25,0"/><path class="cls-8" d="M27.06,275.25a.88.88,0,1,1,1.24,0,.86.86,0,0,1-1.24,0"/><path class="cls-8" d="M28.92,277.12a.88.88,0,1,1,1.25,0,.89.89,0,0,1-1.25,0"/><path class="cls-8" d="M27.16,272.66a.88.88,0,0,1,0-1.24.89.89,0,0,1,1.25,0,.88.88,0,0,1,0,1.24.89.89,0,0,1-1.25,0"/><path class="cls-8" d="M29.64,271.41a.88.88,0,0,1,0-1.24.89.89,0,0,1,1.25,0,.88.88,0,0,1-1.25,1.24"/><path class="cls-8" d="M29,274.53a.88.88,0,1,1,1.24-1.25.89.89,0,0,1,0,1.25.88.88,0,0,1-1.24,0"/><path class="cls-8" d="M31.62,275.66a.88.88,0,1,1,1.24,0,.86.86,0,0,1-1.24,0"/><path class="cls-8" d="M32.13,272.66a.88.88,0,0,1,0-1.24.89.89,0,0,1,1.25,0,.88.88,0,0,1,0,1.24.89.89,0,0,1-1.25,0"/><circle class="cls-19" cx="33.77" cy="257.15" r="5.87" transform="translate(-224.26 230.94) rotate(-76.72)"/><text class="cls-7" transform="translate(10 291.92)">Choose <tspan x="-3.32" y="12">cluster(s) </tspan><tspan x="-4.72" y="24">of interest</tspan></text><text class="cls-10" transform="translate(4.43 224)">B</text><text class="cls-20" transform="translate(22.68 89.37) rotate(-90)">Species<tspan class="cls-21" x="28.46" y="0">A</tspan></text><text class="cls-20" transform="translate(22.68 136.73) rotate(-90)">SpeciesB</text><text class="cls-14" transform="translate(30.33 58.95)">A1</text><text class="cls-14" transform="translate(30.33 68.69)">A2</text><text class="cls-14" transform="translate(31.52 77.88)">...</text><text class="cls-14" transform="translate(29.74 108.17)">B1</text><text class="cls-14" transform="translate(29.74 117.92)">B2</text><text class="cls-14" transform="translate(30.93 127.1)">...</text><text class="cls-20" transform="translate(20.49 148.29) rotate(-90)">...</text><text class="cls-3" transform="translate(41.22 55.81)">GTAACA...AAGCTG<tspan x="0" y="4.8">ATTTGA...TCTTCC</tspan><tspan x="12.42" y="9.6">...</tspan></text><text class="cls-3" transform="translate(174.92 55.81)">SFAVHTHRENPAQPGAVTGSATV<tspan x="1.04" y="4.8">EEIAAGKCRRPAVKQFHDSKIK</tspan><tspan x="20.7" y="9.6">...</tspan></text><text class="cls-3" transform="translate(40.61 68.69)">CTTGGA...CTCATG<tspan x="0" y="4.8">AGGACG...GAGTTC</tspan><tspan x="12.42" y="9.6">...</tspan></text><text class="cls-3" transform="translate(177.36 70.44)">MSHLNGHKLHGKSVRITLSK<tspan x="-2.07" y="4.8">NSQSLSPYLFRATRSSLKRVNV</tspan><tspan x="17.6" y="9.6">...</tspan></text><text class="cls-3" transform="translate(41.52 104.64)">GTAACA...AAGCTG<tspan x="0" y="4.8">ATTTGA...TCTTCC</tspan><tspan x="12.42" y="9.6">...</tspan></text><text class="cls-3" transform="translate(40.91 117.52)">CTTGGA...CTCATG<tspan x="0" y="4.8">AGGACG...GAGTTC</tspan><tspan x="12.42" y="9.6">...</tspan></text><text class="cls-22" transform="translate(33.53 148.29) rotate(-90)">...</text><text class="cls-3" transform="translate(174.25 91.44)">SFAVHTHRENPAQPGAVTGSATV<tspan x="1.04" y="4.8">EEIAAGKCRRPAVKQFHDSKIK</tspan><tspan x="20.7" y="9.6">...</tspan></text><text class="cls-3" transform="translate(176.69 106.08)">MSHLNGHKLHGKSVRITLSK<tspan x="-2.07" y="4.8">NSQSLSPYLFRATRSSLKRVNV</tspan><tspan x="17.6" y="9.6">...</tspan></text><rect class="cls-23" x="125.77" y="5.39" width="66.06" height="26.39"/><text class="cls-3" transform="translate(138.1 14.57)">Update to not be the <tspan x="-1.04" y="4.8">same seqs for species </tspan><tspan x="5.18" y="9.6">A and species B</tspan></text><text class="cls-14" transform="translate(249.45 92.58)">B1</text><text class="cls-14" transform="translate(249.45 107.58)">B2</text><text class="cls-14" transform="translate(250.62 115.59)">...</text><text class="cls-14" transform="translate(249.46 56.98)">A1</text><text class="cls-14" transform="translate(249.46 71.99)">A2</text><text class="cls-14" transform="translate(250.62 79.99)">...</text><text class="cls-3" transform="translate(262.31 55)">bfbedbddccbbcbbbebbbbbe<tspan x="1.04" y="4.8">ccebbbdaddbbedcfdcbded</tspan><tspan x="20.7" y="9.6">...</tspan></text><text class="cls-3" transform="translate(264.75 69.64)">ebdecbddedbdbedebebd<tspan x="-2.07" y="4.8">cbcbebbfefdbbdbbeddece</tspan><tspan x="17.6" y="9.6">...</tspan></text><text class="cls-14" transform="translate(332.54 92.58)">B1</text><text class="cls-14" transform="translate(332.54 107.58)">B2</text><text class="cls-14" transform="translate(333.71 115.59)">...</text><text class="cls-14" transform="translate(332.55 56.98)">A1</text><text class="cls-14" transform="translate(332.55 71.99)">A2</text><text class="cls-14" transform="translate(333.71 79.99)">...</text><text class="cls-3" transform="translate(353.16 54.67)">5860542304158768040<tspan x="-1.04" y="4.8">11732891349861727620</tspan><tspan x="16.56" y="9.6">...</tspan></text><text class="cls-3" transform="translate(353.53 69.31)">348478117756598257<tspan x="-2.07" y="4.8">14340633071240360219</tspan><tspan x="15.53" y="9.6">...</tspan></text><text class="cls-3" transform="translate(352.5 90.64)">5860542304158768040<tspan x="-1.04" y="4.8">11732891349861727620</tspan><tspan x="16.56" y="9.6">...</tspan></text><text class="cls-3" transform="translate(352.86 105.28)">348478117756598257<tspan x="-2.07" y="4.8">14340633071240360219</tspan><tspan x="15.53" y="9.6">...</tspan></text><rect class="cls-24" x="188.59" y="240.38" width="44.01" height="31.84"/><rect class="cls-24" x="191.07" y="242.68" width="39.45" height="27.51"/><g class="cls-25"><polyline class="cls-26" points="185.99 268.93 196.71 268.9 197.04 268.83 197.21 268.76 197.37 268.62 197.53 268.39 197.7 267.98 197.87 267.3 198.03 266.17 198.19 264.41 198.36 261.89 199.02 249.02 199.18 247.08 199.35 245.8 199.51 245.02 199.68 244.55 199.84 244.28 200.01 244.13 200.34 243.99 200.83 243.94 202.32 243.93 230.52 243.93"/></g><g class="cls-25"><line class="cls-27" x1="191.07" y1="268.93" x2="230.52" y2="268.93"/></g><g class="cls-25"><line class="cls-27" x1="191.07" y1="243.93" x2="230.52" y2="243.93"/></g><line class="cls-28" x1="191.07" y1="270.18" x2="191.07" y2="242.68"/><g class="cls-25"><g class="cls-29"><path d="M222.7,244.92a1,1,0,0,0,.7-.29,1,1,0,0,0,0-1.41,1,1,0,0,0-1.4,0,1,1,0,0,0,0,1.41A1,1,0,0,0,222.7,244.92Z"/></g><g class="cls-30"><path d="M201.58,244.92a1,1,0,0,0,.7-.29,1,1,0,0,0,0-1.41,1,1,0,0,0-.7-.29,1,1,0,0,0-.71,1.7A1,1,0,0,0,201.58,244.92Z"/></g><g class="cls-31"><path d="M209.26,244.92a1,1,0,0,0,.71-.29,1,1,0,0,0-1.41-1.41,1,1,0,0,0,.7,1.7Z"/></g><g class="cls-32"><path d="M228.07,244.92a1,1,0,0,0,.7-.29,1,1,0,0,0,0-1.41,1,1,0,0,0-1.7.71,1,1,0,0,0,.3.7A1,1,0,0,0,228.07,244.92Z"/></g><g class="cls-33"><path d="M221.05,244.92a1,1,0,0,0,.7-1.7,1,1,0,0,0-1.41,1.41A1,1,0,0,0,221.05,244.92Z"/></g><g class="cls-34"><path d="M197.64,269.93a1,1,0,0,0,.71-.29,1,1,0,0,0,.29-.71,1,1,0,0,0-.29-.7,1,1,0,0,0-1.41,0,1,1,0,0,0-.29.7,1,1,0,0,0,.29.71A1,1,0,0,0,197.64,269.93Z"/></g><g class="cls-35"><path d="M209.73,244.92a1,1,0,0,0,.71-.29,1,1,0,0,0-.71-1.7,1,1,0,0,0-.7.29,1,1,0,0,0,0,1.41A1,1,0,0,0,209.73,244.92Z"/></g><g class="cls-34"><path d="M197.64,269.93a1,1,0,0,0,.71-.29,1,1,0,0,0,.29-.71,1,1,0,0,0-.29-.7,1,1,0,0,0-1.41,0,1,1,0,0,0-.29.7,1,1,0,0,0,.29.71A1,1,0,0,0,197.64,269.93Z"/></g><g class="cls-36"><path d="M199.2,269.93a1,1,0,0,0,1-1,1,1,0,0,0-.29-.7,1,1,0,0,0-.71-.29,1,1,0,0,0-1,1,1,1,0,0,0,.29.71A1,1,0,0,0,199.2,269.93Z"/></g><g class="cls-37"><path d="M204.5,244.92a1,1,0,0,0,.71-1.7,1,1,0,0,0-1.41,0,1,1,0,0,0,.7,1.7Z"/></g><g class="cls-38"><path d="M201.38,244.92a1,1,0,0,0,.71-.29,1,1,0,0,0-.71-1.7,1,1,0,0,0-.7.29,1,1,0,0,0,0,1.41A1,1,0,0,0,201.38,244.92Z"/></g><g class="cls-39"><path d="M217.66,244.92a1,1,0,0,0,.71-.29,1,1,0,0,0-1.41-1.41,1,1,0,0,0,.7,1.7Z"/></g><g class="cls-40"><path d="M206.8,244.92a1,1,0,0,0,.71-.29,1,1,0,0,0-1.41-1.41,1,1,0,0,0,.7,1.7Z"/></g><g class="cls-41"><path d="M201.13,244.92a1,1,0,0,0,.7-.29,1,1,0,0,0,0-1.41,1,1,0,0,0-.7-.29,1,1,0,0,0-.7,1.7A1,1,0,0,0,201.13,244.92Z"/></g><g class="cls-42"><path d="M203.22,244.92a1,1,0,0,0,.7-1.7,1,1,0,0,0-1.41,1.41A1,1,0,0,0,203.22,244.92Z"/></g><g class="cls-43"><path d="M202.82,244.92a1,1,0,0,0,.71-.29,1,1,0,0,0-1.41-1.41,1,1,0,0,0,.7,1.7Z"/></g><g class="cls-44"><path d="M218.23,244.92a1,1,0,0,0,.7-1.7,1,1,0,0,0-1.41,1.41A1,1,0,0,0,218.23,244.92Z"/></g><g class="cls-34"><path d="M197.64,269.93a1,1,0,0,0,.71-.29,1,1,0,0,0,.29-.71,1,1,0,0,0-.29-.7,1,1,0,0,0-1.41,0,1,1,0,0,0-.29.7,1,1,0,0,0,.29.71A1,1,0,0,0,197.64,269.93Z"/></g><g class="cls-45"><path d="M202.37,244.92a1,1,0,0,0,.7-1.7,1,1,0,0,0-1.41,1.41A1,1,0,0,0,202.37,244.92Z"/></g><g class="cls-34"><path d="M197.64,269.93a1,1,0,0,0,.71-.29,1,1,0,0,0,.29-.71,1,1,0,0,0-.29-.7,1,1,0,0,0-1.41,0,1,1,0,0,0-.29.7,1,1,0,0,0,.29.71A1,1,0,0,0,197.64,269.93Z"/></g><g class="cls-34"><path d="M197.64,269.93a1,1,0,0,0,.71-.29,1,1,0,0,0,.29-.71,1,1,0,0,0-.29-.7,1,1,0,0,0-1.41,0,1,1,0,0,0-.29.7,1,1,0,0,0,.29.71A1,1,0,0,0,197.64,269.93Z"/></g><g class="cls-46"><path d="M205.16,244.92a1,1,0,0,0,.7-1.7,1,1,0,0,0-1.41,1.41A1,1,0,0,0,205.16,244.92Z"/></g><g class="cls-47"><path d="M209.31,244.92a1,1,0,0,0,.7-1.7,1,1,0,0,0-1.41,1.41A1,1,0,0,0,209.31,244.92Z"/></g><g class="cls-34"><path d="M197.64,269.93a1,1,0,0,0,.71-.29,1,1,0,0,0,.29-.71,1,1,0,0,0-.29-.7,1,1,0,0,0-1.41,0,1,1,0,0,0-.29.7,1,1,0,0,0,.29.71A1,1,0,0,0,197.64,269.93Z"/></g><g class="cls-48"><path d="M226.81,244.92a1,1,0,0,0,.7-.29,1,1,0,0,0,0-1.41,1,1,0,0,0-.7-.29,1,1,0,0,0-.71,1.7A1,1,0,0,0,226.81,244.92Z"/></g><g class="cls-34"><path d="M197.64,269.93a1,1,0,0,0,.71-.29,1,1,0,0,0,.29-.71,1,1,0,0,0-.29-.7,1,1,0,0,0-1.41,0,1,1,0,0,0-.29.7,1,1,0,0,0,.29.71A1,1,0,0,0,197.64,269.93Z"/></g><g class="cls-49"><path d="M197.82,244.92a1,1,0,0,0,.7-1.7,1,1,0,0,0-1.41,1.41A1,1,0,0,0,197.82,244.92Z"/></g><g class="cls-50"><path d="M198.85,269.93a1,1,0,0,0,1-1,1,1,0,0,0-.29-.7,1,1,0,0,0-1.41,0,1,1,0,0,0-.29.7,1,1,0,0,0,.29.71A1,1,0,0,0,198.85,269.93Z"/></g><g class="cls-51"><path d="M218.46,244.92a1,1,0,0,0,.71-1.7,1,1,0,0,0-1.41,0,1,1,0,0,0,.7,1.7Z"/></g><g class="cls-52"><path d="M217.37,244.92a1,1,0,0,0,.7-.29,1,1,0,0,0,0-1.41,1,1,0,0,0-1.7.71,1,1,0,0,0,.3.7A1,1,0,0,0,217.37,244.92Z"/></g><g class="cls-53"><path d="M198.92,244.92a1,1,0,0,0,.71-.29,1,1,0,0,0-1.41-1.41,1,1,0,0,0,.7,1.7Z"/></g><g class="cls-54"><path d="M203.15,244.92a1,1,0,0,0,.7-.29,1,1,0,0,0,0-1.41,1,1,0,0,0-1.7.71,1,1,0,0,0,.3.7A1,1,0,0,0,203.15,244.92Z"/></g><g class="cls-34"><path d="M197.64,269.93a1,1,0,0,0,.71-.29,1,1,0,0,0,.29-.71,1,1,0,0,0-.29-.7,1,1,0,0,0-1.41,0,1,1,0,0,0-.29.7,1,1,0,0,0,.29.71A1,1,0,0,0,197.64,269.93Z"/></g><g class="cls-34"><path d="M197.64,269.93a1,1,0,0,0,.71-.29,1,1,0,0,0,.29-.71,1,1,0,0,0-.29-.7,1,1,0,0,0-1.41,0,1,1,0,0,0-.29.7,1,1,0,0,0,.29.71A1,1,0,0,0,197.64,269.93Z"/></g><g class="cls-34"><path d="M197.64,269.93a1,1,0,0,0,.71-.29,1,1,0,0,0,.29-.71,1,1,0,0,0-.29-.7,1,1,0,0,0-1.41,0,1,1,0,0,0-.29.7,1,1,0,0,0,.29.71A1,1,0,0,0,197.64,269.93Z"/></g><g class="cls-55"><path d="M200.37,244.92a1,1,0,0,0,.7-.29,1,1,0,0,0,0-1.41,1,1,0,0,0-.7-.29,1,1,0,0,0-.71,1.7A1,1,0,0,0,200.37,244.92Z"/></g><g class="cls-56"><path d="M214.39,244.92a1,1,0,0,0,.71-.29,1,1,0,0,0-1.41-1.41,1,1,0,0,0,.7,1.7Z"/></g><g class="cls-57"><path d="M213.25,244.92a1,1,0,0,0,.71-.29,1,1,0,0,0-.71-1.7,1,1,0,0,0-.7.29,1,1,0,0,0,0,1.41A1,1,0,0,0,213.25,244.92Z"/></g><g class="cls-34"><path d="M197.64,269.93a1,1,0,0,0,.71-.29,1,1,0,0,0,.29-.71,1,1,0,0,0-.29-.7,1,1,0,0,0-1.41,0,1,1,0,0,0-.29.7,1,1,0,0,0,.29.71A1,1,0,0,0,197.64,269.93Z"/></g><g class="cls-34"><path d="M197.64,269.93a1,1,0,0,0,.71-.29,1,1,0,0,0,.29-.71,1,1,0,0,0-.29-.7,1,1,0,0,0-1.41,0,1,1,0,0,0-.29.7,1,1,0,0,0,.29.71A1,1,0,0,0,197.64,269.93Z"/></g><g class="cls-34"><path d="M197.64,269.93a1,1,0,0,0,.71-.29,1,1,0,0,0,.29-.71,1,1,0,0,0-.29-.7,1,1,0,0,0-1.41,0,1,1,0,0,0-.29.7,1,1,0,0,0,.29.71A1,1,0,0,0,197.64,269.93Z"/></g><g class="cls-34"><path d="M197.64,269.93a1,1,0,0,0,.71-.29,1,1,0,0,0,.29-.71,1,1,0,0,0-.29-.7,1,1,0,0,0-1.41,0,1,1,0,0,0-.29.7,1,1,0,0,0,.29.71A1,1,0,0,0,197.64,269.93Z"/></g><g class="cls-34"><path d="M197.64,269.93a1,1,0,0,0,.71-.29,1,1,0,0,0,.29-.71,1,1,0,0,0-.29-.7,1,1,0,0,0-1.41,0,1,1,0,0,0-.29.7,1,1,0,0,0,.29.71A1,1,0,0,0,197.64,269.93Z"/></g><g class="cls-58"><path d="M223.92,244.92a1,1,0,0,0,.71-1.7,1,1,0,0,0-1.41,0,1,1,0,0,0,.7,1.7Z"/></g><g class="cls-59"><path d="M198.32,269.93a1,1,0,0,0,1-1,1,1,0,0,0-2,0,1,1,0,0,0,1,1Z"/></g><g class="cls-34"><path d="M197.64,269.93a1,1,0,0,0,.71-.29,1,1,0,0,0,.29-.71,1,1,0,0,0-.29-.7,1,1,0,0,0-1.41,0,1,1,0,0,0-.29.7,1,1,0,0,0,.29.71A1,1,0,0,0,197.64,269.93Z"/></g><g class="cls-34"><path d="M197.64,269.93a1,1,0,0,0,.71-.29,1,1,0,0,0,.29-.71,1,1,0,0,0-.29-.7,1,1,0,0,0-1.41,0,1,1,0,0,0-.29.7,1,1,0,0,0,.29.71A1,1,0,0,0,197.64,269.93Z"/></g><g class="cls-60"><path d="M209,244.92a1,1,0,0,0,.7-.29,1,1,0,0,0-.7-1.7,1,1,0,0,0-.7.29,1,1,0,0,0,0,1.41A1,1,0,0,0,209,244.92Z"/></g><g class="cls-34"><path d="M197.64,269.93a1,1,0,0,0,.71-.29,1,1,0,0,0,.29-.71,1,1,0,0,0-.29-.7,1,1,0,0,0-1.41,0,1,1,0,0,0-.29.7,1,1,0,0,0,.29.71A1,1,0,0,0,197.64,269.93Z"/></g><g class="cls-34"><path d="M197.64,269.93a1,1,0,0,0,.71-.29,1,1,0,0,0,.29-.71,1,1,0,0,0-.29-.7,1,1,0,0,0-1.41,0,1,1,0,0,0-.29.7,1,1,0,0,0,.29.71A1,1,0,0,0,197.64,269.93Z"/></g><g class="cls-34"><path d="M197.64,269.93a1,1,0,0,0,.71-.29,1,1,0,0,0,.29-.71,1,1,0,0,0-.29-.7,1,1,0,0,0-1.41,0,1,1,0,0,0-.29.7,1,1,0,0,0,.29.71A1,1,0,0,0,197.64,269.93Z"/></g><g class="cls-61"><path d="M204.42,244.92a1,1,0,0,0,.71-.29,1,1,0,0,0-1.41-1.41,1,1,0,0,0,.7,1.7Z"/></g><g class="cls-34"><path d="M197.64,269.93a1,1,0,0,0,.71-.29,1,1,0,0,0,.29-.71,1,1,0,0,0-.29-.7,1,1,0,0,0-1.41,0,1,1,0,0,0-.29.7,1,1,0,0,0,.29.71A1,1,0,0,0,197.64,269.93Z"/></g><g class="cls-34"><path d="M197.64,269.93a1,1,0,0,0,.71-.29,1,1,0,0,0,.29-.71,1,1,0,0,0-.29-.7,1,1,0,0,0-1.41,0,1,1,0,0,0-.29.7,1,1,0,0,0,.29.71A1,1,0,0,0,197.64,269.93Z"/></g><g class="cls-34"><path d="M197.64,269.93a1,1,0,0,0,.71-.29,1,1,0,0,0,.29-.71,1,1,0,0,0-.29-.7,1,1,0,0,0-1.41,0,1,1,0,0,0-.29.7,1,1,0,0,0,.29.71A1,1,0,0,0,197.64,269.93Z"/></g><g class="cls-62"><path d="M202.62,244.92a1,1,0,0,0,.71-.29,1,1,0,0,0-1.41-1.41,1,1,0,0,0,.7,1.7Z"/></g><g class="cls-63"><path d="M199.63,244.92a1,1,0,0,0,.7-.29,1,1,0,0,0,0-1.41,1,1,0,0,0-1.4,0,1,1,0,0,0,0,1.41A1,1,0,0,0,199.63,244.92Z"/></g><g class="cls-64"><path d="M200.56,244.92a1,1,0,0,0,.7-1.7,1,1,0,0,0-1.41,1.41A1,1,0,0,0,200.56,244.92Z"/></g><g class="cls-34"><path d="M197.64,269.93a1,1,0,0,0,.71-.29,1,1,0,0,0,.29-.71,1,1,0,0,0-.29-.7,1,1,0,0,0-1.41,0,1,1,0,0,0-.29.7,1,1,0,0,0,.29.71A1,1,0,0,0,197.64,269.93Z"/></g><g class="cls-34"><path d="M197.64,269.93a1,1,0,0,0,.71-.29,1,1,0,0,0,.29-.71,1,1,0,0,0-.29-.7,1,1,0,0,0-1.41,0,1,1,0,0,0-.29.7,1,1,0,0,0,.29.71A1,1,0,0,0,197.64,269.93Z"/></g><g class="cls-34"><path d="M197.64,269.93a1,1,0,0,0,.71-.29,1,1,0,0,0,.29-.71,1,1,0,0,0-.29-.7,1,1,0,0,0-1.41,0,1,1,0,0,0-.29.7,1,1,0,0,0,.29.71A1,1,0,0,0,197.64,269.93Z"/></g><g class="cls-65"><path d="M198.37,269.93a1,1,0,0,0,.7-.29,1,1,0,0,0,.29-.71,1,1,0,0,0-.29-.7,1,1,0,0,0-1.41,0,1,1,0,0,0-.29.7,1,1,0,0,0,1,1Z"/></g><g class="cls-34"><path d="M197.64,269.93a1,1,0,0,0,.71-.29,1,1,0,0,0,.29-.71,1,1,0,0,0-.29-.7,1,1,0,0,0-1.41,0,1,1,0,0,0-.29.7,1,1,0,0,0,.29.71A1,1,0,0,0,197.64,269.93Z"/></g><g class="cls-34"><path d="M197.64,269.93a1,1,0,0,0,.71-.29,1,1,0,0,0,.29-.71,1,1,0,0,0-.29-.7,1,1,0,0,0-1.41,0,1,1,0,0,0-.29.7,1,1,0,0,0,.29.71A1,1,0,0,0,197.64,269.93Z"/></g><g class="cls-66"><path d="M198.77,244.92a1,1,0,0,0,.7-.29,1,1,0,0,0,0-1.41,1,1,0,0,0-1.7.71,1,1,0,0,0,.3.7A1,1,0,0,0,198.77,244.92Z"/></g><g class="cls-34"><path d="M197.64,269.93a1,1,0,0,0,.71-.29,1,1,0,0,0,.29-.71,1,1,0,0,0-.29-.7,1,1,0,0,0-1.41,0,1,1,0,0,0-.29.7,1,1,0,0,0,.29.71A1,1,0,0,0,197.64,269.93Z"/></g><g class="cls-34"><path d="M197.64,269.93a1,1,0,0,0,.71-.29,1,1,0,0,0,.29-.71,1,1,0,0,0-.29-.7,1,1,0,0,0-1.41,0,1,1,0,0,0-.29.7,1,1,0,0,0,.29.71A1,1,0,0,0,197.64,269.93Z"/></g><g class="cls-67"><path d="M202.21,244.92a1,1,0,0,0,.7-1.7,1,1,0,0,0-1.41,1.41A1,1,0,0,0,202.21,244.92Z"/></g><g class="cls-34"><path d="M197.64,269.93a1,1,0,0,0,.71-.29,1,1,0,0,0,.29-.71,1,1,0,0,0-.29-.7,1,1,0,0,0-1.41,0,1,1,0,0,0-.29.7,1,1,0,0,0,.29.71A1,1,0,0,0,197.64,269.93Z"/></g><g class="cls-68"><path d="M198.64,244.92a1,1,0,0,0,.7-.29,1,1,0,0,0,0-1.41,1,1,0,0,0-1.4,0,1,1,0,0,0,0,1.41A1,1,0,0,0,198.64,244.92Z"/></g><g class="cls-69"><path d="M208.14,244.92a1,1,0,0,0,.7-.29,1,1,0,0,0-.7-1.7,1,1,0,0,0-.7.29,1,1,0,0,0,0,1.41A1,1,0,0,0,208.14,244.92Z"/></g><g class="cls-70"><path d="M199.66,244.92a1,1,0,0,0,.7-1.7,1,1,0,0,0-1.41,0,1,1,0,0,0,.71,1.7Z"/></g><g class="cls-71"><path d="M213.47,244.92a1,1,0,0,0,.71-.29,1,1,0,0,0-1.41-1.41,1,1,0,0,0,.7,1.7Z"/></g><g class="cls-34"><path d="M197.64,269.93a1,1,0,0,0,.71-.29,1,1,0,0,0,.29-.71,1,1,0,0,0-.29-.7,1,1,0,0,0-1.41,0,1,1,0,0,0-.29.7,1,1,0,0,0,.29.71A1,1,0,0,0,197.64,269.93Z"/></g><g class="cls-72"><path d="M201.92,244.92a1,1,0,0,0,.7-1.7,1,1,0,0,0-1.41,1.41A1,1,0,0,0,201.92,244.92Z"/></g><g class="cls-34"><path d="M197.64,269.93a1,1,0,0,0,.71-.29,1,1,0,0,0,.29-.71,1,1,0,0,0-.29-.7,1,1,0,0,0-1.41,0,1,1,0,0,0-.29.7,1,1,0,0,0,.29.71A1,1,0,0,0,197.64,269.93Z"/></g><g class="cls-34"><path d="M197.64,269.93a1,1,0,0,0,.71-.29,1,1,0,0,0,.29-.71,1,1,0,0,0-.29-.7,1,1,0,0,0-1.41,0,1,1,0,0,0-.29.7,1,1,0,0,0,.29.71A1,1,0,0,0,197.64,269.93Z"/></g><g class="cls-34"><path d="M197.64,269.93a1,1,0,0,0,.71-.29,1,1,0,0,0,.29-.71,1,1,0,0,0-.29-.7,1,1,0,0,0-1.41,0,1,1,0,0,0-.29.7,1,1,0,0,0,.29.71A1,1,0,0,0,197.64,269.93Z"/></g><g class="cls-34"><path d="M197.64,269.93a1,1,0,0,0,.71-.29,1,1,0,0,0,.29-.71,1,1,0,0,0-.29-.7,1,1,0,0,0-1.41,0,1,1,0,0,0-.29.7,1,1,0,0,0,.29.71A1,1,0,0,0,197.64,269.93Z"/></g><g class="cls-73"><path d="M198.4,244.92a1,1,0,0,0,.7-.29,1,1,0,0,0,0-1.41,1,1,0,0,0-1.4,0,1,1,0,0,0,0,1.41A1,1,0,0,0,198.4,244.92Z"/></g><g class="cls-34"><path d="M197.64,269.93a1,1,0,0,0,.71-.29,1,1,0,0,0,.29-.71,1,1,0,0,0-.29-.7,1,1,0,0,0-1.41,0,1,1,0,0,0-.29.7,1,1,0,0,0,.29.71A1,1,0,0,0,197.64,269.93Z"/></g><g class="cls-74"><path d="M208.14,244.92a1,1,0,0,0,.7-1.7,1,1,0,0,0-1.41,0,1,1,0,0,0,.71,1.7Z"/></g><g class="cls-75"><path d="M203.13,244.92a1,1,0,0,0,.71-.29,1,1,0,0,0-1.41-1.41,1,1,0,0,0,.7,1.7Z"/></g><g class="cls-34"><path d="M197.64,269.93a1,1,0,0,0,.71-.29,1,1,0,0,0,.29-.71,1,1,0,0,0-.29-.7,1,1,0,0,0-1.41,0,1,1,0,0,0-.29.7,1,1,0,0,0,.29.71A1,1,0,0,0,197.64,269.93Z"/></g><g class="cls-76"><path d="M217.83,244.92a1,1,0,0,0,.71-.29,1,1,0,0,0-1.41-1.41,1,1,0,0,0,.7,1.7Z"/></g><g class="cls-77"><path d="M221,244.92a1,1,0,0,0,.7-1.7,1,1,0,0,0-1.41,1.41A1,1,0,0,0,221,244.92Z"/></g><g class="cls-78"><path d="M212.06,244.92a1,1,0,0,0,.7-1.7,1,1,0,0,0-1.41,1.41A1,1,0,0,0,212.06,244.92Z"/></g><g class="cls-34"><path d="M197.64,269.93a1,1,0,0,0,.71-.29,1,1,0,0,0,.29-.71,1,1,0,0,0-.29-.7,1,1,0,0,0-1.41,0,1,1,0,0,0-.29.7,1,1,0,0,0,.29.71A1,1,0,0,0,197.64,269.93Z"/></g><g class="cls-34"><path d="M197.64,269.93a1,1,0,0,0,.71-.29,1,1,0,0,0,.29-.71,1,1,0,0,0-.29-.7,1,1,0,0,0-1.41,0,1,1,0,0,0-.29.7,1,1,0,0,0,.29.71A1,1,0,0,0,197.64,269.93Z"/></g><g class="cls-79"><path d="M213,244.92a1,1,0,0,0,.71-.29,1,1,0,0,0-1.41-1.41,1,1,0,0,0,.7,1.7Z"/></g><g class="cls-34"><path d="M197.64,269.93a1,1,0,0,0,.71-.29,1,1,0,0,0,.29-.71,1,1,0,0,0-.29-.7,1,1,0,0,0-1.41,0,1,1,0,0,0-.29.7,1,1,0,0,0,.29.71A1,1,0,0,0,197.64,269.93Z"/></g><g class="cls-80"><path d="M214,244.92a1,1,0,0,0,.71-.29,1,1,0,0,0-1.41-1.41,1,1,0,0,0,.7,1.7Z"/></g><g class="cls-81"><path d="M200.35,244.92a1,1,0,0,0,.7-1.7,1,1,0,0,0-1.41,0,1,1,0,0,0,.71,1.7Z"/></g><g class="cls-82"><path d="M209.34,244.92a1,1,0,0,0,.7-1.7,1,1,0,0,0-1.41,1.41A1,1,0,0,0,209.34,244.92Z"/></g><g class="cls-83"><path d="M202.85,244.92a1,1,0,0,0,.7-1.7,1,1,0,0,0-1.41,1.41A1,1,0,0,0,202.85,244.92Z"/></g><g class="cls-84"><path d="M206.77,244.92a1,1,0,0,0,.7-1.7,1,1,0,0,0-1.41,1.41A1,1,0,0,0,206.77,244.92Z"/></g><g class="cls-85"><path d="M198.54,244.92a1,1,0,0,0,.71-.29,1,1,0,0,0-1.41-1.41,1,1,0,0,0,.7,1.7Z"/></g><g class="cls-86"><path d="M221.94,244.92a1,1,0,0,0,.71-.29,1,1,0,0,0-1.41-1.41,1,1,0,0,0,.7,1.7Z"/></g><g class="cls-87"><path d="M201.45,244.92a1,1,0,0,0,.7-1.7,1,1,0,0,0-1.41,1.41A1,1,0,0,0,201.45,244.92Z"/></g><g class="cls-88"><path d="M204.25,244.92a1,1,0,0,0,.7-.29,1,1,0,0,0,0-1.41,1,1,0,0,0-1.7.71,1,1,0,0,0,.3.7A1,1,0,0,0,204.25,244.92Z"/></g></g><text class="cls-7" transform="translate(193.65 283.43)">Logistic <tspan x="-11.95" y="12">regression to </tspan><tspan x="-15.57" y="24">find differential </tspan><tspan x="0.83" y="36">hashes </tspan></text><text class="cls-11" transform="translate(177.43 336.68)">(sourmash diff)</text><polygon class="cls-9" points="249.23 277.72 254.78 277.72 254.17 276.28 259.23 278.42 254.17 280.56 254.78 279.11 249.23 279.11 249.23 277.72"/><text class="cls-11" transform="translate(503.34 336.68)">sourmash search</text><rect class="cls-2" x="500.64" y="285.01" width="116.84" height="40"/><text class="cls-7" transform="translate(549.05 302.01)">Search for <tspan x="-16.4" y="12">putative orthologs</tspan></text><rect class="cls-89" x="508.23" y="294.07" width="19.16" height="20.98"/><path class="cls-89" d="M527.39,294.07c0,.94-4.29,1.7-9.58,1.7s-9.58-.76-9.58-1.7,4.29-1.71,9.58-1.71,9.58.76,9.58,1.71"/><path class="cls-89" d="M527.39,315c0,.94-4.29,1.71-9.58,1.71s-9.58-.77-9.58-1.71,4.29-1.71,9.58-1.71,9.58.77,9.58,1.71"/><path class="cls-90" d="M527.39,294.07c0,.94-4.29,1.7-9.58,1.7s-9.58-.76-9.58-1.7,4.29-1.71,9.58-1.71S527.39,293.12,527.39,294.07Z"/><text class="cls-11" transform="translate(104.75 169.37)">fastp</text><text class="cls-7" transform="translate(91.88 128.94)">Trim reads</text><text class="cls-11" transform="translate(256.8 335.72)">(sourmash hash2kmer <tspan x="0" y="9.6">| bioawk | grep)</tspan></text><rect class="cls-2" x="264.89" y="232.46" width="66.95" height="90"/><text class="cls-7" transform="translate(272.52 278.59)">Find aligned <tspan x="14.73" y="12">reads </tspan><tspan x="4.45" y="24">containing </tspan><tspan x="11.12" y="36">hashes</tspan></text><polygon class="cls-9" points="404.67 306 410.21 306 409.6 304.55 414.67 306.69 409.6 308.83 410.21 307.38 404.67 307.38 404.67 306"/><polygon class="cls-9" points="337.89 270.45 341.81 266.53 340.36 265.94 345.45 263.87 343.38 268.97 342.8 267.51 338.87 271.44 337.89 270.45"/><polygon class="cls-9" points="338.87 292.09 342.8 296.01 343.38 294.56 345.45 299.65 340.36 297.58 341.81 296.99 337.89 293.07 338.87 292.09"/><text class="cls-7" transform="translate(354.37 245.67)">Aligned <tspan class="cls-18"><tspan x="3.9" y="12">k</tspan><tspan class="cls-91" x="8.9" y="12">-mer </tspan></tspan><tspan x="5.56" y="24">reads</tspan></text><text class="cls-7" transform="translate(350.13 295.87)">Unaligned <tspan class="cls-18"><tspan x="9.74" y="12">k</tspan><tspan class="cls-91" x="14.74" y="12">-mer </tspan></tspan><tspan x="11.4" y="24">reads</tspan></text><text class="cls-11" transform="translate(404.43 335.72)">(sourmash hash2sig)</text><rect class="cls-2" x="415.92" y="235.01" width="66.95" height="40"/><text class="cls-7" transform="translate(420.77 245.67)">Count reads <tspan x="10.83" y="12">in gene </tspan><tspan x="10.56" y="24">features</tspan></text><rect class="cls-2" x="416.29" y="285.01" width="66.95" height="40"/><text class="cls-7" transform="translate(425.31 295.67)">Convert to <tspan x="6.66" y="12">hashed </tspan><tspan x="1.39" y="24">signatures</tspan></text><polygon class="cls-9" points="401.5 251.94 407.04 251.94 406.43 250.49 411.5 252.63 406.43 254.77 407.04 253.33 401.5 253.33 401.5 251.94"/><polygon class="cls-9" points="486.93 306 492.48 306 491.87 304.55 496.93 306.69 491.87 308.83 492.48 307.38 486.93 307.38 486.93 306"/><text class="cls-7" transform="translate(56.14 261.42)">Hashed k-mers<tspan x="0" y="12">Translated protein sequences</tspan><tspan x="0" y="24">Alignment files</tspan><tspan x="0" y="36">Differential groups</tspan></text><text class="cls-7" transform="translate(64.74 227.41)">Input hashed k-mers</text><rect class="cls-2" x="500.64" y="235.35" width="116.84" height="40"/><text class="cls-7" transform="translate(546.83 252.36)">Summarize <tspan x="4.71" y="12">orthology</tspan></text><text class="cls-7" transform="translate(667.53 221.64)">di<tspan class="cls-92" x="7.78" y="0">f</tspan><tspan x="10.38" y="0">ferential</tspan><tspan x="12.14" y="12">hash</tspan></text><polygon class="cls-9" points="732.41 224.28 737.96 224.28 737.35 222.83 742.41 224.97 737.35 227.11 737.96 225.66 732.41 225.66 732.41 224.28"/><polygon class="cls-9" points="691.21 239.08 691.21 244.63 692.65 244.01 690.51 249.08 688.38 244.01 689.82 244.63 689.82 239.08 691.21 239.08"/><text class="cls-7" transform="translate(751.57 227.64)">Not in genome</text><text class="cls-7" transform="translate(666.89 259.86)">In genome</text><polygon class="cls-9" points="732.41 256.5 737.96 256.5 737.35 255.05 742.41 257.19 737.35 259.33 737.96 257.88 732.41 257.88 732.41 256.5"/><polygon class="cls-9" points="691.21 265.3 691.21 270.85 692.65 270.23 690.51 275.3 688.38 270.23 689.82 270.85 689.82 265.3 691.21 265.3"/><text class="cls-7" transform="translate(751.57 259.86)">Multi-mapped</text><text class="cls-7" transform="translate(656.05 286.08)">Singly-mapping</text><polygon class="cls-9" points="732.41 282.71 737.96 282.71 737.35 281.27 742.41 283.41 737.35 285.55 737.96 284.1 732.41 284.1 732.41 282.71"/><polygon class="cls-9" points="691.21 291.52 691.21 297.06 692.65 296.45 690.51 301.52 688.38 296.45 689.82 297.06 689.82 291.52 691.21 291.52"/><text class="cls-7" transform="translate(751.57 286.08)">Not in a gene</text><text class="cls-7" transform="translate(669.66 312.29)">In a gene</text><polygon class="cls-9" points="732.41 308.93 737.96 308.93 737.35 307.49 742.41 309.63 737.35 311.76 737.96 310.32 732.41 310.32 732.41 308.93"/><polygon class="cls-9" points="691.21 317.74 691.21 323.28 692.65 322.67 690.51 327.74 688.38 322.67 689.82 323.28 689.82 317.74 691.21 317.74"/><text class="cls-7" transform="translate(751.57 312.29)">Non-ortholog</text><text class="cls-7" transform="translate(671.34 338.51)">Ortholog</text><polygon class="cls-9" points="732.41 335.15 737.96 335.15 737.35 333.71 742.41 335.85 737.35 337.98 737.96 336.54 732.41 336.54 732.41 335.15"/><text class="cls-7" transform="translate(751.57 338.51)">one2one ortholog</text><text class="cls-7" transform="translate(649.94 364.73)">Multicopy ortholog</text><polygon class="cls-9" points="691.21 343.96 691.21 349.5 692.65 348.89 690.51 353.96 688.38 348.89 689.82 349.5 689.82 343.96 691.21 343.96"/></svg>