<svg id="Layer_1" data-name="Layer 1" xmlns="http://www.w3.org/2000/svg" viewBox="0 0 555.9 425.8"><defs><style>.cls-1{font-size:10px;}.cls-1,.cls-2,.cls-4{fill:#231f20;}.cls-1,.cls-2,.cls-4,.cls-8,.cls-9{font-family:ArialMT, Arial;}.cls-2{font-size:12px;letter-spacing:-0.06em;}.cls-10,.cls-11,.cls-3,.cls-6,.cls-7{fill:none;}.cls-3{stroke:#080504;}.cls-11,.cls-3,.cls-6{stroke-linecap:round;}.cls-3,.cls-6{stroke-linejoin:round;}.cls-3,.cls-7{stroke-width:0.25px;}.cls-4{font-size:8px;}.cls-5{font-family:Arial-ItalicMT, Arial;font-style:italic;}.cls-6{stroke:#662f90;}.cls-7{stroke:#000;}.cls-10,.cls-11,.cls-7{stroke-miterlimit:10;}.cls-8,.cls-9{font-style:normal;}.cls-9{letter-spacing:-0.06em;}.cls-10,.cls-11{stroke:#29aae2;}.cls-11{stroke-width:2px;}</style></defs><title>figure1</title><text class="cls-1" transform="translate(15.83 46.65)">Bam</text><text class="cls-2" transform="translate(7.67 17.03)">A</text><text class="cls-1" transform="translate(59.82 46.65)">Reads</text><line class="cls-3" x1="65.86" y1="79.21" x2="85.19" y2="79.21"/><line class="cls-3" x1="65.86" y1="70.44" x2="85.19" y2="70.44"/><line class="cls-3" x1="65.86" y1="64.58" x2="85.19" y2="64.58"/><line class="cls-3" x1="65.86" y1="61.66" x2="85.19" y2="61.66"/><line class="cls-3" x1="65.86" y1="58.73" x2="85.19" y2="58.73"/><line class="cls-3" x1="65.86" y1="55.81" x2="85.19" y2="55.81"/><line class="cls-3" x1="65.86" y1="52.88" x2="85.19" y2="52.88"/><line class="cls-3" x1="65.86" y1="73.36" x2="85.19" y2="73.36"/><line class="cls-3" x1="65.86" y1="76.29" x2="85.19" y2="76.29"/><line class="cls-3" x1="65.86" y1="67.51" x2="85.19" y2="67.51"/><text class="cls-4" transform="translate(6.11 80.55)">(droplet-based <tspan x="8.01" y="9.6">single-cell </tspan><tspan x="-0.21" y="19.2">RNA-seq only)</tspan></text><text class="cls-1" transform="translate(96.42 32.6)">Predicted protein <tspan x="0" y="12">sequence</tspan></text><text class="cls-1" transform="translate(181.22 30.85)">Random amino <tspan x="0" y="12">acid </tspan><tspan class="cls-5" x="21.12" y="12">k</tspan><tspan x="26.12" y="12">-mers</tspan></text><line class="cls-6" x1="100.1" y1="80.68" x2="119.43" y2="80.68"/><line class="cls-6" x1="100.1" y1="71.9" x2="119.43" y2="71.9"/><line class="cls-6" x1="100.1" y1="66.05" x2="119.43" y2="66.05"/><line class="cls-6" x1="100.1" y1="63.12" x2="119.43" y2="63.12"/><line class="cls-6" x1="100.1" y1="60.2" x2="119.43" y2="60.2"/><line class="cls-6" x1="100.1" y1="57.27" x2="119.43" y2="57.27"/><line class="cls-6" x1="100.1" y1="54.34" x2="119.43" y2="54.34"/><line class="cls-6" x1="100.1" y1="74.83" x2="119.43" y2="74.83"/><line class="cls-6" x1="100.1" y1="77.75" x2="119.43" y2="77.75"/><line class="cls-6" x1="100.1" y1="68.97" x2="119.43" y2="68.97"/><line class="cls-7" x1="183.88" y1="81.68" x2="203.21" y2="81.68"/><line class="cls-7" x1="183.88" y1="72.91" x2="203.21" y2="72.91"/><line class="cls-7" x1="183.88" y1="67.05" x2="203.21" y2="67.05"/><line class="cls-7" x1="183.88" y1="64.13" x2="203.21" y2="64.13"/><line class="cls-7" x1="183.88" y1="61.2" x2="203.21" y2="61.2"/><line class="cls-7" x1="183.88" y1="58.28" x2="203.21" y2="58.28"/><line class="cls-7" x1="183.88" y1="55.35" x2="203.21" y2="55.35"/><line class="cls-7" x1="183.88" y1="75.83" x2="203.21" y2="75.83"/><line class="cls-7" x1="183.88" y1="78.76" x2="203.21" y2="78.76"/><line class="cls-7" x1="183.88" y1="69.98" x2="203.21" y2="69.98"/><line class="cls-6" x1="186.88" y1="81.68" x2="192.88" y2="81.68"/><line class="cls-6" x1="183.88" y1="72.91" x2="189.88" y2="72.91"/><line class="cls-6" x1="193.88" y1="67.05" x2="199.88" y2="67.05"/><line class="cls-6" x1="186.88" y1="64.13" x2="192.88" y2="64.13"/><line class="cls-6" x1="189.88" y1="61.2" x2="195.88" y2="61.2"/><line class="cls-6" x1="185.88" y1="58.28" x2="191.88" y2="58.28"/><line class="cls-6" x1="195.88" y1="55.35" x2="201.88" y2="55.35"/><line class="cls-6" x1="189.88" y1="75.83" x2="195.88" y2="75.83"/><line class="cls-6" x1="194.88" y1="78.76" x2="200.88" y2="78.76"/><line class="cls-6" x1="196.88" y1="69.98" x2="202.88" y2="69.98"/><circle cx="268.01" cy="59.59" r="0.88"/><circle cx="271.83" cy="60.47" r="0.88"/><circle cx="271.83" cy="57.83" r="0.88"/><circle cx="269.92" cy="62.23" r="0.88"/><circle cx="267.28" cy="61.36" r="0.88"/><circle cx="269.92" cy="59.59" r="0.88"/><circle cx="268.89" cy="56.96" r="0.88"/><circle cx="266.4" cy="58.71" r="0.88"/><circle cx="284.12" cy="59.49" r="0.88"/><circle cx="280.81" cy="61.56" r="0.88"/><circle cx="282.67" cy="63.43" r="0.88"/><circle cx="280.91" cy="58.97" r="0.88"/><circle cx="283.39" cy="57.72" r="0.88"/><circle cx="282.78" cy="60.84" r="0.88"/><circle cx="284.37" cy="61.97" r="0.88"/><circle cx="285.88" cy="58.97" r="0.88"/><circle cx="275.85" cy="67.47" r="0.88"/><circle cx="272.03" cy="66.59" r="0.88"/><circle cx="272.03" cy="69.23" r="0.88"/><circle cx="273.94" cy="64.84" r="0.88"/><circle cx="276.58" cy="65.71" r="0.88"/><circle cx="273.94" cy="67.47" r="0.88"/><circle cx="274.97" cy="70.11" r="0.88"/><circle cx="277.45" cy="68.35" r="0.88"/><circle cx="278.59" cy="66.59" r="0.88"/><circle cx="268.06" cy="73.69" r="0.88"/><circle cx="264.75" cy="75.76" r="0.88"/><circle cx="266.61" cy="77.62" r="0.88"/><circle cx="264.85" cy="73.17" r="0.88"/><circle cx="266.71" cy="75.03" r="0.88"/><circle cx="269.31" cy="76.17" r="0.88"/><circle cx="269.82" cy="73.17" r="0.88"/><circle cx="276.72" cy="78.04" r="0.88"/><circle cx="278.59" cy="79.9" r="0.88"/><circle cx="276.83" cy="75.45" r="0.88"/><circle cx="279.31" cy="74.2" r="0.88"/><circle cx="278.69" cy="77.31" r="0.88"/><circle cx="281.28" cy="78.45" r="0.88"/><circle cx="281.8" cy="75.45" r="0.88"/><text class="cls-1" transform="translate(258.55 32.68)">Cluster on <tspan class="cls-5"><tspan x="0" y="12">k</tspan><tspan class="cls-8" x="5" y="12">-mer similarit</tspan><tspan class="cls-9" x="62.22" y="12">y</tspan></tspan></text><circle class="cls-10" cx="282.82" cy="60.55" r="5.87"/><text class="cls-1" transform="translate(323.6 11.94)">k-mers enriched <tspan x="0" y="12">in clusters</tspan></text><line class="cls-11" x1="342.02" y1="79.21" x2="348.02" y2="79.21"/><line class="cls-11" x1="339.02" y1="70.44" x2="345.02" y2="70.44"/><line class="cls-11" x1="351.02" y1="52.88" x2="357.02" y2="52.88"/><line class="cls-11" x1="352.02" y1="67.51" x2="358.02" y2="67.51"/><line class="cls-6" x1="394.55" y1="80.22" x2="413.88" y2="80.22"/><line class="cls-6" x1="394.55" y1="71.44" x2="413.88" y2="71.44"/><line class="cls-6" x1="394.55" y1="65.59" x2="413.88" y2="65.59"/><line class="cls-6" x1="394.55" y1="62.67" x2="413.88" y2="62.67"/><line class="cls-6" x1="394.55" y1="59.74" x2="413.88" y2="59.74"/><line class="cls-6" x1="394.55" y1="56.81" x2="413.88" y2="56.81"/><line class="cls-6" x1="394.55" y1="53.89" x2="413.88" y2="53.89"/><line class="cls-6" x1="394.55" y1="74.37" x2="413.88" y2="74.37"/><line class="cls-6" x1="394.55" y1="77.3" x2="413.88" y2="77.3"/><line class="cls-6" x1="394.55" y1="68.52" x2="413.88" y2="68.52"/><line class="cls-11" x1="397.55" y1="80.22" x2="403.55" y2="80.22"/><line class="cls-11" x1="394.55" y1="71.44" x2="400.55" y2="71.44"/><line class="cls-11" x1="406.55" y1="53.89" x2="412.55" y2="53.89"/><line class="cls-11" x1="407.55" y1="68.52" x2="413.55" y2="68.52"/><text class="cls-1" transform="translate(391.15 20.52)">Get original <tspan x="0" y="12">protein sequence </tspan><tspan x="0" y="24">from read</tspan></text><text class="cls-1" transform="translate(464.07 21.52)">Query NCBI <tspan x="0" y="12">RefSeq NR </tspan><tspan x="0" y="24">protein sequences</tspan></text></svg>