<svg id="Layer_1" data-name="Layer 1" xmlns="http://www.w3.org/2000/svg" viewBox="0 0 540.15 103.66"><defs><style>.cls-1,.cls-2{font-size:10px;}.cls-1,.cls-18,.cls-4{fill:gray;}.cls-1,.cls-2,.cls-4,.cls-6{font-family:ArialMT, Arial;}.cls-17,.cls-2{fill:#231f20;}.cls-10,.cls-11,.cls-12,.cls-15,.cls-16,.cls-3,.cls-7,.cls-8{fill:none;}.cls-3{stroke:#080504;}.cls-11,.cls-12,.cls-3,.cls-7{stroke-linecap:round;}.cls-12,.cls-3,.cls-7{stroke-linejoin:round;}.cls-3,.cls-8{stroke-width:0.25px;}.cls-4{font-size:8px;}.cls-5{font-family:Arial-ItalicMT, Arial;font-style:italic;}.cls-6{font-style:normal;}.cls-12,.cls-7{stroke:#662f90;}.cls-8{stroke:#000;}.cls-10,.cls-11,.cls-15,.cls-8{stroke-miterlimit:10;}.cls-9{letter-spacing:-0.06em;}.cls-10,.cls-11{stroke:#29aae2;}.cls-11{stroke-width:2px;}.cls-12{stroke-width:0.75px;}.cls-13{letter-spacing:0.02em;}.cls-14{fill:#b99ac8;}.cls-15{stroke:#fff;stroke-width:0.5px;}.cls-19{fill:#fff;}</style></defs><title>figure1</title><text class="cls-1" transform="translate(5.36 45.23)">Aligned <tspan x="0" y="12">single-cell </tspan><tspan x="0" y="24">reads</tspan></text><text class="cls-2" transform="translate(72.88 45.24)">RNA-seq <tspan x="0" y="12">reads</tspan></text><line class="cls-3" x1="79.18" y1="31.66" x2="98.51" y2="31.66"/><line class="cls-3" x1="79.18" y1="22.88" x2="98.51" y2="22.88"/><line class="cls-3" x1="79.18" y1="17.03" x2="98.51" y2="17.03"/><line class="cls-3" x1="79.18" y1="14.1" x2="98.51" y2="14.1"/><line class="cls-3" x1="79.18" y1="11.17" x2="98.51" y2="11.17"/><line class="cls-3" x1="79.18" y1="8.25" x2="98.51" y2="8.25"/><line class="cls-3" x1="79.18" y1="5.32" x2="98.51" y2="5.32"/><line class="cls-3" x1="79.18" y1="25.8" x2="98.51" y2="25.8"/><line class="cls-3" x1="79.18" y1="28.73" x2="98.51" y2="28.73"/><line class="cls-3" x1="79.18" y1="19.95" x2="98.51" y2="19.95"/><text class="cls-4" transform="translate(5.19 81.37)">(droplet-based <tspan x="8.01" y="9.6">single-cell </tspan><tspan x="-0.21" y="19.2">RNA-seq only)</tspan></text><text class="cls-2" transform="translate(136.45 45.23)">Predicted <tspan x="0" y="12">amino acid</tspan><tspan x="0" y="24">sequence</tspan></text><text class="cls-2" transform="translate(199.11 45.23)">Random <tspan x="0" y="12">amino acid </tspan><tspan class="cls-5"><tspan x="0" y="24">k</tspan><tspan class="cls-6" x="5" y="24">-mers</tspan></tspan></text><line class="cls-7" x1="146.35" y1="31.66" x2="165.68" y2="31.66"/><line class="cls-7" x1="146.35" y1="22.88" x2="165.68" y2="22.88"/><line class="cls-7" x1="146.35" y1="17.03" x2="165.68" y2="17.03"/><line class="cls-7" x1="146.35" y1="14.1" x2="165.68" y2="14.1"/><line class="cls-7" x1="146.35" y1="11.17" x2="165.68" y2="11.17"/><line class="cls-7" x1="146.35" y1="8.25" x2="165.68" y2="8.25"/><line class="cls-7" x1="146.35" y1="5.32" x2="165.68" y2="5.32"/><line class="cls-7" x1="146.35" y1="25.8" x2="165.68" y2="25.8"/><line class="cls-7" x1="146.35" y1="28.73" x2="165.68" y2="28.73"/><line class="cls-7" x1="146.35" y1="19.95" x2="165.68" y2="19.95"/><line class="cls-8" x1="213.52" y1="31.66" x2="232.85" y2="31.66"/><line class="cls-8" x1="213.52" y1="22.88" x2="232.85" y2="22.88"/><line class="cls-8" x1="213.52" y1="17.03" x2="232.85" y2="17.03"/><line class="cls-8" x1="213.52" y1="14.1" x2="232.85" y2="14.1"/><line class="cls-8" x1="213.52" y1="11.17" x2="232.85" y2="11.17"/><line class="cls-8" x1="213.52" y1="8.25" x2="232.85" y2="8.25"/><line class="cls-8" x1="213.52" y1="5.32" x2="232.85" y2="5.32"/><line class="cls-8" x1="213.52" y1="25.8" x2="232.85" y2="25.8"/><line class="cls-8" x1="213.52" y1="28.73" x2="232.85" y2="28.73"/><line class="cls-8" x1="213.52" y1="19.95" x2="232.85" y2="19.95"/><line class="cls-7" x1="216.52" y1="31.66" x2="222.52" y2="31.66"/><line class="cls-7" x1="213.52" y1="22.88" x2="219.52" y2="22.88"/><line class="cls-7" x1="223.52" y1="17.03" x2="229.52" y2="17.03"/><line class="cls-7" x1="216.52" y1="14.1" x2="222.52" y2="14.1"/><line class="cls-7" x1="219.52" y1="11.17" x2="225.52" y2="11.17"/><line class="cls-7" x1="215.52" y1="8.25" x2="221.52" y2="8.25"/><line class="cls-7" x1="225.52" y1="5.32" x2="231.52" y2="5.32"/><line class="cls-7" x1="219.52" y1="25.8" x2="225.52" y2="25.8"/><line class="cls-7" x1="224.52" y1="28.73" x2="230.52" y2="28.73"/><line class="cls-7" x1="226.52" y1="19.95" x2="232.52" y2="19.95"/><text class="cls-2" transform="translate(270.43 45.23)">Cluster on <tspan class="cls-5"><tspan x="0" y="12">k</tspan><tspan class="cls-6" x="5" y="12">-mer </tspan></tspan><tspan x="0" y="24">similarit</tspan><tspan class="cls-9" x="33.89" y="24">y</tspan></text><circle cx="282.09" cy="10.35" r="0.88"/><circle cx="285.9" cy="11.22" r="0.88"/><circle cx="285.9" cy="8.59" r="0.88"/><circle cx="284" cy="12.98" r="0.88"/><circle cx="281.36" cy="12.11" r="0.88"/><circle cx="284" cy="10.35" r="0.88"/><circle cx="282.97" cy="7.71" r="0.88"/><circle cx="280.48" cy="9.47" r="0.88"/><circle cx="298.2" cy="10.24" r="0.88"/><circle cx="294.89" cy="12.32" r="0.88"/><circle cx="296.75" cy="14.18" r="0.88"/><circle cx="294.99" cy="9.73" r="0.88"/><circle cx="297.47" cy="8.48" r="0.88"/><circle cx="296.85" cy="11.59" r="0.88"/><circle cx="298.45" cy="12.73" r="0.88"/><circle cx="299.96" cy="9.73" r="0.88"/><circle cx="289.92" cy="18.23" r="0.88"/><circle cx="286.11" cy="17.35" r="0.88"/><circle cx="286.11" cy="19.98" r="0.88"/><circle cx="288.02" cy="15.59" r="0.88"/><circle cx="290.65" cy="16.46" r="0.88"/><circle cx="288.02" cy="18.23" r="0.88"/><circle cx="289.05" cy="20.86" r="0.88"/><circle cx="291.53" cy="19.1" r="0.88"/><circle cx="292.67" cy="17.35" r="0.88"/><circle cx="282.14" cy="24.44" r="0.88"/><circle cx="278.82" cy="26.51" r="0.88"/><circle cx="280.69" cy="28.38" r="0.88"/><circle cx="278.93" cy="23.92" r="0.88"/><circle cx="280.79" cy="25.79" r="0.88"/><circle cx="283.38" cy="26.92" r="0.88"/><circle cx="283.9" cy="23.92" r="0.88"/><circle cx="290.8" cy="28.79" r="0.88"/><circle cx="292.67" cy="30.65" r="0.88"/><circle cx="290.91" cy="26.2" r="0.88"/><circle cx="293.39" cy="24.95" r="0.88"/><circle cx="292.77" cy="28.06" r="0.88"/><circle cx="295.36" cy="29.2" r="0.88"/><circle cx="295.88" cy="26.2" r="0.88"/><circle class="cls-10" cx="296.89" cy="11.31" r="5.87"/><text class="cls-2" transform="translate(335.29 45.23)">k-mers <tspan x="0" y="12">enriched </tspan><tspan x="0" y="24">in clusters</tspan></text><line class="cls-11" x1="350.58" y1="31.67" x2="356.58" y2="31.67"/><line class="cls-11" x1="347.58" y1="22.89" x2="353.58" y2="22.89"/><line class="cls-11" x1="359.58" y1="5.34" x2="365.58" y2="5.34"/><line class="cls-11" x1="360.58" y1="19.97" x2="366.58" y2="19.97"/><line class="cls-12" x1="415.02" y1="31.66" x2="434.36" y2="31.66"/><line class="cls-12" x1="415.02" y1="22.88" x2="434.36" y2="22.88"/><line class="cls-12" x1="415.02" y1="17.03" x2="434.36" y2="17.03"/><line class="cls-12" x1="415.02" y1="14.1" x2="434.36" y2="14.1"/><line class="cls-12" x1="415.02" y1="11.17" x2="434.36" y2="11.17"/><line class="cls-12" x1="415.02" y1="8.25" x2="434.36" y2="8.25"/><line class="cls-12" x1="415.02" y1="5.32" x2="434.36" y2="5.32"/><line class="cls-12" x1="415.02" y1="25.8" x2="434.36" y2="25.8"/><line class="cls-12" x1="415.02" y1="28.73" x2="434.36" y2="28.73"/><line class="cls-12" x1="415.02" y1="19.95" x2="434.36" y2="19.95"/><line class="cls-11" x1="418.02" y1="31.66" x2="424.02" y2="31.66"/><line class="cls-11" x1="415.02" y1="22.88" x2="421.02" y2="22.88"/><line class="cls-11" x1="427.02" y1="5.32" x2="433.02" y2="5.32"/><line class="cls-11" x1="428.02" y1="19.95" x2="434.02" y2="19.95"/><text class="cls-2" transform="translate(400.25 45.23)">Get amino <tspan x="0" y="12">acid</tspan><tspan class="cls-13" x="18.34" y="12"> </tspan><tspan x="21.32" y="12">sequence </tspan><tspan x="0" y="24">from reads </tspan><tspan x="0" y="36">with enriched </tspan><tspan x="0" y="48">k-mers</tspan></text><text class="cls-2" transform="translate(477.45 45.23)">Query NCBI <tspan x="0" y="12">RefSeq NR </tspan><tspan x="0" y="24">protein </tspan><tspan x="0" y="36">sequences</tspan></text><rect class="cls-14" x="482.28" y="8" width="19.16" height="20.97"/><ellipse class="cls-14" cx="491.86" cy="8" rx="9.58" ry="1.71"/><ellipse class="cls-14" cx="491.86" cy="28.98" rx="9.58" ry="1.71"/><ellipse class="cls-15" cx="491.86" cy="8" rx="9.58" ry="1.71"/><rect class="cls-16" x="117.43" y="16.35" width="10" height="4.28"/><polygon class="cls-17" points="117.43 17.79 122.98 17.79 122.36 16.35 127.43 18.49 122.36 20.63 122.98 19.18 117.43 19.18 117.43 17.79"/><rect class="cls-16" x="50.26" y="16.35" width="10" height="4.28"/><polygon class="cls-18" points="50.26 17.79 55.81 17.79 55.2 16.35 60.26 18.49 55.2 20.63 55.81 19.18 50.26 19.18 50.26 17.79"/><rect class="cls-16" x="184.6" y="16.35" width="10" height="4.28"/><polygon class="cls-17" points="184.6 17.79 190.15 17.79 189.53 16.35 194.6 18.49 189.53 20.63 190.15 19.18 184.6 19.18 184.6 17.79"/><rect class="cls-16" x="251.77" y="16.35" width="10" height="4.28"/><polygon class="cls-17" points="251.77 17.79 257.31 17.79 256.7 16.35 261.77 18.49 256.7 20.63 257.31 19.18 251.77 19.18 251.77 17.79"/><rect class="cls-16" x="318.94" y="16.35" width="10" height="4.28"/><polygon class="cls-17" points="318.94 17.79 324.48 17.79 323.87 16.35 328.94 18.49 323.87 20.63 324.48 19.18 318.94 19.18 318.94 17.79"/><rect class="cls-16" x="386.11" y="16.35" width="10" height="4.28"/><polygon class="cls-17" points="386.11 17.79 391.65 17.79 391.04 16.35 396.11 18.49 391.04 20.63 391.65 19.18 386.11 19.18 386.11 17.79"/><rect class="cls-16" x="453.27" y="16.35" width="10" height="4.28"/><polygon class="cls-17" points="453.27 17.79 458.82 17.79 458.21 16.35 463.27 18.49 458.21 20.63 458.82 19.18 453.27 19.18 453.27 17.79"/><rect class="cls-18" x="11.03" y="5.32" width="21.3" height="26.33" rx="4"/><path class="cls-19" d="M12.38,19.57H13.6v1.31H12.38Z"/><path class="cls-19" d="M20,18.64a3.6,3.6,0,0,1-.11.91,2.36,2.36,0,0,1-.32.72,1.43,1.43,0,0,1-.58.48,2.06,2.06,0,0,1-.86.17,1.77,1.77,0,0,1-1.24-.45c0,.1,0,.26-.06.47l-.8-.09a7.93,7.93,0,0,0,.09-1.15V17.46c0-1,0-1.76,0-2.23a11.75,11.75,0,0,0-.07-1.2l.78,0a11.69,11.69,0,0,1,.07,1.27v1l.24-.18.27-.11a1.42,1.42,0,0,1,.42-.06C19.31,15.9,20,16.82,20,18.64Zm-.77-.09c0-1.26-.45-1.89-1.34-1.89l-.17,0-.14,0a.37.37,0,0,0-.14.07l-.12.07a.64.64,0,0,0-.13.1l-.1.09-.11.11-.09.09v2.14a2.09,2.09,0,0,0,.52.61,1.27,1.27,0,0,0,.72.17.91.91,0,0,0,.85-.42A2.28,2.28,0,0,0,19.27,18.55Z"/><path class="cls-19" d="M25.09,19.33a2.09,2.09,0,0,0,.06.71l.09.09.16.12.14.1-.41.58-.15-.1-.16-.13-.13-.13a.67.67,0,0,1-.12-.2,1.26,1.26,0,0,1-.07-.25,3.82,3.82,0,0,1-.32.29l-.37.24a2.16,2.16,0,0,1-.52.2,3.06,3.06,0,0,1-.63.06,1.4,1.4,0,0,1-1.06-.44,1.45,1.45,0,0,1-.43-1.06,1.75,1.75,0,0,1,.11-.58,1.52,1.52,0,0,1,.32-.52,1.89,1.89,0,0,1,.7-.46,2.39,2.39,0,0,1,.84-.13,2.23,2.23,0,0,1,1.18.25,1.66,1.66,0,0,0-.27-1,1.11,1.11,0,0,0-.89-.33,1.63,1.63,0,0,0-.81.17,2,2,0,0,0-.57.68l-.63-.4a2.1,2.1,0,0,1,.82-.91,2.42,2.42,0,0,1,1.18-.28,2,2,0,0,1,1.41.52,1.79,1.79,0,0,1,.53,1.34Zm-3.16,0a.89.89,0,0,0,.19.59.7.7,0,0,0,.54.21,2,2,0,0,0,.55-.08,2,2,0,0,0,.44-.2,2,2,0,0,0,.33-.27,1.4,1.4,0,0,0,.22-.24l.12-.18v-.46a2.13,2.13,0,0,0-1.14-.32,1.54,1.54,0,0,0-.89.27A.8.8,0,0,0,21.93,19.37Z"/><path class="cls-19" d="M29.7,15.87a.6.6,0,0,1,.42.15.82.82,0,0,1,.26.39,2.16,2.16,0,0,1,.12.45,3,3,0,0,1,0,.42v2.55a.37.37,0,0,0,.14.3,1,1,0,0,0,.31.21l-.3.65a1.57,1.57,0,0,1-.28-.1,1.15,1.15,0,0,1-.26-.19.71.71,0,0,1-.21-.31,1,1,0,0,1-.08-.44h0V17.11c0-.33-.11-.49-.32-.49s-.52.3-.79.89v3.37h-.69V17a.66.66,0,0,0,0-.15.17.17,0,0,0-.06-.12.21.21,0,0,0-.16-.06.64.64,0,0,0-.43.22,1.94,1.94,0,0,0-.44.67v3.37h-.69l0-4A3,3,0,0,0,26.1,16l.73-.2a1.77,1.77,0,0,1,.1.38c0,.18,0,.33.05.45a1.72,1.72,0,0,1,.46-.51.94.94,0,0,1,.55-.22.71.71,0,0,1,.54.23.72.72,0,0,1,.21.5A1.14,1.14,0,0,1,29.7,15.87Z"/></svg>