<svg id="Layer_1" data-name="Layer 1" xmlns="http://www.w3.org/2000/svg" viewBox="0 0 425.8 555.9"><defs><style>.cls-1{fill:#edebea;}.cls-12,.cls-2,.cls-4{font-size:10px;}.cls-2,.cls-4{fill:#080504;}.cls-12,.cls-2,.cls-20{font-family:ArialMT, Arial;}.cls-3{letter-spacing:0.28em;}.cls-4{font-family:Monaco;}.cls-5{letter-spacing:0.6em;}.cls-6{letter-spacing:0.28em;}.cls-7{letter-spacing:0.28em;}.cls-8{fill:#f2f2f3;}.cls-10,.cls-17,.cls-22,.cls-23,.cls-24,.cls-28,.cls-8{stroke:#080504;}.cls-10,.cls-16,.cls-17,.cls-21,.cls-22,.cls-23,.cls-24,.cls-26,.cls-28,.cls-29,.cls-8{stroke-linecap:round;stroke-linejoin:round;}.cls-29,.cls-8{stroke-width:0.75px;}.cls-9{fill:#d8d6d5;}.cls-10,.cls-16,.cls-17,.cls-18,.cls-21,.cls-22,.cls-23,.cls-24,.cls-26,.cls-28,.cls-29{fill:none;}.cls-10{stroke-width:0.18px;}.cls-11{font-size:12px;font-family:Arial-BoldMT, Arial;font-weight:700;letter-spacing:-0.04em;}.cls-11,.cls-12,.cls-20,.cls-25{fill:#231f20;}.cls-13{letter-spacing:-0.02em;}.cls-14,.cls-15{fill:#009247;font-family:FantasqueSansMonoNerdFontComplete-Regular, FantasqueSansMono Nerd Font;}.cls-15{letter-spacing:-0.02em;}.cls-16{stroke:#662f90;}.cls-17,.cls-21{stroke-width:0.5px;}.cls-19{fill:#662f90;}.cls-20{font-size:8px;}.cls-21{stroke:gray;}.cls-22,.cls-23,.cls-24,.cls-28{stroke-width:0.25px;}.cls-23{stroke-dasharray:1.02 1.02;}.cls-24{stroke-dasharray:0.58 0.58;}.cls-26,.cls-29{stroke:#f79420;}.cls-27{fill:#f79421;}.cls-28{stroke-dasharray:0.68 0.68;}</style></defs><title>supplemental_figure1</title><rect class="cls-1" x="212.75" y="433.68" width="110.67" height="19.33"/><rect class="cls-1" x="213.25" y="474.18" width="110.67" height="19.33"/><rect class="cls-1" x="212.25" y="513.18" width="135.51" height="19.33"/><text class="cls-2" transform="translate(2.01 169.44)">RNA-se<tspan class="cls-3" x="35" y="0">q</tspan><tspan x="43.35" y="0">reads</tspan></text><text class="cls-2" transform="translate(141.83 71.93)">Referenc<tspan class="cls-3" x="40.58" y="0">e</tspan><tspan x="48.92" y="0">proteome</tspan></text><text class="cls-4" transform="translate(98.99 445.33)">sourmas<tspan class="cls-5" x="42.01" y="0">h</tspan><tspan x="54.01" y="0">sketch</tspan></text><text class="cls-4" transform="translate(97.99 488.83)">sourmas<tspan class="cls-5" x="42.01" y="0">h</tspan><tspan x="54.01" y="0">compare</tspan></text><text class="cls-4" transform="translate(95.99 527.33)">sourmas<tspan class="cls-5" x="42.01" y="0">h</tspan><tspan x="54.01" y="0">knn</tspan></text><text class="cls-2" transform="translate(68.63 441.78)">(b)</text><text class="cls-2" transform="translate(71.15 488.22)">(c)</text><text class="cls-2" transform="translate(65.39 531.42)">(d)</text><text class="cls-2" transform="translate(217.43 446)">MinHas<tspan class="cls-3" x="33.9" y="0">h</tspan><tspan x="42.24" y="0">protei</tspan><tspan class="cls-6" x="67.25" y="0">n</tspan><tspan x="75.59" y="0">k-mers</tspan></text><text class="cls-2" transform="translate(213.93 486.5)">Comput<tspan class="cls-3" x="35.01" y="0">e</tspan><tspan x="43.36" y="0">cell-cel</tspan><tspan class="cls-6" x="74.47" y="0">l</tspan><tspan x="79.48" y="0">similarity</tspan></text><text class="cls-2" transform="translate(217.43 528.5)">Buil<tspan class="cls-3" x="16.67" y="0">d</tspan><tspan x="25.02" y="0">neares</tspan><tspan class="cls-7" x="55.59" y="0">t</tspan><tspan x="61.14" y="0">neighbo</tspan><tspan class="cls-6" x="96.73" y="0">r</tspan><tspan x="102.84" y="0">graph</tspan></text><rect class="cls-1" x="209.36" y="177.57" width="136.95" height="27.6"/><text class="cls-2" transform="translate(217.27 188.04)">Intersec<tspan class="cls-7" x="35.57" y="0">t</tspan><tspan x="41.12" y="0">translate</tspan><tspan class="cls-3" x="79.47" y="0">d</tspan><tspan x="87.82" y="0">k-mers </tspan><tspan x="0" y="12">wit</tspan><tspan class="cls-3" x="12.22" y="12">h</tspan><tspan x="20.56" y="12">referenc</tspan><tspan class="cls-6" x="57.25" y="12">e</tspan><tspan x="65.59" y="12">proteome</tspan></text><rect class="cls-8" x="265.96" y="52.96" width="143.79" height="91.69"/><rect class="cls-9" x="296.2" y="78.88" width="108.51" height="23.29"/><rect class="cls-10" x="296.2" y="78.88" width="108.51" height="23.29"/><rect class="cls-9" x="294.04" y="110.2" width="63.15" height="19.33"/><rect class="cls-10" x="294.04" y="110.2" width="63.15" height="19.33"/><text class="cls-2" transform="translate(280.98 89.18)">(1)</text><text class="cls-2" transform="translate(299.6 87.4)">Re-encod<tspan class="cls-3" x="43.36" y="0">e</tspan><tspan x="51.7" y="0">t</tspan><tspan class="cls-6" x="54.48" y="0">o</tspan><tspan x="62.82" y="0">reduced</tspan></text><text class="cls-2" transform="translate(299.6 97.72)">amin<tspan class="cls-3" x="21.67" y="0">o</tspan><tspan x="30.02" y="0">aci</tspan><tspan class="cls-6" x="42.8" y="0">d</tspan><tspan x="51.14" y="0">alphabet</tspan></text><text class="cls-2" transform="translate(298.52 124.48)">Bloo<tspan class="cls-3" x="20.01" y="0">m</tspan><tspan x="31.12" y="0">ﬁlter</tspan></text><text class="cls-2" transform="translate(280.41 121.78)">(2)</text><text class="cls-2" transform="translate(272.69 64.69)">Creat<tspan class="cls-3" x="24.45" y="0">e</tspan><tspan x="32.79" y="0">referenc</tspan><tspan class="cls-6" x="69.48" y="0">e</tspan><tspan x="77.82" y="0">proteome</tspan></text><text class="cls-2" transform="translate(272.69 75.02)">bloo<tspan class="cls-3" x="18.91" y="0">m</tspan><tspan x="30.02" y="0">ﬁlter</tspan></text><text class="cls-2" transform="translate(243.09 284.88)">Putativ<tspan class="cls-3" x="30.57" y="0">e</tspan><tspan x="38.91" y="0">amino </tspan><tspan x="0" y="12">acid sequences</tspan></text><text class="cls-11" transform="translate(12.22 19.66)">A</text><text class="cls-12" transform="translate(40.28 19.66)">1. Extract cell barcodes with su<tspan class="cls-13" x="137.84" y="0">f</tspan><tspan x="140.43" y="0">ficient nUMI from single-cell bam via </tspan><tspan class="cls-14" x="303.82" y="0">bam2fast</tspan><tspan class="cls-15" x="345.22" y="0">a</tspan></text><text class="cls-12" transform="translate(40.28 44.97)">2. Predict amino acid sequence from RNA-seq reads via <tspan class="cls-14" x="251.78" y="0">khtools extract_coding</tspan></text><line class="cls-16" x1="77.53" y1="146.64" x2="96.86" y2="146.64"/><line class="cls-17" x1="79.53" y1="140.79" x2="98.86" y2="140.79"/><line class="cls-16" x1="80.53" y1="137.86" x2="99.86" y2="137.86"/><line class="cls-16" x1="81.53" y1="134.93" x2="100.86" y2="134.93"/><line class="cls-16" x1="82.53" y1="132.01" x2="101.86" y2="132.01"/><line class="cls-16" x1="76.53" y1="149.56" x2="95.86" y2="149.56"/><line class="cls-16" x1="78.53" y1="143.71" x2="97.86" y2="143.71"/><rect class="cls-18" x="91.13" y="130.36" width="2.13" height="3.29"/><polygon class="cls-19" points="91.62 133.65 91.13 133.16 92.28 132.01 91.13 130.85 91.62 130.36 93.26 132.01 91.62 133.65"/><rect class="cls-18" x="90.13" y="133.33" width="2.13" height="3.29"/><polygon class="cls-19" points="90.62 136.62 90.13 136.13 91.28 134.98 90.13 133.82 90.62 133.33 92.26 134.98 90.62 136.62"/><rect class="cls-18" x="89.13" y="136.22" width="2.13" height="3.29"/><polygon class="cls-19" points="89.62 139.5 89.13 139.01 90.28 137.86 89.13 136.71 89.62 136.22 91.26 137.86 89.62 139.5"/><rect class="cls-18" x="85.13" y="147.92" width="2.13" height="3.29"/><polygon class="cls-19" points="86.77 147.92 87.26 148.41 86.11 149.56 87.26 150.72 86.77 151.21 85.13 149.56 86.77 147.92"/><rect class="cls-18" x="86.13" y="144.95" width="2.13" height="3.29"/><polygon class="cls-19" points="87.77 144.95 88.26 145.44 87.11 146.59 88.26 147.75 87.77 148.24 86.13 146.59 87.77 144.95"/><rect class="cls-18" x="87.13" y="142.07" width="2.13" height="3.29"/><polygon class="cls-19" points="88.77 142.07 89.26 142.56 88.11 143.71 89.26 144.87 88.77 145.36 87.13 143.71 88.77 142.07"/><text class="cls-20" transform="translate(36.39 100.48)">6-frame <tspan x="0" y="9.6">translation </tspan><tspan x="0" y="19.2">on each read</tspan></text><line class="cls-21" x1="24.33" y1="155.39" x2="43.66" y2="155.39"/><line class="cls-21" x1="24.33" y1="146.62" x2="43.66" y2="146.62"/><line class="cls-17" x1="24.33" y1="140.76" x2="43.66" y2="140.76"/><line class="cls-21" x1="24.33" y1="137.84" x2="43.66" y2="137.84"/><line class="cls-21" x1="24.33" y1="134.91" x2="43.66" y2="134.91"/><line class="cls-21" x1="24.33" y1="131.99" x2="43.66" y2="131.99"/><line class="cls-21" x1="24.33" y1="129.06" x2="43.66" y2="129.06"/><line class="cls-21" x1="24.33" y1="149.54" x2="43.66" y2="149.54"/><line class="cls-21" x1="24.33" y1="152.47" x2="43.66" y2="152.47"/><line class="cls-21" x1="24.33" y1="143.69" x2="43.66" y2="143.69"/><line class="cls-21" x1="24.19" y1="126.13" x2="43.52" y2="126.13"/><polyline class="cls-22" points="45.16 141.64 45.16 142.14 44.66 142.14"/><line class="cls-23" x1="43.64" y1="142.14" x2="23.83" y2="142.14"/><polyline class="cls-22" points="23.33 142.14 22.83 142.14 22.83 141.64"/><line class="cls-24" x1="22.83" y1="141.05" x2="22.83" y2="140.18"/><polyline class="cls-22" points="22.83 139.89 22.83 139.39 23.33 139.39"/><line class="cls-23" x1="24.34" y1="139.39" x2="44.15" y2="139.39"/><polyline class="cls-22" points="44.66 139.39 45.16 139.39 45.16 139.89"/><line class="cls-24" x1="45.16" y1="140.47" x2="45.16" y2="141.35"/><text class="cls-20" transform="translate(92.71 100.47)">Re-encode to <tspan x="0" y="9.6">reduced </tspan><tspan x="0" y="19.2">alphabet</tspan></text><line class="cls-22" x1="50.32" y1="140.76" x2="70.32" y2="140.76"/><rect class="cls-18" x="68.41" y="139.52" width="2.95" height="2.49"/><polygon class="cls-25" points="68.41 142.01 68.94 140.76 68.41 139.52 71.37 140.76 68.41 142.01"/><line class="cls-22" x1="107.03" y1="140.76" x2="127.03" y2="140.76"/><rect class="cls-18" x="125.12" y="139.52" width="2.95" height="2.49"/><polygon class="cls-25" points="125.12 142.01 125.65 140.76 125.12 139.52 128.07 140.76 125.12 142.01"/><line class="cls-16" x1="268.24" y1="270.56" x2="287.57" y2="270.56"/><line class="cls-16" x1="268.24" y1="261.78" x2="287.57" y2="261.78"/><line class="cls-16" x1="268.24" y1="255.93" x2="287.57" y2="255.93"/><line class="cls-16" x1="268.24" y1="253.01" x2="287.57" y2="253.01"/><line class="cls-16" x1="268.24" y1="250.08" x2="287.57" y2="250.08"/><line class="cls-16" x1="268.24" y1="247.15" x2="287.57" y2="247.15"/><line class="cls-16" x1="268.24" y1="244.23" x2="287.57" y2="244.23"/><line class="cls-16" x1="268.24" y1="264.71" x2="287.57" y2="264.71"/><line class="cls-16" x1="268.24" y1="267.64" x2="287.57" y2="267.64"/><line class="cls-16" x1="268.24" y1="258.86" x2="287.57" y2="258.86"/><line class="cls-16" x1="268.1" y1="241.3" x2="287.44" y2="241.3"/><line class="cls-22" x1="211.38" y1="150.8" x2="225.52" y2="164.95"/><rect class="cls-18" x="223.97" y="163.16" width="2.49" height="2.95" transform="translate(-50.45 207.48) rotate(-45)"/><polygon class="cls-25" points="223.29 164.48 224.55 163.97 225.06 162.72 226.26 165.69 223.29 164.48"/><line class="cls-17" x1="136.23" y1="140.79" x2="155.57" y2="140.79"/><line class="cls-26" x1="134.23" y1="146.64" x2="153.57" y2="146.64"/><line class="cls-26" x1="137.23" y1="137.86" x2="156.57" y2="137.86"/><line class="cls-26" x1="138.23" y1="134.93" x2="157.57" y2="134.93"/><line class="cls-26" x1="139.23" y1="132.01" x2="158.57" y2="132.01"/><line class="cls-26" x1="133.23" y1="149.56" x2="152.57" y2="149.56"/><line class="cls-26" x1="135.23" y1="143.71" x2="154.57" y2="143.71"/><rect class="cls-18" x="147.83" y="130.36" width="2.13" height="3.29"/><polygon class="cls-27" points="148.32 133.65 147.83 133.16 148.99 132.01 147.83 130.85 148.32 130.36 149.97 132.01 148.32 133.65"/><rect class="cls-18" x="146.83" y="133.33" width="2.13" height="3.29"/><polygon class="cls-27" points="147.32 136.62 146.83 136.13 147.99 134.98 146.83 133.82 147.32 133.33 148.97 134.98 147.32 136.62"/><rect class="cls-18" x="145.83" y="136.22" width="2.13" height="3.29"/><polygon class="cls-27" points="146.32 139.5 145.83 139.01 146.99 137.86 145.83 136.71 146.32 136.22 147.97 137.86 146.32 139.5"/><rect class="cls-18" x="141.83" y="147.92" width="2.13" height="3.29"/><polygon class="cls-27" points="143.48 147.92 143.97 148.41 142.81 149.56 143.97 150.72 143.48 151.21 141.83 149.56 143.48 147.92"/><rect class="cls-18" x="142.83" y="144.95" width="2.13" height="3.29"/><polygon class="cls-27" points="144.48 144.95 144.97 145.44 143.81 146.59 144.97 147.75 144.48 148.24 142.83 146.59 144.48 144.95"/><rect class="cls-18" x="143.83" y="142.07" width="2.13" height="3.29"/><polygon class="cls-27" points="145.48 142.07 145.97 142.56 144.81 143.71 145.97 144.87 145.48 145.36 143.83 143.71 145.48 142.07"/><polyline class="cls-22" points="158 139.02 158 139.52 157.5 139.52"/><line class="cls-23" x1="156.48" y1="139.52" x2="136.67" y2="139.52"/><polyline class="cls-22" points="136.17 139.52 135.67 139.52 135.67 139.02"/><line class="cls-28" x1="135.67" y1="138.33" x2="135.67" y2="137.31"/><polyline class="cls-22" points="135.67 136.97 135.67 136.47 136.17 136.47"/><line class="cls-23" x1="137.18" y1="136.47" x2="156.99" y2="136.47"/><polyline class="cls-22" points="157.5 136.47 158 136.47 158 136.97"/><line class="cls-28" x1="158" y1="137.65" x2="158" y2="138.68"/><text class="cls-20" transform="translate(149.82 100.48)">Each putative <tspan x="0" y="9.6">translation, </tspan><tspan x="0" y="19.2">k-merize</tspan></text><line class="cls-26" x1="190.03" y1="145.65" x2="209.36" y2="145.65"/><line class="cls-29" x1="190.03" y1="143.28" x2="196.03" y2="143.28"/><line class="cls-29" x1="191.03" y1="141.8" x2="197.03" y2="141.8"/><line class="cls-29" x1="193.03" y1="138.84" x2="199.03" y2="138.84"/><line class="cls-29" x1="194.03" y1="137.36" x2="200.03" y2="137.36"/><line class="cls-29" x1="192.03" y1="140.32" x2="198.03" y2="140.32"/><line class="cls-29" x1="195.03" y1="135.87" x2="201.03" y2="135.87"/><line class="cls-29" x1="198.36" y1="143.28" x2="204.36" y2="143.28"/><line class="cls-29" x1="199.36" y1="141.8" x2="205.36" y2="141.8"/><line class="cls-29" x1="201.36" y1="138.84" x2="207.36" y2="138.84"/><line class="cls-29" x1="202.36" y1="137.36" x2="208.36" y2="137.36"/><line class="cls-29" x1="200.36" y1="140.32" x2="206.36" y2="140.32"/><line class="cls-29" x1="203.36" y1="135.87" x2="209.36" y2="135.87"/><line class="cls-22" x1="163.73" y1="140.76" x2="183.73" y2="140.76"/><rect class="cls-18" x="181.82" y="139.52" width="2.95" height="2.49"/><polygon class="cls-25" points="181.82 142.01 182.35 140.76 181.82 139.52 184.78 140.76 181.82 142.01"/><line class="cls-22" x1="318.95" y1="150.8" x2="304.8" y2="164.95"/><rect class="cls-18" x="303.63" y="163.39" width="2.95" height="2.49" transform="translate(-27.05 263.97) rotate(-45)"/><polygon class="cls-25" points="305.27 162.72 305.78 163.97 307.03 164.48 304.06 165.69 305.27 162.72"/><line class="cls-22" x1="238.64" y1="66.97" x2="258.64" y2="66.97"/><rect class="cls-18" x="256.73" y="65.72" width="2.95" height="2.49"/><polygon class="cls-25" points="256.73 68.22 257.26 66.97 256.73 65.72 259.68 66.97 256.73 68.22"/><line class="cls-22" x1="277.84" y1="213.13" x2="277.84" y2="233.13"/><rect class="cls-18" x="276.59" y="231.22" width="2.49" height="2.95"/><polygon class="cls-25" points="276.59 231.22 277.84 231.75 279.08 231.22 277.84 234.17 276.59 231.22"/><text class="cls-12" transform="translate(24.33 316.78)">3. Randomly subsample amino acid k-mers via MinHash algorithm in <tspan class="cls-14" x="306.79" y="0">sourmash sketch</tspan></text><text class="cls-12" transform="translate(24.33 335.7)"><tspan xml:space="preserve">4.  acid k-mers via MinHash algorithm in </tspan><tspan class="cls-14" x="180.62" y="0">sourmash sketch</tspan></text></svg>