<svg id="Layer_1" data-name="Layer 1" xmlns="http://www.w3.org/2000/svg" viewBox="0 0 425.8 555.9"><defs><style>.cls-1,.cls-4,.cls-6{fill:none;stroke:#080504;stroke-linecap:round;stroke-linejoin:round;}.cls-1{stroke-width:0.75px;}.cls-2{fill:#edebea;}.cls-3{fill:#d8d6d5;}.cls-4{stroke-width:0.18px;}.cls-5{fill:#fff;}.cls-10,.cls-7{font-size:10px;fill:#080504;}.cls-7{font-family:ArialMT, Arial;}.cls-8{letter-spacing:0.28em;}.cls-9{letter-spacing:0.28em;}.cls-10{font-family:Monaco;}.cls-11{letter-spacing:0.6em;}.cls-12{letter-spacing:0.28em;}</style></defs><title>supplemental_figure1</title><line class="cls-1" x1="217.85" y1="200.86" x2="217.85" y2="233.98"/><rect class="cls-2" x="153.61" y="43.26" width="143.79" height="91.69"/><rect class="cls-1" x="153.61" y="43.26" width="143.79" height="91.69"/><rect class="cls-3" x="183.85" y="69.18" width="108.51" height="23.29"/><rect class="cls-4" x="183.85" y="69.18" width="108.51" height="23.29"/><rect class="cls-3" x="181.69" y="100.5" width="63.15" height="19.33"/><rect class="cls-4" x="181.69" y="100.5" width="63.15" height="19.33"/><rect class="cls-2" x="160.47" y="261.1" width="110.67" height="19.33"/><rect class="cls-2" x="152.91" y="167.86" width="136.95" height="26.17"/><rect class="cls-2" x="160.97" y="301.6" width="110.67" height="19.33"/><rect class="cls-2" x="159.97" y="340.6" width="135.51" height="19.33"/><rect class="cls-5" x="146.03" y="207.1" width="154.59" height="10.33"/><line class="cls-6" x1="40.16" y1="152.06" x2="59.49" y2="152.06"/><line class="cls-6" x1="40.16" y1="143.29" x2="59.49" y2="143.29"/><line class="cls-6" x1="40.16" y1="137.43" x2="59.49" y2="137.43"/><line class="cls-6" x1="40.16" y1="134.51" x2="59.49" y2="134.51"/><line class="cls-6" x1="40.16" y1="131.58" x2="59.49" y2="131.58"/><line class="cls-6" x1="40.16" y1="128.66" x2="59.49" y2="128.66"/><line class="cls-6" x1="40.16" y1="125.73" x2="59.49" y2="125.73"/><line class="cls-6" x1="40.16" y1="146.21" x2="59.49" y2="146.21"/><line class="cls-6" x1="40.16" y1="149.14" x2="59.49" y2="149.14"/><line class="cls-6" x1="40.16" y1="140.36" x2="59.49" y2="140.36"/><text class="cls-7" transform="translate(19.49 118.73)">RNA-se<tspan class="cls-8" x="35" y="0">q</tspan><tspan x="43.35" y="0">reads</tspan></text><text class="cls-7" transform="translate(190.89 14.77)">Referenc<tspan class="cls-8" x="40.58" y="0">e</tspan><tspan x="48.92" y="0">proteome</tspan></text><text class="cls-7" transform="translate(190.89 25.1)">(e.g<tspan class="cls-9" x="17.23" y="0">.</tspan><tspan x="22.78" y="0">human)</tspan></text><text class="cls-10" transform="translate(46.71 272.75)">sourmas<tspan class="cls-11" x="42.01" y="0">h</tspan><tspan x="54.01" y="0">sketch</tspan></text><text class="cls-10" transform="translate(45.71 316.25)">sourmas<tspan class="cls-11" x="42.01" y="0">h</tspan><tspan x="54.01" y="0">compare</tspan></text><text class="cls-10" transform="translate(43.71 354.75)">sourmas<tspan class="cls-11" x="42.01" y="0">h</tspan><tspan x="54.01" y="0">knn</tspan></text><text class="cls-10" transform="translate(25.79 30.27)">khtool<tspan class="cls-11" x="36.01" y="0">s</tspan><tspan x="48.01" y="0">extract_coding</tspan></text><text class="cls-7" transform="translate(24.73 46.28)">Predic<tspan class="cls-9" x="28.34" y="0">t</tspan><tspan x="33.89" y="0">protein-coding</tspan></text><text class="cls-7" transform="translate(24.73 56.6)">sequence<tspan class="cls-9" x="43.37" y="0">s</tspan><tspan x="51.14" y="0">from</tspan></text><text class="cls-7" transform="translate(24.73 66.93)">RNA-se<tspan class="cls-8" x="35" y="0">q</tspan><tspan x="43.35" y="0">reads</tspan></text><text class="cls-7" transform="translate(168.63 79.48)">(1)</text><text class="cls-7" transform="translate(11.31 29.44)">(a)</text><text class="cls-7" transform="translate(16.35 269.2)">(b)</text><text class="cls-7" transform="translate(18.87 315.64)">(c)</text><text class="cls-7" transform="translate(13.11 358.84)">(d)</text><text class="cls-7" transform="translate(50.29 224.34)">(2)</text><text class="cls-7" transform="translate(187.25 77.7)">Re-encod<tspan class="cls-8" x="43.36" y="0">e</tspan><tspan x="51.7" y="0">t</tspan><tspan class="cls-12" x="54.48" y="0">o</tspan><tspan x="62.82" y="0">reduced</tspan></text><text class="cls-7" transform="translate(187.25 88.02)">amin<tspan class="cls-8" x="21.67" y="0">o</tspan><tspan x="30.02" y="0">aci</tspan><tspan class="cls-12" x="42.8" y="0">d</tspan><tspan x="51.14" y="0">alphabet</tspan></text><text class="cls-7" transform="translate(186.17 114.78)">Bloo<tspan class="cls-8" x="20.01" y="0">m</tspan><tspan x="31.12" y="0">ﬁlter</tspan></text><text class="cls-7" transform="translate(165.15 273.42)">MinHas<tspan class="cls-8" x="33.9" y="0">h</tspan><tspan x="42.24" y="0">protei</tspan><tspan class="cls-12" x="67.25" y="0">n</tspan><tspan x="75.59" y="0">k-mers</tspan></text><text class="cls-7" transform="translate(161.65 313.92)">Comput<tspan class="cls-8" x="35.01" y="0">e</tspan><tspan x="43.36" y="0">cell-cel</tspan><tspan class="cls-12" x="74.47" y="0">l</tspan><tspan x="79.48" y="0">similarity</tspan></text><text class="cls-7" transform="translate(165.15 355.92)">Buil<tspan class="cls-8" x="16.67" y="0">d</tspan><tspan x="25.02" y="0">neares</tspan><tspan class="cls-9" x="55.59" y="0">t</tspan><tspan x="61.14" y="0">neighbo</tspan><tspan class="cls-12" x="96.73" y="0">r</tspan><tspan x="102.84" y="0">graph</tspan></text><text class="cls-7" transform="translate(168.06 112.09)">(2)</text><text class="cls-7" transform="translate(163.58 180.64)">Intersec<tspan class="cls-9" x="35.57" y="0">t</tspan><tspan x="41.12" y="0">translate</tspan><tspan class="cls-8" x="79.47" y="0">d</tspan><tspan x="87.82" y="0">k-mers</tspan></text><text class="cls-7" transform="translate(163.58 190.96)">wit<tspan class="cls-8" x="12.22" y="0">h</tspan><tspan x="20.56" y="0">referenc</tspan><tspan class="cls-12" x="57.25" y="0">e</tspan><tspan x="65.59" y="0">proteome</tspan></text><text class="cls-7" transform="translate(160.34 55)">Creat<tspan class="cls-8" x="24.45" y="0">e</tspan><tspan x="32.79" y="0">referenc</tspan><tspan class="cls-12" x="69.48" y="0">e</tspan><tspan x="77.82" y="0">proteome</tspan></text><text class="cls-7" transform="translate(160.34 65.32)">bloo<tspan class="cls-8" x="18.91" y="0">m</tspan><tspan x="30.02" y="0">ﬁlter</tspan></text><line class="cls-1" x1="63.77" y1="146.86" x2="153.77" y2="183.22"/><line class="cls-1" x1="222.89" y1="134.98" x2="222.89" y2="168.1"/><text class="cls-7" transform="translate(146.42 214.79)">Putativ<tspan class="cls-8" x="30.57" y="0">e</tspan><tspan x="38.91" y="0">protein-codin</tspan><tspan class="cls-12" x="96.73" y="0">g</tspan><tspan x="105.07" y="0">sequences</tspan></text><rect class="cls-5" x="63.59" y="152.69" width="88.35" height="21.13"/><text class="cls-7" transform="translate(64.66 160.74)">6-fram<tspan class="cls-8" x="28.89" y="0">e</tspan><tspan x="37.23" y="0">translation</tspan></text><text class="cls-7" transform="translate(64.66 171.06)"><tspan class="cls-9">+</tspan><tspan x="8.61" y="0">reduce</tspan><tspan class="cls-8" x="39.19" y="0">d</tspan><tspan x="47.53" y="0">alphabet</tspan></text></svg>