<svg id="Layer_1" data-name="Layer 1" xmlns="http://www.w3.org/2000/svg" xmlns:xlink="http://www.w3.org/1999/xlink" viewBox="0 0 612 792"><defs><style>.cls-1{fill:none;}.cls-2,.cls-3,.cls-8{font-size:12px;}.cls-2{fill:#231f20;font-family:ArialMT, Arial;}.cls-10,.cls-3,.cls-8{isolation:isolate;}.cls-3,.cls-8{fill:#010101;}.cls-3{font-family:Helvetica-Bold, Helvetica;}.cls-11,.cls-3{font-weight:700;}.cls-4{clip-path:url(#clip-path);}.cls-5{clip-path:url(#clip-path-2);}.cls-6{clip-path:url(#clip-path-4);}.cls-7{fill:#f2f2f3;}.cls-7,.cls-9{stroke:#010101;stroke-miterlimit:10;}.cls-8{font-family:Helvetica-Light, Helvetica;font-weight:300;}.cls-9{fill:#e6e7e7;}.cls-11{font-size:8px;fill:#f79420;font-family:Arial-BoldMT, Arial;}</style><clipPath id="clip-path"><polyline class="cls-1" points="135.71 -162.66 90.71 -162.66 90.71 -207.66 135.71 -207.66 135.71 -162.66"/></clipPath><clipPath id="clip-path-2"><polyline class="cls-1" points="-8.55 -371 450.65 -371 450.65 88.2 -8.55 88.2 -8.55 -371"/></clipPath><clipPath id="clip-path-4"><polyline class="cls-1" points="-8.55 88.2 450.65 88.2 450.65 -371 -8.55 -371 -8.55 88.2"/></clipPath></defs><title>supplemental_figure2</title><text class="cls-2" transform="translate(19.35 18.15)">Supplemental Figure 2</text><text class="cls-3" transform="translate(384.15 122.94)">C</text><rect class="cls-7" x="395.29" y="126.36" width="194.3" height="137.2"/><text class="cls-8" transform="translate(445.1 169.19)">Differential k-mer <tspan x="-9.34" y="14.4">expression results in </tspan><tspan x="-7" y="28.8">similar gene lists as </tspan><tspan x="2.32" y="43.2">differential gene </tspan><tspan x="18" y="57.6">expression</tspan></text><rect class="cls-9" x="26.14" y="41.9" width="293.97" height="73.67"/><g class="cls-10"><text class="cls-8" transform="translate(80.45 78.74)">Memory, time, CPU, disk IO usage</text></g><rect class="cls-7" x="32.02" y="131.96" width="169.35" height="137.2"/><text class="cls-8" transform="translate(54.68 153.43)">Mouse:mouse cell type <tspan x="4.33" y="14.4">assignment accuracy </tspan><tspan x="-7.66" y="28.8">across DNA, protein, day</tspan><tspan x="127.71" y="28.8">-</tspan><tspan x="33.67" y="43.2">hoff space</tspan></text><text class="cls-11" transform="translate(426.3 141.36)">predictorthologs on cell type annotations</text><rect class="cls-7" x="10" y="301.73" width="194.3" height="137.2"/><g class="cls-10"><text class="cls-8" transform="translate(53.79 358.95)">Confusion matrix of <tspan x="-6.01" y="14.4">mouse:mouse at best </tspan><tspan x="5.68" y="28.8">k-mer parameters</tspan></text></g><rect class="cls-7" x="210.86" y="301.73" width="194.3" height="137.2"/><g class="cls-10"><text class="cls-8" transform="translate(256.32 358.95)">Confusion matrix of <tspan x="-6.68" y="14.4">human:human at best </tspan><tspan x="4.01" y="28.8">k-mer parameters</tspan></text></g></svg>