<svg id="Layer_1" data-name="Layer 1" xmlns="http://www.w3.org/2000/svg" viewBox="0 0 726.96 175.46"><defs><style>.cls-1,.cls-18,.cls-36{font-size:8px;}.cls-1,.cls-18,.cls-4,.cls-7{fill:#231f20;}.cls-1,.cls-19,.cls-26,.cls-36,.cls-4,.cls-6{font-family:ArialMT, Arial;}.cls-2{letter-spacing:-0.02em;}.cls-3{letter-spacing:-0.06em;}.cls-19,.cls-26,.cls-4{font-size:10px;}.cls-18,.cls-5{font-family:Arial-ItalicMT, Arial;font-style:italic;}.cls-6{font-style:normal;}.cls-13,.cls-8{fill:#e18dbc;}.cls-11,.cls-12,.cls-8{stroke:#e18dbc;}.cls-10,.cls-11,.cls-12,.cls-14,.cls-15,.cls-16,.cls-17,.cls-21,.cls-22,.cls-23,.cls-24,.cls-25,.cls-27,.cls-28,.cls-29,.cls-30,.cls-31,.cls-33,.cls-35,.cls-37,.cls-38,.cls-8,.cls-9{stroke-miterlimit:10;}.cls-13,.cls-33,.cls-8{opacity:0.5;}.cls-16,.cls-19,.cls-21,.cls-34,.cls-35,.cls-9{fill:#4d4d4e;}.cls-10,.cls-14,.cls-15,.cls-16,.cls-17,.cls-27,.cls-33,.cls-37,.cls-38,.cls-9{stroke:#000;}.cls-10,.cls-21,.cls-22,.cls-9{stroke-width:0.25px;}.cls-10,.cls-15,.cls-22,.cls-26{fill:#b3b4b4;}.cls-11,.cls-12,.cls-14,.cls-17,.cls-23,.cls-24,.cls-25,.cls-27,.cls-28,.cls-29,.cls-30,.cls-31,.cls-37{fill:none;}.cls-12,.cls-24,.cls-27,.cls-28,.cls-29,.cls-30,.cls-31{stroke-linecap:round;}.cls-14,.cls-15,.cls-16,.cls-33{stroke-width:0.5px;}.cls-20{letter-spacing:-0.05em;}.cls-21,.cls-22,.cls-23{stroke:#4d4d4e;}.cls-24,.cls-29,.cls-30,.cls-31{stroke:#f6915d;}.cls-25{stroke:#b3b4b4;}.cls-27,.cls-28{stroke-width:0.71px;}.cls-28{stroke:#6ac1a4;}.cls-29{stroke-width:0.98px;}.cls-30,.cls-31{stroke-width:0.98px;}.cls-31{stroke-dasharray:0.69 1.73;}.cls-32{letter-spacing:-0.04em;}.cls-33{fill:#fddb00;}.cls-35{stroke:#fff;stroke-width:0.75px;}.cls-37{stroke-width:2px;}.cls-38{fill:#f2f2f3;}</style></defs><title>kmer-homology-overview</title><text class="cls-1" transform="translate(405.73 28.92)">Di<tspan class="cls-2" x="7.55" y="0">f</tspan><tspan x="9.63" y="0">ferential k-mer expression </tspan><tspan x="0.37" y="9.6">within cluste</tspan><tspan class="cls-3" x="43.94" y="9.6">r</tspan><tspan x="46.17" y="9.6">, across species</tspan></text><text class="cls-4" transform="translate(308.36 24.51)">Cluster on <tspan class="cls-5"><tspan x="-9.43" y="12">k</tspan><tspan class="cls-6" x="-4.43" y="12">-mer similarity</tspan></tspan></text><polygon class="cls-7" points="291.34 54.7 295.26 58.63 295.85 57.17 297.92 62.27 292.83 60.2 294.28 59.61 290.36 55.69 291.34 54.7"/><polygon class="cls-7" points="290.36 108.88 294.28 104.96 292.83 104.37 297.92 102.3 295.85 107.4 295.26 105.94 291.34 109.86 290.36 108.88"/><polygon class="cls-7" points="364.51 90.53 370.05 90.53 369.44 89.09 374.51 91.23 369.44 93.37 370.05 91.92 364.51 91.92 364.51 90.53"/><path class="cls-8" d="M347.58,74.23a15,15,0,1,1-15-15A15,15,0,0,1,347.58,74.23Z"/><path class="cls-9" d="M315.62,51.85a2.51,2.51,0,1,1-2.51-2.51,2.51,2.51,0,0,1,2.51,2.51"/><path class="cls-9" d="M326.5,54.36a2.51,2.51,0,1,1-2.5-2.51,2.51,2.51,0,0,1,2.5,2.51"/><path class="cls-9" d="M326.5,46.84a2.51,2.51,0,1,1-2.5-2.51,2.5,2.5,0,0,1,2.5,2.51"/><path class="cls-9" d="M321.06,59.38a2.51,2.51,0,1,1-2.51-2.51,2.5,2.5,0,0,1,2.51,2.51"/><path class="cls-9" d="M313.54,56.89A2.51,2.51,0,1,1,311,54.38a2.51,2.51,0,0,1,2.51,2.51"/><path class="cls-9" d="M321.06,51.85a2.51,2.51,0,1,1-2.51-2.51,2.51,2.51,0,0,1,2.51,2.51"/><path class="cls-9" d="M318.13,44.33a2.51,2.51,0,1,1-2.51-2.51,2.51,2.51,0,0,1,2.51,2.51"/><path class="cls-9" d="M311,49.34a2.51,2.51,0,1,1-2.51-2.5,2.51,2.51,0,0,1,2.51,2.5"/><path class="cls-9" d="M357.33,53.33a2.51,2.51,0,1,1,3.55,0,2.51,2.51,0,0,1-3.55,0"/><path class="cls-9" d="M347.86,59.25a2.51,2.51,0,1,1,3.55,0,2.5,2.5,0,0,1-3.55,0"/><path class="cls-9" d="M353.18,64.57a2.51,2.51,0,1,1,3.55,0,2.5,2.5,0,0,1-3.55,0"/><path class="cls-10" d="M348.16,51.86a2.51,2.51,0,1,1,3.55,0,2.51,2.51,0,0,1-3.55,0"/><path class="cls-9" d="M355.24,48.3a2.51,2.51,0,1,1,3.55,0,2.51,2.51,0,0,1-3.55,0"/><path class="cls-9" d="M353.48,57.18a2.51,2.51,0,1,1,3.55,0,2.51,2.51,0,0,1-3.55,0"/><path class="cls-10" d="M358,60.43a2.51,2.51,0,1,1,3.55,0,2.51,2.51,0,0,1-3.55,0"/><path class="cls-9" d="M362.35,51.86a2.51,2.51,0,1,1,3.55,0,2.51,2.51,0,0,1-3.55,0"/><path class="cls-10" d="M333,74.35a2.51,2.51,0,1,1,2.51,2.51A2.51,2.51,0,0,1,333,74.35"/><path class="cls-10" d="M322.08,71.84a2.51,2.51,0,1,1,2.51,2.51,2.51,2.51,0,0,1-2.51-2.51"/><path class="cls-10" d="M322.08,79.36a2.51,2.51,0,1,1,2.51,2.51,2.5,2.5,0,0,1-2.51-2.51"/><path class="cls-9" d="M327.52,66.82A2.51,2.51,0,1,1,330,69.33a2.51,2.51,0,0,1-2.51-2.51"/><path class="cls-10" d="M335.05,69.31a2.51,2.51,0,1,1,2.51,2.51,2.51,2.51,0,0,1-2.51-2.51"/><path class="cls-9" d="M327.52,74.35A2.51,2.51,0,1,1,330,76.86a2.51,2.51,0,0,1-2.51-2.51"/><path class="cls-9" d="M330.46,81.87a2.51,2.51,0,1,1,2.5,2.51,2.51,2.51,0,0,1-2.5-2.51"/><path class="cls-9" d="M337.56,76.86a2.51,2.51,0,1,1,2.5,2.5,2.5,2.5,0,0,1-2.5-2.5"/><path class="cls-9" d="M340.79,71.84a2.51,2.51,0,1,1,2.51,2.51,2.51,2.51,0,0,1-2.51-2.51"/><path class="cls-9" d="M311.48,93.86a2.51,2.51,0,1,1,3.55,0,2.51,2.51,0,0,1-3.55,0"/><path class="cls-10" d="M302,99.78a2.51,2.51,0,1,1,3.55,0,2.51,2.51,0,0,1-3.55,0"/><path class="cls-9" d="M307.33,105.1a2.51,2.51,0,1,1,3.55,0,2.5,2.5,0,0,1-3.55,0"/><path class="cls-10" d="M302.31,92.39a2.51,2.51,0,1,1,3.55,0,2.51,2.51,0,0,1-3.55,0"/><path class="cls-9" d="M307.63,97.71a2.51,2.51,0,1,1,3.55,0,2.51,2.51,0,0,1-3.55,0"/><path class="cls-9" d="M315,101a2.5,2.5,0,1,1,3.54,0,2.5,2.5,0,0,1-3.54,0"/><path class="cls-9" d="M316.5,92.39a2.51,2.51,0,1,1,3.55,0,2.51,2.51,0,0,1-3.55,0"/><path class="cls-10" d="M336.21,106.28a2.51,2.51,0,1,1,3.54,0,2.51,2.51,0,0,1-3.54,0"/><path class="cls-10" d="M341.53,111.6a2.51,2.51,0,1,1,3.55,0,2.51,2.51,0,0,1-3.55,0"/><path class="cls-10" d="M336.51,98.88a2.5,2.5,0,1,1,3.54,0,2.5,2.5,0,0,1-3.54,0"/><path class="cls-10" d="M343.59,95.32a2.51,2.51,0,1,1,3.55,0,2.5,2.5,0,0,1-3.55,0"/><path class="cls-10" d="M341.83,104.2a2.51,2.51,0,1,1,3.55,0,2.5,2.5,0,0,1-3.55,0"/><path class="cls-10" d="M349.22,107.45a2.51,2.51,0,1,1,3.55,0,2.51,2.51,0,0,1-3.55,0"/><path class="cls-11" d="M348,74.23a15,15,0,1,1-15-15A15,15,0,0,1,348,74.23Z"/><polygon class="cls-7" points="472.4 72.91 477.94 72.91 477.33 71.47 482.4 73.61 477.33 75.75 477.94 74.3 472.4 74.3 472.4 72.91"/><text class="cls-4" transform="translate(386.41 14.14)">Perform di<tspan class="cls-2" x="46.12" y="0">f</tspan><tspan x="48.72" y="0">ferential k-mer expression and query for functional annotation</tspan></text><line class="cls-12" x1="502.56" y1="65.91" x2="506.61" y2="65.91"/><line class="cls-12" x1="500.54" y1="70.02" x2="504.58" y2="70.02"/><line class="cls-12" x1="507.14" y1="68.88" x2="511.19" y2="68.88"/><line class="cls-12" x1="499.35" y1="72.78" x2="503.39" y2="72.78"/><line class="cls-12" x1="506.74" y1="72.78" x2="510.78" y2="72.78"/><line class="cls-12" x1="506.74" y1="75.6" x2="510.78" y2="75.6"/><line class="cls-12" x1="500.9" y1="77.03" x2="504.94" y2="77.03"/><text class="cls-1" transform="translate(490.58 88.96)">Cluster-<tspan x="-1.34" y="9.6">enriched </tspan><tspan x="-4.38" y="19.2">di</tspan><tspan class="cls-2" x="1.85" y="19.2">f</tspan><tspan x="3.92" y="19.2">ferential </tspan><tspan class="cls-5"><tspan x="1.78" y="28.8">k</tspan><tspan class="cls-6" x="5.78" y="28.8">-mers</tspan></tspan></text><polygon class="cls-7" points="527.11 72.91 532.66 72.91 532.05 71.47 537.11 73.61 532.05 75.75 532.66 74.3 527.11 74.3 527.11 72.91"/><rect class="cls-11" x="401.77" y="43.1" width="34.48" height="84.49" rx="4"/><rect class="cls-13" x="401.77" y="43.1" width="34.48" height="85.13" rx="4"/><line class="cls-14" x1="397.76" y1="43.1" x2="397.76" y2="114.12"/><line class="cls-14" x1="471.76" y1="114.12" x2="397.93" y2="114.12"/><rect class="cls-15" x="420.27" y="58.25" width="12.85" height="55.87"/><rect class="cls-16" x="404.42" y="48.51" width="12.85" height="65.61"/><rect class="cls-16" x="440.22" y="99.92" width="12.85" height="13.97"/><rect class="cls-15" x="456.07" y="94.91" width="12.85" height="19.2"/><line class="cls-17" x1="410.84" y1="44.47" x2="410.84" y2="52.4"/><line class="cls-17" x1="426.69" y1="53.83" x2="426.69" y2="61.76"/><line class="cls-17" x1="446.64" y1="95.96" x2="446.64" y2="103.89"/><line class="cls-17" x1="462.49" y1="90.95" x2="462.49" y2="98.87"/><text class="cls-1" transform="translate(406.28 125.21)">Cluster</text><text class="cls-1" transform="translate(446.64 125.21)">Rest</text><text class="cls-18" transform="translate(395.17 108.86) rotate(-90)">k<tspan class="cls-6" x="4" y="0">-mer abundance</tspan></text><text class="cls-19" transform="translate(16.4 51.3)">Species<tspan class="cls-20" x="35.58" y="0"> </tspan><tspan x="37.81" y="0">A</tspan></text><path class="cls-21" d="M42.06,64.48A2.51,2.51,0,1,1,39.55,62a2.51,2.51,0,0,1,2.51,2.51"/><path class="cls-21" d="M47.5,72A2.51,2.51,0,1,1,45,69.5,2.51,2.51,0,0,1,47.5,72"/><path class="cls-21" d="M40,69.52A2.51,2.51,0,1,1,37.47,67,2.5,2.5,0,0,1,40,69.52"/><path class="cls-21" d="M47.5,64.48A2.51,2.51,0,1,1,45,62a2.51,2.51,0,0,1,2.51,2.51"/><path class="cls-21" d="M44.57,58.07a2.51,2.51,0,1,1-2.51-2.5,2.51,2.51,0,0,1,2.51,2.5"/><path class="cls-21" d="M37.47,62A2.51,2.51,0,1,1,35,59.46,2.51,2.51,0,0,1,37.47,62"/><path class="cls-22" d="M33.76,130a2.51,2.51,0,1,1,3.55,0,2.51,2.51,0,0,1-3.55,0"/><path class="cls-22" d="M39.08,135.33a2.51,2.51,0,1,1,3.55,0,2.51,2.51,0,0,1-3.55,0"/><path class="cls-22" d="M39.38,127.93a2.51,2.51,0,1,1,3.55,0,2.5,2.5,0,0,1-3.55,0"/><path class="cls-22" d="M46.78,131.18a2.51,2.51,0,1,1,3.54,0,2.51,2.51,0,0,1-3.54,0"/><text class="cls-4" transform="translate(8.9 12.9)">Subsample amino acid k-mers from each transcriptome</text><circle class="cls-23" cx="271.58" cy="32.88" r="5.21" transform="translate(177.18 289.64) rotate(-76.72)"/><line class="cls-24" x1="268.77" y1="32.15" x2="270.87" y2="32.15"/><line class="cls-24" x1="272.29" y1="32.92" x2="274.38" y2="32.92"/><line class="cls-24" x1="268.77" y1="33.97" x2="270.87" y2="33.97"/><line class="cls-24" x1="271.88" y1="35.22" x2="273.97" y2="35.22"/><line class="cls-24" x1="270.83" y1="30.55" x2="272.92" y2="30.55"/><circle class="cls-23" cx="266.37" cy="48.52" r="5.21" transform="translate(157.95 296.61) rotate(-76.72)"/><line class="cls-24" x1="265.72" y1="51.3" x2="267.81" y2="51.3"/><line class="cls-24" x1="264.5" y1="45.74" x2="266.59" y2="45.74"/><line class="cls-24" x1="263.63" y1="49.31" x2="265.72" y2="49.31"/><line class="cls-24" x1="267.34" y1="46.9" x2="269.44" y2="46.9"/><line class="cls-24" x1="263.3" y1="47.53" x2="265.39" y2="47.53"/><line class="cls-24" x1="267.34" y1="48.72" x2="269.44" y2="48.72"/><circle class="cls-23" cx="277.67" cy="48.52" r="5.21" transform="translate(166.66 307.61) rotate(-76.72)"/><line class="cls-24" x1="276.27" y1="45.64" x2="278.36" y2="45.64"/><line class="cls-24" x1="275.22" y1="47.77" x2="277.32" y2="47.77"/><line class="cls-24" x1="278.64" y1="47.17" x2="280.74" y2="47.17"/><line class="cls-24" x1="274.61" y1="49.2" x2="276.7" y2="49.2"/><line class="cls-24" x1="278.43" y1="49.2" x2="280.53" y2="49.2"/><line class="cls-24" x1="278.43" y1="50.66" x2="280.53" y2="50.66"/><line class="cls-24" x1="275.41" y1="51.4" x2="277.5" y2="51.4"/><circle class="cls-23" cx="256.83" cy="43.31" r="5.21" transform="translate(155.67 283.31) rotate(-76.72)"/><line class="cls-24" x1="255.89" y1="40.61" x2="257.98" y2="40.61"/><line class="cls-24" x1="253.65" y1="42.11" x2="255.75" y2="42.11"/><line class="cls-24" x1="257.91" y1="42.41" x2="260" y2="42.41"/><line class="cls-24" x1="254" y1="43.96" x2="256.09" y2="43.96"/><line class="cls-24" x1="257.7" y1="44.97" x2="259.79" y2="44.97"/><line class="cls-24" x1="254.84" y1="46" x2="256.94" y2="46"/><circle class="cls-23" cx="262.04" cy="58.98" r="5.21" transform="translate(144.43 300.46) rotate(-76.72)"/><line class="cls-24" x1="262.68" y1="56.2" x2="260.59" y2="56.2"/><line class="cls-24" x1="263.9" y1="61.76" x2="261.81" y2="61.76"/><line class="cls-24" x1="264.78" y1="58.19" x2="262.68" y2="58.19"/><line class="cls-24" x1="261.06" y1="60.59" x2="258.97" y2="60.59"/><line class="cls-24" x1="265.11" y1="59.96" x2="263.01" y2="59.96"/><line class="cls-24" x1="261.06" y1="58.78" x2="258.97" y2="58.78"/><circle class="cls-23" cx="277.67" cy="64.15" r="5.21" transform="translate(151.44 319.66) rotate(-76.72)"/><line class="cls-24" x1="278.32" y1="61.37" x2="276.22" y2="61.37"/><line class="cls-24" x1="279.54" y1="66.93" x2="277.44" y2="66.93"/><line class="cls-24" x1="280.41" y1="63.36" x2="278.32" y2="63.36"/><line class="cls-24" x1="276.7" y1="65.77" x2="274.6" y2="65.77"/><line class="cls-24" x1="280.74" y1="65.14" x2="278.65" y2="65.14"/><line class="cls-24" x1="276.7" y1="63.95" x2="274.6" y2="63.95"/><path class="cls-25" d="M261.72,117.07a5.21,5.21,0,1,1,7.37,0A5.22,5.22,0,0,1,261.72,117.07Z"/><line class="cls-24" x1="262.6" y1="112.66" x2="264.7" y2="112.66"/><line class="cls-24" x1="266.12" y1="113.42" x2="268.21" y2="113.42"/><line class="cls-24" x1="262.6" y1="114.47" x2="264.7" y2="114.47"/><line class="cls-24" x1="265.71" y1="115.73" x2="267.8" y2="115.73"/><line class="cls-24" x1="264.66" y1="111.05" x2="266.75" y2="111.05"/><path class="cls-25" d="M250,121.38a5.21,5.21,0,1,1,7.37,0A5.22,5.22,0,0,1,250,121.38Z"/><line class="cls-24" x1="252.79" y1="115" x2="254.88" y2="115"/><line class="cls-24" x1="250.55" y1="116.5" x2="252.65" y2="116.5"/><line class="cls-24" x1="254.81" y1="116.8" x2="256.9" y2="116.8"/><line class="cls-24" x1="250.9" y1="118.35" x2="252.99" y2="118.35"/><line class="cls-24" x1="254.6" y1="119.36" x2="256.69" y2="119.36"/><line class="cls-24" x1="251.74" y1="120.39" x2="253.84" y2="120.39"/><path class="cls-25" d="M261.1,132.44a5.21,5.21,0,1,1,7.37,0A5.2,5.2,0,0,1,261.1,132.44Z"/><line class="cls-24" x1="265.43" y1="125.97" x2="263.33" y2="125.97"/><line class="cls-24" x1="266.65" y1="131.54" x2="264.55" y2="131.54"/><line class="cls-24" x1="267.52" y1="127.96" x2="265.43" y2="127.96"/><line class="cls-24" x1="263.81" y1="130.37" x2="261.71" y2="130.37"/><line class="cls-24" x1="267.85" y1="129.74" x2="265.76" y2="129.74"/><line class="cls-24" x1="263.81" y1="128.55" x2="261.71" y2="128.55"/><path class="cls-25" d="M277.09,123.82a5.21,5.21,0,1,1,7.37,0A5.2,5.2,0,0,1,277.09,123.82Z"/><line class="cls-24" x1="281.42" y1="117.35" x2="279.32" y2="117.35"/><line class="cls-24" x1="282.63" y1="122.92" x2="280.54" y2="122.92"/><line class="cls-24" x1="283.51" y1="119.34" x2="281.42" y2="119.34"/><line class="cls-24" x1="279.79" y1="121.75" x2="277.7" y2="121.75"/><line class="cls-24" x1="283.84" y1="121.12" x2="281.75" y2="121.12"/><line class="cls-24" x1="279.79" y1="119.93" x2="277.7" y2="119.93"/><text class="cls-26" transform="translate(15.22 116.5)">Species<tspan class="cls-20" x="35.58" y="0"> </tspan><tspan x="37.81" y="0">B</tspan></text><text class="cls-1" transform="translate(210.83 148.29)">Reduced amino acid <tspan x="17.8" y="9.6">alphabet </tspan><tspan class="cls-5" x="50.71" y="9.6">k</tspan><tspan x="54.71" y="9.6">-mers</tspan></text><text class="cls-1" transform="translate(110.77 72.65)">Protein-coding</text><text class="cls-1" transform="translate(173.57 89.96)">Convert to <tspan x="4" y="9.6">reduced </tspan><tspan x="3.11" y="19.2">alphabet</tspan></text><text class="cls-1" transform="translate(215.35 89.96)">Decompose <tspan x="4.68" y="9.6">to k-mers </tspan></text><text class="cls-1" transform="translate(76.27 103.97)">Input <tspan x="0" y="9.6">reads</tspan></text><line class="cls-27" x1="76.27" y1="78.87" x2="90.06" y2="78.87"/><line class="cls-27" x1="77.2" y1="82.23" x2="91" y2="82.23"/><line class="cls-27" x1="77.93" y1="86.12" x2="91.72" y2="86.12"/><line class="cls-27" x1="83.17" y1="90.01" x2="96.96" y2="90.01"/><line class="cls-27" x1="84.82" y1="76.34" x2="98.62" y2="76.34"/><path class="cls-28" d="M125.39,76.19c1.38,0,1.38,1.89,2.76,1.89s1.38-1.89,2.75-1.89,1.38,1.89,2.76,1.89,1.38-1.89,2.76-1.89,1.38,1.89,2.76,1.89"/><path class="cls-28" d="M127.05,83.44c1.38,0,1.38,1.89,2.76,1.89s1.37-1.89,2.75-1.89,1.38,1.89,2.76,1.89,1.38-1.89,2.76-1.89,1.38,1.89,2.76,1.89"/><path class="cls-28" d="M132.29,87.33c1.38,0,1.38,1.89,2.75,1.89s1.38-1.89,2.76-1.89,1.38,1.89,2.76,1.89,1.38-1.89,2.76-1.89,1.38,1.89,2.76,1.89"/><path class="cls-29" d="M180.85,63.47c1.91,0,1.91,2.62,3.82,2.62s1.91-2.62,3.82-2.62,1.91,2.62,3.82,2.62,1.92-2.62,3.83-2.62,1.92,2.62,3.83,2.62"/><path class="cls-29" d="M183.14,73.52c1.92,0,1.92,2.62,3.83,2.62s1.91-2.62,3.82-2.62,1.91,2.62,3.82,2.62,1.92-2.62,3.83-2.62,1.92,2.62,3.83,2.62"/><path class="cls-29" d="M190.41,78.92c1.91,0,1.91,2.62,3.82,2.62s1.91-2.62,3.82-2.62,1.92,2.62,3.83,2.62,1.91-2.62,3.83-2.62,1.91,2.62,3.83,2.62"/><path class="cls-30" d="M222,63.47a1.9,1.9,0,0,1,.35,0"/><path class="cls-31" d="M223.73,64.51c.56.73,1,1.58,2.12,1.58,1.91,0,1.91-2.62,3.82-2.62s1.91,2.62,3.82,2.62,1.92-2.62,3.83-2.62c1.45,0,1.8,1.49,2.71,2.22"/><path class="cls-30" d="M240.8,66.06a2,2,0,0,0,.35,0"/><path class="cls-30" d="M224.32,73.52a1.9,1.9,0,0,1,.35,0"/><path class="cls-31" d="M226,74.56c.56.73,1,1.58,2.11,1.58,1.92,0,1.92-2.62,3.83-2.62s1.91,2.62,3.82,2.62,1.92-2.62,3.83-2.62c1.45,0,1.8,1.49,2.71,2.22"/><path class="cls-30" d="M243.1,76.11a2,2,0,0,0,.35,0"/><path class="cls-30" d="M231.59,78.92a1.79,1.79,0,0,1,.34,0"/><path class="cls-31" d="M233.3,80c.55.73,1,1.58,2.11,1.58,1.91,0,1.91-2.62,3.82-2.62s1.91,2.62,3.83,2.62,1.91-2.62,3.82-2.62c1.45,0,1.8,1.49,2.71,2.22"/><path class="cls-30" d="M250.37,81.51a1.87,1.87,0,0,0,.34,0"/><polygon class="cls-7" points="169.52 73.4 172.41 73.4 172.09 72.65 174.73 73.76 172.09 74.88 172.41 74.12 169.52 74.12 169.52 73.4"/><polygon class="cls-7" points="209.31 73.4 212.2 73.4 211.88 72.65 214.52 73.76 211.88 74.88 212.2 74.12 209.31 74.12 209.31 73.4"/><polygon class="cls-7" points="61.5 58.95 65.42 62.87 66.01 61.42 68.08 66.51 62.98 64.44 64.44 63.85 60.52 59.93 61.5 58.95"/><polygon class="cls-7" points="60.52 93.92 64.44 90 62.98 89.41 68.08 87.34 66.01 92.44 65.42 90.98 61.5 94.9 60.52 93.92"/><polygon class="cls-7" points="241.01 104.4 244.93 108.32 245.52 106.86 247.59 111.96 242.5 109.89 243.95 109.3 240.03 105.38 241.01 104.4"/><polygon class="cls-7" points="239.84 60.04 243.76 56.12 242.3 55.53 247.4 53.46 245.33 58.56 244.74 57.1 240.82 61.02 239.84 60.04"/><text class="cls-1" transform="translate(113.03 108.18)">Noncoding</text><polygon class="cls-7" points="103.91 80.93 105.95 78.89 105.19 78.58 107.85 77.5 106.77 80.16 106.46 79.4 104.42 81.44 103.91 80.93"/><polygon class="cls-7" points="102.85 104.91 104.9 106.96 105.2 106.2 106.28 108.86 103.63 107.78 104.39 107.47 102.34 105.43 102.85 104.91"/><line class="cls-27" x1="99.19" y1="132.21" x2="112.98" y2="132.21"/><text class="cls-1" transform="translate(116.5 135.62)">Nucleotide</text><path class="cls-28" d="M99.19,139.63c1.38,0,1.38,1.89,2.75,1.89s1.38-1.89,2.76-1.89,1.38,1.89,2.76,1.89,1.38-1.89,2.76-1.89,1.38,1.89,2.76,1.89"/><text class="cls-1" transform="translate(116.01 143.92)">Protein</text><line class="cls-27" x1="121.92" y1="120.17" x2="135.71" y2="120.17"/><line class="cls-27" x1="129.54" y1="114.29" x2="143.33" y2="114.29"/><text class="cls-1" transform="translate(11.23 37.38)"><tspan class="cls-32">T</tspan><tspan x="4.59" y="0">ranscriptomes</tspan></text><rect class="cls-33" x="648.59" y="142.59" width="73.36" height="30.17" rx="5"/><text class="cls-1" transform="translate(651.35 150.42)">Putative homologs <tspan x="0" y="9.6">not identifiable by </tspan><tspan x="0" y="19.2">traditional methods</tspan></text><line class="cls-17" x1="661.65" y1="53.44" x2="673.57" y2="53.44"/><path d="M672.67,53.44l-1.09-1.81.06,0,2.94,1.17,3.07.68-3.07.67-2.94,1.17-.06,0Z"/><path class="cls-34" d="M707.31,63.92c0,1-4.29,1.71-9.58,1.71s-9.58-.76-9.58-1.71,4.29-1.7,9.58-1.7,9.58.76,9.58,1.7"/><rect class="cls-34" x="688.15" y="42.95" width="19.16" height="20.98"/><path class="cls-35" d="M707.31,43c0,.94-4.29,1.7-9.58,1.7s-9.58-.76-9.58-1.7,4.29-1.71,9.58-1.71,9.58.77,9.58,1.71"/><text class="cls-36" transform="translate(670.62 88.31)">Query mystery <tspan x="6.89" y="9.6" xml:space="preserve">k-mers  for </tspan><tspan x="8.88" y="19.2">functional </tspan><tspan x="8.43" y="28.8">annotation</tspan></text><line class="cls-17" x1="663.99" y1="81.35" x2="672.42" y2="72.92"/><path d="M671.79,73.56l-2-.5V73l2.91-1.25L675.3,70c-.56.88-1.12,1.77-1.69,2.65l-1.25,2.9-.07,0Z"/><line class="cls-12" x1="547.4" y1="31.46" x2="551.44" y2="31.46"/><line class="cls-12" x1="545.38" y1="35.57" x2="549.42" y2="35.57"/><line class="cls-12" x1="551.98" y1="34.43" x2="556.02" y2="34.43"/><line class="cls-12" x1="544.18" y1="38.34" x2="548.22" y2="38.34"/><line class="cls-12" x1="551.57" y1="38.34" x2="555.62" y2="38.34"/><line class="cls-12" x1="551.57" y1="41.15" x2="555.62" y2="41.15"/><line class="cls-12" x1="545.73" y1="42.58" x2="549.77" y2="42.58"/><text class="cls-36" transform="translate(548.94 86.67)">In reference <tspan x="6.89" y="9.6">genome</tspan></text><line class="cls-37" x1="544.04" y1="135.74" x2="596.52" y2="135.74"/><rect class="cls-38" x="555.18" y="127.38" width="30.2" height="8.36"/><text class="cls-36" transform="translate(546.93 147.63)">In annotated <tspan x="14.46" y="9.6">gene</tspan></text><line class="cls-17" x1="562.74" y1="40.29" x2="568.73" y2="46.28"/><polyline class="cls-17" points="580.95 46.03 568.97 46.03 568.97 58.01"/><path d="M580.05,46,579,47.84l.06,0L582,46.71,585,46,582,45.36,579,44.19l-.06,0Z"/><path d="M569,57.12l1.8-1.1,0,.06L569.65,59c-.23,1-.45,2-.68,3.07-.22-1-.45-2.05-.68-3.07l-1.16-2.94,0-.06Z"/><rect class="cls-33" x="597.83" y="84.51" width="60" height="40" rx="5"/><text class="cls-1" transform="translate(610.71 111.3)">Not in an <tspan x="-10.68" y="9.6">annotated gene</tspan></text><line class="cls-37" x1="601.04" y1="99.03" x2="653.52" y2="99.03"/><rect class="cls-38" x="602.18" y="90.67" width="17.41" height="8.36"/><line class="cls-12" x1="638.62" y1="92.29" x2="642.66" y2="92.29"/><line class="cls-12" x1="645.92" y1="93.94" x2="649.97" y2="93.94"/><line class="cls-12" x1="640.64" y1="93.94" x2="644.68" y2="93.94"/><line class="cls-12" x1="635.13" y1="93.94" x2="639.18" y2="93.94"/><line class="cls-12" x1="643.34" y1="95.76" x2="647.39" y2="95.76"/><line class="cls-12" x1="638.25" y1="95.76" x2="642.29" y2="95.76"/><line class="cls-12" x1="632.99" y1="95.76" x2="637.04" y2="95.76"/><rect class="cls-33" x="595.02" y="20.25" width="60" height="40" rx="5"/><text class="cls-1" transform="translate(595.45 47.47)">Not in reference <tspan x="15.12" y="9.6">genome</tspan></text><line class="cls-37" x1="601.92" y1="32.47" x2="628.16" y2="32.47"/><line class="cls-12" x1="638.45" y1="23.87" x2="642.49" y2="23.87"/><line class="cls-12" x1="636.43" y1="27.98" x2="640.47" y2="27.98"/><line class="cls-12" x1="643.03" y1="26.84" x2="647.07" y2="26.84"/><line class="cls-12" x1="635.23" y1="30.74" x2="639.28" y2="30.74"/><line class="cls-12" x1="642.63" y1="30.74" x2="646.67" y2="30.74"/><line class="cls-12" x1="642.63" y1="33.56" x2="646.67" y2="33.56"/><line class="cls-12" x1="636.78" y1="34.99" x2="640.83" y2="34.99"/><line class="cls-37" x1="544.04" y1="75.65" x2="596.52" y2="75.65"/><line class="cls-12" x1="567.42" y1="69.57" x2="571.46" y2="69.57"/><line class="cls-12" x1="574.73" y1="71.22" x2="578.77" y2="71.22"/><line class="cls-12" x1="569.44" y1="71.22" x2="573.48" y2="71.22"/><line class="cls-12" x1="563.93" y1="71.22" x2="567.98" y2="71.22"/><line class="cls-12" x1="572.15" y1="73.04" x2="576.19" y2="73.04"/><line class="cls-12" x1="567.05" y1="73.04" x2="571.1" y2="73.04"/><line class="cls-12" x1="561.79" y1="73.04" x2="565.84" y2="73.04"/><line class="cls-37" x1="544.04" y1="75.65" x2="596.52" y2="75.65"/><line class="cls-12" x1="567.42" y1="69.57" x2="571.46" y2="69.57"/><line class="cls-12" x1="574.73" y1="71.22" x2="578.77" y2="71.22"/><line class="cls-12" x1="569.44" y1="71.22" x2="573.48" y2="71.22"/><line class="cls-12" x1="563.93" y1="71.22" x2="567.98" y2="71.22"/><line class="cls-12" x1="572.15" y1="73.04" x2="576.19" y2="73.04"/><line class="cls-12" x1="567.05" y1="73.04" x2="571.1" y2="73.04"/><line class="cls-12" x1="561.79" y1="73.04" x2="565.84" y2="73.04"/><line class="cls-12" x1="567.42" y1="122.14" x2="571.46" y2="122.14"/><line class="cls-12" x1="574.73" y1="123.79" x2="578.77" y2="123.79"/><line class="cls-12" x1="569.44" y1="123.79" x2="573.48" y2="123.79"/><line class="cls-12" x1="563.93" y1="123.79" x2="567.98" y2="123.79"/><line class="cls-12" x1="572.15" y1="125.62" x2="576.19" y2="125.62"/><line class="cls-12" x1="567.05" y1="125.62" x2="571.1" y2="125.62"/><line class="cls-12" x1="561.79" y1="125.62" x2="565.84" y2="125.62"/><polyline class="cls-17" points="580.06 100.73 568.08 100.73 568.08 112.7"/><path d="M579.16,100.73l-1.1,1.8.06,0,2.94-1.17,3.07-.67-3.07-.68-2.94-1.17-.06,0Z"/><path d="M568.08,111.81l1.8-1.1,0,.06-1.17,2.94c-.22,1-.45,2.05-.67,3.07-.23-1-.45-2-.68-3.07l-1.16-2.94,0-.06Z"/></svg>