<svg id="Layer_1" data-name="Layer 1" xmlns="http://www.w3.org/2000/svg" viewBox="0 0 555.22 331.02"><defs><style>.cls-1,.cls-10,.cls-11,.cls-12,.cls-13,.cls-15,.cls-18,.cls-2,.cls-24,.cls-3,.cls-30,.cls-7,.cls-8,.cls-9{fill:none;}.cls-1,.cls-18,.cls-2,.cls-3,.cls-30{stroke:#231f20;}.cls-1,.cls-10,.cls-11,.cls-13,.cls-15,.cls-18,.cls-2,.cls-24,.cls-3,.cls-30,.cls-31,.cls-8{stroke-miterlimit:10;}.cls-1,.cls-15,.cls-18,.cls-2,.cls-3{stroke-width:0.5px;}.cls-2{stroke-dasharray:1.99 1.99;}.cls-3{stroke-dasharray:1.99 1.99;}.cls-4{font-size:10px;}.cls-16,.cls-17,.cls-19,.cls-20,.cls-25,.cls-27,.cls-31,.cls-32,.cls-4{fill:#231f20;}.cls-20,.cls-25,.cls-26,.cls-32,.cls-4,.cls-6{font-family:ArialMT, Arial;}.cls-5{font-family:Arial-ItalicMT, Arial;font-style:italic;}.cls-6{font-style:normal;}.cls-12,.cls-7{stroke:#662d91;}.cls-11,.cls-12,.cls-13,.cls-7,.cls-9{stroke-linecap:round;}.cls-12,.cls-7,.cls-9{stroke-linejoin:round;}.cls-8{stroke:#000;}.cls-24,.cls-30,.cls-8{stroke-width:0.25px;}.cls-9{stroke:#89bb85;}.cls-10,.cls-11{stroke:#00addc;}.cls-11,.cls-13{stroke-width:2px;}.cls-12{stroke-width:0.75px;}.cls-13{stroke:#29aae2;}.cls-14{fill:#662f90;}.cls-15,.cls-31{stroke:#fff;}.cls-17,.cls-32{font-size:12px;}.cls-17{font-family:Arial-BoldMT, Arial;font-weight:700;}.cls-18{stroke-dasharray:2.02 2.02;}.cls-19,.cls-20,.cls-22,.cls-26{font-size:8px;}.cls-19,.cls-22,.cls-23{font-family:FantasqueSansMonoNerdFontComplete-Regular, FantasqueSansMono Nerd Font;}.cls-21{fill:gray;}.cls-22,.cls-23{fill:#fff;}.cls-23,.cls-25,.cls-27{font-size:6px;}.cls-24{stroke:#191919;}.cls-26{fill:#666766;}.cls-27{font-family:Courier;}.cls-28{letter-spacing:-0.11em;}.cls-29{letter-spacing:-0.06em;}.cls-31{font-size:17px;stroke-width:0.1px;font-family:Symbol;}</style></defs><title>figure1</title><polyline class="cls-1" points="360.07 132.93 360.07 133.93 359.07 133.93"/><line class="cls-2" x1="357.08" y1="133.93" x2="3.65" y2="133.93"/><polyline class="cls-1" points="2.66 133.93 1.66 133.93 1.66 132.93"/><line class="cls-3" x1="1.66" y1="130.94" x2="1.66" y2="20.71"/><polyline class="cls-1" points="1.66 19.71 1.66 18.71 2.66 18.71"/><line class="cls-2" x1="4.65" y1="18.71" x2="358.08" y2="18.71"/><polyline class="cls-1" points="359.07 18.71 360.07 18.71 360.07 19.71"/><line class="cls-3" x1="360.07" y1="21.7" x2="360.07" y2="131.94"/><text class="cls-4" transform="translate(4 75.33)">RNA-seq <tspan x="0" y="12">reads</tspan></text><text class="cls-4" transform="translate(52.54 75.33)">Translated <tspan x="0" y="12">protein </tspan><tspan x="0" y="24">sequence</tspan></text><text class="cls-4" transform="translate(175.21 75.33)">Random <tspan x="0" y="12">amino acid </tspan><tspan class="cls-5"><tspan x="0" y="24">k</tspan><tspan class="cls-6" x="5" y="24">-mers</tspan></tspan></text><line class="cls-7" x1="67.05" y1="61.75" x2="86.39" y2="61.75"/><line class="cls-7" x1="67.05" y1="52.98" x2="86.39" y2="52.98"/><line class="cls-7" x1="67.05" y1="47.12" x2="86.39" y2="47.12"/><line class="cls-7" x1="67.05" y1="44.2" x2="86.39" y2="44.2"/><line class="cls-7" x1="67.05" y1="41.27" x2="86.39" y2="41.27"/><line class="cls-7" x1="67.05" y1="38.35" x2="86.39" y2="38.35"/><line class="cls-7" x1="67.05" y1="35.42" x2="86.39" y2="35.42"/><line class="cls-7" x1="67.05" y1="55.9" x2="86.39" y2="55.9"/><line class="cls-7" x1="67.05" y1="58.83" x2="86.39" y2="58.83"/><line class="cls-7" x1="67.05" y1="50.05" x2="86.39" y2="50.05"/><line class="cls-8" x1="191.12" y1="61.75" x2="210.45" y2="61.75"/><line class="cls-8" x1="191.12" y1="52.98" x2="210.45" y2="52.98"/><line class="cls-8" x1="191.12" y1="47.12" x2="210.45" y2="47.12"/><line class="cls-8" x1="191.12" y1="44.2" x2="210.45" y2="44.2"/><line class="cls-8" x1="191.12" y1="41.27" x2="210.45" y2="41.27"/><line class="cls-8" x1="191.12" y1="38.35" x2="210.45" y2="38.35"/><line class="cls-8" x1="191.12" y1="35.42" x2="210.45" y2="35.42"/><line class="cls-8" x1="191.12" y1="55.9" x2="210.45" y2="55.9"/><line class="cls-8" x1="191.12" y1="58.83" x2="210.45" y2="58.83"/><line class="cls-8" x1="191.12" y1="50.05" x2="210.45" y2="50.05"/><line class="cls-9" x1="194.12" y1="61.75" x2="200.12" y2="61.75"/><line class="cls-9" x1="191.12" y1="52.98" x2="197.12" y2="52.98"/><line class="cls-9" x1="201.12" y1="47.12" x2="207.12" y2="47.12"/><line class="cls-9" x1="194.12" y1="44.2" x2="200.12" y2="44.2"/><line class="cls-9" x1="197.12" y1="41.27" x2="203.12" y2="41.27"/><line class="cls-9" x1="193.12" y1="38.35" x2="199.12" y2="38.35"/><line class="cls-9" x1="203.12" y1="35.42" x2="209.12" y2="35.42"/><line class="cls-9" x1="197.12" y1="55.9" x2="203.12" y2="55.9"/><line class="cls-9" x1="202.12" y1="58.83" x2="208.12" y2="58.83"/><line class="cls-9" x1="204.12" y1="50.05" x2="210.12" y2="50.05"/><line class="cls-9" x1="200.75" y1="52.98" x2="206.75" y2="52.98"/><line class="cls-9" x1="194.63" y1="50.05" x2="200.63" y2="50.05"/><text class="cls-4" transform="translate(311.38 75.33)">Cluster on <tspan class="cls-5"><tspan x="0" y="12">k</tspan><tspan class="cls-6" x="5" y="12">-mer </tspan></tspan><tspan x="0" y="24">similarity</tspan></text><path d="M328.17,40.44a.88.88,0,1,1-.88-.87.87.87,0,0,1,.88.87"/><path d="M332,41.32a.88.88,0,1,1-.87-.88.87.87,0,0,1,.87.88"/><path d="M332,38.69a.88.88,0,1,1-.87-.88.88.88,0,0,1,.87.88"/><path d="M330.08,43.08a.88.88,0,1,1-.88-.88.88.88,0,0,1,.88.88"/><path d="M327.44,42.21a.88.88,0,1,1-.88-.88.88.88,0,0,1,.88.88"/><path d="M330.08,40.44a.88.88,0,1,1-.88-.87.88.88,0,0,1,.88.87"/><path d="M329.05,37.81a.88.88,0,1,1-.88-.88.88.88,0,0,1,.88.88"/><path d="M326.56,39.57a.88.88,0,1,1-.87-.88.87.87,0,0,1,.87.88"/><path d="M342.78,41a.88.88,0,0,1,0-1.24.89.89,0,0,1,1.25,0A.88.88,0,1,1,342.78,41"/><path d="M339.47,43a.88.88,0,0,1,1.24-1.25.89.89,0,0,1,0,1.25.88.88,0,0,1-1.24,0"/><path d="M341.33,44.9a.88.88,0,0,1,1.24-1.24.86.86,0,0,1,0,1.24.88.88,0,0,1-1.24,0"/><path d="M339.57,40.45a.89.89,0,0,1,0-1.25.88.88,0,1,1,0,1.25"/><path d="M342.05,39.2a.88.88,0,1,1,1.25,0,.89.89,0,0,1-1.25,0"/><path d="M341.44,42.31a.88.88,0,1,1,1.24-1.24.88.88,0,0,1-1.24,1.24"/><path d="M343,43.45a.88.88,0,0,1,1.24-1.25.89.89,0,0,1,0,1.25.88.88,0,0,1-1.24,0"/><path d="M344.54,40.45a.89.89,0,0,1,0-1.25.88.88,0,1,1,0,1.25"/><path d="M334.25,48.32a.88.88,0,1,1,.88.88.87.87,0,0,1-.88-.88"/><path d="M330.43,47.45a.88.88,0,1,1,.88.87.88.88,0,0,1-.88-.87"/><path d="M330.43,50.08a.88.88,0,1,1,1.76,0,.88.88,0,0,1-1.76,0"/><path d="M332.34,45.69a.88.88,0,1,1,.88.88.88.88,0,0,1-.88-.88"/><path d="M335,46.56a.88.88,0,1,1,.88.88.88.88,0,0,1-.88-.88"/><path d="M332.34,48.32a.88.88,0,1,1,.88.88.88.88,0,0,1-.88-.88"/><path d="M333.37,51a.88.88,0,1,1,.88.88.88.88,0,0,1-.88-.88"/><path d="M335.86,49.2a.88.88,0,1,1,.87.88.88.88,0,0,1-.87-.88"/><path d="M337,47.45a.88.88,0,1,1,.88.87.87.87,0,0,1-.88-.87"/><path d="M326.72,55.16a.88.88,0,0,1,0-1.24A.88.88,0,1,1,328,55.16a.88.88,0,0,1-1.24,0"/><path d="M323.4,57.23a.88.88,0,0,1,0-1.24.89.89,0,0,1,1.25,0,.88.88,0,1,1-1.25,1.24"/><path d="M325.27,59.1a.88.88,0,0,1,1.24-1.24.88.88,0,1,1-1.24,1.24"/><path d="M323.51,54.64a.88.88,0,1,1,1.24-1.24.88.88,0,0,1-1.24,1.24"/><path d="M325.37,56.51a.88.88,0,1,1,1.25,0,.89.89,0,0,1-1.25,0"/><path d="M328,57.65a.88.88,0,1,1,1.25,0,.89.89,0,0,1-1.25,0"/><path d="M328.48,54.64a.88.88,0,1,1,1.24-1.24.88.88,0,0,1-1.24,1.24"/><path d="M335.38,59.51a.88.88,0,1,1,1.25,0,.89.89,0,0,1-1.25,0"/><path d="M337.25,61.37a.86.86,0,0,1,0-1.24.88.88,0,0,1,1.24,1.24.86.86,0,0,1-1.24,0"/><path d="M335.49,56.92a.88.88,0,0,1,0-1.24.86.86,0,0,1,1.24,0,.88.88,0,0,1-1.24,1.24"/><path d="M338,55.67a.88.88,0,0,1,1.24-1.24A.88.88,0,1,1,338,55.67"/><path d="M337.35,58.78a.88.88,0,0,1,0-1.24.89.89,0,0,1,1.25,0,.88.88,0,0,1-1.25,1.24"/><path d="M339.94,59.92a.88.88,0,0,1,0-1.24.89.89,0,0,1,1.25,0,.88.88,0,0,1,0,1.24.89.89,0,0,1-1.25,0"/><path d="M340.46,56.92a.88.88,0,0,1,0-1.24.86.86,0,0,1,1.24,0,.88.88,0,0,1-1.24,1.24"/><circle class="cls-10" cx="342.1" cy="41.41" r="5.87" transform="translate(223.2 364.84) rotate(-76.72)"/><text class="cls-4" transform="translate(378.1 75.33)">k-mers </text><text class="cls-4" transform="translate(378.1 87.33)">enriched </text><text class="cls-4" transform="translate(378.1 99.33)">in clusters</text><line class="cls-11" x1="393.66" y1="61.77" x2="399.66" y2="61.77"/><line class="cls-11" x1="390.66" y1="52.99" x2="396.66" y2="52.99"/><line class="cls-11" x1="402.66" y1="35.44" x2="408.66" y2="35.44"/><line class="cls-11" x1="403.66" y1="50.07" x2="409.66" y2="50.07"/><line class="cls-12" x1="453.24" y1="61.75" x2="472.58" y2="61.75"/><line class="cls-12" x1="453.24" y1="52.98" x2="472.58" y2="52.98"/><line class="cls-12" x1="453.24" y1="47.12" x2="472.58" y2="47.12"/><line class="cls-12" x1="453.24" y1="44.2" x2="472.58" y2="44.2"/><line class="cls-12" x1="453.24" y1="41.27" x2="472.58" y2="41.27"/><line class="cls-12" x1="453.24" y1="38.35" x2="472.58" y2="38.35"/><line class="cls-12" x1="453.24" y1="35.42" x2="472.58" y2="35.42"/><line class="cls-12" x1="453.24" y1="55.9" x2="472.58" y2="55.9"/><line class="cls-12" x1="453.24" y1="58.83" x2="472.58" y2="58.83"/><line class="cls-12" x1="453.24" y1="50.05" x2="472.58" y2="50.05"/><line class="cls-13" x1="456.24" y1="61.75" x2="462.24" y2="61.75"/><line class="cls-13" x1="453.24" y1="52.98" x2="459.24" y2="52.98"/><line class="cls-13" x1="465.24" y1="35.42" x2="471.24" y2="35.42"/><line class="cls-13" x1="466.24" y1="50.05" x2="472.24" y2="50.05"/><text class="cls-4" transform="translate(429.18 75.33)">Get amino </text><text class="cls-4" transform="translate(429.18 87.33)">acid</text><text class="cls-4" transform="translate(447.52 87.33)"> </text><text class="cls-4" transform="translate(450.5 87.33)">sequence </text><text class="cls-4" transform="translate(429.18 99.33)">from reads </text><text class="cls-4" transform="translate(429.18 111.33)">with enriched </text><text class="cls-4" transform="translate(429.18 123.33)">k-mers</text><text class="cls-4" transform="translate(496.51 75.33)">Query NCBI </text><text class="cls-4" transform="translate(496.51 87.33)">RefSeq NR </text><text class="cls-4" transform="translate(496.51 99.33)">for putative </text><text class="cls-4" transform="translate(496.51 111.33)">orthologous </text><text class="cls-4" transform="translate(496.51 123.33)">genes</text><rect class="cls-14" x="515.28" y="38.1" width="19.16" height="20.98"/><path class="cls-14" d="M534.43,38.1c0,.94-4.29,1.71-9.58,1.71s-9.57-.77-9.57-1.71,4.28-1.71,9.57-1.71,9.58.77,9.58,1.71"/><path class="cls-14" d="M534.43,59.07c0,1-4.29,1.71-9.58,1.71s-9.57-.76-9.57-1.71,4.28-1.7,9.57-1.7,9.58.76,9.58,1.7"/><path class="cls-15" d="M534.43,38.1c0,.94-4.29,1.71-9.58,1.71s-9.57-.77-9.57-1.71,4.28-1.71,9.57-1.71S534.43,37.16,534.43,38.1Z"/><polygon class="cls-16" points="40.7 47.89 46.25 47.89 45.64 46.45 50.7 48.59 45.64 50.73 46.25 49.28 40.7 49.28 40.7 47.89"/><polygon class="cls-16" points="164.77 47.89 170.31 47.89 169.7 46.45 174.77 48.59 169.7 50.73 170.31 49.28 164.77 49.28 164.77 47.89"/><polygon class="cls-16" points="296.8 47.89 302.34 47.89 301.73 46.45 306.8 48.59 301.73 50.73 302.34 49.28 296.8 49.28 296.8 47.89"/><polygon class="cls-16" points="364.31 47.89 369.86 47.89 369.24 46.45 374.31 48.59 369.24 50.73 369.86 49.28 364.31 49.28 364.31 47.89"/><polygon class="cls-16" points="426.9 47.89 432.44 47.89 431.83 46.45 436.9 48.59 431.83 50.73 432.44 49.28 426.9 49.28 426.9 47.89"/><polygon class="cls-16" points="488.93 47.89 494.47 47.89 493.86 46.45 498.93 48.59 493.86 50.73 494.47 49.28 488.93 49.28 488.93 47.89"/><text class="cls-17" transform="translate(7.82 29.33)">A</text><text class="cls-4" transform="translate(113.17 74.13)">Reduced <tspan x="0" y="12">amino acid </tspan><tspan x="0" y="24">alphabet</tspan></text><polygon class="cls-16" points="102.73 47.63 108.28 47.63 107.67 46.19 112.73 48.32 107.67 50.46 108.28 49.02 102.73 49.02 102.73 47.63"/><line class="cls-9" x1="129.13" y1="61.27" x2="148.46" y2="61.27"/><line class="cls-9" x1="129.13" y1="52.5" x2="148.46" y2="52.5"/><line class="cls-9" x1="129.13" y1="46.64" x2="148.46" y2="46.64"/><line class="cls-9" x1="129.13" y1="43.72" x2="148.46" y2="43.72"/><line class="cls-9" x1="129.13" y1="40.79" x2="148.46" y2="40.79"/><line class="cls-9" x1="129.13" y1="37.87" x2="148.46" y2="37.87"/><line class="cls-9" x1="129.13" y1="34.94" x2="148.46" y2="34.94"/><line class="cls-9" x1="129.13" y1="55.42" x2="148.46" y2="55.42"/><line class="cls-9" x1="129.13" y1="58.35" x2="148.46" y2="58.35"/><line class="cls-9" x1="129.13" y1="49.57" x2="148.46" y2="49.57"/><polyline class="cls-1" points="553.19 132.98 553.19 133.98 552.19 133.98"/><line class="cls-18" x1="550.17" y1="133.98" x2="425.89" y2="133.98"/><polyline class="cls-1" points="424.88 133.98 423.88 133.98 423.88 132.98"/><line class="cls-3" x1="423.88" y1="130.99" x2="423.88" y2="20.75"/><polyline class="cls-1" points="423.88 19.76 423.88 18.76 424.88 18.76"/><line class="cls-18" x1="426.9" y1="18.76" x2="551.18" y2="18.76"/><polyline class="cls-1" points="552.19 18.76 553.19 18.76 553.19 19.76"/><line class="cls-3" x1="553.19" y1="21.75" x2="553.19" y2="131.98"/><text class="cls-19" transform="translate(291.88 26.51)">nf-core/kmermaid</text><text class="cls-19" transform="translate(425.61 26.51)">czbiohub/nf-predictorthologs</text><text class="cls-20" transform="translate(374.94 128.94)">Manual</text><rect class="cls-21" x="11.33" y="33.37" width="21.3" height="9" rx="4.02"/><text class="cls-22" transform="translate(12.38 40.06)">.bam</text><text class="cls-22" transform="translate(12.38 40.06)">.bam</text><rect class="cls-21" x="11.33" y="48.48" width="21.3" height="9" rx="4.02"/><text class="cls-23" transform="translate(12.66 54.81)">.fq.gz</text><polygon class="cls-16" points="219.64 47.63 225.19 47.63 224.57 46.19 229.64 48.32 224.57 50.46 225.19 49.02 219.64 49.02 219.64 47.63"/><text class="cls-4" transform="translate(244.09 75.33)">Build k-mer <tspan x="0" y="12">tree, nearest </tspan><tspan x="0" y="24">neighbor </tspan><tspan x="0" y="36">graph, for </tspan><tspan x="0" y="48">UMAP</tspan></text><polyline class="cls-24" points="263.09 30.6 256.2 23.71 249.06 30.86"/><polyline class="cls-24" points="271.52 38.78 264.63 31.89 257.49 39.04"/><polyline class="cls-24" points="255.47 39.09 248.59 32.21 241.44 39.35"/><text class="cls-25" transform="translate(234.66 45.63)">Cell1</text><text class="cls-25" transform="translate(249.06 45.62)">Cell2</text><text class="cls-25" transform="translate(263.09 46.19)">Cell3</text><text class="cls-25" transform="translate(278.29 45.62)">Cell4</text><text class="cls-25" transform="translate(31.8 124.65)">Lorem ipsum</text><text class="cls-26" transform="translate(11.33 175.72) rotate(-90)">Species1</text><text class="cls-26" transform="translate(11.33 223.07) rotate(-90)">Species2</text><text class="cls-26" transform="translate(11.33 270.43) rotate(-90)">Species3</text><text class="cls-26" transform="translate(11.33 317.78) rotate(-90)">Species4</text><text class="cls-20" transform="translate(52.54 326.66)">... many samples from each species ...</text><text class="cls-27" transform="translate(41.4 195.76)">CTGACA...AGGCTG<tspan x="0" y="7.2">GTAACA...AAGCTG</tspan><tspan x="0" y="14.4">TGGATT...TTTGTC</tspan></text><text class="cls-27" transform="translate(108.08 195.76)">QPGAVTGSATVTAFWHSLLGCCQ<tspan x="0" y="7.2">SFAVHTHRENPAQPGAVTGSATV</tspan></text><text class="cls-25" transform="translate(199.54 195.76)">not in genome, BLAS<tspan class="cls-28" x="56.7" y="0">T</tspan><tspan x="59.7" y="0">s to L-aspartate dehydrogenase</tspan><tspan x="0" y="7.2">in genome,</tspan><tspan class="cls-29" x="29.69" y="7.2"> </tspan><tspan x="31.02" y="7.2">ASPDH</tspan><tspan x="0" y="14.4">Negative strand: Human Corf66</tspan><tspan x="0" y="21.6">Positive strand: Human MACROH2A1</tspan></text><text class="cls-20" transform="translate(20.66 223.07) rotate(-90)">Macaque</text><text class="cls-27" transform="translate(108.08 210.49)">DFSFLSSARAKQFFTVFSRSSSHL<tspan x="0" y="7.2">DKCEELLEKTVKNCLALADDRKLKS</tspan></text><line class="cls-30" x1="95.09" y1="189.1" x2="104.72" y2="189.1"/><line class="cls-30" x1="96.99" y1="201.41" x2="106.62" y2="201.41"/><line class="cls-30" x1="97.55" y1="208.1" x2="107.18" y2="208.1"/><line class="cls-30" x1="97.55" y1="210.74" x2="107.18" y2="216.3"/><text class="cls-20" transform="translate(21.98 172.16) rotate(-90)">Human</text><text class="cls-20" transform="translate(20.8 317.78) rotate(-90)">Chicken</text><text class="cls-20" transform="translate(20.8 272.23) rotate(-90)">Opossum</text><text class="cls-20" transform="translate(32.25 213.66) rotate(-90)">Sample1</text><text class="cls-31" transform="translate(33.16 205.86)">{</text><text class="cls-20" transform="translate(34.54 222.03)">... more samples ...</text><text class="cls-20" transform="translate(32.63 172.16)">... more samples ...</text><text class="cls-20" transform="translate(29.69 170.28) rotate(-90)">Sample1</text><text class="cls-31" transform="translate(30.6 162.48)">{</text><text class="cls-27" transform="translate(116.36 239.2)">RRCRKFPPEGRPTDPGSEGXXXAEV</text><text class="cls-32" transform="translate(4 12.33)">Figure 1</text></svg>